<svg id="_2" data-name="2" xmlns="http://www.w3.org/2000/svg" viewBox="0 0 512 512"><defs><style>.cls-1{fill:#fff;}</style></defs><title>icon_tel</title><path class="cls-1" d="M478,400.32c-19.36-18.42-81.44-56-97.11-61.13s-36.34,8.67-43.34,27.38-16.85,16-16.85,16-37.24-17.47-101.5-93.73-75.17-115.92-75.17-115.92-1-10.16,18.66-13.9,36.69-21.77,34.32-38.07-28.9-83.88-43.78-106.06S105.15.61,97.59,5.15,10.84,50.84,25.75,140.64s57.26,164.29,105.9,222,114.88,112.09,200.86,142,140-41.14,145.7-47.83S497.36,418.76,478,400.32Z"/></svg>