<svg xmlns="http://www.w3.org/2000/svg" viewBox="0 0 112 140"><defs><style>.cls-1{fill:#fff;}</style></defs><title>icon_vils</title><g id="レイヤー_2" data-name="レイヤー 2"><path class="cls-1" d="M41,1.11h.81L41.43,3l-.11.19v.39l-.12.19-.11.77c-.08.32-.14.54-.18.67a1.63,1.63,0,0,1-.17.38V6l-.35,1-.12.87a1.85,1.85,0,0,0-.23,1,6.38,6.38,0,0,0-.35,1.25l-.11.48L39,12.95a5.08,5.08,0,0,1-.23.87L38.58,15l-.11.55-.35,1.06v.29l-.23.58v.39l-.23.58-.12.58-.11.38L37.07,21a10.77,10.77,0,0,1-.58,2.21l-.11.58-.23,1L35.8,26l-.35,1.44c-.23,1-.38,1.72-.46,2.28l-.11.48a7.86,7.86,0,0,1-.46,1.54l-.11.77-.12.39-.08.48-.23.74c-.23,1-.38,1.73-.46,2.31a2.05,2.05,0,0,0-.23.87A1.37,1.37,0,0,0,33,38a5.49,5.49,0,0,0-.23,1.25l-.23.77-.11.67-.81,3-.34,1.54-.12.77-.81,3.15-.11.67a1.48,1.48,0,0,0-.23.67,11,11,0,0,1-.58,2.28,2.91,2.91,0,0,1-.23,1.06V54a5.94,5.94,0,0,0-.35,1.35.35.35,0,0,1-.31-.19l-.69-1.06-.11-.29-.46-.68-.11-.29L26.52,52a1,1,0,0,1-.23-.38,1,1,0,0,1-.23-.36l-1.27-2.12A7.77,7.77,0,0,1,24,48L21.7,44.3,21.58,44l-.46-.67L21,43l-1.27-1.89-.35-.58-1.16-1.93-.34-.58-.31-.54-.35-.58-.35-.58-.35-.58-.35-.58-1.62-2.47-.23-.48a9,9,0,0,0-.58-.87l-1-1.73-.23-.29a12.46,12.46,0,0,1-.89-1.6,1,1,0,0,1-.23-.39L10.1,25.46l-.34-.67a4.56,4.56,0,0,1-.69-1.13l-.58-.77-.35-.68L5.28,17.63a4.06,4.06,0,0,0-.46-.77l-.12-.29-.46-.67A1,1,0,0,1,4,15.51L2.62,13.33l-.35-.58a3.27,3.27,0,0,1-.58-1l-.65-1A10.2,10.2,0,0,1,0,8.65l2.85-.39h.46a.78.78,0,0,1,.46-.1l2-.29.69-.1L8,7.59l.34-.1h.58l2.54-.38L12.3,7l.94-.14q.41,0,.87-.14A4.19,4.19,0,0,1,14.69,8l1,2.6a4.09,4.09,0,0,1,.58,1.31l1.16,2.6a13.06,13.06,0,0,0,.77,1.89l.35,1.06a4.16,4.16,0,0,1,.58,1.25,11.22,11.22,0,0,1,.81,2l3.66,8.6a11.6,11.6,0,0,0,.93,2.21l.23.77.35.67.58,1.31V31.4A6.93,6.93,0,0,0,25.82,30V27.19a9.21,9.21,0,0,0,.12-1.54c0-1.33,0-2.47.11-3.44v-3l.12-.29V15.06a15.29,15.29,0,0,0,.12-3.66,6.46,6.46,0,0,0,.11-1.31V7.88l.12-.77V3.87a12.09,12.09,0,0,0,1.85-.38l1.23-.19A12.38,12.38,0,0,0,30.87,3l1.62-.29a15,15,0,0,0,1.93-.38h.35l.69-.19L36,2l.58-.1.69-.1a18.26,18.26,0,0,1,2.27-.45Z"/><path class="cls-1" d="M40,11.31,52.88,9.23a8.39,8.39,0,0,1-.11,2.62l.05.34-.08.54,0,.37-.05,1.4a10.28,10.28,0,0,0-.08,1.59l-.05.26-.19,3.19c0,.4,0,.7,0,.91a2.87,2.87,0,0,0,0,.57,4.91,4.91,0,0,0-.08,1.6l-.08.17-.32,6.64,0,.43-.13,1.94-.08,1a3.42,3.42,0,0,0,0,.6l-.08.54v.51l0,1,0,.46-.05.17,0,1-.11,1a2.93,2.93,0,0,1-.08,1.17l0,.6-.11,1A14.2,14.2,0,0,1,51,43l0,.34,0,1-.13.88v.46a7.32,7.32,0,0,1-.05,1.31l-.19,2.65,0,.71a12.74,12.74,0,0,0-.11,1.48l-.08.63,0,.71-.16,2.2v.63a1.65,1.65,0,0,1-1.55,0l-2.19-.43a1.6,1.6,0,0,0-.38-.12l-.62-.14-.76-5,0-.43-.22-1.28a16.61,16.61,0,0,1-.16-1.74l-.35-2.14,0-.51-.38-2.31a2.14,2.14,0,0,0,0-.68l-.3-1.88a1.94,1.94,0,0,0,0-.71l-.19-1.25q-.11-.68-.19-1.74l-.13-.86a3.06,3.06,0,0,1-.11-1.2l-.35-2.31-.11-1.28A9,9,0,0,1,42.1,28l-.38-2.45.05-.28-.41-2.57.05-.17-.32-2.22,0-.6-.35-2.39,0-.29-.38-2.48.05-.25L40.07,12Z"/><path class="cls-1" d="M56,3.05l2.38-.58L59,2.41l.79-.23.36,0,1.17-.29.41,0a2.57,2.57,0,0,1,1.12-.16l2.49-.52.49,0A3.35,3.35,0,0,1,67.12,1L69.69.42l.16.06,1-.25L72.1,0a8.17,8.17,0,0,1-.27,2.7l0,.22-.14,1.19a6.43,6.43,0,0,1-.16.84l-.22,1.6a2.32,2.32,0,0,1-.05.58l-.79,5.65-.11.32-.06.71-.11.71-.14.61-.52,4-.11.32,0,.71-.11.42V21l-.85,5.46-.11.71a5.1,5.1,0,0,1-.14,1.13l-.08.42-.05.67-.11.71-.49,3.63-.13.74-.49,3.63-.11.32-.06.67-.08.42v.39a2.31,2.31,0,0,0-.17,1l-.11.32-.05.48,0,.42-.27,1.61a5.53,5.53,0,0,1-.14,1.12l0,.38-.16.84a6.72,6.72,0,0,0,2.3-1,7.59,7.59,0,0,1,.79-.29l.9-.42a2.59,2.59,0,0,1,.55-.22l1.69-.71a2.53,2.53,0,0,1,1-.45l.47-.23,1.31-.61.44-.22.46-.19L77,41l.22,2.09A14.83,14.83,0,0,1,77.43,45l.11.64-.05.23.44,3.69-2.3.68-.14.13-3.22.9-.3.16-1.45.35-.3.19L69,52.28l-.3.16-1.12.29L67.1,53l-4.43,1.32-.52.23-3.42.83L56.05,3.82Z"/><path class="cls-1" d="M82.31,14.65,87,13.14q7.09-1.84,11.33,2.27l.17.55a7.88,7.88,0,0,1-.55.91l-.24.46a4.36,4.36,0,0,0-.4.69,3.31,3.31,0,0,0-.53.79l-.86,1.46q-.45.76-.89,1.36l-.09.19-1.32-.19h-.24a6,6,0,0,0-1.05-.12,2.92,2.92,0,0,0-.67-.1,3.85,3.85,0,0,0-.94,0l-.26-.07-.31,0-2.3.12-.53.09a6.21,6.21,0,0,0-3.35,3.21q-.77,4.65,7.38,7.47a6.53,6.53,0,0,0,1,.53l.29.14.17,0,1,.53.26.07.55.29q10.78,5.92,5.37,16.53a12.65,12.65,0,0,1-7.43,5.32Q85.78,58,77.86,54.5a1.14,1.14,0,0,1-.48-.48l.29-1.27.1-.41,0-.24.21-.79V51.1l.31-1.22v-.22a2.58,2.58,0,0,0,.22-1L79,46.69q8.91,6.9,16.07-1.46a4.92,4.92,0,0,0,.58-1.6l0-.17a4.25,4.25,0,0,0-2.11-2.9,14.8,14.8,0,0,0-2-.93l-1.05-.36L90,39.1q-10.42-.91-14.23-11A8.74,8.74,0,0,1,75.25,26l-.1-.29Q75.3,18.4,82.31,14.65Z"/><path class="cls-1" d="M21.11,55h6.11a5.22,5.22,0,0,1,1.51.08,8,8,0,0,1,1.7.15l.46.08h.31l.28.08,1.08.13.31.08L34.3,56l.46.08,2.75,1a3,3,0,0,0,.54.31l1.39.69.44.28.15.16.46.31.15.08,2,1.85,1,1.44.23.31.77,1.82Q48.73,78,37.82,87.95L35.61,89.7l-.15.15-.54.31-.31.23-2.13,1.28a1.73,1.73,0,0,1-.69.38,1.77,1.77,0,0,1-.67.39l-.23.15-.77.38-.23.08q-.39.23-1.51.74l-.62.23-.85.39a7.31,7.31,0,0,0-1.59.62,2.73,2.73,0,0,1-.77.23l-1.9.69-.54.15-.54.16-.31.08L21,96.4a5.45,5.45,0,0,1-1.05.31l-.31.08-1.39.31a1.58,1.58,0,0,1-1,0L17,95.42l-.16-.54-.08-.46v-.23l-.31-1.59-.08-.46-.08-.54-.08-.46a4.38,4.38,0,0,1-.19-.67,3.3,3.3,0,0,1,0-.54l1.23-.08.59-.08,2.23-.15.23-.08-.08-2.44-.08-.31V85.13l-.08-.38V83.59a1.76,1.76,0,0,0-.08-.9v-2a.45.45,0,0,1-.08-.31l-.08-3.88-.08-.31V75l-.08-.59-.08-3.59-.08-.61V68.42l-.08-.61V66.29l-.08-.23V64.36a2.86,2.86,0,0,0-1.16-.08,3.42,3.42,0,0,0-1.28-.08l-.23-.08h-1l-.82-.08Q14,64,13.48,64a6.27,6.27,0,0,0-.77-.08h-.82l-.54-.08-.15-2.44c-.05-.44-.1-.82-.15-1.13v-.85c-.05-.51-.1-.92-.15-1.23v-.75l-.08-1,.92-.15.44-.08.23-.08,1.31-.23a2.61,2.61,0,0,0,.77-.15,1.13,1.13,0,0,0,.51-.08h.31l1.7-.23.46-.05L18,55.3l2.67-.23ZM37,71.24q-2.67-7.5-10.52-7.62A.5.5,0,0,0,26,64V87.56a2.86,2.86,0,0,0,.92-.15l.39-.08.85-.23Q38.66,83.28,37,71.24Z"/><path class="cls-1" d="M69,52.58h.17l.77,2,.08.29,2.47,6.64a1.17,1.17,0,0,1,.18.46l.7,1.71v.56l-1,1.25a1.33,1.33,0,0,0-.45.46L70.67,67.4l-.27.32-.25.29A10.27,10.27,0,0,0,69,69.43l-.85,1a5.61,5.61,0,0,1-.67.78l-1.37,1.73a3.2,3.2,0,0,0-.25.29l-3.25,4.05a10.19,10.19,0,0,1,.77.88l.67.68.07.17a4.47,4.47,0,0,1,.7.78A6.27,6.27,0,0,1,65.88,81l.42.46.35.32a6.9,6.9,0,0,1,.5.61,5.53,5.53,0,0,1,.7.78l.32.32.87,1,.75.86.43.46.18.15a9.69,9.69,0,0,1,1,1.17c.23.26.43.47.6.64a7.12,7.12,0,0,1-1.1,1.56l-.17.14-.25.39a3.31,3.31,0,0,0-.42.46l-1.62,2L68,93l-.28.29-.32.24a7.43,7.43,0,0,1-.77-1.1l-.43-.54-.42-.63a7,7,0,0,0-.6-.85L65,90.08,63.9,88.52l-.08-.15-2.47-3.52-.17-.14-.42-.64-.95-1.32-.25-.46-.43-.54a5.49,5.49,0,0,0-.08,2.17V85a1.9,1.9,0,0,1,.08.61l.08,3.05a5.42,5.42,0,0,1,.1,1.1l.08,1.71a2.16,2.16,0,0,0,.1,1l.08,3.2-1.8,1-.18.15-2,1.1-.43.32-.25.07-1.28.78h-.42l-.27-1.73-.15-.54-.1-.46-.08-.46a13.84,13.84,0,0,0-.25-1.49A5.73,5.73,0,0,0,52,93.13L52,92.5l-.1-.61a12.56,12.56,0,0,1-.33-1.81l-.1-.46-.25-1.17a2.44,2.44,0,0,0-.18-.85L50.94,87q-.1-.63-.14-.9c0-.18-.06-.37-.11-.59l-.18-.63a3.85,3.85,0,0,1-.1-.78l-.07-.54-.1-.24a2.75,2.75,0,0,0-.15-.85v-.29a7.74,7.74,0,0,1-.27-1.42l-.08-.24-.42-2.42a6.1,6.1,0,0,1-.25-1.32c-.07-.36-.11-.63-.14-.82a3.22,3.22,0,0,0-.14-.57l-.5-2.59v-.32a.35.35,0,0,1-.1-.29l-.25-1.34-.25-1.17a3.91,3.91,0,0,1-.1-.78l-.08-.54-.08-.46c-.06-.31-.13-.56-.19-.74a2.27,2.27,0,0,1-.09-.67,2.59,2.59,0,0,1-.15-.78l-.1-.29-.08-.56-.1-.46-.07-.54a3.93,3.93,0,0,1-.18-1,6.4,6.4,0,0,1-.25-1.39l-.1-.24L46,60.15l-.1-.24-.25-1.71-.17-.56v-.86a7.81,7.81,0,0,1,1.27-.22l1.45-.24a11.9,11.9,0,0,0,1.34-.19,11.5,11.5,0,0,1,1.41-.2L54,55.46l.6-.15a1.37,1.37,0,0,0,.6-.1,3.24,3.24,0,0,0,.92-.15l1-.07.6-.07.08,2.32a5.64,5.64,0,0,1,.1,1.1L58,62.78a7.93,7.93,0,0,1,.08,2l.08.32.1,3.34a5.06,5.06,0,0,1,.08,1l.1.39,2.37-4a1.75,1.75,0,0,0,.23-.28,2.48,2.48,0,0,0,.22-.43l.58-1,.45-.68,1.45-2.27.25-.46,1.28-2.1.25-.39,1.3-2a1.71,1.71,0,0,0,.17-.32l.5-.78a2.84,2.84,0,0,0,.42-.78l1-1.42Z"/><path class="cls-1" d="M86.2,55.79l1.72-.24a11,11,0,0,1,5,.2.77.77,0,0,1,.37.63,9.3,9.3,0,0,0-.51,1.74l-.14.62-.15.54-.53,2a8.85,8.85,0,0,0-.41,1.42L91,64.73Q80.56,67.34,78.53,77q-.91,7.48,5.11,13.15,4.88,2.86,9-7.36l.6,1.05.18.21L96,88.62l.19.29.12.28.6,1.06.2.21.51,1a16.31,16.31,0,0,1-12.14,7.84Q77,100.33,71.85,92.48l-.27-.39-.9-2a28.59,28.59,0,0,1,.82-17.3,28.55,28.55,0,0,1,11-15.33l2-1,.93-.37A2,2,0,0,0,86.2,55.79Z"/><path class="cls-1" d="M33.61,105.51a1.19,1.19,0,0,0-.54-.08v6c.35,0,.56-.07.64-.21a3,3,0,0,0,.12-1.13v-3.57a4.62,4.62,0,0,0,0-.8A.39.39,0,0,0,33.61,105.51Z"/><path class="cls-1" d="M39.15,109.77H40q-.18-1.56-.36-3.86Q39.25,108.55,39.15,109.77Z"/><path class="cls-1" d="M106.32,108.91v2.57a1,1,0,0,0,.65-.16,1.11,1.11,0,0,0,.14-.7v-.86c0-.4,0-.64-.13-.72A1.14,1.14,0,0,0,106.32,108.91Z"/><path class="cls-1" d="M75.15,105.51a1.19,1.19,0,0,0-.54-.08v6c.34,0,.56-.07.64-.21a3,3,0,0,0,.12-1.13v-3.57a4.65,4.65,0,0,0,0-.8A.39.39,0,0,0,75.15,105.51Z"/><path class="cls-1" d="M106.82,105.48a1.82,1.82,0,0,0-.5-.05v2h.24c.24,0,.39-.06.45-.17a2.92,2.92,0,0,0,.1-1,1.65,1.65,0,0,0-.08-.6A.39.39,0,0,0,106.82,105.48Z"/><path class="cls-1" d="M5,100.44v16.32H111.67V100.44Zm8.21,12.61H9.6l-1.38-9.19h2.52q.44,3.8.63,6.43.18-2.66.39-4.72l.17-1.71h2.52Zm4,0H14.85v-9.19h2.39Zm4.8,0H18.2v-9.19h2.39v7.36H22Zm5.61-.9a1.79,1.79,0,0,1-.89.78,3.53,3.53,0,0,1-1.53.31,3.41,3.41,0,0,1-1.64-.37,1.78,1.78,0,0,1-.89-.93,4.73,4.73,0,0,1-.21-1.59v-.6h2.22v1.12a1.51,1.51,0,0,0,.09.67.37.37,0,0,0,.33.15.39.39,0,0,0,.36-.19,1.09,1.09,0,0,0,.12-.56,1.74,1.74,0,0,0-.22-1.06,7.39,7.39,0,0,0-1.12-.83,11.08,11.08,0,0,1-1.18-.86,2,2,0,0,1-.48-.74,3.27,3.27,0,0,1-.19-1.21,3.36,3.36,0,0,1,.27-1.54,1.84,1.84,0,0,1,.87-.77,3.54,3.54,0,0,1,1.45-.27,3.78,3.78,0,0,1,1.59.3,1.66,1.66,0,0,1,.87.76,4,4,0,0,1,.22,1.55v.36H25.46V106a1.31,1.31,0,0,0-.09-.61.31.31,0,0,0-.28-.13.36.36,0,0,0-.32.18,1,1,0,0,0-.11.53,1.48,1.48,0,0,0,.13.69,1.77,1.77,0,0,0,.68.56,6.86,6.86,0,0,1,2,1.55,3.57,3.57,0,0,1,.42,2A3.42,3.42,0,0,1,27.65,112.15Zm8.57-1.83A7.34,7.34,0,0,1,36.1,112a1.23,1.23,0,0,1-.4.65A1.7,1.7,0,0,1,35,113a6.56,6.56,0,0,1-1.28.09h-3v-9.19h1.79a11.1,11.1,0,0,1,2.34.16,1.8,1.8,0,0,1,.93.52,1.64,1.64,0,0,1,.4.81,11.84,11.84,0,0,1,.08,1.75Zm3.94,2.73L40,111.4h-.86L39,113.05H36.57l1.22-9.19h3.45l1.37,9.19Zm8.19,0H46.26L45,108.87v4.18H43v-9.19h2L46.35,108v-4.14h2Zm6.54-5.19H52.5v-1.6a2.86,2.86,0,0,0-.08-.87.33.33,0,0,0-.34-.17.35.35,0,0,0-.37.21,3.1,3.1,0,0,0-.08.91v4.27a2.89,2.89,0,0,0,.08.87.41.41,0,0,0,.71,0,3.35,3.35,0,0,0,.08-1v-1.16h2.39v.36a7.12,7.12,0,0,1-.2,2,2.09,2.09,0,0,1-.89,1,3.05,3.05,0,0,1-1.7.45,3.5,3.5,0,0,1-1.73-.38,1.86,1.86,0,0,1-.9-1.05,6.94,6.94,0,0,1-.22-2V107.1a12.18,12.18,0,0,1,.07-1.49,2.11,2.11,0,0,1,.41-1,2.28,2.28,0,0,1,.94-.72,3.84,3.84,0,0,1,3.12.14,2,2,0,0,1,.9,1,6.16,6.16,0,0,1,.22,1.9Zm5,5.19H55.75v-9.19h4v1.84h-1.6v1.74h1.49v1.75H58.14v2H59.9Zm6.09,0-1-3.94v3.94H62.63v-9.19H65v3.57l1.07-3.57h2.24L67,108l1.5,5Zm5.27,0H68.87v-9.19h2.39Zm6.5-2.73a7.36,7.36,0,0,1-.12,1.66,1.23,1.23,0,0,1-.4.65,1.7,1.7,0,0,1-.72.33,6.56,6.56,0,0,1-1.28.09h-3v-9.19H74a11.09,11.09,0,0,1,2.34.16,1.8,1.8,0,0,1,.93.52,1.64,1.64,0,0,1,.4.81,11.84,11.84,0,0,1,.08,1.75Zm5.92,1.83a1.79,1.79,0,0,1-.89.78,3.53,3.53,0,0,1-1.53.31,3.41,3.41,0,0,1-1.64-.37,1.78,1.78,0,0,1-.89-.93,4.73,4.73,0,0,1-.21-1.59v-.6h2.22v1.12a1.51,1.51,0,0,0,.09.67.37.37,0,0,0,.34.15.39.39,0,0,0,.36-.19,1.09,1.09,0,0,0,.12-.56,1.73,1.73,0,0,0-.22-1.06A7.38,7.38,0,0,0,80.3,109a11.06,11.06,0,0,1-1.18-.86,2,2,0,0,1-.48-.74,3.27,3.27,0,0,1-.19-1.21,3.36,3.36,0,0,1,.27-1.54,1.84,1.84,0,0,1,.87-.77,3.54,3.54,0,0,1,1.45-.27,3.78,3.78,0,0,1,1.59.3,1.66,1.66,0,0,1,.87.76,4,4,0,0,1,.21,1.55v.36H81.49V106a1.31,1.31,0,0,0-.09-.61.31.31,0,0,0-.28-.13.36.36,0,0,0-.32.18,1,1,0,0,0-.11.53,1.47,1.47,0,0,0,.13.69,1.77,1.77,0,0,0,.68.56,6.87,6.87,0,0,1,2,1.55,3.56,3.56,0,0,1,.42,2A3.43,3.43,0,0,1,83.68,112.15Zm8.61-4.29H89.9v-1.6a2.84,2.84,0,0,0-.08-.87.33.33,0,0,0-.34-.17.35.35,0,0,0-.37.21,3.12,3.12,0,0,0-.08.91v4.27a2.9,2.9,0,0,0,.08.87.41.41,0,0,0,.71,0,3.35,3.35,0,0,0,.08-1v-1.16h2.39v.36a7.12,7.12,0,0,1-.2,2,2.09,2.09,0,0,1-.89,1,3,3,0,0,1-1.7.45,3.49,3.49,0,0,1-1.73-.38,1.86,1.86,0,0,1-.91-1.05,7,7,0,0,1-.22-2V107.1a12.19,12.19,0,0,1,.07-1.49,2.11,2.11,0,0,1,.41-1,2.27,2.27,0,0,1,.94-.72,3.84,3.84,0,0,1,3.12.14,2,2,0,0,1,.9,1,6.15,6.15,0,0,1,.22,1.9Zm4.7,5.19H93.15v-9.19h2.39v7.36H97Zm6-3a10.75,10.75,0,0,1-.07,1.47,2,2,0,0,1-.4.87,2.08,2.08,0,0,1-.88.67,3.32,3.32,0,0,1-1.29.23,3.64,3.64,0,0,1-1.45-.27,2.17,2.17,0,0,1-.94-.71,2,2,0,0,1-.37-.92c0-.32-.06-1-.06-2v-5.44h2.39v6.89a2.65,2.65,0,0,0,.07.77.25.25,0,0,0,.26.17.28.28,0,0,0,.29-.18,3.59,3.59,0,0,0,.06-.87v-6.78H103Zm6.49.89a3.41,3.41,0,0,1-.21,1.38,1.15,1.15,0,0,1-.68.61,7,7,0,0,1-1.91.16h-2.77v-9.19h2.39A6.2,6.2,0,0,1,108,104a1.69,1.69,0,0,1,.94.71,3.2,3.2,0,0,1,.36,1.73,1.86,1.86,0,0,1-.25,1.12,1.76,1.76,0,0,1-1,.49,1.78,1.78,0,0,1,1.12.62,2.39,2.39,0,0,1,.3,1.34Z"/><polygon class="cls-1" points="100.45 65.52 100.98 72.39 106.94 75.84 100.58 78.47 99.13 85.19 94.67 79.96 87.82 80.66 91.43 74.8 88.64 68.51 95.33 70.12 100.45 65.52"/><path class="cls-1" d="M33.48,132.41q0,2.45-.12,3.46A3.88,3.88,0,0,1,31,139a6,6,0,0,1-2.41.45,6.11,6.11,0,0,1-2.34-.43,3.9,3.9,0,0,1-2.42-3.13,34.26,34.26,0,0,1-.12-3.51v-2.78q0-2.45.12-3.46A3.88,3.88,0,0,1,26.19,123a6,6,0,0,1,2.41-.45,6.12,6.12,0,0,1,2.34.43,3.9,3.9,0,0,1,2.42,3.13,34.26,34.26,0,0,1,.12,3.51Zm-4.22-5.33a5,5,0,0,0-.13-1.45.5.5,0,0,0-.52-.32.58.58,0,0,0-.51.26,3.62,3.62,0,0,0-.18,1.51v7.58a7.44,7.44,0,0,0,.12,1.74.5.5,0,0,0,.54.33.52.52,0,0,0,.55-.38,8,8,0,0,0,.12-1.81Z"/><path class="cls-1" d="M46.46,127.82H42.54v-1.2a2.36,2.36,0,0,0-.15-1.07.55.55,0,0,0-.5-.23.64.64,0,0,0-.58.31,1.8,1.8,0,0,0-.2.94,2.67,2.67,0,0,0,.22,1.22,3.19,3.19,0,0,0,1.19,1,12,12,0,0,1,3.55,2.75,6.29,6.29,0,0,1,.73,3.46,6.06,6.06,0,0,1-.41,2.56,3.18,3.18,0,0,1-1.57,1.38,6.2,6.2,0,0,1-2.71.56,6.05,6.05,0,0,1-2.89-.64,3.15,3.15,0,0,1-1.57-1.63,8.37,8.37,0,0,1-.37-2.82v-1.06h3.92v2a2.6,2.6,0,0,0,.17,1.17.64.64,0,0,0,.59.26.69.69,0,0,0,.63-.33,1.89,1.89,0,0,0,.21-1,3,3,0,0,0-.39-1.87,12.47,12.47,0,0,0-2-1.47,19.43,19.43,0,0,1-2.09-1.51,3.54,3.54,0,0,1-.85-1.3,5.73,5.73,0,0,1-.34-2.13,5.89,5.89,0,0,1,.48-2.73,3.21,3.21,0,0,1,1.54-1.35,6.14,6.14,0,0,1,2.57-.49,6.68,6.68,0,0,1,2.8.53,2.93,2.93,0,0,1,1.53,1.34,7.09,7.09,0,0,1,.38,2.74Z"/><path class="cls-1" d="M57.89,122.91l2.41,16.23H56l-.23-2.92H54.26L54,139.14H49.64l2.15-16.23Zm-2.24,10.44q-.32-2.76-.64-6.82-.65,4.66-.81,6.82Z"/><path class="cls-1" d="M73.54,122.91l-2.42,7.33,2.65,8.9H69.41l-1.71-7v7H63.48V122.91H67.7v6.31l1.88-6.31Z"/><path class="cls-1" d="M84.26,122.91l2.41,16.23H82.36l-.23-2.92H80.62l-.25,2.92H76l2.15-16.23ZM82,133.34q-.32-2.76-.64-6.82-.65,4.66-.81,6.82Z"/><path class="cls-1" d="M41,1.11h.81L41.43,3l-.11.19v.39l-.12.19-.11.77c-.08.32-.14.54-.18.67a1.63,1.63,0,0,1-.17.38V6l-.35,1-.12.87a1.85,1.85,0,0,0-.23,1,6.38,6.38,0,0,0-.35,1.25l-.11.48L39,12.95a5.08,5.08,0,0,1-.23.87L38.58,15l-.11.55-.35,1.06v.29l-.23.58v.39l-.23.58-.12.58-.11.38L37.07,21a10.77,10.77,0,0,1-.58,2.21l-.11.58-.23,1L35.8,26l-.35,1.44c-.23,1-.38,1.72-.46,2.28l-.11.48a7.86,7.86,0,0,1-.46,1.54l-.11.77-.12.39-.08.48-.23.74c-.23,1-.38,1.73-.46,2.31a2.05,2.05,0,0,0-.23.87A1.37,1.37,0,0,0,33,38a5.49,5.49,0,0,0-.23,1.25l-.23.77-.11.67-.81,3-.34,1.54-.12.77-.81,3.15-.11.67a1.48,1.48,0,0,0-.23.67,11,11,0,0,1-.58,2.28,2.91,2.91,0,0,1-.23,1.06V54a5.94,5.94,0,0,0-.35,1.35.35.35,0,0,1-.31-.19l-.69-1.06-.11-.29-.46-.68-.11-.29L26.52,52a1,1,0,0,1-.23-.38,1,1,0,0,1-.23-.36l-1.27-2.12A7.77,7.77,0,0,1,24,48L21.7,44.3,21.58,44l-.46-.67L21,43l-1.27-1.89-.35-.58-1.16-1.93-.34-.58-.31-.54-.35-.58-.35-.58-.35-.58-.35-.58-1.62-2.47-.23-.48a9,9,0,0,0-.58-.87l-1-1.73-.23-.29a12.46,12.46,0,0,1-.89-1.6,1,1,0,0,1-.23-.39L10.1,25.46l-.34-.67a4.56,4.56,0,0,1-.69-1.13l-.58-.77-.35-.68L5.28,17.63a4.06,4.06,0,0,0-.46-.77l-.12-.29-.46-.67A1,1,0,0,1,4,15.51L2.62,13.33l-.35-.58a3.27,3.27,0,0,1-.58-1l-.65-1A10.2,10.2,0,0,1,0,8.65l2.85-.39h.46a.78.78,0,0,1,.46-.1l2-.29.69-.1L8,7.59l.34-.1h.58l2.54-.38L12.3,7l.94-.14q.41,0,.87-.14A4.19,4.19,0,0,1,14.69,8l1,2.6a4.09,4.09,0,0,1,.58,1.31l1.16,2.6a13.06,13.06,0,0,0,.77,1.89l.35,1.06a4.16,4.16,0,0,1,.58,1.25,11.22,11.22,0,0,1,.81,2l3.66,8.6a11.6,11.6,0,0,0,.93,2.21l.23.77.35.67.58,1.31V31.4A6.93,6.93,0,0,0,25.82,30V27.19a9.21,9.21,0,0,0,.12-1.54c0-1.33,0-2.47.11-3.44v-3l.12-.29V15.06a15.29,15.29,0,0,0,.12-3.66,6.46,6.46,0,0,0,.11-1.31V7.88l.12-.77V3.87a12.09,12.09,0,0,0,1.85-.38l1.23-.19A12.38,12.38,0,0,0,30.87,3l1.62-.29a15,15,0,0,0,1.93-.38h.35l.69-.19L36,2l.58-.1.69-.1a18.26,18.26,0,0,1,2.27-.45Z"/><path class="cls-1" d="M40,11.31,52.88,9.23a8.39,8.39,0,0,1-.11,2.62l.05.34-.08.54,0,.37-.05,1.4a10.28,10.28,0,0,0-.08,1.59l-.05.26-.19,3.19c0,.4,0,.7,0,.91a2.87,2.87,0,0,0,0,.57,4.91,4.91,0,0,0-.08,1.6l-.08.17-.32,6.64,0,.43-.13,1.94-.08,1a3.42,3.42,0,0,0,0,.6l-.08.54v.51l0,1,0,.46-.05.17,0,1-.11,1a2.93,2.93,0,0,1-.08,1.17l0,.6-.11,1A14.2,14.2,0,0,1,51,43l0,.34,0,1-.13.88v.46a7.32,7.32,0,0,1-.05,1.31l-.19,2.65,0,.71a12.74,12.74,0,0,0-.11,1.48l-.08.63,0,.71-.16,2.2v.63a1.65,1.65,0,0,1-1.55,0l-2.19-.43a1.6,1.6,0,0,0-.38-.12l-.62-.14-.76-5,0-.43-.22-1.28a16.61,16.61,0,0,1-.16-1.74l-.35-2.14,0-.51-.38-2.31a2.14,2.14,0,0,0,0-.68l-.3-1.88a1.94,1.94,0,0,0,0-.71l-.19-1.25q-.11-.68-.19-1.74l-.13-.86a3.06,3.06,0,0,1-.11-1.2l-.35-2.31-.11-1.28A9,9,0,0,1,42.1,28l-.38-2.45.05-.28-.41-2.57.05-.17-.32-2.22,0-.6-.35-2.39,0-.29-.38-2.48.05-.25L40.07,12Z"/><path class="cls-1" d="M56,3.05l2.38-.58L59,2.41l.79-.23.36,0,1.17-.29.41,0a2.57,2.57,0,0,1,1.12-.16l2.49-.52.49,0A3.35,3.35,0,0,1,67.12,1L69.69.42l.16.06,1-.25L72.1,0a8.17,8.17,0,0,1-.27,2.7l0,.22-.14,1.19a6.43,6.43,0,0,1-.16.84l-.22,1.6a2.32,2.32,0,0,1-.05.58l-.79,5.65-.11.32-.06.71-.11.71-.14.61-.52,4-.11.32,0,.71-.11.42V21l-.85,5.46-.11.71a5.1,5.1,0,0,1-.14,1.13l-.08.42-.05.67-.11.71-.49,3.63-.13.74-.49,3.63-.11.32-.06.67-.08.42v.39a2.31,2.31,0,0,0-.17,1l-.11.32-.05.48,0,.42-.27,1.61a5.53,5.53,0,0,1-.14,1.12l0,.38-.16.84a6.72,6.72,0,0,0,2.3-1,7.59,7.59,0,0,1,.79-.29l.9-.42a2.59,2.59,0,0,1,.55-.22l1.69-.71a2.53,2.53,0,0,1,1-.45l.47-.23,1.31-.61.44-.22.46-.19L77,41l.22,2.09A14.83,14.83,0,0,1,77.43,45l.11.64-.05.23.44,3.69-2.3.68-.14.13-3.22.9-.3.16-1.45.35-.3.19L69,52.28l-.3.16-1.12.29L67.1,53l-4.43,1.32-.52.23-3.42.83L56.05,3.82Z"/><path class="cls-1" d="M82.31,14.65,87,13.14q7.09-1.84,11.33,2.27l.17.55a7.88,7.88,0,0,1-.55.91l-.24.46a4.36,4.36,0,0,0-.4.69,3.31,3.31,0,0,0-.53.79l-.86,1.46q-.45.76-.89,1.36l-.09.19-1.32-.19h-.24a6,6,0,0,0-1.05-.12,2.92,2.92,0,0,0-.67-.1,3.85,3.85,0,0,0-.94,0l-.26-.07-.31,0-2.3.12-.53.09a6.21,6.21,0,0,0-3.35,3.21q-.77,4.65,7.38,7.47a6.53,6.53,0,0,0,1,.53l.29.14.17,0,1,.53.26.07.55.29q10.78,5.92,5.37,16.53a12.65,12.65,0,0,1-7.43,5.32Q85.78,58,77.86,54.5a1.14,1.14,0,0,1-.48-.48l.29-1.27.1-.41,0-.24.21-.79V51.1l.31-1.22v-.22a2.58,2.58,0,0,0,.22-1L79,46.69q8.91,6.9,16.07-1.46a4.92,4.92,0,0,0,.58-1.6l0-.17a4.25,4.25,0,0,0-2.11-2.9,14.8,14.8,0,0,0-2-.93l-1.05-.36L90,39.1q-10.42-.91-14.23-11A8.74,8.74,0,0,1,75.25,26l-.1-.29Q75.3,18.4,82.31,14.65Z"/><path class="cls-1" d="M21.11,55h6.11a5.22,5.22,0,0,1,1.51.08,8,8,0,0,1,1.7.15l.46.08h.31l.28.08,1.08.13.31.08L34.3,56l.46.08,2.75,1a3,3,0,0,0,.54.31l1.39.69.44.28.15.16.46.31.15.08,2,1.85,1,1.44.23.31.77,1.82Q48.73,78,37.82,87.95L35.61,89.7l-.15.15-.54.31-.31.23-2.13,1.28a1.73,1.73,0,0,1-.69.38,1.77,1.77,0,0,1-.67.39l-.23.15-.77.38-.23.08q-.39.23-1.51.74l-.62.23-.85.39a7.31,7.31,0,0,0-1.59.62,2.73,2.73,0,0,1-.77.23l-1.9.69-.54.15-.54.16-.31.08L21,96.4a5.45,5.45,0,0,1-1.05.31l-.31.08-1.39.31a1.58,1.58,0,0,1-1,0L17,95.42l-.16-.54-.08-.46v-.23l-.31-1.59-.08-.46-.08-.54-.08-.46a4.38,4.38,0,0,1-.19-.67,3.3,3.3,0,0,1,0-.54l1.23-.08.59-.08,2.23-.15.23-.08-.08-2.44-.08-.31V85.13l-.08-.38V83.59a1.76,1.76,0,0,0-.08-.9v-2a.45.45,0,0,1-.08-.31l-.08-3.88-.08-.31V75l-.08-.59-.08-3.59-.08-.61V68.42l-.08-.61V66.29l-.08-.23V64.36a2.86,2.86,0,0,0-1.16-.08,3.42,3.42,0,0,0-1.28-.08l-.23-.08h-1l-.82-.08Q14,64,13.48,64a6.27,6.27,0,0,0-.77-.08h-.82l-.54-.08-.15-2.44c-.05-.44-.1-.82-.15-1.13v-.85c-.05-.51-.1-.92-.15-1.23v-.75l-.08-1,.92-.15.44-.08.23-.08,1.31-.23a2.61,2.61,0,0,0,.77-.15,1.13,1.13,0,0,0,.51-.08h.31l1.7-.23.46-.05L18,55.3l2.67-.23ZM37,71.24q-2.67-7.5-10.52-7.62A.5.5,0,0,0,26,64V87.56a2.86,2.86,0,0,0,.92-.15l.39-.08.85-.23Q38.66,83.28,37,71.24Z"/><path class="cls-1" d="M69,52.58h.17l.77,2,.08.29,2.47,6.64a1.17,1.17,0,0,1,.18.46l.7,1.71v.56l-1,1.25a1.33,1.33,0,0,0-.45.46L70.67,67.4l-.27.32-.25.29A10.27,10.27,0,0,0,69,69.43l-.85,1a5.61,5.61,0,0,1-.67.78l-1.37,1.73a3.2,3.2,0,0,0-.25.29l-3.25,4.05a10.19,10.19,0,0,1,.77.88l.67.68.07.17a4.47,4.47,0,0,1,.7.78A6.27,6.27,0,0,1,65.88,81l.42.46.35.32a6.9,6.9,0,0,1,.5.61,5.53,5.53,0,0,1,.7.78l.32.32.87,1,.75.86.43.46.18.15a9.69,9.69,0,0,1,1,1.17c.23.26.43.47.6.64a7.12,7.12,0,0,1-1.1,1.56l-.17.14-.25.39a3.31,3.31,0,0,0-.42.46l-1.62,2L68,93l-.28.29-.32.24a7.43,7.43,0,0,1-.77-1.1l-.43-.54-.42-.63a7,7,0,0,0-.6-.85L65,90.08,63.9,88.52l-.08-.15-2.47-3.52-.17-.14-.42-.64-.95-1.32-.25-.46-.43-.54a5.49,5.49,0,0,0-.08,2.17V85a1.9,1.9,0,0,1,.08.61l.08,3.05a5.42,5.42,0,0,1,.1,1.1l.08,1.71a2.16,2.16,0,0,0,.1,1l.08,3.2-1.8,1-.18.15-2,1.1-.43.32-.25.07-1.28.78h-.42l-.27-1.73-.15-.54-.1-.46-.08-.46a13.84,13.84,0,0,0-.25-1.49A5.73,5.73,0,0,0,52,93.13L52,92.5l-.1-.61a12.56,12.56,0,0,1-.33-1.81l-.1-.46-.25-1.17a2.44,2.44,0,0,0-.18-.85L50.94,87q-.1-.63-.14-.9c0-.18-.06-.37-.11-.59l-.18-.63a3.85,3.85,0,0,1-.1-.78l-.07-.54-.1-.24a2.75,2.75,0,0,0-.15-.85v-.29a7.74,7.74,0,0,1-.27-1.42l-.08-.24-.42-2.42a6.1,6.1,0,0,1-.25-1.32c-.07-.36-.11-.63-.14-.82a3.22,3.22,0,0,0-.14-.57l-.5-2.59v-.32a.35.35,0,0,1-.1-.29l-.25-1.34-.25-1.17a3.91,3.91,0,0,1-.1-.78l-.08-.54-.08-.46c-.06-.31-.13-.56-.19-.74a2.27,2.27,0,0,1-.09-.67,2.59,2.59,0,0,1-.15-.78l-.1-.29-.08-.56-.1-.46-.07-.54a3.93,3.93,0,0,1-.18-1,6.4,6.4,0,0,1-.25-1.39l-.1-.24L46,60.15l-.1-.24-.25-1.71-.17-.56v-.86a7.81,7.81,0,0,1,1.27-.22l1.45-.24a11.9,11.9,0,0,0,1.34-.19,11.5,11.5,0,0,1,1.41-.2L54,55.46l.6-.15a1.37,1.37,0,0,0,.6-.1,3.24,3.24,0,0,0,.92-.15l1-.07.6-.07.08,2.32a5.64,5.64,0,0,1,.1,1.1L58,62.78a7.93,7.93,0,0,1,.08,2l.08.32.1,3.34a5.06,5.06,0,0,1,.08,1l.1.39,2.37-4a1.75,1.75,0,0,0,.23-.28,2.48,2.48,0,0,0,.22-.43l.58-1,.45-.68,1.45-2.27.25-.46,1.28-2.1.25-.39,1.3-2a1.71,1.71,0,0,0,.17-.32l.5-.78a2.84,2.84,0,0,0,.42-.78l1-1.42Z"/><path class="cls-1" d="M86.2,55.79l1.72-.24a11,11,0,0,1,5,.2.77.77,0,0,1,.37.63,9.3,9.3,0,0,0-.51,1.74l-.14.62-.15.54-.53,2a8.85,8.85,0,0,0-.41,1.42L91,64.73Q80.56,67.34,78.53,77q-.91,7.48,5.11,13.15,4.88,2.86,9-7.36l.6,1.05.18.21L96,88.62l.19.29.12.28.6,1.06.2.21.51,1a16.31,16.31,0,0,1-12.14,7.84Q77,100.33,71.85,92.48l-.27-.39-.9-2a28.59,28.59,0,0,1,.82-17.3,28.55,28.55,0,0,1,11-15.33l2-1,.93-.37A2,2,0,0,0,86.2,55.79Z"/><path class="cls-1" d="M33.61,105.51a1.19,1.19,0,0,0-.54-.08v6c.35,0,.56-.07.64-.21a3,3,0,0,0,.12-1.13v-3.57a4.62,4.62,0,0,0,0-.8A.39.39,0,0,0,33.61,105.51Z"/><path class="cls-1" d="M39.15,109.77H40q-.18-1.56-.36-3.86Q39.25,108.55,39.15,109.77Z"/><path class="cls-1" d="M106.32,108.91v2.57a1,1,0,0,0,.65-.16,1.11,1.11,0,0,0,.14-.7v-.86c0-.4,0-.64-.13-.72A1.14,1.14,0,0,0,106.32,108.91Z"/><path class="cls-1" d="M75.15,105.51a1.19,1.19,0,0,0-.54-.08v6c.34,0,.56-.07.64-.21a3,3,0,0,0,.12-1.13v-3.57a4.65,4.65,0,0,0,0-.8A.39.39,0,0,0,75.15,105.51Z"/><path class="cls-1" d="M106.82,105.48a1.82,1.82,0,0,0-.5-.05v2h.24c.24,0,.39-.06.45-.17a2.92,2.92,0,0,0,.1-1,1.65,1.65,0,0,0-.08-.6A.39.39,0,0,0,106.82,105.48Z"/><path class="cls-1" d="M5,100.44v16.32H111.67V100.44Zm8.21,12.61H9.6l-1.38-9.19h2.52q.44,3.8.63,6.43.18-2.66.39-4.72l.17-1.71h2.52Zm4,0H14.85v-9.19h2.39Zm4.8,0H18.2v-9.19h2.39v7.36H22Zm5.61-.9a1.79,1.79,0,0,1-.89.78,3.53,3.53,0,0,1-1.53.31,3.41,3.41,0,0,1-1.64-.37,1.78,1.78,0,0,1-.89-.93,4.73,4.73,0,0,1-.21-1.59v-.6h2.22v1.12a1.51,1.51,0,0,0,.09.67.37.37,0,0,0,.33.15.39.39,0,0,0,.36-.19,1.09,1.09,0,0,0,.12-.56,1.74,1.74,0,0,0-.22-1.06,7.39,7.39,0,0,0-1.12-.83,11.08,11.08,0,0,1-1.18-.86,2,2,0,0,1-.48-.74,3.27,3.27,0,0,1-.19-1.21,3.36,3.36,0,0,1,.27-1.54,1.84,1.84,0,0,1,.87-.77,3.54,3.54,0,0,1,1.45-.27,3.78,3.78,0,0,1,1.59.3,1.66,1.66,0,0,1,.87.76,4,4,0,0,1,.22,1.55v.36H25.46V106a1.31,1.31,0,0,0-.09-.61.31.31,0,0,0-.28-.13.36.36,0,0,0-.32.18,1,1,0,0,0-.11.53,1.48,1.48,0,0,0,.13.69,1.77,1.77,0,0,0,.68.56,6.86,6.86,0,0,1,2,1.55,3.57,3.57,0,0,1,.42,2A3.42,3.42,0,0,1,27.65,112.15Zm8.57-1.83A7.34,7.34,0,0,1,36.1,112a1.23,1.23,0,0,1-.4.65A1.7,1.7,0,0,1,35,113a6.56,6.56,0,0,1-1.28.09h-3v-9.19h1.79a11.1,11.1,0,0,1,2.34.16,1.8,1.8,0,0,1,.93.52,1.64,1.64,0,0,1,.4.81,11.84,11.84,0,0,1,.08,1.75Zm3.94,2.73L40,111.4h-.86L39,113.05H36.57l1.22-9.19h3.45l1.37,9.19Zm8.19,0H46.26L45,108.87v4.18H43v-9.19h2L46.35,108v-4.14h2Zm6.54-5.19H52.5v-1.6a2.86,2.86,0,0,0-.08-.87.33.33,0,0,0-.34-.17.35.35,0,0,0-.37.21,3.1,3.1,0,0,0-.08.91v4.27a2.89,2.89,0,0,0,.08.87.41.41,0,0,0,.71,0,3.35,3.35,0,0,0,.08-1v-1.16h2.39v.36a7.12,7.12,0,0,1-.2,2,2.09,2.09,0,0,1-.89,1,3.05,3.05,0,0,1-1.7.45,3.5,3.5,0,0,1-1.73-.38,1.86,1.86,0,0,1-.9-1.05,6.94,6.94,0,0,1-.22-2V107.1a12.18,12.18,0,0,1,.07-1.49,2.11,2.11,0,0,1,.41-1,2.28,2.28,0,0,1,.94-.72,3.84,3.84,0,0,1,3.12.14,2,2,0,0,1,.9,1,6.16,6.16,0,0,1,.22,1.9Zm5,5.19H55.75v-9.19h4v1.84h-1.6v1.74h1.49v1.75H58.14v2H59.9Zm6.09,0-1-3.94v3.94H62.63v-9.19H65v3.57l1.07-3.57h2.24L67,108l1.5,5Zm5.27,0H68.87v-9.19h2.39Zm6.5-2.73a7.36,7.36,0,0,1-.12,1.66,1.23,1.23,0,0,1-.4.65,1.7,1.7,0,0,1-.72.33,6.56,6.56,0,0,1-1.28.09h-3v-9.19H74a11.09,11.09,0,0,1,2.34.16,1.8,1.8,0,0,1,.93.52,1.64,1.64,0,0,1,.4.81,11.84,11.84,0,0,1,.08,1.75Zm5.92,1.83a1.79,1.79,0,0,1-.89.78,3.53,3.53,0,0,1-1.53.31,3.41,3.41,0,0,1-1.64-.37,1.78,1.78,0,0,1-.89-.93,4.73,4.73,0,0,1-.21-1.59v-.6h2.22v1.12a1.51,1.51,0,0,0,.09.67.37.37,0,0,0,.34.15.39.39,0,0,0,.36-.19,1.09,1.09,0,0,0,.12-.56,1.73,1.73,0,0,0-.22-1.06A7.38,7.38,0,0,0,80.3,109a11.06,11.06,0,0,1-1.18-.86,2,2,0,0,1-.48-.74,3.27,3.27,0,0,1-.19-1.21,3.36,3.36,0,0,1,.27-1.54,1.84,1.84,0,0,1,.87-.77,3.54,3.54,0,0,1,1.45-.27,3.78,3.78,0,0,1,1.59.3,1.66,1.66,0,0,1,.87.76,4,4,0,0,1,.21,1.55v.36H81.49V106a1.31,1.31,0,0,0-.09-.61.31.31,0,0,0-.28-.13.36.36,0,0,0-.32.18,1,1,0,0,0-.11.53,1.47,1.47,0,0,0,.13.69,1.77,1.77,0,0,0,.68.56,6.87,6.87,0,0,1,2,1.55,3.56,3.56,0,0,1,.42,2A3.43,3.43,0,0,1,83.68,112.15Zm8.61-4.29H89.9v-1.6a2.84,2.84,0,0,0-.08-.87.33.33,0,0,0-.34-.17.35.35,0,0,0-.37.21,3.12,3.12,0,0,0-.08.91v4.27a2.9,2.9,0,0,0,.08.87.41.41,0,0,0,.71,0,3.35,3.35,0,0,0,.08-1v-1.16h2.39v.36a7.12,7.12,0,0,1-.2,2,2.09,2.09,0,0,1-.89,1,3,3,0,0,1-1.7.45,3.49,3.49,0,0,1-1.73-.38,1.86,1.86,0,0,1-.91-1.05,7,7,0,0,1-.22-2V107.1a12.19,12.19,0,0,1,.07-1.49,2.11,2.11,0,0,1,.41-1,2.27,2.27,0,0,1,.94-.72,3.84,3.84,0,0,1,3.12.14,2,2,0,0,1,.9,1,6.15,6.15,0,0,1,.22,1.9Zm4.7,5.19H93.15v-9.19h2.39v7.36H97Zm6-3a10.75,10.75,0,0,1-.07,1.47,2,2,0,0,1-.4.87,2.08,2.08,0,0,1-.88.67,3.32,3.32,0,0,1-1.29.23,3.64,3.64,0,0,1-1.45-.27,2.17,2.17,0,0,1-.94-.71,2,2,0,0,1-.37-.92c0-.32-.06-1-.06-2v-5.44h2.39v6.89a2.65,2.65,0,0,0,.07.77.25.25,0,0,0,.26.17.28.28,0,0,0,.29-.18,3.59,3.59,0,0,0,.06-.87v-6.78H103Zm6.49.89a3.41,3.41,0,0,1-.21,1.38,1.15,1.15,0,0,1-.68.61,7,7,0,0,1-1.91.16h-2.77v-9.19h2.39A6.2,6.2,0,0,1,108,104a1.69,1.69,0,0,1,.94.71,3.2,3.2,0,0,1,.36,1.73,1.86,1.86,0,0,1-.25,1.12,1.76,1.76,0,0,1-1,.49,1.78,1.78,0,0,1,1.12.62,2.39,2.39,0,0,1,.3,1.34Z"/><polygon class="cls-1" points="100.45 65.52 100.98 72.39 106.94 75.84 100.58 78.47 99.13 85.19 94.67 79.96 87.82 80.66 91.43 74.8 88.64 68.51 95.33 70.12 100.45 65.52"/><path class="cls-1" d="M33.48,132.41q0,2.45-.12,3.46A3.88,3.88,0,0,1,31,139a6,6,0,0,1-2.41.45,6.11,6.11,0,0,1-2.34-.43,3.9,3.9,0,0,1-2.42-3.13,34.26,34.26,0,0,1-.12-3.51v-2.78q0-2.45.12-3.46A3.88,3.88,0,0,1,26.19,123a6,6,0,0,1,2.41-.45,6.12,6.12,0,0,1,2.34.43,3.9,3.9,0,0,1,2.42,3.13,34.26,34.26,0,0,1,.12,3.51Zm-4.22-5.33a5,5,0,0,0-.13-1.45.5.5,0,0,0-.52-.32.58.58,0,0,0-.51.26,3.62,3.62,0,0,0-.18,1.51v7.58a7.44,7.44,0,0,0,.12,1.74.5.5,0,0,0,.54.33.52.52,0,0,0,.55-.38,8,8,0,0,0,.12-1.81Z"/><path class="cls-1" d="M46.46,127.82H42.54v-1.2a2.36,2.36,0,0,0-.15-1.07.55.55,0,0,0-.5-.23.64.64,0,0,0-.58.31,1.8,1.8,0,0,0-.2.94,2.67,2.67,0,0,0,.22,1.22,3.19,3.19,0,0,0,1.19,1,12,12,0,0,1,3.55,2.75,6.29,6.29,0,0,1,.73,3.46,6.06,6.06,0,0,1-.41,2.56,3.18,3.18,0,0,1-1.57,1.38,6.2,6.2,0,0,1-2.71.56,6.05,6.05,0,0,1-2.89-.64,3.15,3.15,0,0,1-1.57-1.63,8.37,8.37,0,0,1-.37-2.82v-1.06h3.92v2a2.6,2.6,0,0,0,.17,1.17.64.64,0,0,0,.59.26.69.69,0,0,0,.63-.33,1.89,1.89,0,0,0,.21-1,3,3,0,0,0-.39-1.87,12.47,12.47,0,0,0-2-1.47,19.43,19.43,0,0,1-2.09-1.51,3.54,3.54,0,0,1-.85-1.3,5.73,5.73,0,0,1-.34-2.13,5.89,5.89,0,0,1,.48-2.73,3.21,3.21,0,0,1,1.54-1.35,6.14,6.14,0,0,1,2.57-.49,6.68,6.68,0,0,1,2.8.53,2.93,2.93,0,0,1,1.53,1.34,7.09,7.09,0,0,1,.38,2.74Z"/><path class="cls-1" d="M57.89,122.91l2.41,16.23H56l-.23-2.92H54.26L54,139.14H49.64l2.15-16.23Zm-2.24,10.44q-.32-2.76-.64-6.82-.65,4.66-.81,6.82Z"/><path class="cls-1" d="M73.54,122.91l-2.42,7.33,2.65,8.9H69.41l-1.71-7v7H63.48V122.91H67.7v6.31l1.88-6.31Z"/><path class="cls-1" d="M84.26,122.91l2.41,16.23H82.36l-.23-2.92H80.62l-.25,2.92H76l2.15-16.23ZM82,133.34q-.32-2.76-.64-6.82-.65,4.66-.81,6.82Z"/></g></svg>