<svg xmlns="http://www.w3.org/2000/svg" viewBox="0 0 255 317.43"><defs><style>.cls-1{fill:#f7931e;}.cls-2{fill:none;stroke:#fff;stroke-width:5px;}.cls-3{fill:#ff7bac;}</style></defs><title>img_logo</title><g id="レイヤー_2" data-name="レイヤー 2"><path class="cls-1" d="M94.58,10.47h1.74l-.75,4.07-.25.41v.83l-.25.41-.24,1.66c-.17.69-.29,1.17-.38,1.45a3.5,3.5,0,0,1-.37.83V21l-.75,2.2L93.09,25a4,4,0,0,0-.5,2.07,13.72,13.72,0,0,0-.75,2.69l-.25,1-1.16,5.1a10.92,10.92,0,0,1-.5,1.86l-.5,2.48-.24,1.17-.75,2.28v.62L88,45.59v.83l-.5,1.24-.25,1.24-.25.83-.75,3.45A23.16,23.16,0,0,1,85,57.93l-.24,1.24-.5,2.21-.74,2.69-.75,3.1c-.49,2.07-.83,3.7-1,4.9l-.25,1a16.9,16.9,0,0,1-1,3.31l-.25,1.66-.25.83-.17,1-.5,1.59c-.49,2.07-.82,3.73-1,5a4.42,4.42,0,0,0-.49,1.86,3,3,0,0,0-.5,1.38,11.8,11.8,0,0,0-.5,2.69l-.5,1.66-.25,1.45-1.74,6.35-.74,3.31-.25,1.65-1.74,6.76-.25,1.45a3.17,3.17,0,0,0-.5,1.45,23.64,23.64,0,0,1-1.24,4.89,6.26,6.26,0,0,1-.49,2.28v.62a12.77,12.77,0,0,0-.75,2.9.76.76,0,0,1-.66-.42l-1.49-2.28-.24-.62-1-1.45-.24-.62L63.51,120a2.13,2.13,0,0,1-.5-.83,2.16,2.16,0,0,1-.5-.76l-2.73-4.55A16.71,16.71,0,0,1,58,111.33l-4.89-8-.25-.62-1-1.45-.25-.62-2.73-4.07-.75-1.24-2.49-4.14L45,89.95l-.67-1.17-.75-1.24-.75-1.24L42,85l-.75-1.24L37.82,78.5l-.49-1a19.42,19.42,0,0,0-1.24-1.87l-2.24-3.72-.5-.62a26.78,26.78,0,0,1-1.91-3.45,2.23,2.23,0,0,1-.5-.83l-2.73-4.14-.74-1.45A9.81,9.81,0,0,1,26,59l-1.24-1.65L24,55.86,17.85,46a8.73,8.73,0,0,0-1-1.65l-.25-.62-1-1.45a2.12,2.12,0,0,1-.5-.83l-3-4.69-.75-1.24a7,7,0,0,1-1.24-2.07L8.74,31.24A21.93,21.93,0,0,1,6.5,26.69l6.13-.83h1a1.68,1.68,0,0,1,1-.21L18.85,25l1.49-.21,3.4-.41.74-.21h1.24l5.47-.83,1.74-.21c.77-.14,1.45-.24,2-.31s1.2-.17,1.86-.31a9,9,0,0,1,1.24,2.69l2.24,5.59a8.79,8.79,0,0,1,1.24,2.83L44,39.24a28.08,28.08,0,0,0,1.66,4.07l.75,2.28a9,9,0,0,1,1.24,2.69,24.13,24.13,0,0,1,1.74,4.28L57.29,71a25,25,0,0,0,2,4.76l.5,1.66.75,1.45,1.24,2.83V75.6A14.9,14.9,0,0,0,62,72.7V66.56a19.81,19.81,0,0,0,.25-3.31c0-2.85.08-5.32.25-7.39V49.52l.25-.62V40.48q.5-1.86.25-7.86a13.88,13.88,0,0,0,.25-2.83V25l.25-1.66v-7a26,26,0,0,0,4-.83l2.65-.41a26.61,26.61,0,0,0,2.74-.62l3.48-.62a32.18,32.18,0,0,0,4.14-.83h.75l1.49-.41L84,12.47l1.25-.21,1.49-.21a39.25,39.25,0,0,1,4.89-1Z"/><path class="cls-1" d="M92.59,32.41l27.61-4.48a18,18,0,0,1-.23,5.64l.12.73-.17,1.16-.06.8-.12,3a22.1,22.1,0,0,0-.18,3.43l-.11.55L119,50.13c0,.86,0,1.51-.06,2a6.18,6.18,0,0,0,0,1.23,10.56,10.56,0,0,0-.18,3.44l-.18.37-.7,14.28-.06.92-.29,4.17-.18,2.14a7.36,7.36,0,0,0,0,1.29l-.17,1.16v1.1l-.06,2.08-.06,1-.12.37-.06,2.09-.23,2.08a6.3,6.3,0,0,1-.18,2.51l.06,1.29-.23,2.08a30.54,30.54,0,0,1-.18,4.78l-.06.74-.06,2.08-.29,1.9v1a15.74,15.74,0,0,1-.12,2.82l-.41,5.7.06,1.53a27.39,27.39,0,0,0-.23,3.19l-.18,1.35.06,1.53-.35,4.72v1.35a3.54,3.54,0,0,1-3.32-.06l-4.72-.92a3.45,3.45,0,0,0-.82-.25l-1.34-.3-1.63-10.66.06-.92-.46-2.76a35.7,35.7,0,0,1-.35-3.74l-.76-4.6.06-1.1-.81-5a4.59,4.59,0,0,0,0-1.46l-.64-4A4.18,4.18,0,0,0,99.81,91l-.41-2.7q-.23-1.47-.41-3.74l-.29-1.84a6.58,6.58,0,0,1-.23-2.58l-.76-5-.23-2.76a19.27,19.27,0,0,1-.47-4.1l-.81-5.28.11-.61-.87-5.52.12-.37-.7-4.78-.06-1.29L94,45.35l.05-.61-.81-5.34.12-.55-.76-5Z"/><path class="cls-1" d="M126.9,14.65,132,13.41l1.35-.14,1.7-.48.77.07,2.53-.62.88-.06a5.53,5.53,0,0,1,2.41-.35L147,10.71l1.06-.06a7.2,7.2,0,0,1,2.76-.49L156.34,9l.35.14,2.06-.55,2.76-.49a17.57,17.57,0,0,1-.59,5.8l-.06.48-.29,2.56a13.82,13.82,0,0,1-.35,1.8l-.47,3.45a5,5,0,0,1-.12,1.24l-1.7,12.16-.23.69-.12,1.52-.23,1.52-.29,1.31-1.12,8.63-.23.69-.06,1.52-.24.9v.83l-1.82,11.74-.24,1.52a11,11,0,0,1-.29,2.42l-.18.9-.12,1.45-.24,1.52-1.06,7.8-.29,1.59-1.06,7.8-.23.69-.12,1.45-.17.9v.83a5,5,0,0,0-.36,2.21l-.24.69-.12,1-.06.9-.58,3.45a11.89,11.89,0,0,1-.3,2.42l-.06.83-.35,1.8a14.45,14.45,0,0,0,4.94-2.14,16.32,16.32,0,0,1,1.7-.62l1.94-.9a5.57,5.57,0,0,1,1.18-.48l3.64-1.52a5.45,5.45,0,0,1,2.11-1l1-.48,2.82-1.31.94-.48,1-.41,3.29-1.45.47,4.49a31.88,31.88,0,0,1,.41,4.07l.24,1.38-.12.48.94,7.93-4.94,1.46-.29.27-6.93,1.93-.65.35-3.11.76-.65.41-2.53.62-.65.35-2.41.62-1.11.49-9.52,2.83-1.12.48-7.35,1.79L127,16.31Z"/><path class="cls-1" d="M183.48,39.58l10-3.25q15.25-4,24.36,4.89l.36,1.19a16.93,16.93,0,0,1-1.18,2l-.52,1a9.37,9.37,0,0,0-.87,1.49,7.11,7.11,0,0,0-1.13,1.7l-1.86,3.14q-1,1.64-1.91,2.93l-.2.41-2.83-.41h-.52a13,13,0,0,0-2.26-.26,6.29,6.29,0,0,0-1.44-.21,8.27,8.27,0,0,0-2-.05l-.56-.15-.67.05-4.94.26-1.13.2A13.36,13.36,0,0,0,187,61.37q-1.65,10,15.86,16.06a14.05,14.05,0,0,0,2.21,1.13l.62.31.36.05,2.21,1.13.56.16,1.19.62q23.17,12.72,11.54,35.54-5.36,8.34-16,11.43-14.63,4.9-31.67-2.52a2.46,2.46,0,0,1-1-1l.62-2.73.21-.87.06-.52.46-1.7V118l.67-2.63v-.46a5.55,5.55,0,0,0,.47-2.22l1-4.17q19.16,14.83,34.56-3.14a10.58,10.58,0,0,0,1.24-3.45l.05-.36a9.14,9.14,0,0,0-4.53-6.23,31.82,31.82,0,0,0-4.38-2L201,92.52l-.93-.36q-22.41-2-30.59-23.59a18.8,18.8,0,0,1-1.18-4.68l-.21-.62Q168.4,47.66,183.48,39.58Z"/><path class="cls-1" d="M51.88,126.33H65a11.23,11.23,0,0,1,3.25.17,17.13,17.13,0,0,1,3.65.33l1,.17h.66l.61.17,2.32.28.66.17,3.09.83,1,.16,5.91,2.15a6.53,6.53,0,0,0,1.16.66l3,1.49.94.61.33.33,1,.66.33.17,4.25,4,2.15,3.09.5.66,1.66,3.92q8.83,29.53-14.62,50.88l-4.75,3.76-.33.33-1.16.66-.66.5-4.58,2.76a3.72,3.72,0,0,1-1.49.83,3.8,3.8,0,0,1-1.43.83l-.5.33-1.66.83-.5.17q-.83.5-3.26,1.6l-1.33.5-1.82.83a15.72,15.72,0,0,0-3.42,1.32,5.87,5.87,0,0,1-1.66.5l-4.08,1.49-1.16.33-1.16.33-.66.17-.66.11a11.71,11.71,0,0,1-2.26.66l-.66.17-3,.66a3.4,3.4,0,0,1-2.1,0l-.5-3.59-.33-1.16-.17-1v-.5l-.66-3.42-.17-1L41.56,205l-.17-1A9.41,9.41,0,0,1,41,202.6a7.09,7.09,0,0,1-.08-1.16l2.65-.17,1.27-.17,4.8-.33.5-.17L50,195.37l-.17-.66v-3.59l-.17-.83v-2.49a3.79,3.79,0,0,0-.17-1.93v-4.3a1,1,0,0,1-.17-.66l-.17-8.33-.16-.66v-2.65L48.79,168l-.17-7.73L48.46,159v-3.76l-.17-1.32v-3.26l-.17-.5v-3.64a6.14,6.14,0,0,0-2.49-.17,7.35,7.35,0,0,0-2.76-.17l-.5-.17H40.24l-1.77-.17q-1.82-.16-3-.17a13.48,13.48,0,0,0-1.65-.17H32.07l-1.16-.16-.33-5.24c-.11-1-.22-1.77-.33-2.43v-1.82c-.11-1.1-.22-2-.33-2.65v-1.6l-.17-2.15,2-.33.94-.17.5-.17,2.81-.5a5.6,5.6,0,0,0,1.66-.33,2.44,2.44,0,0,0,1.1-.17h.66l3.65-.5,1-.11,1.1-.17,5.74-.5ZM86,161.27q-5.74-16.12-22.62-16.39a1.07,1.07,0,0,0-1,.77v50.72a6.16,6.16,0,0,0,2-.33l.83-.17,1.82-.5Q89.63,187.15,86,161.27Z"/><path class="cls-1" d="M154.75,121.14h.37l1.66,4.2.16.63,5.32,14.28a2.52,2.52,0,0,1,.38,1l1.5,3.67v1.21l-2.2,2.68a2.86,2.86,0,0,0-1,1l-2.52,3.2-.59.69-.54.63a22.08,22.08,0,0,0-2.57,3l-1.83,2.15a12.05,12.05,0,0,1-1.45,1.68l-3,3.73a6.88,6.88,0,0,0-.54.63l-7,8.71a21.91,21.91,0,0,1,1.66,1.89l1.45,1.47.16.37a9.61,9.61,0,0,1,1.51,1.68,13.48,13.48,0,0,1,2.36,2.67l.91,1,.75.68a14.84,14.84,0,0,1,1.07,1.31,11.89,11.89,0,0,1,1.5,1.68l.7.68,1.88,2.2,1.61,1.84.91,1,.38.31a20.84,20.84,0,0,1,2.2,2.52c.5.56.93,1,1.29,1.37A15.31,15.31,0,0,1,159,200.3l-.37.31-.54.84a7.12,7.12,0,0,0-.91,1l-3.49,4.36-.91,1.21-.59.63-.7.52a16,16,0,0,1-1.66-2.36l-.91-1.16-.91-1.37a15,15,0,0,0-1.29-1.84l-.37-.68-2.42-3.36-.16-.32-5.32-7.56-.37-.31-.91-1.37-2-2.84-.54-1-.91-1.16a11.8,11.8,0,0,0-.17,4.67v2.36a4.09,4.09,0,0,1,.17,1.31l.16,6.56a11.65,11.65,0,0,1,.21,2.36l.16,3.67a4.65,4.65,0,0,0,.21,2.15l.17,6.88-3.87,2-.38.32-4.4,2.36-.92.68-.54.15-2.74,1.68h-.91l-.59-3.73-.32-1.15-.22-1-.16-1A29.75,29.75,0,0,0,119,211a12.31,12.31,0,0,0-.59-2.68l-.16-1.36-.21-1.31a27,27,0,0,1-.7-3.88l-.21-1-.54-2.52a5.25,5.25,0,0,0-.38-1.84L116,195.1q-.22-1.36-.29-1.94c-.05-.38-.13-.8-.24-1.26l-.38-1.36a8.27,8.27,0,0,1-.22-1.68l-.16-1.16-.22-.52a5.92,5.92,0,0,0-.32-1.84v-.63a16.64,16.64,0,0,1-.59-3l-.17-.52-.91-5.2a13.12,13.12,0,0,1-.54-2.83c-.14-.77-.24-1.36-.29-1.76a6.93,6.93,0,0,0-.3-1.23l-1.08-5.57v-.68a.76.76,0,0,1-.22-.63l-.54-2.88-.54-2.52a8.41,8.41,0,0,1-.21-1.68l-.16-1.16-.16-1c-.14-.66-.28-1.2-.4-1.6a4.88,4.88,0,0,1-.19-1.44,5.57,5.57,0,0,1-.32-1.68l-.22-.63-.16-1.21-.22-1-.16-1.16a8.45,8.45,0,0,1-.38-2,13.77,13.77,0,0,1-.54-3l-.21-.53-.32-2.31-.22-.52-.54-3.67-.37-1.2v-1.84a16.79,16.79,0,0,1,2.73-.47l3.11-.52a25.58,25.58,0,0,0,2.88-.42,24.72,24.72,0,0,1,3-.42l6.6-1,1.29-.32a2.94,2.94,0,0,0,1.29-.21,7,7,0,0,0,2-.32l2-.15,1.28-.16.17,5a12.13,12.13,0,0,1,.21,2.36l.37,9.55a17,17,0,0,1,.16,4.2l.16.68.21,7.19a10.88,10.88,0,0,1,.16,2l.22.84,5.1-8.56a3.75,3.75,0,0,0,.49-.6,5.33,5.33,0,0,0,.48-.92l1.24-2.21,1-1.47,3.11-4.88.54-1,2.74-4.52.54-.84,2.79-4.36a3.68,3.68,0,0,0,.37-.68l1.08-1.68a6.11,6.11,0,0,0,.91-1.68l2-3Z"/><path class="cls-1" d="M191.84,128l3.7-.53a23.54,23.54,0,0,1,10.82.44,1.65,1.65,0,0,1,.8,1.35,20,20,0,0,0-1.1,3.75l-.29,1.33-.33,1.17-1.15,4.25a19,19,0,0,0-.88,3l-1.16,4.42q-22.52,5.6-26.89,26.39-2,16.08,11,28.28,10.5,6.15,19.45-15.82l1.29,2.27.38.46,5.43,9.78.42.61.25.6,1.29,2.27.43.45,1.09,2.1q-9.33,14.68-26.09,16.87-18.11,2.28-29.28-14.59l-.58-.85-1.93-4.31q-4.94-17.55,1.77-37.19,5.53-19.53,23.68-33l4.24-2.24,2-.79A4.29,4.29,0,0,0,191.84,128Z"/><path class="cls-1" d="M78.76,235a2.57,2.57,0,0,0-1.15-.18v13c.74,0,1.2-.15,1.37-.45a6.54,6.54,0,0,0,.26-2.42v-7.68a9.94,9.94,0,0,0-.09-1.72A.83.83,0,0,0,78.76,235Z"/><path class="cls-1" d="M90.69,244.11h1.76q-.39-3.36-.78-8.3Q90.89,241.48,90.69,244.11Z"/><path class="cls-1" d="M235.1,242.25v5.54a2.21,2.21,0,0,0,1.39-.35,2.4,2.4,0,0,0,.3-1.5V244.1c0-.85-.09-1.37-.27-1.54A2.44,2.44,0,0,0,235.1,242.25Z"/><path class="cls-1" d="M168.07,235a2.56,2.56,0,0,0-1.15-.18v13c.74,0,1.2-.15,1.37-.45a6.53,6.53,0,0,0,.26-2.42v-7.68a10,10,0,0,0-.09-1.72A.83.83,0,0,0,168.07,235Z"/><path class="cls-1" d="M236.17,234.89a3.91,3.91,0,0,0-1.07-.11v4.39h.51c.51,0,.83-.13,1-.37a6.28,6.28,0,0,0,.21-2.13,3.55,3.55,0,0,0-.17-1.3A.83.83,0,0,0,236.17,234.89Z"/><path class="cls-1" d="M17.3,224.06v35.09H246.61V224.06Zm17.65,27.11H27.13l-3-19.77h5.42q.95,8.17,1.35,13.83.4-5.72.84-10.15l.36-3.68h5.42Zm8.62,0H38.42V231.4h5.14Zm10.33,0H45.63V231.4h5.14v15.82h3.13ZM66,249.22A3.84,3.84,0,0,1,64,250.91a7.6,7.6,0,0,1-3.3.68,7.34,7.34,0,0,1-3.52-.79,3.82,3.82,0,0,1-1.92-2,10.18,10.18,0,0,1-.45-3.43v-1.29h4.77v2.4a3.24,3.24,0,0,0,.2,1.43.79.79,0,0,0,.72.32.84.84,0,0,0,.76-.4,2.35,2.35,0,0,0,.25-1.2,3.73,3.73,0,0,0-.48-2.28,15.89,15.89,0,0,0-2.41-1.79,23.82,23.82,0,0,1-2.54-1.84,4.33,4.33,0,0,1-1-1.59,7,7,0,0,1-.41-2.59,7.23,7.23,0,0,1,.58-3.32,4,4,0,0,1,1.87-1.64,7.6,7.6,0,0,1,3.13-.59,8.13,8.13,0,0,1,3.41.65,3.56,3.56,0,0,1,1.86,1.63A8.54,8.54,0,0,1,66,236.6v.78H61.25v-1.46a2.81,2.81,0,0,0-.18-1.31.66.66,0,0,0-.61-.29.77.77,0,0,0-.7.38,2.14,2.14,0,0,0-.24,1.15,3.17,3.17,0,0,0,.27,1.49,3.81,3.81,0,0,0,1.45,1.21,14.76,14.76,0,0,1,4.32,3.34,7.67,7.67,0,0,1,.9,4.21A7.35,7.35,0,0,1,66,249.22Zm18.42-3.94a15.79,15.79,0,0,1-.26,3.56,2.64,2.64,0,0,1-.87,1.4,3.65,3.65,0,0,1-1.54.71,14.11,14.11,0,0,1-2.76.2H72.47V231.4h3.85a23.86,23.86,0,0,1,5,.35,3.86,3.86,0,0,1,2,1.12,3.52,3.52,0,0,1,.85,1.74,25.47,25.47,0,0,1,.18,3.77Zm8.48,5.87-.27-3.55H90.74l-.31,3.55H85.13l2.62-19.77h7.42l2.94,19.77Zm17.6,0H106l-2.67-9v9H99V231.4h4.3l2.88,8.9v-8.9h4.3ZM124.53,240h-5.14v-3.44a6.14,6.14,0,0,0-.17-1.87.71.71,0,0,0-.73-.37.76.76,0,0,0-.8.46,6.68,6.68,0,0,0-.18,2v9.18a6.21,6.21,0,0,0,.18,1.88.88.88,0,0,0,1.52,0,7.2,7.2,0,0,0,.18-2.06v-2.49h5.14V244a15.31,15.31,0,0,1-.43,4.35,4.48,4.48,0,0,1-1.92,2.25,6.56,6.56,0,0,1-3.66,1,7.51,7.51,0,0,1-3.72-.82,4,4,0,0,1-1.95-2.26,14.92,14.92,0,0,1-.48-4.35v-5.77a26.18,26.18,0,0,1,.15-3.21,4.54,4.54,0,0,1,.87-2.06,4.89,4.89,0,0,1,2-1.56,8.26,8.26,0,0,1,6.7.31,4.23,4.23,0,0,1,1.95,2.19,13.24,13.24,0,0,1,.46,4.08Zm10.76,11.15h-8.91V231.4h8.57v4h-3.43v3.74h3.21v3.77h-3.21v4.35h3.77Zm13.1,0-2.08-8.47v8.47h-5.14V231.4h5.14v7.68l2.29-7.68h4.82l-2.94,8.93,3.23,10.84Zm11.34,0h-5.14V231.4h5.14Zm14-5.87a15.83,15.83,0,0,1-.26,3.56,2.64,2.64,0,0,1-.87,1.4A3.65,3.65,0,0,1,171,251a14.11,14.11,0,0,1-2.76.2h-6.48V231.4h3.85a23.85,23.85,0,0,1,5,.35,3.86,3.86,0,0,1,2,1.12,3.53,3.53,0,0,1,.85,1.74,25.45,25.45,0,0,1,.18,3.77Zm12.73,3.94a3.84,3.84,0,0,1-1.91,1.68,7.6,7.6,0,0,1-3.3.68,7.34,7.34,0,0,1-3.52-.79,3.83,3.83,0,0,1-1.92-2,10.17,10.17,0,0,1-.45-3.43v-1.29h4.77v2.4a3.24,3.24,0,0,0,.2,1.43.79.79,0,0,0,.72.32.84.84,0,0,0,.76-.4,2.35,2.35,0,0,0,.25-1.2,3.73,3.73,0,0,0-.48-2.28,15.86,15.86,0,0,0-2.41-1.79,23.78,23.78,0,0,1-2.54-1.84,4.33,4.33,0,0,1-1-1.59,7,7,0,0,1-.41-2.59,7.22,7.22,0,0,1,.58-3.32,4,4,0,0,1,1.87-1.64,7.6,7.6,0,0,1,3.13-.59,8.13,8.13,0,0,1,3.42.65,3.57,3.57,0,0,1,1.86,1.63,8.56,8.56,0,0,1,.46,3.34v.78h-4.78v-1.46a2.82,2.82,0,0,0-.18-1.31.66.66,0,0,0-.61-.29.77.77,0,0,0-.7.38,2.14,2.14,0,0,0-.24,1.15,3.17,3.17,0,0,0,.27,1.49,3.8,3.8,0,0,0,1.45,1.21A14.76,14.76,0,0,1,186,241.9a7.66,7.66,0,0,1,.9,4.21A7.37,7.37,0,0,1,186.42,249.22ZM204.94,240H199.8v-3.44a6.1,6.1,0,0,0-.17-1.87.71.71,0,0,0-.73-.37.76.76,0,0,0-.8.46,6.71,6.71,0,0,0-.18,2v9.18a6.25,6.25,0,0,0,.18,1.88.88.88,0,0,0,1.52,0,7.2,7.2,0,0,0,.18-2.06v-2.49h5.14V244a15.31,15.31,0,0,1-.43,4.35,4.48,4.48,0,0,1-1.92,2.25,6.56,6.56,0,0,1-3.66,1,7.51,7.51,0,0,1-3.72-.82,4,4,0,0,1-1.95-2.26,15,15,0,0,1-.48-4.35v-5.77a26.2,26.2,0,0,1,.15-3.21,4.54,4.54,0,0,1,.87-2.06,4.89,4.89,0,0,1,2-1.56,8.26,8.26,0,0,1,6.7.31,4.23,4.23,0,0,1,1.94,2.19,13.23,13.23,0,0,1,.46,4.08ZM215,251.16h-8.27V231.4h5.14v15.82H215ZM228,244.61a23.11,23.11,0,0,1-.15,3.16,4.37,4.37,0,0,1-.87,1.87,4.47,4.47,0,0,1-1.9,1.45,7.13,7.13,0,0,1-2.78.5,7.84,7.84,0,0,1-3.13-.59,4.66,4.66,0,0,1-2-1.53,4.2,4.2,0,0,1-.79-2c-.08-.7-.12-2.16-.12-4.39V231.4h5.14v14.82a5.69,5.69,0,0,0,.15,1.65.54.54,0,0,0,.57.36.6.6,0,0,0,.63-.4,7.72,7.72,0,0,0,.14-1.87V231.4H228Zm14,1.92a7.33,7.33,0,0,1-.46,3,2.47,2.47,0,0,1-1.46,1.32,15,15,0,0,1-4.1.35H230V231.4h5.13a13.33,13.33,0,0,1,3.68.38,3.64,3.64,0,0,1,2,1.53,6.88,6.88,0,0,1,.77,3.72,4,4,0,0,1-.54,2.42,3.79,3.79,0,0,1-2.14,1.05,3.82,3.82,0,0,1,2.42,1.34,5.14,5.14,0,0,1,.64,2.87Z"/><polygon class="cls-1" points="222.48 148.97 223.63 163.73 236.43 171.16 222.75 176.8 219.65 191.27 210.05 180.01 195.33 181.53 203.08 168.92 197.08 155.39 211.47 158.86 222.48 148.97"/><path class="cls-1" d="M78.48,292.79q0,5.26-.25,7.45A8.34,8.34,0,0,1,73.16,307,12.83,12.83,0,0,1,68,308a13.13,13.13,0,0,1-5-.92,8.39,8.39,0,0,1-5.21-6.74,73.67,73.67,0,0,1-.26-7.54v-6q0-5.26.25-7.45a8.34,8.34,0,0,1,5.08-6.78,12.83,12.83,0,0,1,5.17-1,13.15,13.15,0,0,1,5,.92,8.39,8.39,0,0,1,5.21,6.74,73.67,73.67,0,0,1,.26,7.54Zm-9.07-11.47a10.82,10.82,0,0,0-.27-3.12,1.07,1.07,0,0,0-1.11-.68,1.24,1.24,0,0,0-1.09.55,7.78,7.78,0,0,0-.38,3.24v16.29a16,16,0,0,0,.25,3.75,1.08,1.08,0,0,0,1.15.71,1.12,1.12,0,0,0,1.19-.82,17.25,17.25,0,0,0,.26-3.9Z"/><path class="cls-1" d="M106.39,282.91H98v-2.59a5.07,5.07,0,0,0-.32-2.31,1.19,1.19,0,0,0-1.08-.5,1.37,1.37,0,0,0-1.24.67,3.88,3.88,0,0,0-.42,2,5.74,5.74,0,0,0,.47,2.63A6.85,6.85,0,0,0,97.94,285q6.06,3.6,7.63,5.9t1.57,7.44a13,13,0,0,1-.87,5.5,6.84,6.84,0,0,1-3.37,3,13.34,13.34,0,0,1-5.82,1.2,13,13,0,0,1-6.22-1.38,6.76,6.76,0,0,1-3.37-3.51,18,18,0,0,1-.8-6.06v-2.29h8.43V299a5.58,5.58,0,0,0,.36,2.52,1.37,1.37,0,0,0,1.26.56,1.48,1.48,0,0,0,1.35-.71,4.06,4.06,0,0,0,.44-2.11q0-3.08-.84-4a26.81,26.81,0,0,0-4.25-3.17A41.78,41.78,0,0,1,89,288.8a7.61,7.61,0,0,1-1.82-2.8,12.32,12.32,0,0,1-.72-4.57,12.67,12.67,0,0,1,1-5.86,6.89,6.89,0,0,1,3.31-2.9,13.21,13.21,0,0,1,5.52-1,14.37,14.37,0,0,1,6,1.14,6.31,6.31,0,0,1,3.3,2.88,15.24,15.24,0,0,1,.81,5.89Z"/><path class="cls-1" d="M131,272.35l5.19,34.89h-9.27L126.4,301h-3.25l-.55,6.27h-9.38l4.63-34.89Zm-4.81,22.44q-.69-5.93-1.38-14.66-1.39,10-1.74,14.66Z"/><path class="cls-1" d="M164.63,272.35l-5.21,15.76,5.7,19.14h-9.38l-3.67-15v15H143V272.35h9.07v13.56l4-13.56Z"/><path class="cls-1" d="M187.67,272.35l5.19,34.89h-9.27L183.1,301h-3.25l-.55,6.27h-9.38l4.63-34.89Zm-4.81,22.44q-.69-5.93-1.38-14.66-1.39,10-1.74,14.66Z"/><path class="cls-2" d="M94.58,10.47h1.74l-.75,4.07-.25.41v.83l-.25.41-.24,1.66c-.17.69-.29,1.17-.38,1.45a3.5,3.5,0,0,1-.37.83V21l-.75,2.2L93.09,25a4,4,0,0,0-.5,2.07,13.72,13.72,0,0,0-.75,2.69l-.25,1-1.16,5.1a10.92,10.92,0,0,1-.5,1.86l-.5,2.48-.24,1.17-.75,2.28v.62L88,45.59v.83l-.5,1.24-.25,1.24-.25.83-.75,3.45A23.16,23.16,0,0,1,85,57.93l-.24,1.24-.5,2.21-.74,2.69-.75,3.1c-.49,2.07-.83,3.7-1,4.9l-.25,1a16.9,16.9,0,0,1-1,3.31l-.25,1.66-.25.83-.17,1-.5,1.59c-.49,2.07-.82,3.73-1,5a4.42,4.42,0,0,0-.49,1.86,3,3,0,0,0-.5,1.38,11.8,11.8,0,0,0-.5,2.69l-.5,1.66-.25,1.45-1.74,6.35-.74,3.31-.25,1.65-1.74,6.76-.25,1.45a3.17,3.17,0,0,0-.5,1.45,23.64,23.64,0,0,1-1.24,4.89,6.26,6.26,0,0,1-.49,2.28v.62a12.77,12.77,0,0,0-.75,2.9.76.76,0,0,1-.66-.42l-1.49-2.28-.24-.62-1-1.45-.24-.62L63.51,120a2.13,2.13,0,0,1-.5-.83,2.16,2.16,0,0,1-.5-.76l-2.73-4.55A16.71,16.71,0,0,1,58,111.33l-4.89-8-.25-.62-1-1.45-.25-.62-2.73-4.07-.75-1.24-2.49-4.14L45,89.95l-.67-1.17-.75-1.24-.75-1.24L42,85l-.75-1.24L37.82,78.5l-.49-1a19.42,19.42,0,0,0-1.24-1.87l-2.24-3.72-.5-.62a26.78,26.78,0,0,1-1.91-3.45,2.23,2.23,0,0,1-.5-.83l-2.73-4.14-.74-1.45A9.81,9.81,0,0,1,26,59l-1.24-1.65L24,55.86,17.85,46a8.73,8.73,0,0,0-1-1.65l-.25-.62-1-1.45a2.12,2.12,0,0,1-.5-.83l-3-4.69-.75-1.24a7,7,0,0,1-1.24-2.07L8.74,31.24A21.93,21.93,0,0,1,6.5,26.69l6.13-.83h1a1.68,1.68,0,0,1,1-.21L18.85,25l1.49-.21,3.4-.41.74-.21h1.24l5.47-.83,1.74-.21c.77-.14,1.45-.24,2-.31s1.2-.17,1.86-.31a9,9,0,0,1,1.24,2.69l2.24,5.59a8.79,8.79,0,0,1,1.24,2.83L44,39.24a28.08,28.08,0,0,0,1.66,4.07l.75,2.28a9,9,0,0,1,1.24,2.69,24.13,24.13,0,0,1,1.74,4.28L57.29,71a25,25,0,0,0,2,4.76l.5,1.66.75,1.45,1.24,2.83V75.6A14.9,14.9,0,0,0,62,72.7V66.56a19.81,19.81,0,0,0,.25-3.31c0-2.85.08-5.32.25-7.39V49.52l.25-.62V40.48q.5-1.86.25-7.86a13.88,13.88,0,0,0,.25-2.83V25l.25-1.66v-7a26,26,0,0,0,4-.83l2.65-.41a26.61,26.61,0,0,0,2.74-.62l3.48-.62a32.18,32.18,0,0,0,4.14-.83h.75l1.49-.41L84,12.47l1.25-.21,1.49-.21a39.25,39.25,0,0,1,4.89-1Z"/><path class="cls-2" d="M92.59,32.41l27.61-4.48a18,18,0,0,1-.23,5.64l.12.73-.17,1.16-.06.8-.12,3a22.1,22.1,0,0,0-.18,3.43l-.11.55L119,50.13c0,.86,0,1.51-.06,2a6.18,6.18,0,0,0,0,1.23,10.56,10.56,0,0,0-.18,3.44l-.18.37-.7,14.28-.06.92-.29,4.17-.18,2.14a7.36,7.36,0,0,0,0,1.29l-.17,1.16v1.1l-.06,2.08-.06,1-.12.37-.06,2.09-.23,2.08a6.3,6.3,0,0,1-.18,2.51l.06,1.29-.23,2.08a30.54,30.54,0,0,1-.18,4.78l-.06.74-.06,2.08-.29,1.9v1a15.74,15.74,0,0,1-.12,2.82l-.41,5.7.06,1.53a27.39,27.39,0,0,0-.23,3.19l-.18,1.35.06,1.53-.35,4.72v1.35a3.54,3.54,0,0,1-3.32-.06l-4.72-.92a3.45,3.45,0,0,0-.82-.25l-1.34-.3-1.63-10.66.06-.92-.46-2.76a35.7,35.7,0,0,1-.35-3.74l-.76-4.6.06-1.1-.81-5a4.59,4.59,0,0,0,0-1.46l-.64-4A4.18,4.18,0,0,0,99.81,91l-.41-2.7q-.23-1.47-.41-3.74l-.29-1.84a6.58,6.58,0,0,1-.23-2.58l-.76-5-.23-2.76a19.27,19.27,0,0,1-.47-4.1l-.81-5.28.11-.61-.87-5.52.12-.37-.7-4.78-.06-1.29L94,45.35l.05-.61-.81-5.34.12-.55-.76-5Z"/><path class="cls-2" d="M126.9,14.65,132,13.41l1.35-.14,1.7-.48.77.07,2.53-.62.88-.06a5.53,5.53,0,0,1,2.41-.35L147,10.71l1.06-.06a7.2,7.2,0,0,1,2.76-.49L156.34,9l.35.14,2.06-.55,2.76-.49a17.57,17.57,0,0,1-.59,5.8l-.06.48-.29,2.56a13.82,13.82,0,0,1-.35,1.8l-.47,3.45a5,5,0,0,1-.12,1.24l-1.7,12.16-.23.69-.12,1.52-.23,1.52-.29,1.31-1.12,8.63-.23.69-.06,1.52-.24.9v.83l-1.82,11.74-.24,1.52a11,11,0,0,1-.29,2.42l-.18.9-.12,1.45-.24,1.52-1.06,7.8-.29,1.59-1.06,7.8-.23.69-.12,1.45-.17.9v.83a5,5,0,0,0-.36,2.21l-.24.69-.12,1-.06.9-.58,3.45a11.89,11.89,0,0,1-.3,2.42l-.06.83-.35,1.8a14.45,14.45,0,0,0,4.94-2.14,16.32,16.32,0,0,1,1.7-.62l1.94-.9a5.57,5.57,0,0,1,1.18-.48l3.64-1.52a5.45,5.45,0,0,1,2.11-1l1-.48,2.82-1.31.94-.48,1-.41,3.29-1.45.47,4.49a31.88,31.88,0,0,1,.41,4.07l.24,1.38-.12.48.94,7.93-4.94,1.46-.29.27-6.93,1.93-.65.35-3.11.76-.65.41-2.53.62-.65.35-2.41.62-1.11.49-9.52,2.83-1.12.48-7.35,1.79L127,16.31Z"/><path class="cls-2" d="M183.48,39.58l10-3.25q15.25-4,24.36,4.89l.36,1.19a16.93,16.93,0,0,1-1.18,2l-.52,1a9.37,9.37,0,0,0-.87,1.49,7.11,7.11,0,0,0-1.13,1.7l-1.86,3.14q-1,1.64-1.91,2.93l-.2.41-2.83-.41h-.52a13,13,0,0,0-2.26-.26,6.29,6.29,0,0,0-1.44-.21,8.27,8.27,0,0,0-2-.05l-.56-.15-.67.05-4.94.26-1.13.2A13.36,13.36,0,0,0,187,61.37q-1.65,10,15.86,16.06a14.05,14.05,0,0,0,2.21,1.13l.62.31.36.05,2.21,1.13.56.16,1.19.62q23.17,12.72,11.54,35.54-5.36,8.34-16,11.43-14.63,4.9-31.67-2.52a2.46,2.46,0,0,1-1-1l.62-2.73.21-.87.06-.52.46-1.7V118l.67-2.63v-.46a5.55,5.55,0,0,0,.47-2.22l1-4.17q19.16,14.83,34.56-3.14a10.58,10.58,0,0,0,1.24-3.45l.05-.36a9.14,9.14,0,0,0-4.53-6.23,31.82,31.82,0,0,0-4.38-2L201,92.52l-.93-.36q-22.41-2-30.59-23.59a18.8,18.8,0,0,1-1.18-4.68l-.21-.62Q168.4,47.66,183.48,39.58Z"/><path class="cls-2" d="M51.88,126.33H65a11.23,11.23,0,0,1,3.25.17,17.13,17.13,0,0,1,3.65.33l1,.17h.66l.61.17,2.32.28.66.17,3.09.83,1,.16,5.91,2.15a6.53,6.53,0,0,0,1.16.66l3,1.49.94.61.33.33,1,.66.33.17,4.25,4,2.15,3.09.5.66,1.66,3.92q8.83,29.53-14.62,50.88l-4.75,3.76-.33.33-1.16.66-.66.5-4.58,2.76a3.72,3.72,0,0,1-1.49.83,3.8,3.8,0,0,1-1.43.83l-.5.33-1.66.83-.5.17q-.83.5-3.26,1.6l-1.33.5-1.82.83a15.72,15.72,0,0,0-3.42,1.32,5.87,5.87,0,0,1-1.66.5l-4.08,1.49-1.16.33-1.16.33-.66.17-.66.11a11.71,11.71,0,0,1-2.26.66l-.66.17-3,.66a3.4,3.4,0,0,1-2.1,0l-.5-3.59-.33-1.16-.17-1v-.5l-.66-3.42-.17-1L41.56,205l-.17-1A9.41,9.41,0,0,1,41,202.6a7.09,7.09,0,0,1-.08-1.16l2.65-.17,1.27-.17,4.8-.33.5-.17L50,195.37l-.17-.66v-3.59l-.17-.83v-2.49a3.79,3.79,0,0,0-.17-1.93v-4.3a1,1,0,0,1-.17-.66l-.17-8.33-.16-.66v-2.65L48.79,168l-.17-7.73L48.46,159v-3.76l-.17-1.32v-3.26l-.17-.5v-3.64a6.14,6.14,0,0,0-2.49-.17,7.35,7.35,0,0,0-2.76-.17l-.5-.17H40.24l-1.77-.17q-1.82-.16-3-.17a13.48,13.48,0,0,0-1.65-.17H32.07l-1.16-.16-.33-5.24c-.11-1-.22-1.77-.33-2.43v-1.82c-.11-1.1-.22-2-.33-2.65v-1.6l-.17-2.15,2-.33.94-.17.5-.17,2.81-.5a5.6,5.6,0,0,0,1.66-.33,2.44,2.44,0,0,0,1.1-.17h.66l3.65-.5,1-.11,1.1-.17,5.74-.5ZM86,161.27q-5.74-16.12-22.62-16.39a1.07,1.07,0,0,0-1,.77v50.72a6.16,6.16,0,0,0,2-.33l.83-.17,1.82-.5Q89.63,187.15,86,161.27Z"/><path class="cls-2" d="M154.75,121.14h.37l1.66,4.2.16.63,5.32,14.28a2.52,2.52,0,0,1,.38,1l1.5,3.67v1.21l-2.2,2.68a2.86,2.86,0,0,0-1,1l-2.52,3.2-.59.69-.54.63a22.08,22.08,0,0,0-2.57,3l-1.83,2.15a12.05,12.05,0,0,1-1.45,1.68l-3,3.73a6.88,6.88,0,0,0-.54.63l-7,8.71a21.91,21.91,0,0,1,1.66,1.89l1.45,1.47.16.37a9.61,9.61,0,0,1,1.51,1.68,13.48,13.48,0,0,1,2.36,2.67l.91,1,.75.68a14.84,14.84,0,0,1,1.07,1.31,11.89,11.89,0,0,1,1.5,1.68l.7.68,1.88,2.2,1.61,1.84.91,1,.38.31a20.84,20.84,0,0,1,2.2,2.52c.5.56.93,1,1.29,1.37A15.31,15.31,0,0,1,159,200.3l-.37.31-.54.84a7.12,7.12,0,0,0-.91,1l-3.49,4.36-.91,1.21-.59.63-.7.52a16,16,0,0,1-1.66-2.36l-.91-1.16-.91-1.37a15,15,0,0,0-1.29-1.84l-.37-.68-2.42-3.36-.16-.32-5.32-7.56-.37-.31-.91-1.37-2-2.84-.54-1-.91-1.16a11.8,11.8,0,0,0-.17,4.67v2.36a4.09,4.09,0,0,1,.17,1.31l.16,6.56a11.65,11.65,0,0,1,.21,2.36l.16,3.67a4.65,4.65,0,0,0,.21,2.15l.17,6.88-3.87,2-.38.32-4.4,2.36-.92.68-.54.15-2.74,1.68h-.91l-.59-3.73-.32-1.15-.22-1-.16-1A29.75,29.75,0,0,0,119,211a12.31,12.31,0,0,0-.59-2.68l-.16-1.36-.21-1.31a27,27,0,0,1-.7-3.88l-.21-1-.54-2.52a5.25,5.25,0,0,0-.38-1.84L116,195.1q-.22-1.36-.29-1.94c-.05-.38-.13-.8-.24-1.26l-.38-1.36a8.27,8.27,0,0,1-.22-1.68l-.16-1.16-.22-.52a5.92,5.92,0,0,0-.32-1.84v-.63a16.64,16.64,0,0,1-.59-3l-.17-.52-.91-5.2a13.12,13.12,0,0,1-.54-2.83c-.14-.77-.24-1.36-.29-1.76a6.93,6.93,0,0,0-.3-1.23l-1.08-5.57v-.68a.76.76,0,0,1-.22-.63l-.54-2.88-.54-2.52a8.41,8.41,0,0,1-.21-1.68l-.16-1.16-.16-1c-.14-.66-.28-1.2-.4-1.6a4.88,4.88,0,0,1-.19-1.44,5.57,5.57,0,0,1-.32-1.68l-.22-.63-.16-1.21-.22-1-.16-1.16a8.45,8.45,0,0,1-.38-2,13.77,13.77,0,0,1-.54-3l-.21-.53-.32-2.31-.22-.52-.54-3.67-.37-1.2v-1.84a16.79,16.79,0,0,1,2.73-.47l3.11-.52a25.58,25.58,0,0,0,2.88-.42,24.72,24.72,0,0,1,3-.42l6.6-1,1.29-.32a2.94,2.94,0,0,0,1.29-.21,7,7,0,0,0,2-.32l2-.15,1.28-.16.17,5a12.13,12.13,0,0,1,.21,2.36l.37,9.55a17,17,0,0,1,.16,4.2l.16.68.21,7.19a10.88,10.88,0,0,1,.16,2l.22.84,5.1-8.56a3.75,3.75,0,0,0,.49-.6,5.33,5.33,0,0,0,.48-.92l1.24-2.21,1-1.47,3.11-4.88.54-1,2.74-4.52.54-.84,2.79-4.36a3.68,3.68,0,0,0,.37-.68l1.08-1.68a6.11,6.11,0,0,0,.91-1.68l2-3Z"/><path class="cls-2" d="M191.84,128l3.7-.53a23.54,23.54,0,0,1,10.82.44,1.65,1.65,0,0,1,.8,1.35,20,20,0,0,0-1.1,3.75l-.29,1.33-.33,1.17-1.15,4.25a19,19,0,0,0-.88,3l-1.16,4.42q-22.52,5.6-26.89,26.39-2,16.08,11,28.28,10.5,6.15,19.45-15.82l1.29,2.27.38.46,5.43,9.78.42.61.25.6,1.29,2.27.43.45,1.09,2.1q-9.33,14.68-26.09,16.87-18.11,2.28-29.28-14.59l-.58-.85-1.93-4.31q-4.94-17.55,1.77-37.19,5.53-19.53,23.68-33l4.24-2.24,2-.79A4.29,4.29,0,0,0,191.84,128Z"/><path class="cls-2" d="M78.76,235a2.57,2.57,0,0,0-1.15-.18v13c.74,0,1.2-.15,1.37-.45a6.54,6.54,0,0,0,.26-2.42v-7.68a9.94,9.94,0,0,0-.09-1.72A.83.83,0,0,0,78.76,235Z"/><path class="cls-2" d="M90.69,244.11h1.76q-.39-3.36-.78-8.3Q90.89,241.48,90.69,244.11Z"/><path class="cls-2" d="M235.1,242.25v5.54a2.21,2.21,0,0,0,1.39-.35,2.4,2.4,0,0,0,.3-1.5V244.1c0-.85-.09-1.37-.27-1.54A2.44,2.44,0,0,0,235.1,242.25Z"/><path class="cls-2" d="M168.07,235a2.56,2.56,0,0,0-1.15-.18v13c.74,0,1.2-.15,1.37-.45a6.53,6.53,0,0,0,.26-2.42v-7.68a10,10,0,0,0-.09-1.72A.83.83,0,0,0,168.07,235Z"/><path class="cls-2" d="M236.17,234.89a3.91,3.91,0,0,0-1.07-.11v4.39h.51c.51,0,.83-.13,1-.37a6.28,6.28,0,0,0,.21-2.13,3.55,3.55,0,0,0-.17-1.3A.83.83,0,0,0,236.17,234.89Z"/><path class="cls-2" d="M17.3,224.06v35.09H246.61V224.06Zm17.65,27.11H27.13l-3-19.77h5.42q.95,8.17,1.35,13.83.4-5.72.84-10.15l.36-3.68h5.42Zm8.62,0H38.42V231.4h5.14Zm10.33,0H45.63V231.4h5.14v15.82h3.13ZM66,249.22A3.84,3.84,0,0,1,64,250.91a7.6,7.6,0,0,1-3.3.68,7.34,7.34,0,0,1-3.52-.79,3.82,3.82,0,0,1-1.92-2,10.18,10.18,0,0,1-.45-3.43v-1.29h4.77v2.4a3.24,3.24,0,0,0,.2,1.43.79.79,0,0,0,.72.32.84.84,0,0,0,.76-.4,2.35,2.35,0,0,0,.25-1.2,3.73,3.73,0,0,0-.48-2.28,15.89,15.89,0,0,0-2.41-1.79,23.82,23.82,0,0,1-2.54-1.84,4.33,4.33,0,0,1-1-1.59,7,7,0,0,1-.41-2.59,7.23,7.23,0,0,1,.58-3.32,4,4,0,0,1,1.87-1.64,7.6,7.6,0,0,1,3.13-.59,8.13,8.13,0,0,1,3.41.65,3.56,3.56,0,0,1,1.86,1.63A8.54,8.54,0,0,1,66,236.6v.78H61.25v-1.46a2.81,2.81,0,0,0-.18-1.31.66.66,0,0,0-.61-.29.77.77,0,0,0-.7.38,2.14,2.14,0,0,0-.24,1.15,3.17,3.17,0,0,0,.27,1.49,3.81,3.81,0,0,0,1.45,1.21,14.76,14.76,0,0,1,4.32,3.34,7.67,7.67,0,0,1,.9,4.21A7.35,7.35,0,0,1,66,249.22Zm18.42-3.94a15.79,15.79,0,0,1-.26,3.56,2.64,2.64,0,0,1-.87,1.4,3.65,3.65,0,0,1-1.54.71,14.11,14.11,0,0,1-2.76.2H72.47V231.4h3.85a23.86,23.86,0,0,1,5,.35,3.86,3.86,0,0,1,2,1.12,3.52,3.52,0,0,1,.85,1.74,25.47,25.47,0,0,1,.18,3.77Zm8.48,5.87-.27-3.55H90.74l-.31,3.55H85.13l2.62-19.77h7.42l2.94,19.77Zm17.6,0H106l-2.67-9v9H99V231.4h4.3l2.88,8.9v-8.9h4.3ZM124.53,240h-5.14v-3.44a6.14,6.14,0,0,0-.17-1.87.71.71,0,0,0-.73-.37.76.76,0,0,0-.8.46,6.68,6.68,0,0,0-.18,2v9.18a6.21,6.21,0,0,0,.18,1.88.88.88,0,0,0,1.52,0,7.2,7.2,0,0,0,.18-2.06v-2.49h5.14V244a15.31,15.31,0,0,1-.43,4.35,4.48,4.48,0,0,1-1.92,2.25,6.56,6.56,0,0,1-3.66,1,7.51,7.51,0,0,1-3.72-.82,4,4,0,0,1-1.95-2.26,14.92,14.92,0,0,1-.48-4.35v-5.77a26.18,26.18,0,0,1,.15-3.21,4.54,4.54,0,0,1,.87-2.06,4.89,4.89,0,0,1,2-1.56,8.26,8.26,0,0,1,6.7.31,4.23,4.23,0,0,1,1.95,2.19,13.24,13.24,0,0,1,.46,4.08Zm10.76,11.15h-8.91V231.4h8.57v4h-3.43v3.74h3.21v3.77h-3.21v4.35h3.77Zm13.1,0-2.08-8.47v8.47h-5.14V231.4h5.14v7.68l2.29-7.68h4.82l-2.94,8.93,3.23,10.84Zm11.34,0h-5.14V231.4h5.14Zm14-5.87a15.83,15.83,0,0,1-.26,3.56,2.64,2.64,0,0,1-.87,1.4A3.65,3.65,0,0,1,171,251a14.11,14.11,0,0,1-2.76.2h-6.48V231.4h3.85a23.85,23.85,0,0,1,5,.35,3.86,3.86,0,0,1,2,1.12,3.53,3.53,0,0,1,.85,1.74,25.45,25.45,0,0,1,.18,3.77Zm12.73,3.94a3.84,3.84,0,0,1-1.91,1.68,7.6,7.6,0,0,1-3.3.68,7.34,7.34,0,0,1-3.52-.79,3.83,3.83,0,0,1-1.92-2,10.17,10.17,0,0,1-.45-3.43v-1.29h4.77v2.4a3.24,3.24,0,0,0,.2,1.43.79.79,0,0,0,.72.32.84.84,0,0,0,.76-.4,2.35,2.35,0,0,0,.25-1.2,3.73,3.73,0,0,0-.48-2.28,15.86,15.86,0,0,0-2.41-1.79,23.78,23.78,0,0,1-2.54-1.84,4.33,4.33,0,0,1-1-1.59,7,7,0,0,1-.41-2.59,7.22,7.22,0,0,1,.58-3.32,4,4,0,0,1,1.87-1.64,7.6,7.6,0,0,1,3.13-.59,8.13,8.13,0,0,1,3.42.65,3.57,3.57,0,0,1,1.86,1.63,8.56,8.56,0,0,1,.46,3.34v.78h-4.78v-1.46a2.82,2.82,0,0,0-.18-1.31.66.66,0,0,0-.61-.29.77.77,0,0,0-.7.38,2.14,2.14,0,0,0-.24,1.15,3.17,3.17,0,0,0,.27,1.49,3.8,3.8,0,0,0,1.45,1.21A14.76,14.76,0,0,1,186,241.9a7.66,7.66,0,0,1,.9,4.21A7.37,7.37,0,0,1,186.42,249.22ZM204.94,240H199.8v-3.44a6.1,6.1,0,0,0-.17-1.87.71.71,0,0,0-.73-.37.76.76,0,0,0-.8.46,6.71,6.71,0,0,0-.18,2v9.18a6.25,6.25,0,0,0,.18,1.88.88.88,0,0,0,1.52,0,7.2,7.2,0,0,0,.18-2.06v-2.49h5.14V244a15.31,15.31,0,0,1-.43,4.35,4.48,4.48,0,0,1-1.92,2.25,6.56,6.56,0,0,1-3.66,1,7.51,7.51,0,0,1-3.72-.82,4,4,0,0,1-1.95-2.26,15,15,0,0,1-.48-4.35v-5.77a26.2,26.2,0,0,1,.15-3.21,4.54,4.54,0,0,1,.87-2.06,4.89,4.89,0,0,1,2-1.56,8.26,8.26,0,0,1,6.7.31,4.23,4.23,0,0,1,1.94,2.19,13.23,13.23,0,0,1,.46,4.08ZM215,251.16h-8.27V231.4h5.14v15.82H215ZM228,244.61a23.11,23.11,0,0,1-.15,3.16,4.37,4.37,0,0,1-.87,1.87,4.47,4.47,0,0,1-1.9,1.45,7.13,7.13,0,0,1-2.78.5,7.84,7.84,0,0,1-3.13-.59,4.66,4.66,0,0,1-2-1.53,4.2,4.2,0,0,1-.79-2c-.08-.7-.12-2.16-.12-4.39V231.4h5.14v14.82a5.69,5.69,0,0,0,.15,1.65.54.54,0,0,0,.57.36.6.6,0,0,0,.63-.4,7.72,7.72,0,0,0,.14-1.87V231.4H228Zm14,1.92a7.33,7.33,0,0,1-.46,3,2.47,2.47,0,0,1-1.46,1.32,15,15,0,0,1-4.1.35H230V231.4h5.13a13.33,13.33,0,0,1,3.68.38,3.64,3.64,0,0,1,2,1.53,6.88,6.88,0,0,1,.77,3.72,4,4,0,0,1-.54,2.42,3.79,3.79,0,0,1-2.14,1.05,3.82,3.82,0,0,1,2.42,1.34,5.14,5.14,0,0,1,.64,2.87Z"/><polygon class="cls-2" points="222.48 148.97 223.63 163.73 236.43 171.16 222.75 176.8 219.65 191.27 210.05 180.01 195.33 181.53 203.08 168.92 197.08 155.39 211.47 158.86 222.48 148.97"/><path class="cls-2" d="M78.48,292.79q0,5.26-.25,7.45A8.34,8.34,0,0,1,73.16,307,12.83,12.83,0,0,1,68,308a13.13,13.13,0,0,1-5-.92,8.39,8.39,0,0,1-5.21-6.74,73.67,73.67,0,0,1-.26-7.54v-6q0-5.26.25-7.45a8.34,8.34,0,0,1,5.08-6.78,12.83,12.83,0,0,1,5.17-1,13.15,13.15,0,0,1,5,.92,8.39,8.39,0,0,1,5.21,6.74,73.67,73.67,0,0,1,.26,7.54Zm-9.07-11.47a10.82,10.82,0,0,0-.27-3.12,1.07,1.07,0,0,0-1.11-.68,1.24,1.24,0,0,0-1.09.55,7.78,7.78,0,0,0-.38,3.24v16.29a16,16,0,0,0,.25,3.75,1.08,1.08,0,0,0,1.15.71,1.12,1.12,0,0,0,1.19-.82,17.25,17.25,0,0,0,.26-3.9Z"/><path class="cls-2" d="M106.39,282.91H98v-2.59a5.07,5.07,0,0,0-.32-2.31,1.19,1.19,0,0,0-1.08-.5,1.37,1.37,0,0,0-1.24.67,3.88,3.88,0,0,0-.42,2,5.74,5.74,0,0,0,.47,2.63A6.85,6.85,0,0,0,97.94,285q6.06,3.6,7.63,5.9t1.57,7.44a13,13,0,0,1-.87,5.5,6.84,6.84,0,0,1-3.37,3,13.34,13.34,0,0,1-5.82,1.2,13,13,0,0,1-6.22-1.38,6.76,6.76,0,0,1-3.37-3.51,18,18,0,0,1-.8-6.06v-2.29h8.43V299a5.58,5.58,0,0,0,.36,2.52,1.37,1.37,0,0,0,1.26.56,1.48,1.48,0,0,0,1.35-.71,4.06,4.06,0,0,0,.44-2.11q0-3.08-.84-4a26.81,26.81,0,0,0-4.25-3.17A41.78,41.78,0,0,1,89,288.8a7.61,7.61,0,0,1-1.82-2.8,12.32,12.32,0,0,1-.72-4.57,12.67,12.67,0,0,1,1-5.86,6.89,6.89,0,0,1,3.31-2.9,13.21,13.21,0,0,1,5.52-1,14.37,14.37,0,0,1,6,1.14,6.31,6.31,0,0,1,3.3,2.88,15.24,15.24,0,0,1,.81,5.89Z"/><path class="cls-2" d="M131,272.35l5.19,34.89h-9.27L126.4,301h-3.25l-.55,6.27h-9.38l4.63-34.89Zm-4.81,22.44q-.69-5.93-1.38-14.66-1.39,10-1.74,14.66Z"/><path class="cls-2" d="M164.63,272.35l-5.21,15.76,5.7,19.14h-9.38l-3.67-15v15H143V272.35h9.07v13.56l4-13.56Z"/><path class="cls-2" d="M187.67,272.35l5.19,34.89h-9.27L183.1,301h-3.25l-.55,6.27h-9.38l4.63-34.89Zm-4.81,22.44q-.69-5.93-1.38-14.66-1.39,10-1.74,14.66Z"/><path class="cls-3" d="M94.58,10.47h1.74l-.75,4.07-.25.41v.83l-.25.41-.24,1.66c-.17.69-.29,1.17-.38,1.45a3.5,3.5,0,0,1-.37.83V21l-.75,2.2L93.09,25a4,4,0,0,0-.5,2.07,13.72,13.72,0,0,0-.75,2.69l-.25,1-1.16,5.1a10.92,10.92,0,0,1-.5,1.86l-.5,2.48-.24,1.17-.75,2.28v.62L88,45.59v.83l-.5,1.24-.25,1.24-.25.83-.75,3.45A23.16,23.16,0,0,1,85,57.93l-.24,1.24-.5,2.21-.74,2.69-.75,3.1c-.49,2.07-.83,3.7-1,4.9l-.25,1a16.9,16.9,0,0,1-1,3.31l-.25,1.66-.25.83-.17,1-.5,1.59c-.49,2.07-.82,3.73-1,5a4.42,4.42,0,0,0-.49,1.86,3,3,0,0,0-.5,1.38,11.8,11.8,0,0,0-.5,2.69l-.5,1.66-.25,1.45-1.74,6.35-.74,3.31-.25,1.65-1.74,6.76-.25,1.45a3.17,3.17,0,0,0-.5,1.45,23.64,23.64,0,0,1-1.24,4.89,6.26,6.26,0,0,1-.49,2.28v.62a12.77,12.77,0,0,0-.75,2.9.76.76,0,0,1-.66-.42l-1.49-2.28-.24-.62-1-1.45-.24-.62L63.51,120a2.13,2.13,0,0,1-.5-.83,2.16,2.16,0,0,1-.5-.76l-2.73-4.55A16.71,16.71,0,0,1,58,111.33l-4.89-8-.25-.62-1-1.45-.25-.62-2.73-4.07-.75-1.24-2.49-4.14L45,89.95l-.67-1.17-.75-1.24-.75-1.24L42,85l-.75-1.24L37.82,78.5l-.49-1a19.42,19.42,0,0,0-1.24-1.87l-2.24-3.72-.5-.62a26.78,26.78,0,0,1-1.91-3.45,2.23,2.23,0,0,1-.5-.83l-2.73-4.14-.74-1.45A9.81,9.81,0,0,1,26,59l-1.24-1.65L24,55.86,17.85,46a8.73,8.73,0,0,0-1-1.65l-.25-.62-1-1.45a2.12,2.12,0,0,1-.5-.83l-3-4.69-.75-1.24a7,7,0,0,1-1.24-2.07L8.74,31.24A21.93,21.93,0,0,1,6.5,26.69l6.13-.83h1a1.68,1.68,0,0,1,1-.21L18.85,25l1.49-.21,3.4-.41.74-.21h1.24l5.47-.83,1.74-.21c.77-.14,1.45-.24,2-.31s1.2-.17,1.86-.31a9,9,0,0,1,1.24,2.69l2.24,5.59a8.79,8.79,0,0,1,1.24,2.83L44,39.24a28.08,28.08,0,0,0,1.66,4.07l.75,2.28a9,9,0,0,1,1.24,2.69,24.13,24.13,0,0,1,1.74,4.28L57.29,71a25,25,0,0,0,2,4.76l.5,1.66.75,1.45,1.24,2.83V75.6A14.9,14.9,0,0,0,62,72.7V66.56a19.81,19.81,0,0,0,.25-3.31c0-2.85.08-5.32.25-7.39V49.52l.25-.62V40.48q.5-1.86.25-7.86a13.88,13.88,0,0,0,.25-2.83V25l.25-1.66v-7a26,26,0,0,0,4-.83l2.65-.41a26.61,26.61,0,0,0,2.74-.62l3.48-.62a32.18,32.18,0,0,0,4.14-.83h.75l1.49-.41L84,12.47l1.25-.21,1.49-.21a39.25,39.25,0,0,1,4.89-1Z"/><path class="cls-3" d="M92.59,32.41l27.61-4.48a18,18,0,0,1-.23,5.64l.12.73-.17,1.16-.06.8-.12,3a22.1,22.1,0,0,0-.18,3.43l-.11.55L119,50.13c0,.86,0,1.51-.06,2a6.18,6.18,0,0,0,0,1.23,10.56,10.56,0,0,0-.18,3.44l-.18.37-.7,14.28-.06.92-.29,4.17-.18,2.14a7.36,7.36,0,0,0,0,1.29l-.17,1.16v1.1l-.06,2.08-.06,1-.12.37-.06,2.09-.23,2.08a6.3,6.3,0,0,1-.18,2.51l.06,1.29-.23,2.08a30.54,30.54,0,0,1-.18,4.78l-.06.74-.06,2.08-.29,1.9v1a15.74,15.74,0,0,1-.12,2.82l-.41,5.7.06,1.53a27.39,27.39,0,0,0-.23,3.19l-.18,1.35.06,1.53-.35,4.72v1.35a3.54,3.54,0,0,1-3.32-.06l-4.72-.92a3.45,3.45,0,0,0-.82-.25l-1.34-.3-1.63-10.66.06-.92-.46-2.76a35.7,35.7,0,0,1-.35-3.74l-.76-4.6.06-1.1-.81-5a4.59,4.59,0,0,0,0-1.46l-.64-4A4.18,4.18,0,0,0,99.81,91l-.41-2.7q-.23-1.47-.41-3.74l-.29-1.84a6.58,6.58,0,0,1-.23-2.58l-.76-5-.23-2.76a19.27,19.27,0,0,1-.47-4.1l-.81-5.28.11-.61-.87-5.52.12-.37-.7-4.78-.06-1.29L94,45.35l.05-.61-.81-5.34.12-.55-.76-5Z"/><path class="cls-3" d="M126.9,14.65,132,13.41l1.35-.14,1.7-.48.77.07,2.53-.62.88-.06a5.53,5.53,0,0,1,2.41-.35L147,10.71l1.06-.06a7.2,7.2,0,0,1,2.76-.49L156.34,9l.35.14,2.06-.55,2.76-.49a17.57,17.57,0,0,1-.59,5.8l-.06.48-.29,2.56a13.82,13.82,0,0,1-.35,1.8l-.47,3.45a5,5,0,0,1-.12,1.24l-1.7,12.16-.23.69-.12,1.52-.23,1.52-.29,1.31-1.12,8.63-.23.69-.06,1.52-.24.9v.83l-1.82,11.74-.24,1.52a11,11,0,0,1-.29,2.42l-.18.9-.12,1.45-.24,1.52-1.06,7.8-.29,1.59-1.06,7.8-.23.69-.12,1.45-.17.9v.83a5,5,0,0,0-.36,2.21l-.24.69-.12,1-.06.9-.58,3.45a11.89,11.89,0,0,1-.3,2.42l-.06.83-.35,1.8a14.45,14.45,0,0,0,4.94-2.14,16.32,16.32,0,0,1,1.7-.62l1.94-.9a5.57,5.57,0,0,1,1.18-.48l3.64-1.52a5.45,5.45,0,0,1,2.11-1l1-.48,2.82-1.31.94-.48,1-.41,3.29-1.45.47,4.49a31.88,31.88,0,0,1,.41,4.07l.24,1.38-.12.48.94,7.93-4.94,1.46-.29.27-6.93,1.93-.65.35-3.11.76-.65.41-2.53.62-.65.35-2.41.62-1.11.49-9.52,2.83-1.12.48-7.35,1.79L127,16.31Z"/><path class="cls-3" d="M183.48,39.58l10-3.25q15.25-4,24.36,4.89l.36,1.19a16.93,16.93,0,0,1-1.18,2l-.52,1a9.37,9.37,0,0,0-.87,1.49,7.11,7.11,0,0,0-1.13,1.7l-1.86,3.14q-1,1.64-1.91,2.93l-.2.41-2.83-.41h-.52a13,13,0,0,0-2.26-.26,6.29,6.29,0,0,0-1.44-.21,8.27,8.27,0,0,0-2-.05l-.56-.15-.67.05-4.94.26-1.13.2A13.36,13.36,0,0,0,187,61.37q-1.65,10,15.86,16.06a14.05,14.05,0,0,0,2.21,1.13l.62.31.36.05,2.21,1.13.56.16,1.19.62q23.17,12.72,11.54,35.54-5.36,8.34-16,11.43-14.63,4.9-31.67-2.52a2.46,2.46,0,0,1-1-1l.62-2.73.21-.87.06-.52.46-1.7V118l.67-2.63v-.46a5.55,5.55,0,0,0,.47-2.22l1-4.17q19.16,14.83,34.56-3.14a10.58,10.58,0,0,0,1.24-3.45l.05-.36a9.14,9.14,0,0,0-4.53-6.23,31.82,31.82,0,0,0-4.38-2L201,92.52l-.93-.36q-22.41-2-30.59-23.59a18.8,18.8,0,0,1-1.18-4.68l-.21-.62Q168.4,47.66,183.48,39.58Z"/><path class="cls-3" d="M51.88,126.33H65a11.23,11.23,0,0,1,3.25.17,17.13,17.13,0,0,1,3.65.33l1,.17h.66l.61.17,2.32.28.66.17,3.09.83,1,.16,5.91,2.15a6.53,6.53,0,0,0,1.16.66l3,1.49.94.61.33.33,1,.66.33.17,4.25,4,2.15,3.09.5.66,1.66,3.92q8.83,29.53-14.62,50.88l-4.75,3.76-.33.33-1.16.66-.66.5-4.58,2.76a3.72,3.72,0,0,1-1.49.83,3.8,3.8,0,0,1-1.43.83l-.5.33-1.66.83-.5.17q-.83.5-3.26,1.6l-1.33.5-1.82.83a15.72,15.72,0,0,0-3.42,1.32,5.87,5.87,0,0,1-1.66.5l-4.08,1.49-1.16.33-1.16.33-.66.17-.66.11a11.71,11.71,0,0,1-2.26.66l-.66.17-3,.66a3.4,3.4,0,0,1-2.1,0l-.5-3.59-.33-1.16-.17-1v-.5l-.66-3.42-.17-1L41.56,205l-.17-1A9.41,9.41,0,0,1,41,202.6a7.09,7.09,0,0,1-.08-1.16l2.65-.17,1.27-.17,4.8-.33.5-.17L50,195.37l-.17-.66v-3.59l-.17-.83v-2.49a3.79,3.79,0,0,0-.17-1.93v-4.3a1,1,0,0,1-.17-.66l-.17-8.33-.16-.66v-2.65L48.79,168l-.17-7.73L48.46,159v-3.76l-.17-1.32v-3.26l-.17-.5v-3.64a6.14,6.14,0,0,0-2.49-.17,7.35,7.35,0,0,0-2.76-.17l-.5-.17H40.24l-1.77-.17q-1.82-.16-3-.17a13.48,13.48,0,0,0-1.65-.17H32.07l-1.16-.16-.33-5.24c-.11-1-.22-1.77-.33-2.43v-1.82c-.11-1.1-.22-2-.33-2.65v-1.6l-.17-2.15,2-.33.94-.17.5-.17,2.81-.5a5.6,5.6,0,0,0,1.66-.33,2.44,2.44,0,0,0,1.1-.17h.66l3.65-.5,1-.11,1.1-.17,5.74-.5ZM86,161.27q-5.74-16.12-22.62-16.39a1.07,1.07,0,0,0-1,.77v50.72a6.16,6.16,0,0,0,2-.33l.83-.17,1.82-.5Q89.63,187.15,86,161.27Z"/><path class="cls-3" d="M154.75,121.14h.37l1.66,4.2.16.63,5.32,14.28a2.52,2.52,0,0,1,.38,1l1.5,3.67v1.21l-2.2,2.68a2.86,2.86,0,0,0-1,1l-2.52,3.2-.59.69-.54.63a22.08,22.08,0,0,0-2.57,3l-1.83,2.15a12.05,12.05,0,0,1-1.45,1.68l-3,3.73a6.88,6.88,0,0,0-.54.63l-7,8.71a21.91,21.91,0,0,1,1.66,1.89l1.45,1.47.16.37a9.61,9.61,0,0,1,1.51,1.68,13.48,13.48,0,0,1,2.36,2.67l.91,1,.75.68a14.84,14.84,0,0,1,1.07,1.31,11.89,11.89,0,0,1,1.5,1.68l.7.68,1.88,2.2,1.61,1.84.91,1,.38.31a20.84,20.84,0,0,1,2.2,2.52c.5.56.93,1,1.29,1.37A15.31,15.31,0,0,1,159,200.3l-.37.31-.54.84a7.12,7.12,0,0,0-.91,1l-3.49,4.36-.91,1.21-.59.63-.7.52a16,16,0,0,1-1.66-2.36l-.91-1.16-.91-1.37a15,15,0,0,0-1.29-1.84l-.37-.68-2.42-3.36-.16-.32-5.32-7.56-.37-.31-.91-1.37-2-2.84-.54-1-.91-1.16a11.8,11.8,0,0,0-.17,4.67v2.36a4.09,4.09,0,0,1,.17,1.31l.16,6.56a11.65,11.65,0,0,1,.21,2.36l.16,3.67a4.65,4.65,0,0,0,.21,2.15l.17,6.88-3.87,2-.38.32-4.4,2.36-.92.68-.54.15-2.74,1.68h-.91l-.59-3.73-.32-1.15-.22-1-.16-1A29.75,29.75,0,0,0,119,211a12.31,12.31,0,0,0-.59-2.68l-.16-1.36-.21-1.31a27,27,0,0,1-.7-3.88l-.21-1-.54-2.52a5.25,5.25,0,0,0-.38-1.84L116,195.1q-.22-1.36-.29-1.94c-.05-.38-.13-.8-.24-1.26l-.38-1.36a8.27,8.27,0,0,1-.22-1.68l-.16-1.16-.22-.52a5.92,5.92,0,0,0-.32-1.84v-.63a16.64,16.64,0,0,1-.59-3l-.17-.52-.91-5.2a13.12,13.12,0,0,1-.54-2.83c-.14-.77-.24-1.36-.29-1.76a6.93,6.93,0,0,0-.3-1.23l-1.08-5.57v-.68a.76.76,0,0,1-.22-.63l-.54-2.88-.54-2.52a8.41,8.41,0,0,1-.21-1.68l-.16-1.16-.16-1c-.14-.66-.28-1.2-.4-1.6a4.88,4.88,0,0,1-.19-1.44,5.57,5.57,0,0,1-.32-1.68l-.22-.63-.16-1.21-.22-1-.16-1.16a8.45,8.45,0,0,1-.38-2,13.77,13.77,0,0,1-.54-3l-.21-.53-.32-2.31-.22-.52-.54-3.67-.37-1.2v-1.84a16.79,16.79,0,0,1,2.73-.47l3.11-.52a25.58,25.58,0,0,0,2.88-.42,24.72,24.72,0,0,1,3-.42l6.6-1,1.29-.32a2.94,2.94,0,0,0,1.29-.21,7,7,0,0,0,2-.32l2-.15,1.28-.16.17,5a12.13,12.13,0,0,1,.21,2.36l.37,9.55a17,17,0,0,1,.16,4.2l.16.68.21,7.19a10.88,10.88,0,0,1,.16,2l.22.84,5.1-8.56a3.75,3.75,0,0,0,.49-.6,5.33,5.33,0,0,0,.48-.92l1.24-2.21,1-1.47,3.11-4.88.54-1,2.74-4.52.54-.84,2.79-4.36a3.68,3.68,0,0,0,.37-.68l1.08-1.68a6.11,6.11,0,0,0,.91-1.68l2-3Z"/><path class="cls-3" d="M191.84,128l3.7-.53a23.54,23.54,0,0,1,10.82.44,1.65,1.65,0,0,1,.8,1.35,20,20,0,0,0-1.1,3.75l-.29,1.33-.33,1.17-1.15,4.25a19,19,0,0,0-.88,3l-1.16,4.42q-22.52,5.6-26.89,26.39-2,16.08,11,28.28,10.5,6.15,19.45-15.82l1.29,2.27.38.46,5.43,9.78.42.61.25.6,1.29,2.27.43.45,1.09,2.1q-9.33,14.68-26.09,16.87-18.11,2.28-29.28-14.59l-.58-.85-1.93-4.31q-4.94-17.55,1.77-37.19,5.53-19.53,23.68-33l4.24-2.24,2-.79A4.29,4.29,0,0,0,191.84,128Z"/><path class="cls-3" d="M78.76,235a2.57,2.57,0,0,0-1.15-.18v13c.74,0,1.2-.15,1.37-.45a6.54,6.54,0,0,0,.26-2.42v-7.68a9.94,9.94,0,0,0-.09-1.72A.83.83,0,0,0,78.76,235Z"/><path class="cls-3" d="M90.69,244.11h1.76q-.39-3.36-.78-8.3Q90.89,241.48,90.69,244.11Z"/><path class="cls-3" d="M235.1,242.25v5.54a2.21,2.21,0,0,0,1.39-.35,2.4,2.4,0,0,0,.3-1.5V244.1c0-.85-.09-1.37-.27-1.54A2.44,2.44,0,0,0,235.1,242.25Z"/><path class="cls-3" d="M168.07,235a2.56,2.56,0,0,0-1.15-.18v13c.74,0,1.2-.15,1.37-.45a6.53,6.53,0,0,0,.26-2.42v-7.68a10,10,0,0,0-.09-1.72A.83.83,0,0,0,168.07,235Z"/><path class="cls-3" d="M236.17,234.89a3.91,3.91,0,0,0-1.07-.11v4.39h.51c.51,0,.83-.13,1-.37a6.28,6.28,0,0,0,.21-2.13,3.55,3.55,0,0,0-.17-1.3A.83.83,0,0,0,236.17,234.89Z"/><path class="cls-3" d="M17.3,224.06v35.09H246.61V224.06Zm17.65,27.11H27.13l-3-19.77h5.42q.95,8.17,1.35,13.83.4-5.72.84-10.15l.36-3.68h5.42Zm8.62,0H38.42V231.4h5.14Zm10.33,0H45.63V231.4h5.14v15.82h3.13ZM66,249.22A3.84,3.84,0,0,1,64,250.91a7.6,7.6,0,0,1-3.3.68,7.34,7.34,0,0,1-3.52-.79,3.82,3.82,0,0,1-1.92-2,10.18,10.18,0,0,1-.45-3.43v-1.29h4.77v2.4a3.24,3.24,0,0,0,.2,1.43.79.79,0,0,0,.72.32.84.84,0,0,0,.76-.4,2.35,2.35,0,0,0,.25-1.2,3.73,3.73,0,0,0-.48-2.28,15.89,15.89,0,0,0-2.41-1.79,23.82,23.82,0,0,1-2.54-1.84,4.33,4.33,0,0,1-1-1.59,7,7,0,0,1-.41-2.59,7.23,7.23,0,0,1,.58-3.32,4,4,0,0,1,1.87-1.64,7.6,7.6,0,0,1,3.13-.59,8.13,8.13,0,0,1,3.41.65,3.56,3.56,0,0,1,1.86,1.63A8.54,8.54,0,0,1,66,236.6v.78H61.25v-1.46a2.81,2.81,0,0,0-.18-1.31.66.66,0,0,0-.61-.29.77.77,0,0,0-.7.38,2.14,2.14,0,0,0-.24,1.15,3.17,3.17,0,0,0,.27,1.49,3.81,3.81,0,0,0,1.45,1.21,14.76,14.76,0,0,1,4.32,3.34,7.67,7.67,0,0,1,.9,4.21A7.35,7.35,0,0,1,66,249.22Zm18.42-3.94a15.79,15.79,0,0,1-.26,3.56,2.64,2.64,0,0,1-.87,1.4,3.65,3.65,0,0,1-1.54.71,14.11,14.11,0,0,1-2.76.2H72.47V231.4h3.85a23.86,23.86,0,0,1,5,.35,3.86,3.86,0,0,1,2,1.12,3.52,3.52,0,0,1,.85,1.74,25.47,25.47,0,0,1,.18,3.77Zm8.48,5.87-.27-3.55H90.74l-.31,3.55H85.13l2.62-19.77h7.42l2.94,19.77Zm17.6,0H106l-2.67-9v9H99V231.4h4.3l2.88,8.9v-8.9h4.3ZM124.53,240h-5.14v-3.44a6.14,6.14,0,0,0-.17-1.87.71.71,0,0,0-.73-.37.76.76,0,0,0-.8.46,6.68,6.68,0,0,0-.18,2v9.18a6.21,6.21,0,0,0,.18,1.88.88.88,0,0,0,1.52,0,7.2,7.2,0,0,0,.18-2.06v-2.49h5.14V244a15.31,15.31,0,0,1-.43,4.35,4.48,4.48,0,0,1-1.92,2.25,6.56,6.56,0,0,1-3.66,1,7.51,7.51,0,0,1-3.72-.82,4,4,0,0,1-1.95-2.26,14.92,14.92,0,0,1-.48-4.35v-5.77a26.18,26.18,0,0,1,.15-3.21,4.54,4.54,0,0,1,.87-2.06,4.89,4.89,0,0,1,2-1.56,8.26,8.26,0,0,1,6.7.31,4.23,4.23,0,0,1,1.95,2.19,13.24,13.24,0,0,1,.46,4.08Zm10.76,11.15h-8.91V231.4h8.57v4h-3.43v3.74h3.21v3.77h-3.21v4.35h3.77Zm13.1,0-2.08-8.47v8.47h-5.14V231.4h5.14v7.68l2.29-7.68h4.82l-2.94,8.93,3.23,10.84Zm11.34,0h-5.14V231.4h5.14Zm14-5.87a15.83,15.83,0,0,1-.26,3.56,2.64,2.64,0,0,1-.87,1.4A3.65,3.65,0,0,1,171,251a14.11,14.11,0,0,1-2.76.2h-6.48V231.4h3.85a23.85,23.85,0,0,1,5,.35,3.86,3.86,0,0,1,2,1.12,3.53,3.53,0,0,1,.85,1.74,25.45,25.45,0,0,1,.18,3.77Zm12.73,3.94a3.84,3.84,0,0,1-1.91,1.68,7.6,7.6,0,0,1-3.3.68,7.34,7.34,0,0,1-3.52-.79,3.83,3.83,0,0,1-1.92-2,10.17,10.17,0,0,1-.45-3.43v-1.29h4.77v2.4a3.24,3.24,0,0,0,.2,1.43.79.79,0,0,0,.72.32.84.84,0,0,0,.76-.4,2.35,2.35,0,0,0,.25-1.2,3.73,3.73,0,0,0-.48-2.28,15.86,15.86,0,0,0-2.41-1.79,23.78,23.78,0,0,1-2.54-1.84,4.33,4.33,0,0,1-1-1.59,7,7,0,0,1-.41-2.59,7.22,7.22,0,0,1,.58-3.32,4,4,0,0,1,1.87-1.64,7.6,7.6,0,0,1,3.13-.59,8.13,8.13,0,0,1,3.42.65,3.57,3.57,0,0,1,1.86,1.63,8.56,8.56,0,0,1,.46,3.34v.78h-4.78v-1.46a2.82,2.82,0,0,0-.18-1.31.66.66,0,0,0-.61-.29.77.77,0,0,0-.7.38,2.14,2.14,0,0,0-.24,1.15,3.17,3.17,0,0,0,.27,1.49,3.8,3.8,0,0,0,1.45,1.21A14.76,14.76,0,0,1,186,241.9a7.66,7.66,0,0,1,.9,4.21A7.37,7.37,0,0,1,186.42,249.22ZM204.94,240H199.8v-3.44a6.1,6.1,0,0,0-.17-1.87.71.71,0,0,0-.73-.37.76.76,0,0,0-.8.46,6.71,6.71,0,0,0-.18,2v9.18a6.25,6.25,0,0,0,.18,1.88.88.88,0,0,0,1.52,0,7.2,7.2,0,0,0,.18-2.06v-2.49h5.14V244a15.31,15.31,0,0,1-.43,4.35,4.48,4.48,0,0,1-1.92,2.25,6.56,6.56,0,0,1-3.66,1,7.51,7.51,0,0,1-3.72-.82,4,4,0,0,1-1.95-2.26,15,15,0,0,1-.48-4.35v-5.77a26.2,26.2,0,0,1,.15-3.21,4.54,4.54,0,0,1,.87-2.06,4.89,4.89,0,0,1,2-1.56,8.26,8.26,0,0,1,6.7.31,4.23,4.23,0,0,1,1.94,2.19,13.23,13.23,0,0,1,.46,4.08ZM215,251.16h-8.27V231.4h5.14v15.82H215ZM228,244.61a23.11,23.11,0,0,1-.15,3.16,4.37,4.37,0,0,1-.87,1.87,4.47,4.47,0,0,1-1.9,1.45,7.13,7.13,0,0,1-2.78.5,7.84,7.84,0,0,1-3.13-.59,4.66,4.66,0,0,1-2-1.53,4.2,4.2,0,0,1-.79-2c-.08-.7-.12-2.16-.12-4.39V231.4h5.14v14.82a5.69,5.69,0,0,0,.15,1.65.54.54,0,0,0,.57.36.6.6,0,0,0,.63-.4,7.72,7.72,0,0,0,.14-1.87V231.4H228Zm14,1.92a7.33,7.33,0,0,1-.46,3,2.47,2.47,0,0,1-1.46,1.32,15,15,0,0,1-4.1.35H230V231.4h5.13a13.33,13.33,0,0,1,3.68.38,3.64,3.64,0,0,1,2,1.53,6.88,6.88,0,0,1,.77,3.72,4,4,0,0,1-.54,2.42,3.79,3.79,0,0,1-2.14,1.05,3.82,3.82,0,0,1,2.42,1.34,5.14,5.14,0,0,1,.64,2.87Z"/><polygon class="cls-3" points="222.48 148.97 223.63 163.73 236.43 171.16 222.75 176.8 219.65 191.27 210.05 180.01 195.33 181.53 203.08 168.92 197.08 155.39 211.47 158.86 222.48 148.97"/><path class="cls-3" d="M78.48,292.79q0,5.26-.25,7.45A8.34,8.34,0,0,1,73.16,307,12.83,12.83,0,0,1,68,308a13.13,13.13,0,0,1-5-.92,8.39,8.39,0,0,1-5.21-6.74,73.67,73.67,0,0,1-.26-7.54v-6q0-5.26.25-7.45a8.34,8.34,0,0,1,5.08-6.78,12.83,12.83,0,0,1,5.17-1,13.15,13.15,0,0,1,5,.92,8.39,8.39,0,0,1,5.21,6.74,73.67,73.67,0,0,1,.26,7.54Zm-9.07-11.47a10.82,10.82,0,0,0-.27-3.12,1.07,1.07,0,0,0-1.11-.68,1.24,1.24,0,0,0-1.09.55,7.78,7.78,0,0,0-.38,3.24v16.29a16,16,0,0,0,.25,3.75,1.08,1.08,0,0,0,1.15.71,1.12,1.12,0,0,0,1.19-.82,17.25,17.25,0,0,0,.26-3.9Z"/><path class="cls-3" d="M106.39,282.91H98v-2.59a5.07,5.07,0,0,0-.32-2.31,1.19,1.19,0,0,0-1.08-.5,1.37,1.37,0,0,0-1.24.67,3.88,3.88,0,0,0-.42,2,5.74,5.74,0,0,0,.47,2.63A6.85,6.85,0,0,0,97.94,285q6.06,3.6,7.63,5.9t1.57,7.44a13,13,0,0,1-.87,5.5,6.84,6.84,0,0,1-3.37,3,13.34,13.34,0,0,1-5.82,1.2,13,13,0,0,1-6.22-1.38,6.76,6.76,0,0,1-3.37-3.51,18,18,0,0,1-.8-6.06v-2.29h8.43V299a5.58,5.58,0,0,0,.36,2.52,1.37,1.37,0,0,0,1.26.56,1.48,1.48,0,0,0,1.35-.71,4.06,4.06,0,0,0,.44-2.11q0-3.08-.84-4a26.81,26.81,0,0,0-4.25-3.17A41.78,41.78,0,0,1,89,288.8a7.61,7.61,0,0,1-1.82-2.8,12.32,12.32,0,0,1-.72-4.57,12.67,12.67,0,0,1,1-5.86,6.89,6.89,0,0,1,3.31-2.9,13.21,13.21,0,0,1,5.52-1,14.37,14.37,0,0,1,6,1.14,6.31,6.31,0,0,1,3.3,2.88,15.24,15.24,0,0,1,.81,5.89Z"/><path class="cls-3" d="M131,272.35l5.19,34.89h-9.27L126.4,301h-3.25l-.55,6.27h-9.38l4.63-34.89Zm-4.81,22.44q-.69-5.93-1.38-14.66-1.39,10-1.74,14.66Z"/><path class="cls-3" d="M164.63,272.35l-5.21,15.76,5.7,19.14h-9.38l-3.67-15v15H143V272.35h9.07v13.56l4-13.56Z"/><path class="cls-3" d="M187.67,272.35l5.19,34.89h-9.27L183.1,301h-3.25l-.55,6.27h-9.38l4.63-34.89Zm-4.81,22.44q-.69-5.93-1.38-14.66-1.39,10-1.74,14.66Z"/></g></svg>