<svg id="レイヤー_1" data-name="レイヤー 1" xmlns="http://www.w3.org/2000/svg" viewBox="0 0 393.95 53"><defs><style>.cls-1{fill:#fff}</style></defs><path class="cls-1" d="M15.27.41h.3l-.13.71v.57l-.07.25a.35.35 0 01-.06.14v.14l-.13.38v.32a.74.74 0 00-.09.36 2.52 2.52 0 00-.13.47v.18l-.2.88a1.68 1.68 0 01-.09.32l-.09.43v.2l-.13.4v.11l-.09.22v.14l-.36.23v.36l-.13.6a4.07 4.07 0 01-.22.83v.22l-.09.38-.13.47-.13.54a8.36 8.36 0 00-.17.85v.18a2.69 2.69 0 01-.17.57v.61l-.09.28a8.45 8.45 0 00-.17.86.9.9 0 00-.09.32.5.5 0 00-.09.24 1.86 1.86 0 00-.09.47l-.09.29v.25l-.3 1.1-.13.57v.29l-.3 1.17v.25a.54.54 0 00-.09.25 4.08 4.08 0 01-.22.85.93.93 0 01-.09.4v.11a2.17 2.17 0 00-.13.5.14.14 0 01-.08-.07l-.26-.39v-.11l-.17-.25v-.11l-.22-.32a.42.42 0 01-.09-.14.38.38 0 01-.09-.13l-.47-.79a3.3 3.3 0 01-.3-.43l-.85-1.39v-.11l-.17-.25v-.11l-.47-.71-.13-.21-.43-.72-.13-.22-.67-.21-.13-.22-.13-.22-.13-.22-.16-.21-.6-.92-.05-.21a3.62 3.62 0 00-.22-.32L4.74 11h-.08a5.76 5.76 0 01-.33-.6.42.42 0 01-.09-.14l-.47-.72-.13-.25a1.83 1.83 0 01-.26-.42l-.22-.29-.16-.3-1-1.71a1.69 1.69 0 00-.17-.29v-.11l-.17-.25a.42.42 0 01-.09-.14L1 5l-.15-.24a1.34 1.34 0 01-.22-.36L.39 4A3.79 3.79 0 010 3.22l1.06-.14h.17a.25.25 0 01.17 0L2.13 3h.26L3 2.83h.35l.95-.14h.65l.32-.05a1.59 1.59 0 01.21.36l.39 1a1.45 1.45 0 01.22.49l.43 1a4.81 4.81 0 00.29.71l.13.39a1.56 1.56 0 01.2.41 4.78 4.78 0 01.3.74L8.81 11a4.05 4.05 0 00.35.83l.09.29.13.25.21.49v-1.1a2.09 2.09 0 000-.5v-1.12a2.71 2.71 0 000-.57V5.62a6.18 6.18 0 000-1.36 2 2 0 000-.49V1.44a5.63 5.63 0 00.69-.14l.72-.07.47-.11.6-.11a6.1 6.1 0 00.72-.14H13l.22-.07h.7a8 8 0 01.85-.17zm-.34 3.81l4.79-.78a3.35 3.35 0 010 1v1a2.91 2.91 0 000 .59v.1l-.07 1.19v.34a.74.74 0 000 .21 2 2 0 000 .6v.06L19.32 11v.16l-.05.72v.37a.81.81 0 000 .22v1.7a1.09 1.09 0 010 .44v.58A5.5 5.5 0 0119 16v.49l-.05.33V17a4 4 0 010 .49l-.07 1v.27a5 5 0 000 .55v.5l-.06.82v.23a.6.6 0 01-.58 0l-.82-.16h-.14l-.28-.11-.28-1.85v-.16l-.08-.48c0-.22-.05-.43-.06-.65l-.13-.8v-.19l-.14-.86a1 1 0 000-.25l-.11-.7a.61.61 0 000-.27l-.07-.47a3.52 3.52 0 00-.07-.65l-.06-.32a1.14 1.14 0 010-.45l-.13-.86v-.48a3.36 3.36 0 01-.08-.71l-.14-.91v-.11l-.15-1v-.06l-.12-.83v-.18l-.13-.89v-.11L15 5.43v-.09l-.13-.86zm5.95-3.08l.89-.22L22 .9l.3-.08h.13l.44-.11H23a1 1 0 01.42-.06l.93-.19h.18a1.28 1.28 0 01.47-.1l1-.2h.06l.34-.08.48-.08a3.07 3.07 0 01-.1 1v.08l-.05.44a1.7 1.7 0 01-.06.31l-.08.6a.81.81 0 010 .22l-.3 2.11v.64l-.05.23-.19 1.5v.68l-.32 2v.26a2 2 0 01-.05.42v.67l-.18 1.35-.05.28-.18 1.35v.67a.82.82 0 00-.06.38v.46l-.1.6a2 2 0 01-.05.42v.14l-.06.31a2.44 2.44 0 00.86-.37l.3-.11.34-.16.2-.08.63-.26a1 1 0 01.37-.14l.17-.08.49-.23.16-.08.17-.07.57-.25.08.78a5.51 5.51 0 01.07.71v.32l.16 1.38-.86.25h-.05l-1.2.33-.11.06-.54.13-.11.07-.44.11-.11.06-.42.11-.19.08-1.65.49-.19.08-1.27.31-1-19.2z"/><path class="cls-1" d="M30.69 5.46l1.74-.56a4.18 4.18 0 014.22.85l.06.21a2.39 2.39 0 01-.21.34l-.09.17a1.35 1.35 0 00-.15.26 1.15 1.15 0 00-.2.29l-.32.54a5.65 5.65 0 01-.33.51v.07l-.49-.07h-2.38a2.3 2.3 0 00-1.25 1.2Q31 11 34 12a2.75 2.75 0 00.38.2l.11.05h.06l.38.2H35l.21.11q4 2.2 2 6.16a4.73 4.73 0 01-2.77 2 7.51 7.51 0 01-5.47-.4.39.39 0 01-.18-.18l.11-.47v-.24l.08-.29v-.08l.12-.46v-.08a1 1 0 00.08-.38l.17-.72q3.32 2.56 6-.54a1.87 1.87 0 00.21-.6v-.08a1.59 1.59 0 00-.79-1.08 5.23 5.23 0 00-.76-.35l-.39-.13-.16-.06a5.86 5.86 0 01-5.3-4.09 3.22 3.22 0 01-.16-.81v-.11a4.55 4.55 0 012.69-4.11zM7.87 20.5h2.28a1.75 1.75 0 01.56 0 3.36 3.36 0 01.63.06h.92l.54.14h.2l1 .37.2.12.52.26.16.11.06.06.17.11h.06l.74.69.37.54.09.11.29.68a8 8 0 01-2.54 8.82l-.82.65-.06.06-.2.12-.11.09-.79.48a.6.6 0 01-.26.14.77.77 0 01-.25.14l-.09.06-.29.14h-.09a5.51 5.51 0 01-.56.28l-.23.09-.37.38a2.67 2.67 0 00-.59.23 1.4 1.4 0 01-.29.09l-.71.26-.2.06-.21.06h-.22a2.91 2.91 0 01-.39.12h-.11l-.52.11a.55.55 0 01-.36 0l-.09-.62-.06-.2v-.26l-.11-.59v-.54a1.33 1.33 0 01-.14-.19.67.67 0 010-.2h.68l.83-.06h.09v-2.22a.62.62 0 000-.33v-.75a.24.24 0 010-.12V24a1 1 0 00-.43 0 1.29 1.29 0 00-.48 0H4.23l-.06-.91a.89.89 0 00-.06-.42v-.32a1 1 0 00-.06-.46v-.28L4 21h.63l.49-.09a1.36 1.36 0 00.29-.06h.3l.63-.09h.36l1-.09zm5.91 6.06a3.91 3.91 0 00-3.92-2.84.18.18 0 00-.17.13v8.79a1 1 0 00.34-.06h.14l.32-.09q3.92-1.49 3.29-5.93zm11.93-6.96h.06l.29.73v.11l.94 2.48a.36.36 0 01.07.17l.26.64v.21l-.33.46a.46.46 0 00-.17.17l-.44.55-.1.12-.09.11a3.24 3.24 0 00-.45.53l-.32.37a2.26 2.26 0 01-.25.29l-.51.65-.09.11-1.21 1.51a3.11 3.11 0 01.29.33l.25.25v.06a1.8 1.8 0 01.26.29 2.25 2.25 0 01.41.46l.16.17.13.12.19.23a2.35 2.35 0 01.26.29l.12.12.33.38.28.32.16.17h.07a3.16 3.16 0 01.38.44l.22.24a2.64 2.64 0 01-.41.58h-.06l-.09.15-.16.17-.61.76-.16.21-.1.11-.12.09a2.34 2.34 0 01-.29-.41l-.16-.2-.19-.14a3.62 3.62 0 00-.22-.32l-.06-.12-.43-.56-.92-1.31-.06-.05-.16-.24-.35-.49-.09-.17-.16-.2a1.85 1.85 0 000 .81v.41a.89.89 0 010 .23v1.14a2.81 2.81 0 010 .41v.64a.77.77 0 000 .37v1.19l-.67.35-.07.06-.76.41-.16.12h-.09l-.48.29h-.16l-.1-.65-.06-.2v-.34a5 5 0 00-.09-.56 2.36 2.36 0 00-.1-.46v-.47a3.76 3.76 0 01-.12-.67v-.22l-.13-.4a.88.88 0 00-.07-.32v-.23l-.02-.34v-.22l-.07-.24a1.41 1.41 0 010-.29v-.29a.87.87 0 00-.06-.32v-.11a3.1 3.1 0 01-.1-.53V30l-.16-.9a2 2 0 01-.09-.49.56.56 0 000-.31 1.6 1.6 0 00-.05-.21l-.19-1V27a.11.11 0 010-.11l-.09-.5-.41-.39a1.41 1.41 0 010-.29v-.37a.36.36 0 00-.07-.28 1 1 0 010-.25 1.36 1.36 0 01-.06-.29v-.69a1.36 1.36 0 01-.07-.35 2.27 2.27 0 01-.09-.52v-.09l-.06-.4v-.09L17 21.7v-.53a2.43 2.43 0 01.47-.08L18 21l.5-.07a4.81 4.81 0 01.53-.07l1.15-.17.22-.06a.41.41 0 00.22 0 1 1 0 00.34-.06h.57v.86a2.81 2.81 0 010 .41l.06 1.66a3 3 0 010 .73v1.37a2.16 2.16 0 010 .36v.15l.88-1.48.08-.1a.8.8 0 00.08-.16l.22-.38.17-.25.54-.85.09-.17.48-.78.09-.15.48-.79.3-.23.19-.29a1.18 1.18 0 00.16-.29l.35-.53z"/><path class="cls-1" d="M32.14 20.8l.64-.09a4.12 4.12 0 011.88.08.3.3 0 01.14.23 3.72 3.72 0 00-.19.65v.23l-.06.2-.2.74a4.61 4.61 0 00-.15.53l-.2.77a5.73 5.73 0 00-4.66 4.58 5.53 5.53 0 001.9 4.9c1.21.71 2.34-.2 3.37-2.74l.22.39.07.08.94 1.7.07.11v.1l.22.39.07.08.19.36A6.08 6.08 0 0131.86 37a5 5 0 01-5.08-2.53l-.1-.15-.33-.75a10.61 10.61 0 01.31-6.45 10.61 10.61 0 014.11-5.72l.73-.4.35-.14a.72.72 0 00.29-.06zM12.53 39.34a.34.34 0 00-.2 0v2.25c.13 0 .21 0 .24-.08a1 1 0 000-.42v-1.36a1.5 1.5 0 000-.3.15.15 0 00-.04-.09zm2.07 1.58h.31c-.05-.39-.09-.87-.14-1.44-.09.66-.15 1.14-.17 1.44zm25.04-.32v1a.35.35 0 00.24-.06.47.47 0 000-.26v-.59a.39.39 0 00-.24-.09zM28 39.34a.34.34 0 00-.2 0v2.25c.13 0 .21 0 .24-.08a1 1 0 000-.42v-1.36a1.5 1.5 0 000-.3.15.15 0 00-.04-.09zm11.82-.01h-.19v.76h.09c.09 0 .14 0 .17-.06a1.15 1.15 0 000-.37.89.89 0 000-.23.14.14 0 00-.07-.1z"/><path class="cls-1" d="M1.87 37.45v6.08h39.76v-6.08zm3.06 4.7H3.58l-.51-3.43H4c.11 1 .18 1.75.23 2.4 0-.67.1-1.25.15-1.76l.06-.64h.94zm1.49 0h-.88v-3.43h.89zm1.79 0H6.78v-3.43h.89v2.74h.54zm2.09-.34a.67.67 0 01-.33.29 1.39 1.39 0 01-.57.12 1.3 1.3 0 01-.61-.14.64.64 0 01-.33-.34 1.68 1.68 0 01-.08-.59v-.22h.83v.42a.53.53 0 000 .25.13.13 0 00.12 0 .17.17 0 00.13-.07.38.38 0 000-.21.62.62 0 00-.08-.4 2.85 2.85 0 00-.38-.26 4.48 4.48 0 01-.44-.32.8.8 0 01-.18-.27 1.15 1.15 0 01-.07-.45 1.27 1.27 0 01.1-.58.69.69 0 01.32-.29 1.4 1.4 0 01.54-.1 1.35 1.35 0 01.59.11.59.59 0 01.32.28 1.43 1.43 0 01.08.58v.13h-.77v-.25a.45.45 0 000-.23.11.11 0 00-.11 0 .14.14 0 00-.12.07.34.34 0 000 .2.57.57 0 000 .26.64.64 0 00.25.21 2.48 2.48 0 01.75.58 1.33 1.33 0 01.16.73 1.17 1.17 0 01-.11.49zm3.19-.68a3.21 3.21 0 010 .62.47.47 0 01-.15.24.66.66 0 01-.27.12 1.93 1.93 0 01-.48 0h-1.15v-3.39h.67a4.25 4.25 0 01.87.06.67.67 0 01.35.19.57.57 0 01.15.3 3.53 3.53 0 010 .65zm1.47 1v-.62h-.32l-.05.62h-.92l.45-3.43h1.29l.51 3.43zm3.05 0h-.78l-.46-1.56v1.56H16v-3.41h.75l.5 1.54v-1.54H18zm2.44-1.93h-.89v-.6a.86.86 0 000-.32.12.12 0 00-.13-.07.12.12 0 00-.14.08 1 1 0 000 .34v1.59a.92.92 0 000 .33.15.15 0 00.2.06.17.17 0 00.06-.06 1.09 1.09 0 000-.36v-.43h.89v.13a2.7 2.7 0 01-.08.75.79.79 0 01-.36.36 1.09 1.09 0 01-.63.17 1.32 1.32 0 01-.65-.14.69.69 0 01-.34-.39 2.77 2.77 0 01-.08-.76v-1a5.23 5.23 0 010-.56.82.82 0 01.15-.36.85.85 0 01.35-.27 1.45 1.45 0 011.2.11.7.7 0 01.34.38 2.42 2.42 0 01.08.71zm1.87 1.93h-1.53v-3.41h1.49v.69h-.59v.65h.56v.65h-.56v.75h.65zm2.27 0l-.36-1.47v1.47h-.89v-3.41h.89v1.33l.4-1.33h.84L25 40.27l.56 1.88zm2 0h-.89v-3.41h.89zm2.42-1a3.21 3.21 0 010 .62.47.47 0 01-.15.24.66.66 0 01-.27.12 1.93 1.93 0 01-.48 0h-1.18v-3.39h.67a4.25 4.25 0 01.87.06.67.67 0 01.35.19.57.57 0 01.15.3 3.53 3.53 0 010 .65zm2.21.68a.67.67 0 01-.33.29 1.39 1.39 0 01-.57.12 1.3 1.3 0 01-.61-.14.64.64 0 01-.33-.34 1.68 1.68 0 01-.08-.59v-.22h.83v.42a.53.53 0 000 .25.13.13 0 00.12 0 .17.17 0 00.13-.07.38.38 0 000-.21.62.62 0 00-.08-.4 2.53 2.53 0 00-.42-.31 4.48 4.48 0 01-.44-.32.8.8 0 01-.18-.27 1.15 1.15 0 01-.07-.45 1.27 1.27 0 01.1-.58.65.65 0 01.32-.29 1.4 1.4 0 01.54-.1 1.35 1.35 0 01.59.11.59.59 0 01.32.28 1.43 1.43 0 01.08.58v.13h-.83v-.2a.45.45 0 000-.23.11.11 0 00-.11 0 .14.14 0 00-.12.07.34.34 0 000 .2.57.57 0 000 .26.64.64 0 00.25.21 2.48 2.48 0 01.75.58 1.33 1.33 0 01.16.73 1.36 1.36 0 010 .49zm3.21-1.6h-.89v-.6a.86.86 0 000-.32.12.12 0 00-.13-.07.12.12 0 00-.14.08 1 1 0 000 .34v1.59a.91.91 0 000 .33.15.15 0 00.2.06l.06-.06a1.09 1.09 0 000-.36v-.43h.89v.13a2.7 2.7 0 01-.08.75.79.79 0 01-.34.35 1.09 1.09 0 01-.63.17 1.32 1.32 0 01-.65-.14.69.69 0 01-.34-.39 2.77 2.77 0 01-.08-.76v-1a5.23 5.23 0 010-.56.82.82 0 01.15-.36.85.85 0 01.35-.27 1.42 1.42 0 011.2.11.7.7 0 01.34.38 2.42 2.42 0 01.08.71zm1.75 1.93h-1.45v-3.42h.89v2.74h.54zM38.4 41a5 5 0 010 .55.73.73 0 01-.15.32.81.81 0 01-.33.25 1.32 1.32 0 01-.48.09 1.44 1.44 0 01-.54-.1.75.75 0 01-.35-.26.85.85 0 01-.14-.34v-2.76h.89v2.57a1.41 1.41 0 000 .29.09.09 0 00.1.06.09.09 0 00.11-.07 1.71 1.71 0 000-.32v-2.56h.89zm2.42.33a1.27 1.27 0 01-.08.51.43.43 0 01-.25.23 2.8 2.8 0 01-.71.06h-1v-3.41h.89a2.29 2.29 0 01.64.07.61.61 0 01.35.26 1.19 1.19 0 01.13.64.68.68 0 01-.09.42.65.65 0 01-.37.18.66.66 0 01.42.23 1 1 0 01.11.5zm-3.37-16.9l.2 2.56 2.22 1.28-2.37.98-.54 2.51-1.66-1.95-2.56.26 1.35-2.18-1.04-2.35 2.49.6 1.91-1.71zM12.48 49.37v1.29a1.45 1.45 0 01-.88 1.18 2.12 2.12 0 01-.9.17 2.35 2.35 0 01-.87-.16 1.46 1.46 0 01-.9-1.17v-3.6a1.45 1.45 0 01.88-1.18 2.12 2.12 0 01.9-.17 2.35 2.35 0 01.87.16 1.44 1.44 0 01.9 1.17v1.31zm-1.57-2a1.63 1.63 0 000-.54.18.18 0 00-.19-.12.21.21 0 00-.19.1 1.33 1.33 0 00-.07.56v2.83a2.36 2.36 0 000 .65.19.19 0 00.2.12.19.19 0 00.21-.14 2.58 2.58 0 000-.68zm6.41.28h-1.46v-.45a.91.91 0 00-.06-.4.21.21 0 00-.19-.09.22.22 0 00-.21.12.71.71 0 00-.07.35 1 1 0 00.08.46 1.21 1.21 0 00.44.37 4.48 4.48 0 011.32 1 2.41 2.41 0 01.27 1.29 2.28 2.28 0 01-.15 1 1.2 1.2 0 01-.58.51 2.3 2.3 0 01-1 .21 2.25 2.25 0 01-1.08-.24 1.15 1.15 0 01-.58-.61 3.1 3.1 0 01-.14-1.05v-.4h1.46v.74a1.09 1.09 0 00.06.44.23.23 0 00.22.1.27.27 0 00.23-.12.67.67 0 00.08-.37 1.15 1.15 0 00-.15-.7 4.89 4.89 0 00-.74-.55 8.54 8.54 0 01-.78-.56 1.34 1.34 0 01-.32-.49 2.12 2.12 0 01-.13-.79 2.14 2.14 0 01.18-1 1.21 1.21 0 01.57-.5 2.3 2.3 0 011-.18 2.48 2.48 0 011 .2 1.07 1.07 0 01.57.5 2.61 2.61 0 01.14 1zm4.26-1.83l.9 6h-1.61l-.08-1.09h-.56l-.09 1.09h-1.63l.8-6zm-.83 3.89c-.08-.67-.16-1.51-.24-2.54-.16 1.16-.26 2-.3 2.54zm6.67-3.89l-.9 2.73 1 3.32h-1.64l-.64-2.59v2.59h-1.57v-6h1.57v2.35l.7-2.35zm3.99 0l.9 6h-1.6l-.08-1.09h-.56L30 51.87h-1.66l.8-6zm-.83 3.89c-.08-.67-.16-1.51-.24-2.54-.16 1.16-.26 2-.3 2.54zM15.27.41h.3l-.13.71v.57l-.07.25a.35.35 0 01-.06.14v.14l-.13.38v.32a.74.74 0 00-.09.36 2.52 2.52 0 00-.13.47v.18l-.2.88a1.68 1.68 0 01-.09.32l-.09.43v.2l-.13.4v.11l-.09.22v.14l-.36.23v.36l-.13.6a4.07 4.07 0 01-.22.83v.22l-.09.38-.13.47-.13.54a8.36 8.36 0 00-.17.85v.18a2.69 2.69 0 01-.17.57v.61l-.09.28a8.45 8.45 0 00-.17.86.9.9 0 00-.09.32.5.5 0 00-.09.24 1.86 1.86 0 00-.09.47l-.09.29v.25l-.3 1.1-.13.57v.29l-.3 1.17v.25a.54.54 0 00-.09.25 4.08 4.08 0 01-.22.85.93.93 0 01-.09.4v.11a2.17 2.17 0 00-.13.5.14.14 0 01-.08-.07l-.26-.39v-.11l-.17-.25v-.11l-.22-.32a.42.42 0 01-.09-.14.38.38 0 01-.09-.13l-.47-.79a3.3 3.3 0 01-.3-.43l-.85-1.39v-.11l-.17-.25v-.11l-.47-.71-.13-.21-.43-.72-.13-.22-.67-.21-.13-.22-.13-.22-.13-.22-.16-.21-.6-.92-.05-.21a3.62 3.62 0 00-.22-.32L4.74 11h-.08a5.76 5.76 0 01-.33-.6.42.42 0 01-.09-.14l-.47-.72-.13-.25a1.83 1.83 0 01-.26-.42l-.22-.29-.16-.3-1-1.71a1.69 1.69 0 00-.17-.29v-.11l-.17-.25a.42.42 0 01-.09-.14L1 5l-.15-.24a1.34 1.34 0 01-.22-.36L.39 4A3.79 3.79 0 010 3.22l1.06-.14h.17a.25.25 0 01.17 0L2.13 3h.26L3 2.83h.35l.95-.14h.65l.32-.05a1.59 1.59 0 01.21.36l.39 1a1.45 1.45 0 01.22.49l.43 1a4.81 4.81 0 00.29.71l.13.39a1.56 1.56 0 01.2.41 4.78 4.78 0 01.3.74L8.81 11a4.05 4.05 0 00.35.83l.09.29.13.25.21.49v-1.1a2.09 2.09 0 000-.5v-1.12a2.71 2.71 0 000-.57V5.62a6.18 6.18 0 000-1.36 2 2 0 000-.49V1.44a5.63 5.63 0 00.69-.14l.72-.07.47-.11.6-.11a6.1 6.1 0 00.72-.14H13l.22-.07h.7a8 8 0 01.85-.17zm-.34 3.81l4.79-.78a3.35 3.35 0 010 1v1a2.91 2.91 0 000 .59v.1l-.07 1.19v.34a.74.74 0 000 .21 2 2 0 000 .6v.06L19.32 11v.16l-.05.72v.37a.81.81 0 000 .22v1.7a1.09 1.09 0 010 .44v.58A5.5 5.5 0 0119 16v.49l-.05.33V17a4 4 0 010 .49l-.07 1v.27a5 5 0 000 .55v.5l-.06.82v.23a.6.6 0 01-.58 0l-.82-.16h-.14l-.28-.11-.28-1.85v-.16l-.08-.48c0-.22-.05-.43-.06-.65l-.13-.8v-.19l-.14-.86a1 1 0 000-.25l-.11-.7a.61.61 0 000-.27l-.07-.47a3.52 3.52 0 00-.07-.65l-.06-.32a1.14 1.14 0 010-.45l-.13-.86v-.48a3.36 3.36 0 01-.08-.71l-.14-.91v-.11l-.15-1v-.06l-.12-.83v-.18l-.13-.89v-.11L15 5.43v-.09l-.13-.86zm5.95-3.08l.89-.22L22 .9l.3-.08h.13l.44-.11H23a1 1 0 01.42-.06l.93-.19h.18a1.28 1.28 0 01.47-.1l1-.2h.06l.34-.08.48-.08a3.07 3.07 0 01-.1 1v.08l-.05.44a1.7 1.7 0 01-.06.31l-.08.6a.81.81 0 010 .22l-.3 2.11v.64l-.05.23-.19 1.5v.68l-.32 2v.26a2 2 0 01-.05.42v.67l-.18 1.35-.05.28-.18 1.35v.67a.82.82 0 00-.06.38v.46l-.1.6a2 2 0 01-.05.42v.14l-.06.31a2.44 2.44 0 00.86-.37l.3-.11.34-.16.2-.08.63-.26a1 1 0 01.37-.14l.17-.08.49-.23.16-.08.17-.07.57-.25.08.78a5.51 5.51 0 01.07.71v.32l.16 1.38-.86.25h-.05l-1.2.33-.11.06-.54.13-.11.07-.44.11-.11.06-.42.11-.19.08-1.65.49-.19.08-1.27.31-1-19.2z"/><path class="cls-1" d="M30.69 5.46l1.74-.56a4.18 4.18 0 014.22.85l.06.21a2.39 2.39 0 01-.21.34l-.09.17a1.35 1.35 0 00-.15.26 1.15 1.15 0 00-.2.29l-.32.54a5.65 5.65 0 01-.33.51v.07l-.49-.07h-2.38a2.3 2.3 0 00-1.25 1.2Q31 11 34 12a2.75 2.75 0 00.38.2l.11.05h.06l.38.2H35l.21.11q4 2.2 2 6.16a4.73 4.73 0 01-2.77 2 7.51 7.51 0 01-5.47-.4.39.39 0 01-.18-.18l.11-.47v-.24l.08-.29v-.08l.12-.46v-.08a1 1 0 00.08-.38l.17-.72q3.32 2.56 6-.54a1.87 1.87 0 00.21-.6v-.08a1.59 1.59 0 00-.79-1.08 5.23 5.23 0 00-.76-.35l-.39-.13-.16-.06a5.86 5.86 0 01-5.3-4.09 3.22 3.22 0 01-.16-.81v-.11a4.55 4.55 0 012.69-4.11zM7.87 20.5h2.28a1.75 1.75 0 01.56 0 3.36 3.36 0 01.63.06h.92l.54.14h.2l1 .37.2.12.52.26.16.11.06.06.17.11h.06l.74.69.37.54.09.11.29.68a8 8 0 01-2.54 8.82l-.82.65-.06.06-.2.12-.11.09-.79.48a.6.6 0 01-.26.14.77.77 0 01-.25.14l-.09.06-.29.14h-.09a5.51 5.51 0 01-.56.28l-.23.09-.37.38a2.67 2.67 0 00-.59.23 1.4 1.4 0 01-.29.09l-.71.26-.2.06-.21.06h-.22a2.91 2.91 0 01-.39.12h-.11l-.52.11a.55.55 0 01-.36 0l-.09-.62-.06-.2v-.26l-.11-.59v-.54a1.33 1.33 0 01-.14-.19.67.67 0 010-.2h.68l.83-.06h.09v-2.22a.62.62 0 000-.33v-.75a.24.24 0 010-.12V24a1 1 0 00-.43 0 1.29 1.29 0 00-.48 0H4.23l-.06-.91a.89.89 0 00-.06-.42v-.32a1 1 0 00-.06-.46v-.28L4 21h.63l.49-.09a1.36 1.36 0 00.29-.06h.3l.63-.09h.36l1-.09zm5.91 6.06a3.91 3.91 0 00-3.92-2.84.18.18 0 00-.17.13v8.79a1 1 0 00.34-.06h.14l.32-.09q3.92-1.49 3.29-5.93zm11.93-6.96h.06l.29.73v.11l.94 2.48a.36.36 0 01.07.17l.26.64v.21l-.33.46a.46.46 0 00-.17.17l-.44.55-.1.12-.09.11a3.24 3.24 0 00-.45.53l-.32.37a2.26 2.26 0 01-.25.29l-.51.65-.09.11-1.21 1.51a3.11 3.11 0 01.29.33l.25.25v.06a1.8 1.8 0 01.26.29 2.25 2.25 0 01.41.46l.16.17.13.12.19.23a2.35 2.35 0 01.26.29l.12.12.33.38.28.32.16.17h.07a3.16 3.16 0 01.38.44l.22.24a2.64 2.64 0 01-.41.58h-.06l-.09.15-.16.17-.61.76-.16.21-.1.11-.12.09a2.34 2.34 0 01-.29-.41l-.16-.2-.19-.14a3.62 3.62 0 00-.22-.32l-.06-.12-.43-.56-.92-1.31-.06-.05-.16-.24-.35-.49-.09-.17-.16-.2a1.85 1.85 0 000 .81v.41a.89.89 0 010 .23v1.14a2.81 2.81 0 010 .41v.64a.77.77 0 000 .37v1.19l-.67.35-.07.06-.76.41-.16.12h-.09l-.48.29h-.16l-.1-.65-.06-.2v-.34a5 5 0 00-.09-.56 2.36 2.36 0 00-.1-.46v-.47a3.76 3.76 0 01-.12-.67v-.22l-.13-.4a.88.88 0 00-.07-.32v-.23l-.02-.34v-.22l-.07-.24a1.41 1.41 0 010-.29v-.29a.87.87 0 00-.06-.32v-.11a3.1 3.1 0 01-.1-.53V30l-.16-.9a2 2 0 01-.09-.49.56.56 0 000-.31 1.6 1.6 0 00-.05-.21l-.19-1V27a.11.11 0 010-.11l-.09-.5-.41-.39a1.41 1.41 0 010-.29v-.37a.36.36 0 00-.07-.28 1 1 0 010-.25 1.36 1.36 0 01-.06-.29v-.69a1.36 1.36 0 01-.07-.35 2.27 2.27 0 01-.09-.52v-.09l-.06-.4v-.09L17 21.7v-.53a2.43 2.43 0 01.47-.08L18 21l.5-.07a4.81 4.81 0 01.53-.07l1.15-.17.22-.06a.41.41 0 00.22 0 1 1 0 00.34-.06h.57v.86a2.81 2.81 0 010 .41l.06 1.66a3 3 0 010 .73v1.37a2.16 2.16 0 010 .36v.15l.88-1.48.08-.1a.8.8 0 00.08-.16l.22-.38.17-.25.54-.85.09-.17.48-.78.09-.15.48-.79.3-.23.19-.29a1.18 1.18 0 00.16-.29l.35-.53z"/><path class="cls-1" d="M32.14 20.8l.64-.09a4.12 4.12 0 011.88.08.3.3 0 01.14.23 3.72 3.72 0 00-.19.65v.23l-.06.2-.2.74a4.61 4.61 0 00-.15.53l-.2.77a5.73 5.73 0 00-4.66 4.58 5.53 5.53 0 001.9 4.9c1.21.71 2.34-.2 3.37-2.74l.22.39.07.08.94 1.7.07.11v.1l.22.39.07.08.19.36A6.08 6.08 0 0131.86 37a5 5 0 01-5.08-2.53l-.1-.15-.33-.75a10.61 10.61 0 01.31-6.45 10.61 10.61 0 014.11-5.72l.73-.4.35-.14a.72.72 0 00.29-.06zM12.53 39.34a.34.34 0 00-.2 0v2.25c.13 0 .21 0 .24-.08a1 1 0 000-.42v-1.36a1.5 1.5 0 000-.3.15.15 0 00-.04-.09zm2.07 1.58h.31c-.05-.39-.09-.87-.14-1.44-.09.66-.15 1.14-.17 1.44zm25.04-.32v1a.35.35 0 00.24-.06.47.47 0 000-.26v-.59a.39.39 0 00-.24-.09zM28 39.34a.34.34 0 00-.2 0v2.25c.13 0 .21 0 .24-.08a1 1 0 000-.42v-1.36a1.5 1.5 0 000-.3.15.15 0 00-.04-.09zm11.82-.01h-.19v.76h.09c.09 0 .14 0 .17-.06a1.15 1.15 0 000-.37.89.89 0 000-.23.14.14 0 00-.07-.1z"/><path class="cls-1" d="M1.87 37.45v6.08h39.76v-6.08zm3.06 4.7H3.58l-.51-3.43H4c.11 1 .18 1.75.23 2.4 0-.67.1-1.25.15-1.76l.06-.64h.94zm1.49 0h-.88v-3.43h.89zm1.79 0H6.78v-3.43h.89v2.74h.54zm2.09-.34a.67.67 0 01-.33.29 1.39 1.39 0 01-.57.12 1.3 1.3 0 01-.61-.14.64.64 0 01-.33-.34 1.68 1.68 0 01-.08-.59v-.22h.83v.42a.53.53 0 000 .25.13.13 0 00.12 0 .17.17 0 00.13-.07.38.38 0 000-.21.62.62 0 00-.08-.4 2.85 2.85 0 00-.38-.26 4.48 4.48 0 01-.44-.32.8.8 0 01-.18-.27 1.15 1.15 0 01-.07-.45 1.27 1.27 0 01.1-.58.69.69 0 01.32-.29 1.4 1.4 0 01.54-.1 1.35 1.35 0 01.59.11.59.59 0 01.32.28 1.43 1.43 0 01.08.58v.13h-.77v-.25a.45.45 0 000-.23.11.11 0 00-.11 0 .14.14 0 00-.12.07.34.34 0 000 .2.57.57 0 000 .26.64.64 0 00.25.21 2.48 2.48 0 01.75.58 1.33 1.33 0 01.16.73 1.17 1.17 0 01-.11.49zm3.19-.68a3.21 3.21 0 010 .62.47.47 0 01-.15.24.66.66 0 01-.27.12 1.93 1.93 0 01-.48 0h-1.15v-3.39h.67a4.25 4.25 0 01.87.06.67.67 0 01.35.19.57.57 0 01.15.3 3.53 3.53 0 010 .65zm1.47 1v-.62h-.32l-.05.62h-.92l.45-3.43h1.29l.51 3.43zm3.05 0h-.78l-.46-1.56v1.56H16v-3.41h.75l.5 1.54v-1.54H18zm2.44-1.93h-.89v-.6a.86.86 0 000-.32.12.12 0 00-.13-.07.12.12 0 00-.14.08 1 1 0 000 .34v1.59a.92.92 0 000 .33.15.15 0 00.2.06.17.17 0 00.06-.06 1.09 1.09 0 000-.36v-.43h.89v.13a2.7 2.7 0 01-.08.75.79.79 0 01-.36.36 1.09 1.09 0 01-.63.17 1.32 1.32 0 01-.65-.14.69.69 0 01-.34-.39 2.77 2.77 0 01-.08-.76v-1a5.23 5.23 0 010-.56.82.82 0 01.15-.36.85.85 0 01.35-.27 1.45 1.45 0 011.2.11.7.7 0 01.34.38 2.42 2.42 0 01.08.71zm1.87 1.93h-1.53v-3.41h1.49v.69h-.59v.65h.56v.65h-.56v.75h.65zm2.27 0l-.36-1.47v1.47h-.89v-3.41h.89v1.33l.4-1.33h.84L25 40.27l.56 1.88zm2 0h-.89v-3.41h.89zm2.42-1a3.21 3.21 0 010 .62.47.47 0 01-.15.24.66.66 0 01-.27.12 1.93 1.93 0 01-.48 0h-1.18v-3.39h.67a4.25 4.25 0 01.87.06.67.67 0 01.35.19.57.57 0 01.15.3 3.53 3.53 0 010 .65zm2.21.68a.67.67 0 01-.33.29 1.39 1.39 0 01-.57.12 1.3 1.3 0 01-.61-.14.64.64 0 01-.33-.34 1.68 1.68 0 01-.08-.59v-.22h.83v.42a.53.53 0 000 .25.13.13 0 00.12 0 .17.17 0 00.13-.07.38.38 0 000-.21.62.62 0 00-.08-.4 2.53 2.53 0 00-.42-.31 4.48 4.48 0 01-.44-.32.8.8 0 01-.18-.27 1.15 1.15 0 01-.07-.45 1.27 1.27 0 01.1-.58.65.65 0 01.32-.29 1.4 1.4 0 01.54-.1 1.35 1.35 0 01.59.11.59.59 0 01.32.28 1.43 1.43 0 01.08.58v.13h-.83v-.2a.45.45 0 000-.23.11.11 0 00-.11 0 .14.14 0 00-.12.07.34.34 0 000 .2.57.57 0 000 .26.64.64 0 00.25.21 2.48 2.48 0 01.75.58 1.33 1.33 0 01.16.73 1.36 1.36 0 010 .49zm3.21-1.6h-.89v-.6a.86.86 0 000-.32.12.12 0 00-.13-.07.12.12 0 00-.14.08 1 1 0 000 .34v1.59a.91.91 0 000 .33.15.15 0 00.2.06l.06-.06a1.09 1.09 0 000-.36v-.43h.89v.13a2.7 2.7 0 01-.08.75.79.79 0 01-.34.35 1.09 1.09 0 01-.63.17 1.32 1.32 0 01-.65-.14.69.69 0 01-.34-.39 2.77 2.77 0 01-.08-.76v-1a5.23 5.23 0 010-.56.82.82 0 01.15-.36.85.85 0 01.35-.27 1.42 1.42 0 011.2.11.7.7 0 01.34.38 2.42 2.42 0 01.08.71zm1.75 1.93h-1.45v-3.42h.89v2.74h.54zM38.4 41a5 5 0 010 .55.73.73 0 01-.15.32.81.81 0 01-.33.25 1.32 1.32 0 01-.48.09 1.44 1.44 0 01-.54-.1.75.75 0 01-.35-.26.85.85 0 01-.14-.34v-2.76h.89v2.57a1.41 1.41 0 000 .29.09.09 0 00.1.06.09.09 0 00.11-.07 1.71 1.71 0 000-.32v-2.56h.89zm2.42.33a1.27 1.27 0 01-.08.51.43.43 0 01-.25.23 2.8 2.8 0 01-.71.06h-1v-3.41h.89a2.29 2.29 0 01.64.07.61.61 0 01.35.26 1.19 1.19 0 01.13.64.68.68 0 01-.09.42.65.65 0 01-.37.18.66.66 0 01.42.23 1 1 0 01.11.5zm-3.37-16.9l.2 2.56 2.22 1.28-2.37.98-.54 2.51-1.66-1.95-2.56.26 1.35-2.18-1.04-2.35 2.49.6 1.91-1.71zM12.48 49.37v1.29a1.45 1.45 0 01-.88 1.18 2.12 2.12 0 01-.9.17 2.35 2.35 0 01-.87-.16 1.46 1.46 0 01-.9-1.17v-3.6a1.45 1.45 0 01.88-1.18 2.12 2.12 0 01.9-.17 2.35 2.35 0 01.87.16 1.44 1.44 0 01.9 1.17v1.31zm-1.57-2a1.63 1.63 0 000-.54.18.18 0 00-.19-.12.21.21 0 00-.19.1 1.33 1.33 0 00-.07.56v2.83a2.36 2.36 0 000 .65.19.19 0 00.2.12.19.19 0 00.21-.14 2.58 2.58 0 000-.68zm6.41.28h-1.46v-.45a.91.91 0 00-.06-.4.21.21 0 00-.19-.09.22.22 0 00-.21.12.71.71 0 00-.07.35 1 1 0 00.08.46 1.21 1.21 0 00.44.37 4.48 4.48 0 011.32 1 2.41 2.41 0 01.27 1.29 2.28 2.28 0 01-.15 1 1.2 1.2 0 01-.58.51 2.3 2.3 0 01-1 .21 2.25 2.25 0 01-1.08-.24 1.15 1.15 0 01-.58-.61 3.1 3.1 0 01-.14-1.05v-.4h1.46v.74a1.09 1.09 0 00.06.44.23.23 0 00.22.1.27.27 0 00.23-.12.67.67 0 00.08-.37 1.15 1.15 0 00-.15-.7 4.89 4.89 0 00-.74-.55 8.54 8.54 0 01-.78-.56 1.34 1.34 0 01-.32-.49 2.12 2.12 0 01-.13-.79 2.14 2.14 0 01.18-1 1.21 1.21 0 01.57-.5 2.3 2.3 0 011-.18 2.48 2.48 0 011 .2 1.07 1.07 0 01.57.5 2.61 2.61 0 01.14 1zm4.26-1.83l.9 6h-1.61l-.08-1.09h-.56l-.09 1.09h-1.63l.8-6zm-.83 3.89c-.08-.67-.16-1.51-.24-2.54-.16 1.16-.26 2-.3 2.54zm6.67-3.89l-.9 2.73 1 3.32h-1.64l-.64-2.59v2.59h-1.57v-6h1.57v2.35l.7-2.35zm3.99 0l.9 6h-1.6l-.08-1.09h-.56L30 51.87h-1.66l.8-6zm-.83 3.89c-.08-.67-.16-1.51-.24-2.54-.16 1.16-.26 2-.3 2.54zM72.73 6.36l-2.92 22h-8.7l-3.31-22h6q1 9.11 1.5 15.41.44-6.37.94-11.31l.4-4.1zm6.7 0v22H73.7v-22zm8.03 0V24h3.48v4.4h-9.21v-22zM104.48 13h-5.33v-1.6A3.15 3.15 0 0099 9.94a.73.73 0 00-.68-.31.87.87 0 00-.78.42 2.47 2.47 0 00-.27 1.28 3.63 3.63 0 00.3 1.66 4.32 4.32 0 001.62 1.35c2.57 1.51 4.19 2.76 4.86 3.73a8.54 8.54 0 011 4.7 8.22 8.22 0 01-.55 3.47 4.32 4.32 0 01-2.13 1.87 8.33 8.33 0 01-3.68.76 8.15 8.15 0 01-4-.87 4.27 4.27 0 01-2.13-2.22A11.53 11.53 0 0192 22v-1.49h5.32v2.68a3.6 3.6 0 00.22 1.59.86.86 0 00.8.35.93.93 0 00.85-.45 2.56 2.56 0 00.28-1.33 4.14 4.14 0 00-.47-2.54 17 17 0 00-2.68-2 25.87 25.87 0 01-2.83-2.06A4.84 4.84 0 0192.31 15a7.92 7.92 0 01-.46-2.89 8 8 0 01.65-3.7 4.39 4.39 0 012.09-1.83 8.33 8.33 0 013.48-.66 9 9 0 013.8.72 4 4 0 012.13 1.8 9.59 9.59 0 01.51 3.72zm7.18-6.64H116a27.11 27.11 0 015.62.38A4.31 4.31 0 01123.79 8a4 4 0 011 1.94 29.46 29.46 0 01.19 4.2v7.72a17.88 17.88 0 01-.28 4 3 3 0 01-1 1.57 3.94 3.94 0 01-1.71.79 15.16 15.16 0 01-3.08.22h-7.23zm5.73 3.77v14.5c.83 0 1.33-.17 1.52-.5a7.24 7.24 0 00.29-2.7v-8.56a11.24 11.24 0 00-.1-1.92.91.91 0 00-.44-.62 2.89 2.89 0 00-1.27-.19zM137 6.36l3.28 22h-5.88l-.31-4h-2l-.34 4h-5.92l2.92-22zm-3 14.17q-.44-3.74-.87-9.26c-.59 4.22-.95 7.31-1.1 9.26zm20-14.17v22h-5l-3-10v10h-4.79v-22H146l3.21 9.92V6.36zM169.71 16H164v-3.87a6.62 6.62 0 00-.18-2.08.79.79 0 00-.81-.41.85.85 0 00-.9.5 7.61 7.61 0 00-.19 2.18v10.23a7.07 7.07 0 00.19 2.1 1 1 0 001.7 0 7.81 7.81 0 00.2-2.31v-2.77h5.73v.86a17.24 17.24 0 01-.48 4.85 5 5 0 01-2.14 2.51 7.3 7.3 0 01-4.12 1.08 8.51 8.51 0 01-4.15-.91 4.44 4.44 0 01-2.16-2.52 16.88 16.88 0 01-.53-4.85v-6.45a28.44 28.44 0 01.16-3.57 5 5 0 011-2.29 5.42 5.42 0 012.25-1.74 9.2 9.2 0 017.48.35 4.73 4.73 0 012.16 2.44 14.58 14.58 0 01.52 4.55zm2.05-9.64h9.56v4.41h-3.82V15h3.58v4.19h-3.58V24h4.21v4.4h-9.94zm30.16 0l-3.29 10 3.6 12.09h-5.92L194 19v9.4h-5.73v-22H194V15l2.55-8.56zm7.08 0v22h-5.73v-22zM223.39 13h-5.32v-1.6a3.15 3.15 0 00-.2-1.46.73.73 0 00-.68-.31.87.87 0 00-.78.42 2.47 2.47 0 00-.27 1.28 3.63 3.63 0 00.3 1.66 4.32 4.32 0 001.62 1.35c2.55 1.51 4.16 2.76 4.82 3.73a8.54 8.54 0 011 4.7 8.22 8.22 0 01-.55 3.47 4.32 4.32 0 01-2.13 1.87 9.3 9.3 0 01-7.61-.11 4.27 4.27 0 01-2.13-2.22A11.51 11.51 0 01211 22v-1.49h5.32v2.68a3.6 3.6 0 00.22 1.59.86.86 0 00.8.35.93.93 0 00.85-.45 2.56 2.56 0 00.28-1.33 4.12 4.12 0 00-.53-2.55 17 17 0 00-2.68-2 25.87 25.87 0 01-2.83-2.06 4.89 4.89 0 01-1.2-1.74 7.92 7.92 0 01-.46-2.89 8 8 0 01.65-3.7 4.39 4.39 0 012.09-1.83A8.36 8.36 0 01217 5.9a9 9 0 013.8.72 4 4 0 012.08 1.82 9.59 9.59 0 01.51 3.72zm2.28-6.64H230a27.11 27.11 0 015.62.38A4.31 4.31 0 01237.79 8a4 4 0 011 1.94 29.46 29.46 0 01.19 4.2v7.72a17.88 17.88 0 01-.28 4 3 3 0 01-1 1.57 3.94 3.94 0 01-1.71.79 15.16 15.16 0 01-3.08.22h-7.23zm5.73 3.77v14.5c.83 0 1.33-.17 1.52-.5a7.24 7.24 0 00.29-2.7v-8.56a11.24 11.24 0 00-.1-1.92.91.91 0 00-.44-.62 2.89 2.89 0 00-1.27-.19zM253.22 13h-5.32v-1.6a3.15 3.15 0 00-.2-1.46.73.73 0 00-.68-.31.87.87 0 00-.78.42 2.47 2.47 0 00-.27 1.28 3.63 3.63 0 00.3 1.66 4.32 4.32 0 001.62 1.35c2.55 1.51 4.16 2.76 4.82 3.73a8.54 8.54 0 011 4.7 8.22 8.22 0 01-.55 3.47 4.34 4.34 0 01-2.16 1.87 9.3 9.3 0 01-7.61-.11 4.27 4.27 0 01-2.13-2.22 11.51 11.51 0 01-.5-3.82v-1.45h5.32v2.68a3.6 3.6 0 00.22 1.59.86.86 0 00.8.35.93.93 0 00.85-.45 2.56 2.56 0 00.28-1.33 4.12 4.12 0 00-.53-2.55 17 17 0 00-2.68-2 25.87 25.87 0 01-2.83-2.06 4.8 4.8 0 01-1.13-1.74 7.92 7.92 0 01-.46-2.89 8 8 0 01.65-3.7 4.39 4.39 0 012.09-1.83 8.33 8.33 0 013.48-.66 9 9 0 013.8.72 4 4 0 012.08 1.82 9.59 9.59 0 01.51 3.72zm20.57 3h-5.73v-3.87a6.62 6.62 0 00-.18-2.08.79.79 0 00-.81-.41.85.85 0 00-.9.5 7.61 7.61 0 00-.19 2.18v10.23a7.07 7.07 0 00.19 2.1 1 1 0 001.7 0 7.81 7.81 0 00.2-2.31v-2.77h5.73v.86a17.24 17.24 0 01-.48 4.85 5 5 0 01-2.14 2.51 7.31 7.31 0 01-4.08 1.08A8.51 8.51 0 01263 28a4.44 4.44 0 01-2.16-2.52 16.88 16.88 0 01-.53-4.85v-6.49a28.44 28.44 0 01.16-3.57 5 5 0 011-2.29 5.42 5.42 0 012.25-1.74 9.2 9.2 0 017.48.35 4.73 4.73 0 012.16 2.44 14.58 14.58 0 01.52 4.55zm7.78-9.64V24h3.48v4.4h-9.22v-22zm17.9 0v14.73a25.85 25.85 0 01-.16 3.52 4.8 4.8 0 01-1 2.08 5.05 5.05 0 01-2.12 1.62 8 8 0 01-3.1.55 8.82 8.82 0 01-3.48-.65 5.28 5.28 0 01-2.26-1.7 4.69 4.69 0 01-.88-2.21c-.09-.77-.14-2.4-.14-4.89v-13h5.73v16.48a6.68 6.68 0 00.16 1.84.6.6 0 00.63.4.66.66 0 00.7-.44 8.16 8.16 0 00.16-2.09V6.36zm2.22 0h5.72a14.89 14.89 0 014.1.42 4.05 4.05 0 012.25 1.71 7.63 7.63 0 01.86 4.14 4.45 4.45 0 01-.61 2.69 4.2 4.2 0 01-2.39 1.17 4.22 4.22 0 012.7 1.49 5.72 5.72 0 01.71 3.19v2a8.12 8.12 0 01-.51 3.31A2.76 2.76 0 01312.9 28a16.74 16.74 0 01-4.57.4h-6.63zm5.73 3.77V15h.58q.84 0 1.08-.42a6.76 6.76 0 00.23-2.37 3.77 3.77 0 00-.19-1.45.94.94 0 00-.5-.52 4.4 4.4 0 00-1.2-.1zm0 8.33v6.17a2.47 2.47 0 001.54-.38 2.64 2.64 0 00.33-1.67v-2.06a2.9 2.9 0 00-.3-1.71 2.69 2.69 0 00-1.57-.34zm27.68.81a45.94 45.94 0 01-.16 4.7 5.27 5.27 0 01-3.21 4.28 9 9 0 01-6.45 0A5.29 5.29 0 01322 24a47.21 47.21 0 01-.16-4.76V15.5a45.94 45.94 0 01.16-4.7 5.27 5.27 0 013.21-4.28 8 8 0 013.27-.61 8.23 8.23 0 013.18.58 5.28 5.28 0 013.34 4.25 47.21 47.21 0 01.16 4.76zM329.37 12a6.72 6.72 0 00-.17-2 .69.69 0 00-.7-.43.78.78 0 00-.69.35 4.84 4.84 0 00-.24 2v10.4a9.92 9.92 0 00.16 2.37.69.69 0 00.73.45.71.71 0 00.75-.52 10.68 10.68 0 00.16-2.46zm20.01 1h-5.32v-1.6a3.15 3.15 0 00-.2-1.46.73.73 0 00-.68-.31.87.87 0 00-.78.42 2.47 2.47 0 00-.27 1.28 3.63 3.63 0 00.3 1.66 4.44 4.44 0 001.57 1.35c2.55 1.51 4.16 2.76 4.82 3.73a8.54 8.54 0 011 4.7 8.22 8.22 0 01-.55 3.47 4.32 4.32 0 01-2.13 1.87 9.3 9.3 0 01-7.61-.11 4.27 4.27 0 01-2.13-2.22 11.51 11.51 0 01-.5-3.82v-1.45h5.32v2.68a3.6 3.6 0 00.22 1.59.86.86 0 00.8.35.93.93 0 00.85-.45 2.56 2.56 0 00.28-1.33 4.12 4.12 0 00-.53-2.55 17 17 0 00-2.68-2 25.87 25.87 0 01-2.83-2.06 4.73 4.73 0 01-1.12-1.74 7.92 7.92 0 01-.46-2.89 8 8 0 01.65-3.7 4.39 4.39 0 012.09-1.83A8.3 8.3 0 01343 5.9a9 9 0 013.8.72 4 4 0 012.08 1.82 9.59 9.59 0 01.51 3.72zm12.18-6.64l3.28 22H359l-.31-4h-2l-.34 4h-5.92l2.92-22zm-3 14.17q-.44-3.74-.87-9.26c-.59 4.22-.95 7.31-1.1 9.26zm20.91-14.17l-3.29 10 3.6 12.09h-5.92L371.54 19v9.4h-5.73v-22h5.73V15l2.55-8.56z"/><path class="cls-1" d="M390.67 6.36l3.28 22h-5.86l-.31-4h-2l-.34 4h-5.92l2.92-22zm-3 14.17q-.44-3.74-.87-9.26c-.59 4.22-.95 7.31-1.1 9.26zM67.77 43.86q1.26 0 2.52-.18v.86c-.79.08-2 .13-2.48.13h-3c-1.81 0-2.69-.79-2.69-2.51v-7l1.18.07c0 .12-.11.19-.32.22v3.91A39.36 39.36 0 0069 37l.61.83a.33.33 0 01-.14 0 .49.49 0 01-.17 0 45.93 45.93 0 01-6.3 2.36v2c0 1.21.59 1.67 1.82 1.67zm1.13-9a9 9 0 011.49 1.76l-.46.35a10.27 10.27 0 00-1.46-1.76zm1.48-.72a10 10 0 011.49 1.75l-.46.35A10.6 10.6 0 0070 34.49zm5.25 2.45c0 .11-.12.18-.28.2C75.28 40 75 43 73.17 45.11a6.76 6.76 0 00-.72-.46c1.79-1.94 2-4.94 2-8.17zm3.11 6.91a7.9 7.9 0 004-4.82 4.41 4.41 0 00.74.47 9 9 0 01-4.89 5.42.52.52 0 01-.2.24l-.64-.81.13-.18V35l1.12.06a.27.27 0 01-.26.23zM93 36.21a.22.22 0 01-.13.08 19.44 19.44 0 01-2.31 4A43.34 43.34 0 0195 44.42l-.77.6A37.38 37.38 0 0090 41a18.25 18.25 0 01-4.58 4 6.35 6.35 0 00-.62-.65 16.69 16.69 0 006.92-7.77h-5.9v-.78h6.36l.16-.06zm.06-1.61a8.69 8.69 0 011.38 1.87l-.49.3a8.46 8.46 0 00-1.34-1.86zm1.48-.6a10.34 10.34 0 011.34 1.81l-.49.3a9 9 0 00-1.31-1.81zm11.33 2.79c0 .07-.07.1-.14.13a15.81 15.81 0 01-1.74 4c.52.3 1.15.67 1.6 1l-.5.78a16.48 16.48 0 00-1.6-1 10.92 10.92 0 01-4.31 3.6 2.63 2.63 0 00-.65-.64 10.71 10.71 0 004.21-3.39 18.83 18.83 0 00-2.69-1.27l.47-.66a24.54 24.54 0 012.72 1.22 12.49 12.49 0 001.44-3.18h-4a12.82 12.82 0 01-2.68 3.2 5 5 0 00-.67-.54A12.17 12.17 0 00101 34.7l1.12.32a.3.3 0 01-.34.16 13.28 13.28 0 01-.61 1.33h4zm-1.1-2.39a9.1 9.1 0 011.6 1.68l-.46.37a10 10 0 00-1.57-1.68zm1.53-.4a9.48 9.48 0 011.63 1.66l-.47.36a8.76 8.76 0 00-1.58-1.64zm3.52 1.68a14.59 14.59 0 013.57 1.63l-.46.76a15.63 15.63 0 00-3.5-1.67zm0 8.31c4.26-1.32 7.09-3.71 8.53-7a4.46 4.46 0 00.78.49 13.73 13.73 0 01-8.49 7.2.37.37 0 01-.17.28zm19.38-8.05a.26.26 0 01-.16.13 18.94 18.94 0 01-2.4 4.13 45.36 45.36 0 014.36 4.07l-.73.64a38.82 38.82 0 00-4.21-4 18.61 18.61 0 01-4.62 4 4.23 4.23 0 00-.62-.65 17.21 17.21 0 007-7.83H122v-.82h6.36l.16-.06zm9.2 5.36l.43 3.77-.86.1-.42-3.75-4.5.58-.11-.79 4.52-.58-.31-2.7-3.77.49-.11-.8 3.78-.48-.26-2.37H138c0 .12-.11.22-.28.26l.22 2 3.65-.48.1.82-3.65.47.31 2.69 4.51-.56.11.79zm8.27-3.38a13.15 13.15 0 01.9 2.58l-.67.18a13.49 13.49 0 00-.88-2.55zm7.16.08c0 .11-.14.13-.25.12-.94 3.5-2.7 5.65-5.6 6.82a3.51 3.51 0 00-.47-.55c2.87-1.13 4.51-3.09 5.39-6.67zm-4.25-.66a16.83 16.83 0 01.56 2.72l-.71.13a14.55 14.55 0 00-.56-2.7zM165 36.21a.22.22 0 01-.13.08 19.44 19.44 0 01-2.31 4 43.34 43.34 0 014.44 4.13l-.77.6a37.78 37.78 0 00-4.2-4 18.25 18.25 0 01-4.58 4 6.35 6.35 0 00-.62-.65 16.69 16.69 0 006.92-7.77h-5.91v-.8h6.36l.16-.06zm.06-1.61a8.69 8.69 0 011.38 1.87l-.49.3a8.46 8.46 0 00-1.34-1.86zm1.48-.58a10.34 10.34 0 011.34 1.81l-.49.3a9 9 0 00-1.31-1.81zm11.6 2.98a.73.73 0 01-.18.17c-1.26 3.89-3.23 6.38-6.54 8.06a3.19 3.19 0 00-.61-.66 11.26 11.26 0 006.08-7.1h-4.28a12.4 12.4 0 01-2.69 3 5.11 5.11 0 00-.68-.55 12.17 12.17 0 003.83-5.21l1.14.32c0 .12-.19.16-.35.16-.24.53-.49 1-.77 1.51h4.22l.14-.07zm12.3 1.61a.28.28 0 01-.16.12c-1 3.62-3 5.39-6.57 6.38a3.87 3.87 0 00-.5-.7c3.26-.82 5.29-2.49 6-5.28h-7.94v-.82h8.3l.12-.07zM189.32 36h-6.84v-.79h6.84zm12.28.13a10.72 10.72 0 00-1.16-1.27l.42-.34a9.4 9.4 0 011.54 1.73l-.23.17h.1a.31.31 0 01-.17.13c-.92 4.52-3.26 7.22-7.18 8.6a5.29 5.29 0 00-.55-.7 9.41 9.41 0 006.68-7.45h-7.64v-.82h8l.16-.11zm1.85-.07a8 8 0 00-1.45-1.72l.44-.35a8.84 8.84 0 011.5 1.73zm11.87 2.66h-4.69c.78 2.87 2.33 5.07 4.88 6a3.15 3.15 0 00-.6.76c-2.51-1-4-3.15-4.92-6a8.2 8.2 0 01-5 6.06 3.12 3.12 0 00-.58-.68 7.6 7.6 0 004.81-6.1h-4.63v-.86h4.76a31.71 31.71 0 00.16-3.51l1.13.06c0 .11-.11.17-.26.2a29.36 29.36 0 01-.17 3.25h5.06zm4.52-3.86l.52.31a.27.27 0 01-.1.11c-.31.91-.78 2.12-1.19 3.12a3.81 3.81 0 011.25 2.6c0 1.73-1.06 1.68-2 1.64a1.93 1.93 0 00-.2-.71h.52c.47 0 .94 0 .94-1a3.71 3.71 0 00-1.26-2.45 25.88 25.88 0 001-2.87h-1.71v9.89h-.73V34.9h2.82zm2.1 3.47h4.6l.49.18a.39.39 0 01-.08.14 10.23 10.23 0 01-1.9 4.47 7.14 7.14 0 002.57 1.74 3.22 3.22 0 00-.55.67 7.75 7.75 0 01-2.53-1.82 7.65 7.65 0 01-2.65 1.85 3.16 3.16 0 00-.48-.67 6.93 6.93 0 002.59-1.82 11.12 11.12 0 01-1.8-3.73l.68-.17a10 10 0 001.62 3.3 9 9 0 001.5-3.4h-4.11c0 2-.34 4.63-1.73 6.44a3 3 0 00-.61-.5c1.44-1.86 1.57-4.49 1.57-6.44v-3.49h6.32v.74h-5.55zm9.18.41c.37.46 1.38 1.9 1.61 2.24l-.47.64c-.2-.42-.73-1.27-1.14-1.92v5.79h-.76v-5.94a13.33 13.33 0 01-1.63 3.63 3.45 3.45 0 00-.43-.71 14 14 0 002-4.73h-1.74V37h1.83v-2.64l1 .07c0 .07-.08.13-.24.16V37h1.52v.76h-1.52zm3.56.82a9.63 9.63 0 001.32 2.52 8 8 0 001.22-2.59l1 .23a.26.26 0 01-.26.14 8.94 8.94 0 01-1.45 2.83 7.71 7.71 0 003.09 2.13 3.19 3.19 0 00-.56.71 8.54 8.54 0 01-3-2.22 9.14 9.14 0 01-3.32 2.23 3.41 3.41 0 00-.43-.64 8.25 8.25 0 003.26-2.19 11.43 11.43 0 01-1.56-3zm.6-1.85a.25.25 0 01-.23.1 9.56 9.56 0 01-2 2.6 4.37 4.37 0 00-.56-.49 7.68 7.68 0 001.91-2.57zm4.17-1.52v.74h-6.72v-.74h2.91v-1.83l1 .07c0 .08-.07.14-.24.17v1.58zm-.52 4.14a12.3 12.3 0 00-2-2.65l.64-.36a12.57 12.57 0 012.05 2.6z"/></svg>59,0,0,1,3.57,1.63l-.46.76a15.63,15.63,0,0,0-3.5-1.67Zm0,8.31c4.26-1.32,7.09-3.71,8.53-7a4.46,4.46,0,0,0,.78.49,13.73,13.73,0,0,1-8.49,7.2.37.37,0,0,1-.17.28Z"/><path class="cls-1" d="M129.2,35.94a.26.26,0,0,1-.16.13,18.94,18.94,0,0,1-2.4,4.13A45.36,45.36,0,0,1,131,44.27l-.73.64a38.82,38.82,0,0,0-4.21-4,18.61,18.61,0,0,1-4.62,4,4.23,4.23,0,0,0-.62-.65,17.21,17.21,0,0,0,7-7.83H122v-.82h6.36l.16-.06Z"/><path class="cls-1" d="M138.4,41.3l.43,3.77-.86.1-.42-3.75-4.5.58-.11-.79,4.52-.58-.31-2.7-3.77.49-.11-.8,3.78-.48-.26-2.37H138c0,.12-.11.22-.28.26l.22,2,3.65-.48.1.82-3.65.47.31,2.69,4.51-.56.11.79Z"/><path class="cls-1" d="M146.67,37.92a13.15,13.15,0,0,1,.9,2.58l-.67.18a13.49,13.49,0,0,0-.88-2.55Zm7.16.08c0,.11-.14.13-.25.12-.94,3.5-2.7,5.65-5.6,6.82a3.51,3.51,0,0,0-.47-.55c2.87-1.13,4.51-3.09,5.39-6.67Zm-4.25-.66a16.83,16.83,0,0,1,.56,2.72l-.71.13a14.55,14.55,0,0,0-.56-2.7Z"/><path class="cls-1" d="M165,36.21a.22.22,0,0,1-.13.08,19.44,19.44,0,0,1-2.31,4A43.34,43.34,0,0,1,167,44.42l-.77.6a37.78,37.78,0,0,0-4.2-4,18.25,18.25,0,0,1-4.58,4,6.35,6.35,0,0,0-.62-.65,16.69,16.69,0,0,0,6.92-7.77h-5.91v-.8h6.36l.16-.06Zm.06-1.61a8.69,8.69,0,0,1,1.38,1.87l-.49.3a8.46,8.46,0,0,0-1.34-1.86Zm1.48-.58a10.34,10.34,0,0,1,1.34,1.81l-.49.3a9,9,0,0,0-1.31-1.81Z"/><path class="cls-1" d="M178.14,37a.73.73,0,0,1-.18.17c-1.26,3.89-3.23,6.38-6.54,8.06a3.19,3.19,0,0,0-.61-.66,11.26,11.26,0,0,0,6.08-7.1h-4.28a12.4,12.4,0,0,1-2.69,3,5.11,5.11,0,0,0-.68-.55,12.17,12.17,0,0,0,3.83-5.21l1.14.32c0,.12-.19.16-.35.16-.24.53-.49,1-.77,1.51h4.22l.14-.07Z"/><path class="cls-1" d="M190.44,38.61a.28.28,0,0,1-.16.12c-1,3.62-3,5.39-6.57,6.38a3.87,3.87,0,0,0-.5-.7c3.26-.82,5.29-2.49,6-5.28h-7.94v-.82h8.3l.12-.07ZM189.32,36h-6.84v-.79h6.84Z"/><path class="cls-1" d="M201.6,36.13a10.72,10.72,0,0,0-1.16-1.27l.42-.34a9.4,9.4,0,0,1,1.54,1.73l-.23.17h.1a.31.31,0,0,1-.17.13c-.92,4.52-3.26,7.22-7.18,8.6a5.29,5.29,0,0,0-.55-.7A9.41,9.41,0,0,0,201.05,37h-7.64v-.82h8l.16-.11Zm1.85-.07A8,8,0,0,0,202,34.34l.44-.35a8.84,8.84,0,0,1,1.5,1.73Z"/><path class="cls-1" d="M215.32,38.72h-4.69c.78,2.87,2.33,5.07,4.88,6a3.15,3.15,0,0,0-.6.76c-2.51-1-4-3.15-4.92-6a8.2,8.2,0,0,1-5,6.06,3.12,3.12,0,0,0-.58-.68,7.6,7.6,0,0,0,4.81-6.1h-4.63V37.9h4.76a31.71,31.71,0,0,0,.16-3.51l1.13.06c0,.11-.11.17-.26.2a29.36,29.36,0,0,1-.17,3.25h5.06Z"/><path class="cls-1" d="M219.84,34.86l.52.31a.27.27,0,0,1-.1.11c-.31.91-.78,2.12-1.19,3.12a3.81,3.81,0,0,1,1.25,2.6c0,1.73-1.06,1.68-2,1.64a1.93,1.93,0,0,0-.2-.71h.52c.47,0,.94,0,.94-1a3.71,3.71,0,0,0-1.26-2.45,25.88,25.88,0,0,0,1-2.87h-1.71V45.5h-.73V34.9h2.82Zm2.1,3.47h4.6l.49.18a.39.39,0,0,1-.08.14,10.23,10.23,0,0,1-1.9,4.47,7.14,7.14,0,0,0,2.57,1.74,3.22,3.22,0,0,0-.55.67,7.75,7.75,0,0,1-2.53-1.82,7.65,7.65,0,0,1-2.65,1.85,3.16,3.16,0,0,0-.48-.67A6.93,6.93,0,0,0,224,43.07a11.12,11.12,0,0,1-1.8-3.73l.68-.17a10,10,0,0,0,1.62,3.3,9,9,0,0,0,1.5-3.4h-4.11c0,2-.34,4.63-1.73,6.44a3,3,0,0,0-.61-.5c1.44-1.86,1.57-4.49,1.57-6.44V35.08h6.32v.74h-5.55Z"/><path class="cls-1" d="M231.12,38.74c.37.46,1.38,1.9,1.61,2.24l-.47.64c-.2-.42-.73-1.27-1.14-1.92v5.79h-.76V39.55a13.33,13.33,0,0,1-1.63,3.63,3.45,3.45,0,0,0-.43-.71,14,14,0,0,0,2-4.73h-1.74V37h1.83V34.36l1,.07c0,.07-.08.13-.24.16V37h1.52v.76h-1.52Zm3.56.82A9.63,9.63,0,0,0,236,42.08a8,8,0,0,0,1.22-2.59l1,.23a.26.26,0,0,1-.26.14,8.94,8.94,0,0,1-1.45,2.83,7.71,7.71,0,0,0,3.09,2.13,3.19,3.19,0,0,0-.56.71,8.54,8.54,0,0,1-3-2.22,9.14,9.14,0,0,1-3.32,2.23,3.41,3.41,0,0,0-.43-.64,8.25,8.25,0,0,0,3.26-2.19,11.43,11.43,0,0,1-1.56-3Zm.6-1.85a.25.25,0,0,1-.23.1,9.56,9.56,0,0,1-2,2.6,4.37,4.37,0,0,0-.56-.49,7.68,7.68,0,0,0,1.91-2.57Zm4.17-1.52v.74h-6.72v-.74h2.91V34.36l1,.07c0,.08-.07.14-.24.17v1.58Zm-.52,4.14a12.3,12.3,0,0,0-2-2.65l.64-.36a12.57,12.57,0,0,1,2.05,2.6Z"/></svg>