<svg xmlns="http://www.w3.org/2000/svg" viewBox="0 0 393.95 52"><defs><style>.cls-1{fill:#fff;}</style></defs><title>img_logo02</title><g id="レイヤー_2" data-name="レイヤー 2"><path class="cls-1" d="M15.27.41h.3l-.13.71,0,.07v.14l0,.07,0,.29-.07.25a.61.61,0,0,1-.06.14v.14l-.13.38,0,.32a.69.69,0,0,0-.09.36,2.38,2.38,0,0,0-.13.47l0,.18-.2.88a1.89,1.89,0,0,1-.09.32l-.09.43,0,.2-.13.4v.11l-.09.22v.14L14,6.86l0,.22,0,.14-.13.6a4,4,0,0,1-.22.83l0,.22-.09.38-.13.47-.13.54c-.09.36-.14.64-.17.85l0,.18a2.93,2.93,0,0,1-.17.57l0,.29,0,.14,0,.18-.09.28c-.09.36-.14.65-.17.86a.77.77,0,0,0-.09.32.51.51,0,0,0-.09.24,2,2,0,0,0-.09.47l-.09.29,0,.25-.3,1.1-.13.57,0,.29-.3,1.17,0,.25a.55.55,0,0,0-.09.25,4.1,4.1,0,0,1-.22.85,1.09,1.09,0,0,1-.09.4v.11a2.21,2.21,0,0,0-.13.5.13.13,0,0,1-.12-.07l-.26-.39,0-.11-.17-.25,0-.11-.22-.32a.37.37,0,0,1-.09-.14.37.37,0,0,1-.09-.13l-.47-.79a2.9,2.9,0,0,1-.3-.43l-.85-1.39,0-.11-.17-.25,0-.11-.47-.71-.13-.21-.43-.72-.13-.22L6.55,14l-.13-.22-.13-.22-.13-.22L6,13.13l-.6-.92L5.34,12a3.37,3.37,0,0,0-.22-.32l-.39-.65L4.65,11a4.64,4.64,0,0,1-.33-.6.39.39,0,0,1-.09-.14l-.47-.72-.13-.25a1.7,1.7,0,0,1-.26-.42l-.22-.29L3,8.28,2,6.57a1.51,1.51,0,0,0-.17-.29l0-.11-.17-.25a.37.37,0,0,1-.09-.14L1,5,.84,4.76A1.22,1.22,0,0,1,.63,4.4L.38,4A3.8,3.8,0,0,1,0,3.22l1.06-.14h.17A.29.29,0,0,1,1.4,3l.73-.11.26,0L3,2.83l.13,0h.22l.95-.14.3,0,.35-.05.32-.05A1.56,1.56,0,0,1,5.47,3l.39,1a1.52,1.52,0,0,1,.22.49l.43,1a4.87,4.87,0,0,0,.29.71l.13.39A1.55,1.55,0,0,1,7.14,7a4.18,4.18,0,0,1,.3.74L8.8,10.92a4.33,4.33,0,0,0,.35.83l.09.29.13.25.21.49V11.71a2.58,2.58,0,0,0,0-.5V10.14a3.43,3.43,0,0,0,0-.57c0-.49,0-.92,0-1.28V7.18l0-.11V5.62a5.7,5.7,0,0,0,0-1.36,2.41,2.41,0,0,0,0-.49V2.94l0-.29V1.44a4.51,4.51,0,0,0,.69-.14L11,1.23l.47-.11.6-.11a5.58,5.58,0,0,0,.72-.14H13L13.21.8l.22,0,.22,0,.26,0a6.81,6.81,0,0,1,.85-.17Z"/><path class="cls-1" d="M14.92,4.22l4.79-.78a3.13,3.13,0,0,1,0,1l0,.13,0,.2v.14l0,.52a3.83,3.83,0,0,0,0,.59l0,.1-.07,1.19c0,.15,0,.26,0,.34a1.07,1.07,0,0,0,0,.21,1.83,1.83,0,0,0,0,.6l0,.06L19.32,11v.16l-.05.72,0,.37a1.28,1.28,0,0,0,0,.22l0,.2v.72l0,.06v.36l0,.36a1.09,1.09,0,0,1,0,.44v.22l0,.36A5.3,5.3,0,0,1,19,16v.49l-.05.33V17a2.73,2.73,0,0,1,0,.49l-.07,1v.27a4.75,4.75,0,0,0,0,.55l0,.23v.27l-.06.82v.23a.61.61,0,0,1-.58,0l-.82-.16-.14,0L17,20.59l-.28-1.85v-.16l-.08-.48a6.19,6.19,0,0,1-.06-.65l-.13-.8v-.19l-.14-.86a.8.8,0,0,0,0-.25l-.11-.7a.73.73,0,0,0,0-.27l-.07-.47q0-.26-.07-.65L16,12.94a1.14,1.14,0,0,1,0-.45l-.13-.86,0-.48a3.34,3.34,0,0,1-.08-.71l-.14-.91,0-.11-.15-1,0-.06-.12-.83V7.35l-.13-.89V6.35L15,5.43l0-.09-.13-.86Z"/><path class="cls-1" d="M20.87,1.14l.89-.22L22,.9l.3-.08h.13l.44-.11H23a1,1,0,0,1,.42-.06l.93-.19h.18A1.25,1.25,0,0,1,25,.36l1-.2.06,0,.36-.09L26.87,0a3,3,0,0,1-.1,1v.08l-.05.44a2.4,2.4,0,0,1-.06.31l-.08.6a.86.86,0,0,1,0,.22l-.3,2.11,0,.12,0,.26,0,.26-.05.23-.19,1.5,0,.12v.26l0,.16v.14l-.32,2,0,.26a1.9,1.9,0,0,1-.05.42l0,.16,0,.25,0,.26-.18,1.35-.05.28-.18,1.35,0,.12,0,.25,0,.16v.14a.86.86,0,0,0-.06.38l0,.12,0,.18v.16l-.1.6a2.06,2.06,0,0,1-.05.42v.14l-.06.31a2.51,2.51,0,0,0,.86-.37l.3-.11.34-.16.2-.08.63-.26a.94.94,0,0,1,.37-.17l.17-.08.49-.23.16-.08.17-.07.57-.25.08.78a5.53,5.53,0,0,1,.07.71l0,.24,0,.08L29,18.49l-.86.25-.05,0-1.2.33-.11.06-.54.13-.11.07-.44.11-.11.06-.42.11-.19.08-1.65.49-.19.08-1.27.31-1-19.2Z"/><path class="cls-1" d="M30.68,5.46l1.74-.56a4.17,4.17,0,0,1,4.22.85l.06.21a2.94,2.94,0,0,1-.21.34l-.09.17a1.62,1.62,0,0,0-.15.26,1.23,1.23,0,0,0-.2.29l-.32.54q-.17.28-.33.51l0,.07-.49-.07H34.8a2.25,2.25,0,0,0-.39,0l-.25,0a1.43,1.43,0,0,0-.35,0l-.1,0h-.12l-.86,0-.2,0a2.32,2.32,0,0,0-1.25,1.2Q31,11,34,12a2.44,2.44,0,0,0,.38.2l.11.05h.06l.38.2.1,0,.21.11q4,2.21,2,6.16a4.72,4.72,0,0,1-2.77,2A7.49,7.49,0,0,1,29,20.32a.43.43,0,0,1-.18-.18l.11-.47,0-.15v-.09l.08-.29v-.08l.12-.46v-.08a1,1,0,0,0,.08-.38l.17-.72q3.32,2.57,6-.54a1.83,1.83,0,0,0,.21-.6V16.2a1.59,1.59,0,0,0-.79-1.08,5.52,5.52,0,0,0-.76-.35l-.39-.13-.16-.06a5.86,5.86,0,0,1-5.3-4.09A3.26,3.26,0,0,1,28,9.68l0-.11A4.55,4.55,0,0,1,30.68,5.46Z"/><path class="cls-1" d="M7.86,20.5h2.28a2,2,0,0,1,.56,0,3,3,0,0,1,.63.06l.17,0h.12l.11,0,.4,0,.12,0,.54.14.17,0,1,.37.2.12.52.26.16.11.06.06.17.11.06,0,.74.69.37.54.09.11.29.68a8,8,0,0,1-2.54,8.82l-.82.65-.06.06-.2.12-.11.09-.79.48a.64.64,0,0,1-.26.14.66.66,0,0,1-.25.14l-.09.06-.29.14-.09,0q-.14.09-.56.28l-.23.09L10,35.2a2.73,2.73,0,0,0-.59.23,1,1,0,0,1-.29.09l-.71.26-.2.06-.2.06-.11,0-.12,0a2,2,0,0,1-.39.12l-.11,0-.52.11a.59.59,0,0,1-.36,0l-.09-.62-.06-.2,0-.17v-.09l-.11-.59,0-.17,0-.2L6,34A1.63,1.63,0,0,1,6,33.73a1.23,1.23,0,0,1,0-.2l.46,0,.22,0,.83-.06.09,0,0-.91,0-.12v-.62l0-.14v-.43a.66.66,0,0,0,0-.33v-.75a.17.17,0,0,1,0-.12l0-1.45,0-.11v-.46l0-.22,0-1.34,0-.23v-.65l0-.23v-.56l0-.09V24a1.06,1.06,0,0,0-.43,0,1.28,1.28,0,0,0-.48,0l-.09,0H5.84l-.31,0-.52,0-.29,0H4.43l-.2,0-.06-.91c0-.17,0-.31-.06-.42v-.32c0-.19,0-.34-.06-.46v-.28L4,21,4.37,21l.16,0,.09,0,.49-.09a1,1,0,0,0,.29-.06.42.42,0,0,0,.19,0H5.7l.63-.09.17,0,.19,0,1-.09Zm5.91,6.06a3.91,3.91,0,0,0-3.92-2.84.19.19,0,0,0-.17.13v8.79a1.07,1.07,0,0,0,.34-.06l.14,0,.32-.09Q14.41,31,13.78,26.56Z"/><path class="cls-1" d="M25.7,19.6h.06l.29.73,0,.11L27,22.92a.44.44,0,0,1,.07.17l.26.64v.21l-.38.46a.5.5,0,0,0-.17.17l-.44.55-.1.12-.09.11a3.83,3.83,0,0,0-.45.53l-.32.37a2.09,2.09,0,0,1-.25.29l-.51.65-.09.11-1.21,1.51a3.8,3.8,0,0,1,.29.33l.25.25,0,.06a1.67,1.67,0,0,1,.26.29,2.34,2.34,0,0,1,.41.46l.16.17.13.12.19.23a2.06,2.06,0,0,1,.26.29l.12.12.33.38.28.32.16.17.07.05a3.61,3.61,0,0,1,.38.44l.22.24a2.66,2.66,0,0,1-.41.58l-.06.05-.09.15-.16.17-.61.76-.16.21-.1.11-.12.09a2.77,2.77,0,0,1-.29-.41l-.16-.2L24.53,34a2.6,2.6,0,0,0-.22-.32l-.06-.12L23.82,33l0-.05-.92-1.31-.06-.05-.16-.24-.35-.49-.09-.17-.16-.2a2,2,0,0,0,0,.81v.41a.71.71,0,0,1,0,.23l0,1.14a2,2,0,0,1,0,.41l0,.64a.81.81,0,0,0,0,.37l0,1.19-.67.35-.07.06-.76.41-.16.12-.09,0-.48.29h-.16l-.1-.65-.06-.2,0-.17,0-.17a5.16,5.16,0,0,0-.09-.56,2.13,2.13,0,0,0-.1-.46l0-.24,0-.23a4.68,4.68,0,0,1-.12-.67l0-.17L19.08,33a.91.91,0,0,0-.07-.32l0-.23-.05-.34c0-.07,0-.14,0-.22l-.07-.24a1.43,1.43,0,0,1,0-.29l0-.2,0-.09a1,1,0,0,0-.06-.32v-.11a2.88,2.88,0,0,1-.1-.53l0-.09-.16-.9a2.28,2.28,0,0,1-.09-.49c0-.13,0-.24-.05-.31a1.2,1.2,0,0,0-.05-.21l-.19-1V27a.13.13,0,0,1,0-.11l-.09-.5L17.78,26a1.46,1.46,0,0,1,0-.29l0-.2,0-.17c0-.12,0-.21-.07-.28a.85.85,0,0,1,0-.25,1,1,0,0,1-.06-.29l0-.11,0-.21,0-.17,0-.2a1.46,1.46,0,0,1-.07-.35,2.39,2.39,0,0,1-.09-.52l0-.09-.06-.4,0-.09L17,21.7l-.06-.21v-.32a2.91,2.91,0,0,1,.47-.08L18,21l.5-.07a4.29,4.29,0,0,1,.53-.07l1.15-.17.22-.06a.51.51,0,0,0,.22,0,1.21,1.21,0,0,0,.34-.06l.35,0,.22,0,0,.86a2.1,2.1,0,0,1,0,.41l.06,1.66a3,3,0,0,1,0,.73l0,.12,0,1.25a1.89,1.89,0,0,1,0,.36l0,.15.88-1.48.08-.1a.92.92,0,0,0,.08-.16l.22-.38.17-.25.54-.85.09-.17.48-.78.09-.15.48-.76L25,20.8l.19-.29a1.06,1.06,0,0,0,.16-.29l.35-.53Z"/><path class="cls-1" d="M32.13,20.8l.64-.09a4.08,4.08,0,0,1,1.88.08.29.29,0,0,1,.14.23,3.47,3.47,0,0,0-.19.65l-.05.23-.06.2-.2.74a3.3,3.3,0,0,0-.15.53l-.2.77a5.73,5.73,0,0,0-4.66,4.58,5.55,5.55,0,0,0,1.9,4.9q1.82,1.07,3.37-2.74l.22.39.07.08.94,1.7.07.11,0,.1.22.39.07.08.19.36A6.08,6.08,0,0,1,31.86,37a5,5,0,0,1-5.08-2.53l-.1-.15-.33-.75a10.66,10.66,0,0,1,.31-6.45,10.64,10.64,0,0,1,4.11-5.72l.73-.39.35-.14A.74.74,0,0,0,32.13,20.8Z"/><path class="cls-1" d="M12.52,39.34a.44.44,0,0,0-.2,0v2.25c.13,0,.21,0,.24-.08a1.13,1.13,0,0,0,0-.42V39.73a1.72,1.72,0,0,0,0-.3A.14.14,0,0,0,12.52,39.34Z"/><path class="cls-1" d="M14.59,40.92h.31q-.07-.58-.14-1.44Q14.63,40.47,14.59,40.92Z"/><path class="cls-1" d="M39.63,40.6v1a.38.38,0,0,0,.24-.06.42.42,0,0,0,.05-.26v-.32c0-.15,0-.24,0-.27A.42.42,0,0,0,39.63,40.6Z"/><path class="cls-1" d="M28,39.34a.44.44,0,0,0-.2,0v2.25c.13,0,.21,0,.24-.08a1.13,1.13,0,0,0,0-.42V39.73a1.73,1.73,0,0,0,0-.3A.14.14,0,0,0,28,39.34Z"/><path class="cls-1" d="M39.82,39.33l-.19,0v.76h.09c.09,0,.14,0,.17-.06a1.09,1.09,0,0,0,0-.37.62.62,0,0,0,0-.23A.14.14,0,0,0,39.82,39.33Z"/><path class="cls-1" d="M1.87,37.45v6.08H41.63V37.45Zm3.06,4.7H3.57l-.51-3.43H4q.16,1.42.23,2.4.07-1,.15-1.76l.06-.64h.94Zm1.49,0H5.53V38.72h.89Zm1.79,0H6.78V38.72h.89v2.74h.54Zm2.09-.34a.67.67,0,0,1-.33.29,1.32,1.32,0,0,1-.57.12,1.27,1.27,0,0,1-.61-.14.66.66,0,0,1-.33-.34,1.76,1.76,0,0,1-.08-.59v-.22h.83v.42a.56.56,0,0,0,0,.25.14.14,0,0,0,.12.05.15.15,0,0,0,.13-.07.41.41,0,0,0,0-.21.65.65,0,0,0-.08-.4A2.76,2.76,0,0,0,9,40.66a4.13,4.13,0,0,1-.44-.32.75.75,0,0,1-.18-.27,1.22,1.22,0,0,1-.07-.45,1.25,1.25,0,0,1,.1-.58.69.69,0,0,1,.32-.29,1.32,1.32,0,0,1,.54-.1,1.41,1.41,0,0,1,.59.11.62.62,0,0,1,.32.28,1.48,1.48,0,0,1,.08.58v.13H9.49v-.25a.49.49,0,0,0,0-.23.11.11,0,0,0-.11,0,.13.13,0,0,0-.12.07.37.37,0,0,0,0,.2.55.55,0,0,0,0,.26.66.66,0,0,0,.25.21,2.56,2.56,0,0,1,.75.58,1.33,1.33,0,0,1,.16.73A1.27,1.27,0,0,1,10.3,41.81Zm3.19-.68a2.74,2.74,0,0,1,0,.62.46.46,0,0,1-.15.24.63.63,0,0,1-.27.12,2.45,2.45,0,0,1-.48,0H11.43V38.72h.67a4.14,4.14,0,0,1,.87.06.67.67,0,0,1,.35.19.61.61,0,0,1,.15.3,4.42,4.42,0,0,1,0,.65Zm1.47,1,0-.62H14.6l-.05.62h-.92l.45-3.43h1.29l.51,3.43Zm3.05,0h-.78l-.46-1.56v1.56H16V38.72h.75l.5,1.54V38.72H18Zm2.44-1.93h-.89v-.6a1.06,1.06,0,0,0,0-.32.12.12,0,0,0-.13-.07.13.13,0,0,0-.14.08,1.16,1.16,0,0,0,0,.34v1.59a1.08,1.08,0,0,0,0,.33.15.15,0,0,0,.26,0,1.25,1.25,0,0,0,0-.36v-.43h.89v.13a2.65,2.65,0,0,1-.08.75.78.78,0,0,1-.33.39,1.14,1.14,0,0,1-.63.17,1.3,1.3,0,0,1-.65-.14.69.69,0,0,1-.34-.39,2.59,2.59,0,0,1-.08-.76v-1a4.54,4.54,0,0,1,0-.56.79.79,0,0,1,.15-.36.85.85,0,0,1,.35-.27A1.43,1.43,0,0,1,20,38.8a.73.73,0,0,1,.34.38,2.3,2.3,0,0,1,.08.71Zm1.87,1.93H20.78V38.72h1.49v.69h-.59v.65h.56v.65h-.56v.75h.65Zm2.27,0-.36-1.47v1.47h-.89V38.72h.89v1.33l.4-1.33h.84L25,40.27l.56,1.88Zm2,0h-.89V38.72h.89Zm2.42-1a2.75,2.75,0,0,1,0,.62.46.46,0,0,1-.15.24.63.63,0,0,1-.27.12,2.45,2.45,0,0,1-.48,0H26.92V38.72h.67a4.14,4.14,0,0,1,.87.06.67.67,0,0,1,.35.19.61.61,0,0,1,.15.3,4.41,4.41,0,0,1,0,.65Zm2.21.68a.67.67,0,0,1-.33.29,1.32,1.32,0,0,1-.57.12,1.27,1.27,0,0,1-.61-.14.66.66,0,0,1-.33-.34,1.76,1.76,0,0,1-.08-.59v-.22h.83v.42a.56.56,0,0,0,0,.25.14.14,0,0,0,.12.05.15.15,0,0,0,.13-.07.41.41,0,0,0,0-.21.65.65,0,0,0-.08-.4,2.75,2.75,0,0,0-.42-.31,4.12,4.12,0,0,1-.44-.32.75.75,0,0,1-.18-.27,1.22,1.22,0,0,1-.07-.45,1.25,1.25,0,0,1,.1-.58.68.68,0,0,1,.32-.29,1.32,1.32,0,0,1,.54-.1,1.41,1.41,0,0,1,.59.11.62.62,0,0,1,.32.28,1.48,1.48,0,0,1,.08.58v.13h-.83v-.25a.49.49,0,0,0,0-.23.11.11,0,0,0-.11,0,.13.13,0,0,0-.12.07.37.37,0,0,0,0,.2.55.55,0,0,0,0,.26.66.66,0,0,0,.25.21,2.56,2.56,0,0,1,.75.58,1.33,1.33,0,0,1,.16.73A1.28,1.28,0,0,1,31.19,41.81Zm3.21-1.6h-.89v-.6a1.06,1.06,0,0,0,0-.32.12.12,0,0,0-.13-.07.13.13,0,0,0-.14.08,1.16,1.16,0,0,0,0,.34v1.59a1.08,1.08,0,0,0,0,.33.15.15,0,0,0,.26,0,1.25,1.25,0,0,0,0-.36v-.43h.89v.13a2.65,2.65,0,0,1-.08.75.78.78,0,0,1-.33.39,1.14,1.14,0,0,1-.63.17,1.3,1.3,0,0,1-.65-.14.69.69,0,0,1-.34-.39,2.59,2.59,0,0,1-.08-.76v-1a4.54,4.54,0,0,1,0-.56.79.79,0,0,1,.15-.36.85.85,0,0,1,.35-.27A1.43,1.43,0,0,1,34,38.8a.73.73,0,0,1,.34.38,2.29,2.29,0,0,1,.08.71Zm1.75,1.93H34.72V38.72h.89v2.74h.54ZM38.4,41a4,4,0,0,1,0,.55.76.76,0,0,1-.15.32.78.78,0,0,1-.33.25,1.24,1.24,0,0,1-.48.09,1.36,1.36,0,0,1-.54-.1.81.81,0,0,1-.35-.26.73.73,0,0,1-.14-.34c0-.12,0-.37,0-.76v-2h.89v2.57a1,1,0,0,0,0,.29.09.09,0,0,0,.1.06.1.1,0,0,0,.11-.07,1.34,1.34,0,0,0,0-.32V38.72h.89Zm2.42.33a1.27,1.27,0,0,1-.08.51.43.43,0,0,1-.25.23,2.61,2.61,0,0,1-.71.06h-1V38.72h.89a2.31,2.31,0,0,1,.64.07.63.63,0,0,1,.35.26,1.19,1.19,0,0,1,.13.64.69.69,0,0,1-.09.42.66.66,0,0,1-.37.18.66.66,0,0,1,.42.23.89.89,0,0,1,.11.5Z"/><polygon class="cls-1" points="37.44 24.43 37.64 26.99 39.86 28.27 37.49 29.25 36.95 31.76 35.29 29.81 32.74 30.07 34.08 27.89 33.04 25.54 35.53 26.14 37.44 24.43"/><path class="cls-1" d="M12.48,49.37q0,.91,0,1.29a1.45,1.45,0,0,1-.88,1.18,2.22,2.22,0,0,1-.9.17,2.28,2.28,0,0,1-.87-.16,1.45,1.45,0,0,1-.9-1.17,12.77,12.77,0,0,1,0-1.31v-1q0-.91,0-1.29a1.45,1.45,0,0,1,.88-1.18,2.22,2.22,0,0,1,.9-.17,2.28,2.28,0,0,1,.87.16,1.45,1.45,0,0,1,.9,1.17,12.77,12.77,0,0,1,0,1.31Zm-1.57-2a1.88,1.88,0,0,0,0-.54.19.19,0,0,0-.19-.12.21.21,0,0,0-.19.1,1.35,1.35,0,0,0-.07.56V50.2a2.78,2.78,0,0,0,0,.65.19.19,0,0,0,.2.12.19.19,0,0,0,.21-.14,3,3,0,0,0,0-.68Z"/><path class="cls-1" d="M17.31,47.65H15.85v-.45a.88.88,0,0,0-.06-.4.21.21,0,0,0-.19-.09.24.24,0,0,0-.21.12.67.67,0,0,0-.07.35,1,1,0,0,0,.08.46,1.19,1.19,0,0,0,.44.37,4.49,4.49,0,0,1,1.32,1,2.35,2.35,0,0,1,.27,1.29,2.26,2.26,0,0,1-.15,1,1.19,1.19,0,0,1-.58.51,2.31,2.31,0,0,1-1,.21,2.26,2.26,0,0,1-1.08-.24,1.17,1.17,0,0,1-.58-.61,3.12,3.12,0,0,1-.14-1.05v-.4h1.46v.74a1,1,0,0,0,.06.44.24.24,0,0,0,.22.1.26.26,0,0,0,.23-.12.7.7,0,0,0,.08-.37,1.13,1.13,0,0,0-.15-.7,4.65,4.65,0,0,0-.74-.55,7.24,7.24,0,0,1-.78-.56,1.32,1.32,0,0,1-.32-.49,2.14,2.14,0,0,1-.13-.79,2.2,2.2,0,0,1,.18-1,1.2,1.2,0,0,1,.57-.5,2.29,2.29,0,0,1,1-.18,2.49,2.49,0,0,1,1,.2,1.09,1.09,0,0,1,.57.5,2.64,2.64,0,0,1,.14,1Z"/><path class="cls-1" d="M21.58,45.82l.9,6.05H20.87l-.08-1.09h-.56l-.09,1.09H18.5l.8-6.05Zm-.83,3.89q-.12-1-.24-2.54-.24,1.74-.3,2.54Z"/><path class="cls-1" d="M27.41,45.82l-.9,2.73,1,3.32H25.87l-.64-2.59v2.59H23.66V45.82h1.57v2.35l.7-2.35Z"/><path class="cls-1" d="M31.41,45.82l.9,6.05H30.7l-.08-1.09h-.56L30,51.87H28.33l.8-6.05Zm-.83,3.89q-.12-1-.24-2.54-.24,1.74-.3,2.54Z"/><path class="cls-1" d="M15.27.41h.3l-.13.71,0,.07v.14l0,.07,0,.29-.07.25a.61.61,0,0,1-.06.14v.14l-.13.38,0,.32a.69.69,0,0,0-.09.36,2.38,2.38,0,0,0-.13.47l0,.18-.2.88a1.89,1.89,0,0,1-.09.32l-.09.43,0,.2-.13.4v.11l-.09.22v.14L14,6.86l0,.22,0,.14-.13.6a4,4,0,0,1-.22.83l0,.22-.09.38-.13.47-.13.54c-.09.36-.14.64-.17.85l0,.18a2.93,2.93,0,0,1-.17.57l0,.29,0,.14,0,.18-.09.28c-.09.36-.14.65-.17.86a.77.77,0,0,0-.09.32.51.51,0,0,0-.09.24,2,2,0,0,0-.09.47l-.09.29,0,.25-.3,1.1-.13.57,0,.29-.3,1.17,0,.25a.55.55,0,0,0-.09.25,4.1,4.1,0,0,1-.22.85,1.09,1.09,0,0,1-.09.4v.11a2.21,2.21,0,0,0-.13.5.13.13,0,0,1-.12-.07l-.26-.39,0-.11-.17-.25,0-.11-.22-.32a.37.37,0,0,1-.09-.14.37.37,0,0,1-.09-.13l-.47-.79a2.9,2.9,0,0,1-.3-.43l-.85-1.39,0-.11-.17-.25,0-.11-.47-.71-.13-.21-.43-.72-.13-.22L6.55,14l-.13-.22-.13-.22-.13-.22L6,13.13l-.6-.92L5.34,12a3.37,3.37,0,0,0-.22-.32l-.39-.65L4.65,11a4.64,4.64,0,0,1-.33-.6.39.39,0,0,1-.09-.14l-.47-.72-.13-.25a1.7,1.7,0,0,1-.26-.42l-.22-.29L3,8.28,2,6.57a1.51,1.51,0,0,0-.17-.29l0-.11-.17-.25a.37.37,0,0,1-.09-.14L1,5,.84,4.76A1.22,1.22,0,0,1,.63,4.4L.38,4A3.8,3.8,0,0,1,0,3.22l1.06-.14h.17A.29.29,0,0,1,1.4,3l.73-.11.26,0L3,2.83l.13,0h.22l.95-.14.3,0,.35-.05.32-.05A1.56,1.56,0,0,1,5.47,3l.39,1a1.52,1.52,0,0,1,.22.49l.43,1a4.87,4.87,0,0,0,.29.71l.13.39A1.55,1.55,0,0,1,7.14,7a4.18,4.18,0,0,1,.3.74L8.8,10.92a4.33,4.33,0,0,0,.35.83l.09.29.13.25.21.49V11.71a2.58,2.58,0,0,0,0-.5V10.14a3.43,3.43,0,0,0,0-.57c0-.49,0-.92,0-1.28V7.18l0-.11V5.62a5.7,5.7,0,0,0,0-1.36,2.41,2.41,0,0,0,0-.49V2.94l0-.29V1.44a4.51,4.51,0,0,0,.69-.14L11,1.23l.47-.11.6-.11a5.58,5.58,0,0,0,.72-.14H13L13.21.8l.22,0,.22,0,.26,0a6.81,6.81,0,0,1,.85-.17Z"/><path class="cls-1" d="M14.92,4.22l4.79-.78a3.13,3.13,0,0,1,0,1l0,.13,0,.2v.14l0,.52a3.83,3.83,0,0,0,0,.59l0,.1-.07,1.19c0,.15,0,.26,0,.34a1.07,1.07,0,0,0,0,.21,1.83,1.83,0,0,0,0,.6l0,.06L19.32,11v.16l-.05.72,0,.37a1.28,1.28,0,0,0,0,.22l0,.2v.72l0,.06v.36l0,.36a1.09,1.09,0,0,1,0,.44v.22l0,.36A5.3,5.3,0,0,1,19,16v.49l-.05.33V17a2.73,2.73,0,0,1,0,.49l-.07,1v.27a4.75,4.75,0,0,0,0,.55l0,.23v.27l-.06.82v.23a.61.61,0,0,1-.58,0l-.82-.16-.14,0L17,20.59l-.28-1.85v-.16l-.08-.48a6.19,6.19,0,0,1-.06-.65l-.13-.8v-.19l-.14-.86a.8.8,0,0,0,0-.25l-.11-.7a.73.73,0,0,0,0-.27l-.07-.47q0-.26-.07-.65L16,12.94a1.14,1.14,0,0,1,0-.45l-.13-.86,0-.48a3.34,3.34,0,0,1-.08-.71l-.14-.91,0-.11-.15-1,0-.06-.12-.83V7.35l-.13-.89V6.35L15,5.43l0-.09-.13-.86Z"/><path class="cls-1" d="M20.87,1.14l.89-.22L22,.9l.3-.08h.13l.44-.11H23a1,1,0,0,1,.42-.06l.93-.19h.18A1.25,1.25,0,0,1,25,.36l1-.2.06,0,.36-.09L26.87,0a3,3,0,0,1-.1,1v.08l-.05.44a2.4,2.4,0,0,1-.06.31l-.08.6a.86.86,0,0,1,0,.22l-.3,2.11,0,.12,0,.26,0,.26-.05.23-.19,1.5,0,.12v.26l0,.16v.14l-.32,2,0,.26a1.9,1.9,0,0,1-.05.42l0,.16,0,.25,0,.26-.18,1.35-.05.28-.18,1.35,0,.12,0,.25,0,.16v.14a.86.86,0,0,0-.06.38l0,.12,0,.18v.16l-.1.6a2.06,2.06,0,0,1-.05.42v.14l-.06.31a2.51,2.51,0,0,0,.86-.37l.3-.11.34-.16.2-.08.63-.26a.94.94,0,0,1,.37-.17l.17-.08.49-.23.16-.08.17-.07.57-.25.08.78a5.53,5.53,0,0,1,.07.71l0,.24,0,.08L29,18.49l-.86.25-.05,0-1.2.33-.11.06-.54.13-.11.07-.44.11-.11.06-.42.11-.19.08-1.65.49-.19.08-1.27.31-1-19.2Z"/><path class="cls-1" d="M30.68,5.46l1.74-.56a4.17,4.17,0,0,1,4.22.85l.06.21a2.94,2.94,0,0,1-.21.34l-.09.17a1.62,1.62,0,0,0-.15.26,1.23,1.23,0,0,0-.2.29l-.32.54q-.17.28-.33.51l0,.07-.49-.07H34.8a2.25,2.25,0,0,0-.39,0l-.25,0a1.43,1.43,0,0,0-.35,0l-.1,0h-.12l-.86,0-.2,0a2.32,2.32,0,0,0-1.25,1.2Q31,11,34,12a2.44,2.44,0,0,0,.38.2l.11.05h.06l.38.2.1,0,.21.11q4,2.21,2,6.16a4.72,4.72,0,0,1-2.77,2A7.49,7.49,0,0,1,29,20.32a.43.43,0,0,1-.18-.18l.11-.47,0-.15v-.09l.08-.29v-.08l.12-.46v-.08a1,1,0,0,0,.08-.38l.17-.72q3.32,2.57,6-.54a1.83,1.83,0,0,0,.21-.6V16.2a1.59,1.59,0,0,0-.79-1.08,5.52,5.52,0,0,0-.76-.35l-.39-.13-.16-.06a5.86,5.86,0,0,1-5.3-4.09A3.26,3.26,0,0,1,28,9.68l0-.11A4.55,4.55,0,0,1,30.68,5.46Z"/><path class="cls-1" d="M7.86,20.5h2.28a2,2,0,0,1,.56,0,3,3,0,0,1,.63.06l.17,0h.12l.11,0,.4,0,.12,0,.54.14.17,0,1,.37.2.12.52.26.16.11.06.06.17.11.06,0,.74.69.37.54.09.11.29.68a8,8,0,0,1-2.54,8.82l-.82.65-.06.06-.2.12-.11.09-.79.48a.64.64,0,0,1-.26.14.66.66,0,0,1-.25.14l-.09.06-.29.14-.09,0q-.14.09-.56.28l-.23.09L10,35.2a2.73,2.73,0,0,0-.59.23,1,1,0,0,1-.29.09l-.71.26-.2.06-.2.06-.11,0-.12,0a2,2,0,0,1-.39.12l-.11,0-.52.11a.59.59,0,0,1-.36,0l-.09-.62-.06-.2,0-.17v-.09l-.11-.59,0-.17,0-.2L6,34A1.63,1.63,0,0,1,6,33.73a1.23,1.23,0,0,1,0-.2l.46,0,.22,0,.83-.06.09,0,0-.91,0-.12v-.62l0-.14v-.43a.66.66,0,0,0,0-.33v-.75a.17.17,0,0,1,0-.12l0-1.45,0-.11v-.46l0-.22,0-1.34,0-.23v-.65l0-.23v-.56l0-.09V24a1.06,1.06,0,0,0-.43,0,1.28,1.28,0,0,0-.48,0l-.09,0H5.84l-.31,0-.52,0-.29,0H4.43l-.2,0-.06-.91c0-.17,0-.31-.06-.42v-.32c0-.19,0-.34-.06-.46v-.28L4,21,4.37,21l.16,0,.09,0,.49-.09a1,1,0,0,0,.29-.06.42.42,0,0,0,.19,0H5.7l.63-.09.17,0,.19,0,1-.09Zm5.91,6.06a3.91,3.91,0,0,0-3.92-2.84.19.19,0,0,0-.17.13v8.79a1.07,1.07,0,0,0,.34-.06l.14,0,.32-.09Q14.41,31,13.78,26.56Z"/><path class="cls-1" d="M25.7,19.6h.06l.29.73,0,.11L27,22.92a.44.44,0,0,1,.07.17l.26.64v.21l-.38.46a.5.5,0,0,0-.17.17l-.44.55-.1.12-.09.11a3.83,3.83,0,0,0-.45.53l-.32.37a2.09,2.09,0,0,1-.25.29l-.51.65-.09.11-1.21,1.51a3.8,3.8,0,0,1,.29.33l.25.25,0,.06a1.67,1.67,0,0,1,.26.29,2.34,2.34,0,0,1,.41.46l.16.17.13.12.19.23a2.06,2.06,0,0,1,.26.29l.12.12.33.38.28.32.16.17.07.05a3.61,3.61,0,0,1,.38.44l.22.24a2.66,2.66,0,0,1-.41.58l-.06.05-.09.15-.16.17-.61.76-.16.21-.1.11-.12.09a2.77,2.77,0,0,1-.29-.41l-.16-.2L24.53,34a2.6,2.6,0,0,0-.22-.32l-.06-.12L23.82,33l0-.05-.92-1.31-.06-.05-.16-.24-.35-.49-.09-.17-.16-.2a2,2,0,0,0,0,.81v.41a.71.71,0,0,1,0,.23l0,1.14a2,2,0,0,1,0,.41l0,.64a.81.81,0,0,0,0,.37l0,1.19-.67.35-.07.06-.76.41-.16.12-.09,0-.48.29h-.16l-.1-.65-.06-.2,0-.17,0-.17a5.16,5.16,0,0,0-.09-.56,2.13,2.13,0,0,0-.1-.46l0-.24,0-.23a4.68,4.68,0,0,1-.12-.67l0-.17L19.08,33a.91.91,0,0,0-.07-.32l0-.23-.05-.34c0-.07,0-.14,0-.22l-.07-.24a1.43,1.43,0,0,1,0-.29l0-.2,0-.09a1,1,0,0,0-.06-.32v-.11a2.88,2.88,0,0,1-.1-.53l0-.09-.16-.9a2.28,2.28,0,0,1-.09-.49c0-.13,0-.24-.05-.31a1.2,1.2,0,0,0-.05-.21l-.19-1V27a.13.13,0,0,1,0-.11l-.09-.5L17.78,26a1.46,1.46,0,0,1,0-.29l0-.2,0-.17c0-.12,0-.21-.07-.28a.85.85,0,0,1,0-.25,1,1,0,0,1-.06-.29l0-.11,0-.21,0-.17,0-.2a1.46,1.46,0,0,1-.07-.35,2.39,2.39,0,0,1-.09-.52l0-.09-.06-.4,0-.09L17,21.7l-.06-.21v-.32a2.91,2.91,0,0,1,.47-.08L18,21l.5-.07a4.29,4.29,0,0,1,.53-.07l1.15-.17.22-.06a.51.51,0,0,0,.22,0,1.21,1.21,0,0,0,.34-.06l.35,0,.22,0,0,.86a2.1,2.1,0,0,1,0,.41l.06,1.66a3,3,0,0,1,0,.73l0,.12,0,1.25a1.89,1.89,0,0,1,0,.36l0,.15.88-1.48.08-.1a.92.92,0,0,0,.08-.16l.22-.38.17-.25.54-.85.09-.17.48-.78.09-.15.48-.76L25,20.8l.19-.29a1.06,1.06,0,0,0,.16-.29l.35-.53Z"/><path class="cls-1" d="M32.13,20.8l.64-.09a4.08,4.08,0,0,1,1.88.08.29.29,0,0,1,.14.23,3.47,3.47,0,0,0-.19.65l-.05.23-.06.2-.2.74a3.3,3.3,0,0,0-.15.53l-.2.77a5.73,5.73,0,0,0-4.66,4.58,5.55,5.55,0,0,0,1.9,4.9q1.82,1.07,3.37-2.74l.22.39.07.08.94,1.7.07.11,0,.1.22.39.07.08.19.36A6.08,6.08,0,0,1,31.86,37a5,5,0,0,1-5.08-2.53l-.1-.15-.33-.75a10.66,10.66,0,0,1,.31-6.45,10.64,10.64,0,0,1,4.11-5.72l.73-.39.35-.14A.74.74,0,0,0,32.13,20.8Z"/><path class="cls-1" d="M12.52,39.34a.44.44,0,0,0-.2,0v2.25c.13,0,.21,0,.24-.08a1.13,1.13,0,0,0,0-.42V39.73a1.72,1.72,0,0,0,0-.3A.14.14,0,0,0,12.52,39.34Z"/><path class="cls-1" d="M14.59,40.92h.31q-.07-.58-.14-1.44Q14.63,40.47,14.59,40.92Z"/><path class="cls-1" d="M39.63,40.6v1a.38.38,0,0,0,.24-.06.42.42,0,0,0,.05-.26v-.32c0-.15,0-.24,0-.27A.42.42,0,0,0,39.63,40.6Z"/><path class="cls-1" d="M28,39.34a.44.44,0,0,0-.2,0v2.25c.13,0,.21,0,.24-.08a1.13,1.13,0,0,0,0-.42V39.73a1.73,1.73,0,0,0,0-.3A.14.14,0,0,0,28,39.34Z"/><path class="cls-1" d="M39.82,39.33l-.19,0v.76h.09c.09,0,.14,0,.17-.06a1.09,1.09,0,0,0,0-.37.62.62,0,0,0,0-.23A.14.14,0,0,0,39.82,39.33Z"/><path class="cls-1" d="M1.87,37.45v6.08H41.63V37.45Zm3.06,4.7H3.57l-.51-3.43H4q.16,1.42.23,2.4.07-1,.15-1.76l.06-.64h.94Zm1.49,0H5.53V38.72h.89Zm1.79,0H6.78V38.72h.89v2.74h.54Zm2.09-.34a.67.67,0,0,1-.33.29,1.32,1.32,0,0,1-.57.12,1.27,1.27,0,0,1-.61-.14.66.66,0,0,1-.33-.34,1.76,1.76,0,0,1-.08-.59v-.22h.83v.42a.56.56,0,0,0,0,.25.14.14,0,0,0,.12.05.15.15,0,0,0,.13-.07.41.41,0,0,0,0-.21.65.65,0,0,0-.08-.4A2.76,2.76,0,0,0,9,40.66a4.13,4.13,0,0,1-.44-.32.75.75,0,0,1-.18-.27,1.22,1.22,0,0,1-.07-.45,1.25,1.25,0,0,1,.1-.58.69.69,0,0,1,.32-.29,1.32,1.32,0,0,1,.54-.1,1.41,1.41,0,0,1,.59.11.62.62,0,0,1,.32.28,1.48,1.48,0,0,1,.08.58v.13H9.49v-.25a.49.49,0,0,0,0-.23.11.11,0,0,0-.11,0,.13.13,0,0,0-.12.07.37.37,0,0,0,0,.2.55.55,0,0,0,0,.26.66.66,0,0,0,.25.21,2.56,2.56,0,0,1,.75.58,1.33,1.33,0,0,1,.16.73A1.27,1.27,0,0,1,10.3,41.81Zm3.19-.68a2.74,2.74,0,0,1,0,.62.46.46,0,0,1-.15.24.63.63,0,0,1-.27.12,2.45,2.45,0,0,1-.48,0H11.43V38.72h.67a4.14,4.14,0,0,1,.87.06.67.67,0,0,1,.35.19.61.61,0,0,1,.15.3,4.42,4.42,0,0,1,0,.65Zm1.47,1,0-.62H14.6l-.05.62h-.92l.45-3.43h1.29l.51,3.43Zm3.05,0h-.78l-.46-1.56v1.56H16V38.72h.75l.5,1.54V38.72H18Zm2.44-1.93h-.89v-.6a1.06,1.06,0,0,0,0-.32.12.12,0,0,0-.13-.07.13.13,0,0,0-.14.08,1.16,1.16,0,0,0,0,.34v1.59a1.08,1.08,0,0,0,0,.33.15.15,0,0,0,.26,0,1.25,1.25,0,0,0,0-.36v-.43h.89v.13a2.65,2.65,0,0,1-.08.75.78.78,0,0,1-.33.39,1.14,1.14,0,0,1-.63.17,1.3,1.3,0,0,1-.65-.14.69.69,0,0,1-.34-.39,2.59,2.59,0,0,1-.08-.76v-1a4.54,4.54,0,0,1,0-.56.79.79,0,0,1,.15-.36.85.85,0,0,1,.35-.27A1.43,1.43,0,0,1,20,38.8a.73.73,0,0,1,.34.38,2.3,2.3,0,0,1,.08.71Zm1.87,1.93H20.78V38.72h1.49v.69h-.59v.65h.56v.65h-.56v.75h.65Zm2.27,0-.36-1.47v1.47h-.89V38.72h.89v1.33l.4-1.33h.84L25,40.27l.56,1.88Zm2,0h-.89V38.72h.89Zm2.42-1a2.75,2.75,0,0,1,0,.62.46.46,0,0,1-.15.24.63.63,0,0,1-.27.12,2.45,2.45,0,0,1-.48,0H26.92V38.72h.67a4.14,4.14,0,0,1,.87.06.67.67,0,0,1,.35.19.61.61,0,0,1,.15.3,4.41,4.41,0,0,1,0,.65Zm2.21.68a.67.67,0,0,1-.33.29,1.32,1.32,0,0,1-.57.12,1.27,1.27,0,0,1-.61-.14.66.66,0,0,1-.33-.34,1.76,1.76,0,0,1-.08-.59v-.22h.83v.42a.56.56,0,0,0,0,.25.14.14,0,0,0,.12.05.15.15,0,0,0,.13-.07.41.41,0,0,0,0-.21.65.65,0,0,0-.08-.4,2.75,2.75,0,0,0-.42-.31,4.12,4.12,0,0,1-.44-.32.75.75,0,0,1-.18-.27,1.22,1.22,0,0,1-.07-.45,1.25,1.25,0,0,1,.1-.58.68.68,0,0,1,.32-.29,1.32,1.32,0,0,1,.54-.1,1.41,1.41,0,0,1,.59.11.62.62,0,0,1,.32.28,1.48,1.48,0,0,1,.08.58v.13h-.83v-.25a.49.49,0,0,0,0-.23.11.11,0,0,0-.11,0,.13.13,0,0,0-.12.07.37.37,0,0,0,0,.2.55.55,0,0,0,0,.26.66.66,0,0,0,.25.21,2.56,2.56,0,0,1,.75.58,1.33,1.33,0,0,1,.16.73A1.28,1.28,0,0,1,31.19,41.81Zm3.21-1.6h-.89v-.6a1.06,1.06,0,0,0,0-.32.12.12,0,0,0-.13-.07.13.13,0,0,0-.14.08,1.16,1.16,0,0,0,0,.34v1.59a1.08,1.08,0,0,0,0,.33.15.15,0,0,0,.26,0,1.25,1.25,0,0,0,0-.36v-.43h.89v.13a2.65,2.65,0,0,1-.08.75.78.78,0,0,1-.33.39,1.14,1.14,0,0,1-.63.17,1.3,1.3,0,0,1-.65-.14.69.69,0,0,1-.34-.39,2.59,2.59,0,0,1-.08-.76v-1a4.54,4.54,0,0,1,0-.56.79.79,0,0,1,.15-.36.85.85,0,0,1,.35-.27A1.43,1.43,0,0,1,34,38.8a.73.73,0,0,1,.34.38,2.29,2.29,0,0,1,.08.71Zm1.75,1.93H34.72V38.72h.89v2.74h.54ZM38.4,41a4,4,0,0,1,0,.55.76.76,0,0,1-.15.32.78.78,0,0,1-.33.25,1.24,1.24,0,0,1-.48.09,1.36,1.36,0,0,1-.54-.1.81.81,0,0,1-.35-.26.73.73,0,0,1-.14-.34c0-.12,0-.37,0-.76v-2h.89v2.57a1,1,0,0,0,0,.29.09.09,0,0,0,.1.06.1.1,0,0,0,.11-.07,1.34,1.34,0,0,0,0-.32V38.72h.89Zm2.42.33a1.27,1.27,0,0,1-.08.51.43.43,0,0,1-.25.23,2.61,2.61,0,0,1-.71.06h-1V38.72h.89a2.31,2.31,0,0,1,.64.07.63.63,0,0,1,.35.26,1.19,1.19,0,0,1,.13.64.69.69,0,0,1-.09.42.66.66,0,0,1-.37.18.66.66,0,0,1,.42.23.89.89,0,0,1,.11.5Z"/><polygon class="cls-1" points="37.44 24.43 37.64 26.99 39.86 28.27 37.49 29.25 36.95 31.76 35.29 29.81 32.74 30.07 34.08 27.89 33.04 25.54 35.53 26.14 37.44 24.43"/><path class="cls-1" d="M12.48,49.37q0,.91,0,1.29a1.45,1.45,0,0,1-.88,1.18,2.22,2.22,0,0,1-.9.17,2.28,2.28,0,0,1-.87-.16,1.45,1.45,0,0,1-.9-1.17,12.77,12.77,0,0,1,0-1.31v-1q0-.91,0-1.29a1.45,1.45,0,0,1,.88-1.18,2.22,2.22,0,0,1,.9-.17,2.28,2.28,0,0,1,.87.16,1.45,1.45,0,0,1,.9,1.17,12.77,12.77,0,0,1,0,1.31Zm-1.57-2a1.88,1.88,0,0,0,0-.54.19.19,0,0,0-.19-.12.21.21,0,0,0-.19.1,1.35,1.35,0,0,0-.07.56V50.2a2.78,2.78,0,0,0,0,.65.19.19,0,0,0,.2.12.19.19,0,0,0,.21-.14,3,3,0,0,0,0-.68Z"/><path class="cls-1" d="M17.31,47.65H15.85v-.45a.88.88,0,0,0-.06-.4.21.21,0,0,0-.19-.09.24.24,0,0,0-.21.12.67.67,0,0,0-.07.35,1,1,0,0,0,.08.46,1.19,1.19,0,0,0,.44.37,4.49,4.49,0,0,1,1.32,1,2.35,2.35,0,0,1,.27,1.29,2.26,2.26,0,0,1-.15,1,1.19,1.19,0,0,1-.58.51,2.31,2.31,0,0,1-1,.21,2.26,2.26,0,0,1-1.08-.24,1.17,1.17,0,0,1-.58-.61,3.12,3.12,0,0,1-.14-1.05v-.4h1.46v.74a1,1,0,0,0,.06.44.24.24,0,0,0,.22.1.26.26,0,0,0,.23-.12.7.7,0,0,0,.08-.37,1.13,1.13,0,0,0-.15-.7,4.65,4.65,0,0,0-.74-.55,7.24,7.24,0,0,1-.78-.56,1.32,1.32,0,0,1-.32-.49,2.14,2.14,0,0,1-.13-.79,2.2,2.2,0,0,1,.18-1,1.2,1.2,0,0,1,.57-.5,2.29,2.29,0,0,1,1-.18,2.49,2.49,0,0,1,1,.2,1.09,1.09,0,0,1,.57.5,2.64,2.64,0,0,1,.14,1Z"/><path class="cls-1" d="M21.58,45.82l.9,6.05H20.87l-.08-1.09h-.56l-.09,1.09H18.5l.8-6.05Zm-.83,3.89q-.12-1-.24-2.54-.24,1.74-.3,2.54Z"/><path class="cls-1" d="M27.41,45.82l-.9,2.73,1,3.32H25.87l-.64-2.59v2.59H23.66V45.82h1.57v2.35l.7-2.35Z"/><path class="cls-1" d="M31.41,45.82l.9,6.05H30.7l-.08-1.09h-.56L30,51.87H28.33l.8-6.05Zm-.83,3.89q-.12-1-.24-2.54-.24,1.74-.3,2.54Z"/><path class="cls-1" d="M72.73,6.36l-2.92,22H61.1l-3.31-22h6q1.05,9.11,1.5,15.41.44-6.37.94-11.31l.4-4.1Z"/><path class="cls-1" d="M79.42,6.36v22H73.69v-22Z"/><path class="cls-1" d="M87.45,6.36V24h3.48V28.4H81.72v-22Z"/><path class="cls-1" d="M104.47,13H99.15V11.4a3.21,3.21,0,0,0-.2-1.46.75.75,0,0,0-.68-.31.87.87,0,0,0-.78.42,2.45,2.45,0,0,0-.27,1.28,3.63,3.63,0,0,0,.3,1.66,4.33,4.33,0,0,0,1.62,1.35Q103,16.61,104,18.07a8.55,8.55,0,0,1,1,4.7,8.23,8.23,0,0,1-.55,3.47,4.32,4.32,0,0,1-2.13,1.87,8.43,8.43,0,0,1-3.68.76A8.22,8.22,0,0,1,94.66,28a4.27,4.27,0,0,1-2.13-2.22A11.36,11.36,0,0,1,92,22V20.51h5.32v2.68a3.53,3.53,0,0,0,.22,1.59.87.87,0,0,0,.8.35.93.93,0,0,0,.85-.45,2.56,2.56,0,0,0,.28-1.33A4.13,4.13,0,0,0,99,20.81a16.89,16.89,0,0,0-2.68-2,26.34,26.34,0,0,1-2.83-2.06A4.8,4.8,0,0,1,92.31,15a7.78,7.78,0,0,1-.46-2.89,8,8,0,0,1,.65-3.7,4.35,4.35,0,0,1,2.09-1.83,8.34,8.34,0,0,1,3.48-.66,9.08,9.08,0,0,1,3.8.72A4,4,0,0,1,104,8.44a9.62,9.62,0,0,1,.51,3.72Z"/><path class="cls-1" d="M111.66,6.36h4.29a26.65,26.65,0,0,1,5.62.38A4.31,4.31,0,0,1,123.79,8a4,4,0,0,1,1,1.94,29.33,29.33,0,0,1,.19,4.2v7.72a18,18,0,0,1-.28,4,3,3,0,0,1-1,1.57,4,4,0,0,1-1.71.79,15.49,15.49,0,0,1-3.08.22h-7.23Zm5.73,3.77v14.5q1.24,0,1.52-.5a7.28,7.28,0,0,0,.29-2.7V12.87a11.5,11.5,0,0,0-.1-1.92.91.91,0,0,0-.44-.62A2.83,2.83,0,0,0,117.39,10.14Z"/><path class="cls-1" d="M137,6.36l3.28,22h-5.86l-.31-4h-2l-.34,4h-5.92l2.92-22Zm-3,14.17q-.44-3.74-.87-9.26-.88,6.33-1.1,9.26Z"/><path class="cls-1" d="M154,6.36v22h-5l-3-10v10h-4.79v-22H146l3.21,9.92V6.36Z"/><path class="cls-1" d="M169.7,16H164V12.13a6.86,6.86,0,0,0-.18-2.08.79.79,0,0,0-.81-.41.85.85,0,0,0-.9.5,7.67,7.67,0,0,0-.19,2.18V22.55a7.15,7.15,0,0,0,.19,2.1.82.82,0,0,0,.86.49.81.81,0,0,0,.84-.49,8,8,0,0,0,.2-2.31V19.57h5.73v.86a17,17,0,0,1-.48,4.85,5,5,0,0,1-2.14,2.51A7.32,7.32,0,0,1,163,28.87a8.45,8.45,0,0,1-4.15-.91,4.44,4.44,0,0,1-2.16-2.52,16.59,16.59,0,0,1-.53-4.85V14.14a28.63,28.63,0,0,1,.16-3.57,5,5,0,0,1,1-2.29,5.43,5.43,0,0,1,2.25-1.74,9.19,9.19,0,0,1,7.48.35,4.7,4.7,0,0,1,2.16,2.44,14.68,14.68,0,0,1,.52,4.55Z"/><path class="cls-1" d="M171.76,6.36h9.56v4.41h-3.82V15h3.58v4.19h-3.58V24h4.21V28.4h-9.94Z"/><path class="cls-1" d="M201.91,6.36l-3.29,10,3.6,12.09h-5.92L194,19V28.4h-5.73v-22H194v8.56l2.55-8.56Z"/><path class="cls-1" d="M208.94,6.36v22h-5.73v-22Z"/><path class="cls-1" d="M223.39,13h-5.32V11.4a3.21,3.21,0,0,0-.2-1.46.75.75,0,0,0-.68-.31.87.87,0,0,0-.78.42,2.45,2.45,0,0,0-.27,1.28,3.63,3.63,0,0,0,.3,1.66A4.33,4.33,0,0,0,218,14.34q3.83,2.27,4.82,3.73a8.55,8.55,0,0,1,1,4.7,8.23,8.23,0,0,1-.55,3.47,4.32,4.32,0,0,1-2.13,1.87,8.43,8.43,0,0,1-3.68.76,8.22,8.22,0,0,1-3.93-.87,4.27,4.27,0,0,1-2.13-2.22,11.36,11.36,0,0,1-.5-3.82V20.51h5.32v2.68a3.53,3.53,0,0,0,.22,1.59.87.87,0,0,0,.8.35.93.93,0,0,0,.85-.45,2.56,2.56,0,0,0,.28-1.33,4.13,4.13,0,0,0-.53-2.55,16.89,16.89,0,0,0-2.68-2,26.34,26.34,0,0,1-2.83-2.06A4.8,4.8,0,0,1,211.22,15a7.78,7.78,0,0,1-.46-2.89,8,8,0,0,1,.65-3.7,4.35,4.35,0,0,1,2.09-1.83A8.34,8.34,0,0,1,217,5.9a9.08,9.08,0,0,1,3.8.72,4,4,0,0,1,2.08,1.82,9.62,9.62,0,0,1,.51,3.72Z"/><path class="cls-1" d="M225.66,6.36h4.29a26.65,26.65,0,0,1,5.62.38A4.31,4.31,0,0,1,237.79,8a4,4,0,0,1,1,1.94,29.33,29.33,0,0,1,.19,4.2v7.72a18,18,0,0,1-.28,4,3,3,0,0,1-1,1.57,4,4,0,0,1-1.71.79,15.49,15.49,0,0,1-3.08.22h-7.23Zm5.73,3.77v14.5q1.24,0,1.52-.5a7.28,7.28,0,0,0,.29-2.7V12.87a11.5,11.5,0,0,0-.1-1.92.91.91,0,0,0-.44-.62A2.83,2.83,0,0,0,231.39,10.14Z"/><path class="cls-1" d="M253.21,13h-5.32V11.4a3.21,3.21,0,0,0-.2-1.46.75.75,0,0,0-.68-.31.87.87,0,0,0-.78.42,2.45,2.45,0,0,0-.27,1.28,3.63,3.63,0,0,0,.3,1.66,4.33,4.33,0,0,0,1.62,1.35q3.83,2.27,4.82,3.73a8.55,8.55,0,0,1,1,4.7,8.23,8.23,0,0,1-.55,3.47A4.32,4.32,0,0,1,251,28.11a8.43,8.43,0,0,1-3.68.76A8.22,8.22,0,0,1,243.4,28a4.27,4.27,0,0,1-2.13-2.22,11.36,11.36,0,0,1-.5-3.82V20.51h5.32v2.68a3.53,3.53,0,0,0,.22,1.59.87.87,0,0,0,.8.35.93.93,0,0,0,.85-.45,2.56,2.56,0,0,0,.28-1.33,4.13,4.13,0,0,0-.53-2.55,16.89,16.89,0,0,0-2.68-2,26.34,26.34,0,0,1-2.83-2.06A4.8,4.8,0,0,1,241,15a7.78,7.78,0,0,1-.46-2.89,8,8,0,0,1,.65-3.7,4.35,4.35,0,0,1,2.09-1.83,8.34,8.34,0,0,1,3.48-.66,9.08,9.08,0,0,1,3.8.72,4,4,0,0,1,2.08,1.82,9.62,9.62,0,0,1,.51,3.72Z"/><path class="cls-1" d="M273.78,16H268V12.13a6.86,6.86,0,0,0-.18-2.08.79.79,0,0,0-.81-.41.85.85,0,0,0-.9.5,7.67,7.67,0,0,0-.19,2.18V22.55a7.15,7.15,0,0,0,.19,2.1.82.82,0,0,0,.86.49.81.81,0,0,0,.84-.49,8,8,0,0,0,.2-2.31V19.57h5.73v.86a17,17,0,0,1-.48,4.85,5,5,0,0,1-2.14,2.51,7.32,7.32,0,0,1-4.08,1.08,8.45,8.45,0,0,1-4.15-.91,4.44,4.44,0,0,1-2.16-2.52,16.59,16.59,0,0,1-.53-4.85V14.14a28.63,28.63,0,0,1,.16-3.57,5,5,0,0,1,1-2.29,5.43,5.43,0,0,1,2.25-1.74,9.19,9.19,0,0,1,7.48.35,4.7,4.7,0,0,1,2.16,2.44,14.68,14.68,0,0,1,.52,4.55Z"/><path class="cls-1" d="M281.57,6.36V24h3.48V28.4h-9.22v-22Z"/><path class="cls-1" d="M299.47,6.36V21.09a25.57,25.57,0,0,1-.16,3.52,4.77,4.77,0,0,1-1,2.08,5,5,0,0,1-2.12,1.62,8,8,0,0,1-3.1.55,8.71,8.71,0,0,1-3.48-.65,5.24,5.24,0,0,1-2.26-1.7,4.71,4.71,0,0,1-.88-2.21q-.14-1.16-.14-4.89v-13h5.73V22.89a6.51,6.51,0,0,0,.16,1.84.61.61,0,0,0,.63.4.66.66,0,0,0,.7-.44,8.25,8.25,0,0,0,.16-2.09V6.36Z"/><path class="cls-1" d="M301.69,6.36h5.72a15.08,15.08,0,0,1,4.1.42,4.07,4.07,0,0,1,2.25,1.71,7.67,7.67,0,0,1,.86,4.14,4.46,4.46,0,0,1-.61,2.69,4.22,4.22,0,0,1-2.39,1.17,4.24,4.24,0,0,1,2.7,1.49,5.75,5.75,0,0,1,.71,3.19v2a8.11,8.11,0,0,1-.51,3.31A2.75,2.75,0,0,1,312.89,28a16.69,16.69,0,0,1-4.57.4h-6.63Zm5.73,3.77V15H308q.84,0,1.08-.42a6.79,6.79,0,0,0,.23-2.37,3.83,3.83,0,0,0-.19-1.45.91.91,0,0,0-.5-.52A4.44,4.44,0,0,0,307.42,10.14Zm0,8.33v6.17a2.45,2.45,0,0,0,1.54-.38,2.67,2.67,0,0,0,.33-1.67V20.52a2.9,2.9,0,0,0-.3-1.71A2.69,2.69,0,0,0,307.42,18.47Z"/><path class="cls-1" d="M335.09,19.27q0,3.32-.16,4.7a5.27,5.27,0,0,1-3.21,4.28,8.1,8.1,0,0,1-3.27.61,8.3,8.3,0,0,1-3.18-.58A5.3,5.3,0,0,1,322,24a46.51,46.51,0,0,1-.16-4.76V15.5q0-3.32.16-4.7a5.27,5.27,0,0,1,3.21-4.28,8.1,8.1,0,0,1,3.27-.61,8.3,8.3,0,0,1,3.18.58,5.3,5.3,0,0,1,3.29,4.25,46.52,46.52,0,0,1,.16,4.76ZM329.36,12a6.81,6.81,0,0,0-.17-2,.68.68,0,0,0-.7-.43.78.78,0,0,0-.69.35,4.92,4.92,0,0,0-.24,2V22.32a10.11,10.11,0,0,0,.16,2.37.68.68,0,0,0,.73.45.7.7,0,0,0,.75-.52,10.9,10.9,0,0,0,.16-2.46Z"/><path class="cls-1" d="M349.37,13H344V11.4a3.21,3.21,0,0,0-.2-1.46.75.75,0,0,0-.68-.31.87.87,0,0,0-.78.42,2.45,2.45,0,0,0-.27,1.28,3.63,3.63,0,0,0,.3,1.66A4.33,4.33,0,0,0,344,14.34q3.83,2.27,4.82,3.73a8.55,8.55,0,0,1,1,4.7,8.23,8.23,0,0,1-.55,3.47,4.32,4.32,0,0,1-2.13,1.87,8.43,8.43,0,0,1-3.68.76,8.22,8.22,0,0,1-3.93-.87,4.27,4.27,0,0,1-2.13-2.22,11.36,11.36,0,0,1-.5-3.82V20.51h5.32v2.68a3.53,3.53,0,0,0,.22,1.59.87.87,0,0,0,.8.35.93.93,0,0,0,.85-.45,2.56,2.56,0,0,0,.28-1.33,4.13,4.13,0,0,0-.53-2.55,16.89,16.89,0,0,0-2.68-2,26.34,26.34,0,0,1-2.83-2.06A4.8,4.8,0,0,1,337.21,15a7.78,7.78,0,0,1-.46-2.89,8,8,0,0,1,.65-3.7,4.35,4.35,0,0,1,2.09-1.83A8.34,8.34,0,0,1,343,5.9a9.08,9.08,0,0,1,3.8.72,4,4,0,0,1,2.08,1.82,9.62,9.62,0,0,1,.51,3.72Z"/><path class="cls-1" d="M361.55,6.36l3.28,22H359l-.31-4h-2l-.34,4h-5.92l2.92-22Zm-3,14.17q-.44-3.74-.87-9.26-.88,6.33-1.1,9.26Z"/><path class="cls-1" d="M379.46,6.36l-3.29,10,3.6,12.09h-5.92L371.53,19V28.4H365.8v-22h5.73v8.56l2.55-8.56Z"/><path class="cls-1" d="M390.67,6.36l3.28,22h-5.86l-.31-4h-2l-.34,4h-5.92l2.92-22Zm-3,14.17q-.44-3.74-.87-9.26-.88,6.33-1.1,9.26Z"/><path class="cls-1" d="M67.76,43.86a24,24,0,0,0,2.52-.18c0,.26,0,.6,0,.86-.79.08-2,.13-2.48.13h-3c-1.81,0-2.69-.79-2.69-2.51v-7l1.18.07c0,.12-.11.19-.32.22v3.91A39.37,39.37,0,0,0,69,37l.61.83a.29.29,0,0,1-.14,0,.43.43,0,0,1-.17,0A46.7,46.7,0,0,1,63,40.19v2c0,1.21.59,1.67,1.82,1.67Zm1.13-9a9.46,9.46,0,0,1,1.49,1.76l-.46.35a10,10,0,0,0-1.46-1.76Zm1.48-.72a9.85,9.85,0,0,1,1.49,1.75l-.46.35a10.53,10.53,0,0,0-1.46-1.75Z"/><path class="cls-1" d="M75.63,36.59c0,.11-.12.18-.28.2C75.28,40,75,43,73.17,45.11a6.82,6.82,0,0,0-.72-.46c1.79-1.94,2-4.94,2-8.17Zm3.11,6.91a7.89,7.89,0,0,0,4-4.82,4.84,4.84,0,0,0,.74.47,9,9,0,0,1-4.89,5.42.5.5,0,0,1-.2.24L77.75,44l.13-.18V35l1.12.06a.27.27,0,0,1-.26.23Z"/><path class="cls-1" d="M93,36.21a.21.21,0,0,1-.13.08,19.12,19.12,0,0,1-2.31,4A44.41,44.41,0,0,1,95,44.42l-.77.6A37.63,37.63,0,0,0,90,41a18.42,18.42,0,0,1-4.58,4,5.21,5.21,0,0,0-.62-.65,16.68,16.68,0,0,0,6.92-7.77H85.81V35.8h6.36l.16-.06Zm.06-1.61a8.57,8.57,0,0,1,1.38,1.87l-.49.3a8.85,8.85,0,0,0-1.34-1.86ZM94.53,34a10,10,0,0,1,1.34,1.81l-.49.3a8.81,8.81,0,0,0-1.31-1.81Z"/><path class="cls-1" d="M105.86,36.79c0,.07-.07.1-.14.13a15.81,15.81,0,0,1-1.74,4c.52.3,1.15.67,1.6,1l-.5.78a17.53,17.53,0,0,0-1.6-1,10.93,10.93,0,0,1-4.31,3.6,2.52,2.52,0,0,0-.65-.64,10.79,10.79,0,0,0,4.21-3.39A20,20,0,0,0,100,39.92l.47-.66a23.3,23.3,0,0,1,2.72,1.22,12.48,12.48,0,0,0,1.44-3.18h-4A12.59,12.59,0,0,1,98,40.58a6.34,6.34,0,0,0-.67-.54A12.14,12.14,0,0,0,101,34.7l1.12.32a.3.3,0,0,1-.34.16,13.11,13.11,0,0,1-.61,1.33h3.89l.11,0Zm-1.1-2.39a9.1,9.1,0,0,1,1.6,1.68l-.46.37a9.77,9.77,0,0,0-1.57-1.68Zm1.54-.44a9.64,9.64,0,0,1,1.63,1.66l-.47.36a8.86,8.86,0,0,0-1.58-1.64Z"/><path class="cls-1" d="M109.81,35.68a14.9,14.9,0,0,1,3.57,1.63l-.46.76a15.33,15.33,0,0,0-3.5-1.67Zm0,8.31c4.26-1.32,7.09-3.71,8.53-7a4.69,4.69,0,0,0,.78.49,13.74,13.74,0,0,1-8.49,7.2.39.39,0,0,1-.17.28Z"/><path class="cls-1" d="M129.19,35.94a.25.25,0,0,1-.16.13,18.57,18.57,0,0,1-2.4,4.13A44,44,0,0,1,131,44.27l-.73.64a39.18,39.18,0,0,0-4.21-4,18.89,18.89,0,0,1-4.62,4,4.51,4.51,0,0,0-.62-.65,17.2,17.2,0,0,0,7-7.83H122v-.82h6.36l.16-.06Z"/><path class="cls-1" d="M138.4,41.3l.43,3.77-.86.1-.42-3.75L133,42l-.11-.79,4.52-.58-.31-2.7-3.77.49-.11-.8,3.78-.48-.26-2.37,1.18,0c0,.12-.11.22-.28.26l.22,2,3.65-.48.1.82-3.65.47.31,2.69,4.51-.56.11.79Z"/><path class="cls-1" d="M146.67,37.92a12.94,12.94,0,0,1,.9,2.58l-.67.18a13.45,13.45,0,0,0-.88-2.55Zm7.16.08c0,.11-.14.13-.25.12-.94,3.5-2.7,5.65-5.6,6.82a3.25,3.25,0,0,0-.47-.55c2.87-1.13,4.51-3.09,5.39-6.67Zm-4.25-.66a16.4,16.4,0,0,1,.56,2.72l-.71.13a14.45,14.45,0,0,0-.56-2.7Z"/><path class="cls-1" d="M165,36.21a.21.21,0,0,1-.13.08,19.12,19.12,0,0,1-2.31,4A44.41,44.41,0,0,1,167,44.42l-.77.6a37.63,37.63,0,0,0-4.2-4,18.42,18.42,0,0,1-4.58,4,5.21,5.21,0,0,0-.62-.65,16.68,16.68,0,0,0,6.92-7.77h-5.91V35.8h6.36l.16-.06Zm.06-1.61a8.57,8.57,0,0,1,1.38,1.87l-.49.3a8.85,8.85,0,0,0-1.34-1.86Zm1.48-.58a10,10,0,0,1,1.34,1.81l-.49.3a8.81,8.81,0,0,0-1.31-1.81Z"/><path class="cls-1" d="M178.14,37a.82.82,0,0,1-.18.17c-1.26,3.89-3.23,6.38-6.54,8.06a3.12,3.12,0,0,0-.61-.66,11.27,11.27,0,0,0,6.08-7.1h-4.28a12.3,12.3,0,0,1-2.69,3,4.72,4.72,0,0,0-.68-.55,12.19,12.19,0,0,0,3.83-5.21l1.14.32c0,.12-.19.16-.35.16-.24.53-.49,1-.77,1.51h4.22l.14-.07Z"/><path class="cls-1" d="M190.44,38.61a.28.28,0,0,1-.16.12c-1,3.62-3,5.39-6.57,6.38a3.54,3.54,0,0,0-.5-.7c3.26-.82,5.29-2.49,6-5.28h-7.94v-.82h8.3l.12-.07ZM189.31,36h-6.84v-.79h6.84Z"/><path class="cls-1" d="M201.6,36.13a11,11,0,0,0-1.16-1.27l.42-.34a9.24,9.24,0,0,1,1.54,1.73l-.23.17.1,0a.31.31,0,0,1-.17.13c-.92,4.52-3.26,7.22-7.18,8.6a5.35,5.35,0,0,0-.55-.7A9.42,9.42,0,0,0,201,37h-7.64v-.82h8l.16-.11Zm1.85-.07A8.21,8.21,0,0,0,202,34.34l.44-.35a8.71,8.71,0,0,1,1.5,1.73Z"/></g></svg>