<svg id="レイヤー_1" data-name="レイヤー 1" xmlns="http://www.w3.org/2000/svg" viewBox="0 0 112 140"><defs><style>.cls-1{fill:#fff;}</style></defs><title>icon_vils</title><path class="cls-1" d="M41.71,3h.78l-.34,1.82L42,5v.37l-.11.19-.11.74c-.07.31-.13.52-.17.65a1.66,1.66,0,0,1-.16.37v.37l-.34,1L41,9.51a1.81,1.81,0,0,0-.22.92,5.56,5.56,0,0,0-.33,1.2l-.11.47-.52,2.28a6.14,6.14,0,0,1-.22.83l-.23,1.11-.11.52-.33,1v.28l-.22.56v.37l-.23.55-.11.56-.11.36L38,22.09a10.18,10.18,0,0,1-.56,2.12l-.11.56-.22,1L36.75,27l-.34,1.39c-.22.92-.37,1.65-.44,2.19l-.11.46a7.52,7.52,0,0,1-.45,1.48l-.11.74-.11.37-.07.46-.23.71c-.22.93-.36,1.67-.44,2.22a1.94,1.94,0,0,0-.22.83,1.3,1.3,0,0,0-.22.62,5.48,5.48,0,0,0-.23,1.2l-.22.74-.11.65-.78,2.84-.33,1.48-.11.74-.78,3-.11.65a1.32,1.32,0,0,0-.22.65,10.81,10.81,0,0,1-.56,2.18,2.72,2.72,0,0,1-.22,1v.28A5.51,5.51,0,0,0,30,55.17a.33.33,0,0,1-.3-.18L29,54l-.11-.27-.44-.65-.11-.28-.56-.83a1.08,1.08,0,0,1-.22-.37.87.87,0,0,1-.22-.34l-1.22-2a6,6,0,0,1-.78-1.11l-2.19-3.57-.11-.28-.44-.65-.12-.28L21.3,41.48,21,40.93l-1.11-1.85-.33-.56-.3-.52-.33-.56-.34-.55-.33-.56-.34-.55L16.34,33.4l-.22-.46a7.69,7.69,0,0,0-.56-.83l-1-1.67-.22-.27a11.5,11.5,0,0,1-.85-1.54,1,1,0,0,1-.22-.38L12,26.4l-.33-.64A5,5,0,0,1,11,24.68l-.55-.74-.34-.65L7.41,18.88A3.86,3.86,0,0,0,7,18.14l-.11-.28-.45-.64a1.22,1.22,0,0,1-.22-.38L4.86,14.75l-.34-.56A3,3,0,0,1,4,13.27l-.63-1a9.84,9.84,0,0,1-1-2l2.74-.37h.45A.66.66,0,0,1,6,9.78l1.89-.27.67-.1L10,9.23l.34-.09h.55l2.45-.37.78-.1.9-.14c.26,0,.54-.07.84-.13a4.07,4.07,0,0,1,.55,1.2l1,2.5A3.94,3.94,0,0,1,18,13.36l1.11,2.5a12.22,12.22,0,0,0,.74,1.82l.33,1a4,4,0,0,1,.56,1.2,10.4,10.4,0,0,1,.77,1.91L25,30.07a11.54,11.54,0,0,0,.89,2.13l.23.74.33.65L27,34.85V32.11a6.24,6.24,0,0,0,.11-1.3V28.07a8.21,8.21,0,0,0,.12-1.48c0-1.27,0-2.38.11-3.3V20.45l.11-.27V16.41a14.84,14.84,0,0,0,.11-3.51,6.52,6.52,0,0,0,.11-1.27V9.51l.11-.74V5.65a11.35,11.35,0,0,0,1.78-.37l1.18-.18c.37-.07.78-.16,1.23-.28l1.55-.28a13.08,13.08,0,0,0,1.85-.37h.34L36.41,4l.56-.1.56-.09.66-.09a16.32,16.32,0,0,1,2.19-.43Z"/><path class="cls-1" d="M40.82,12.81l12.34-2a8.05,8.05,0,0,1-.11,2.53l.06.32-.08.52,0,.36,0,1.34a10.67,10.67,0,0,0-.08,1.54l0,.25-.18,3.06c0,.39,0,.68,0,.88a5,5,0,0,0,0,.55,4.91,4.91,0,0,0-.08,1.53l-.07.17-.32,6.38,0,.41L52,32.51l-.08,1a2.68,2.68,0,0,0,0,.58l-.08.52v.49l0,.93,0,.44-.05.17,0,.93-.1.93a2.94,2.94,0,0,1-.08,1.12l0,.58-.1.93a12.72,12.72,0,0,1-.08,2.14l0,.33,0,.93-.13.85v.44a7,7,0,0,1,0,1.26L51,49.58l0,.68a14,14,0,0,0-.1,1.42l-.08.61,0,.68-.16,2.11v.61a1.61,1.61,0,0,1-1.48,0l-2.11-.41a1.27,1.27,0,0,0-.37-.11L46.1,55l-.72-4.77,0-.41-.21-1.23A15.13,15.13,0,0,1,45,46.92l-.34-2.06,0-.49-.36-2.22a2.39,2.39,0,0,0,0-.66l-.29-1.81a1.77,1.77,0,0,0,0-.68l-.19-1.21c-.06-.43-.13-1-.18-1.67l-.13-.82a2.92,2.92,0,0,1-.1-1.15l-.34-2.22L43,30.7a7.84,7.84,0,0,1-.21-1.84l-.37-2.36,0-.27-.39-2.46.06-.17-.32-2.14,0-.57-.34-2.3,0-.28-.36-2.38,0-.25-.34-2.22Z"/><path class="cls-1" d="M56.16,4.87l2.28-.56.61-.06L59.81,4l.34,0,1.13-.28.39,0a2.41,2.41,0,0,1,1.08-.16l2.39-.49.47,0a3.12,3.12,0,0,1,1.24-.22l2.47-.52.15.06.92-.25,1.24-.21a8,8,0,0,1-.26,2.59l0,.21-.13,1.14a5.9,5.9,0,0,1-.16.81l-.21,1.54a2.54,2.54,0,0,1,0,.56L70,14.22l-.11.31,0,.68-.11.68-.13.58-.5,3.86-.1.31,0,.68-.1.4v.37l-.82,5.25L68,28a5.55,5.55,0,0,1-.13,1.09l-.08.4-.06.64-.1.68-.47,3.49L67,35l-.48,3.49-.1.31-.06.64-.07.4v.38a2,2,0,0,0-.16,1l-.11.31L66,42l0,.41-.26,1.54A5.08,5.08,0,0,1,65.56,45l0,.37-.15.8a6.35,6.35,0,0,0,2.2-.95,6.14,6.14,0,0,1,.76-.28l.87-.4a2.19,2.19,0,0,1,.53-.22l1.63-.68a2.42,2.42,0,0,1,.94-.43l.45-.22L74,42.43l.42-.22.45-.18,1.47-.65.21,2a16.88,16.88,0,0,1,.18,1.82l.11.62L76.8,46l.42,3.55-2.2.65-.13.12-3.1.86-.29.16-1.39.34-.29.18-1.13.28-.29.15-1.08.28-.5.22-4.25,1.26-.5.22-3.29.8L56.21,5.61Z"/><path class="cls-1" d="M81.45,16l4.49-1.45q6.81-1.77,10.88,2.19l.16.53a7.86,7.86,0,0,1-.52.87l-.24.44a5.78,5.78,0,0,0-.39.67,3.23,3.23,0,0,0-.5.76l-.83,1.4c-.29.49-.58.93-.85,1.31l-.09.19-1.27-.19h-.23a5.56,5.56,0,0,0-1-.11,2.81,2.81,0,0,0-.65-.1,4,4,0,0,0-.9,0l-.25-.07-.3,0-2.21.11-.5.09A6,6,0,0,0,83,25.75q-.74,4.45,7.09,7.18a6.41,6.41,0,0,0,1,.51l.28.13.16,0,1,.5.25.07.53.28q10.36,5.69,5.16,15.88a12.16,12.16,0,0,1-7.14,5.11q-6.54,2.19-14.16-1.13a1.05,1.05,0,0,1-.45-.46L77,52.63l.09-.39,0-.23.2-.76v-.2l.3-1.18v-.21a2.52,2.52,0,0,0,.21-1l.44-1.86q8.56,6.63,15.44-1.41a4.68,4.68,0,0,0,.56-1.54l0-.16a4.06,4.06,0,0,0-2-2.78,13.58,13.58,0,0,0-1.95-.9l-1-.35-.41-.16q-10-.87-13.67-10.54a8.32,8.32,0,0,1-.53-2.09l-.1-.28Q74.71,19.63,81.45,16Z"/><path class="cls-1" d="M22.62,54.79H28.5a5,5,0,0,1,1.45.07,7.54,7.54,0,0,1,1.63.15l.44.07h.3l.27.08,1,.12.3.07,1.38.37.45.08,2.64,1a3,3,0,0,0,.51.3l1.34.66.42.27.14.15.45.3.15.07,1.9,1.78,1,1.38.22.29.74,1.76q3.95,13.2-6.54,22.74l-2.12,1.68-.15.14-.52.3-.29.23L33.55,90a1.68,1.68,0,0,1-.67.37,1.74,1.74,0,0,1-.64.37l-.22.15-.74.36-.22.08a14.57,14.57,0,0,1-1.46.71l-.59.23-.81.37a6.62,6.62,0,0,0-1.53.59,2.6,2.6,0,0,1-.74.22l-1.83.67-.51.14-.52.15-.3.08-.3,0a5.47,5.47,0,0,1-1,.29l-.29.08-1.33.29a1.51,1.51,0,0,1-.94,0l-.22-1.6-.15-.52-.08-.44v-.23l-.29-1.52-.07-.45L18,90l-.07-.44a5.29,5.29,0,0,1-.19-.64,3.8,3.8,0,0,1,0-.52l1.19-.08.57-.07,2.14-.15.22-.07-.07-2.34-.07-.3v-1.6l-.08-.37V82.27a1.71,1.71,0,0,0-.07-.87V79.48a.43.43,0,0,1-.08-.3l-.07-3.72-.07-.3V74l-.08-.57L21.17,70l-.08-.59V67.69L21,67.1V65.64L21,65.42V63.79a2.74,2.74,0,0,0-1.11-.07,3.27,3.27,0,0,0-1.24-.08l-.22-.07h-1l-.79-.08c-.54-.05-1-.07-1.33-.07a6.49,6.49,0,0,0-.74-.08h-.79l-.52-.07-.15-2.34c0-.43-.1-.79-.15-1.09V59c0-.49-.09-.89-.14-1.18v-.72l-.08-1,.89-.15L14,56l.22-.08,1.26-.22a2.41,2.41,0,0,0,.74-.15,1.06,1.06,0,0,0,.49-.07h.3l1.63-.22.44-.05.49-.08,2.57-.22ZM37.87,70.4q-2.57-7.2-10.12-7.32a.48.48,0,0,0-.44.34V86.09a2.77,2.77,0,0,0,.89-.15l.37-.07.81-.22Q39.49,82,37.87,70.4Z"/><path class="cls-1" d="M68.6,52.47h.17l.74,1.87.08.28L72,61a1.13,1.13,0,0,1,.17.44l.67,1.64v.55l-1,1.19a1.31,1.31,0,0,0-.43.45l-1.13,1.43L70,67l-.25.28a9.88,9.88,0,0,0-1.15,1.37l-.81,1a6,6,0,0,1-.65.75L65.82,72a2.56,2.56,0,0,0-.24.29l-3.12,3.89a9.35,9.35,0,0,1,.74.85l.65.65.07.17a4.52,4.52,0,0,1,.68.75,5.61,5.61,0,0,1,1.05,1.19l.41.45.34.3a6.84,6.84,0,0,1,.47.59,5.08,5.08,0,0,1,.68.75l.31.31.84,1,.72.82.41.45.17.14a10,10,0,0,1,1,1.13c.22.25.42.45.57.61a7,7,0,0,1-1,1.5l-.17.14-.24.38a3.25,3.25,0,0,0-.41.44l-1.56,2-.41.54-.26.28-.31.23a6.6,6.6,0,0,1-.74-1L66,90.24l-.41-.61a7.91,7.91,0,0,0-.58-.82l-.17-.31L63.75,87l-.07-.14-2.37-3.38-.17-.14-.41-.61-.91-1.26L59.58,81l-.41-.52a5.31,5.31,0,0,0-.07,2.09v1.06a1.82,1.82,0,0,1,.07.59l.07,2.93a5.27,5.27,0,0,1,.1,1l.07,1.64a2.08,2.08,0,0,0,.1,1l.07,3.07-1.73.92-.17.14-2,1.05-.4.31-.24.07-1.23.75h-.41l-.26-1.67L53,95l-.1-.45-.07-.44q-.11-.82-.24-1.44a5.29,5.29,0,0,0-.27-1.19l-.07-.61-.09-.59a11.44,11.44,0,0,1-.32-1.74l-.09-.44-.24-1.13a2.4,2.4,0,0,0-.17-.82l-.07-.59c-.07-.4-.11-.69-.13-.86s-.06-.36-.11-.57l-.17-.61a3.23,3.23,0,0,1-.1-.75l-.07-.51-.1-.24a2.57,2.57,0,0,0-.14-.82v-.28a7.48,7.48,0,0,1-.26-1.36l-.08-.24L49.74,77a5.52,5.52,0,0,1-.24-1.27c-.07-.34-.11-.6-.13-.78a3,3,0,0,0-.14-.55l-.48-2.49v-.3a.37.37,0,0,1-.09-.29L48.42,70l-.24-1.12a3.37,3.37,0,0,1-.1-.75L48,67.6l-.07-.45c-.07-.29-.13-.53-.18-.71a2.08,2.08,0,0,1-.09-.65,2.68,2.68,0,0,1-.14-.75l-.1-.28-.07-.54-.1-.45-.07-.51a4,4,0,0,1-.17-.92A6.39,6.39,0,0,1,46.78,61l-.09-.24-.14-1-.1-.23-.24-1.65L46,57.32V56.5a8,8,0,0,1,1.22-.21l1.4-.23a11.4,11.4,0,0,0,1.28-.19,11.12,11.12,0,0,1,1.36-.19l3-.44.58-.15A1.29,1.29,0,0,0,55.4,55a3.34,3.34,0,0,0,.89-.14l.91-.07.58-.07L57.85,57a5.51,5.51,0,0,1,.1,1l.16,4.27a7.8,7.8,0,0,1,.08,1.88l.07.31.09,3.21a4.69,4.69,0,0,1,.08.92l.09.37,2.28-3.83a1.56,1.56,0,0,0,.22-.26,2.25,2.25,0,0,0,.21-.41l.56-1,.43-.66,1.39-2.18.24-.44,1.23-2,.24-.38,1.24-1.95a1.26,1.26,0,0,0,.17-.3l.48-.75a2.81,2.81,0,0,0,.41-.75l.91-1.36Z"/><path class="cls-1" d="M85.18,55.55l1.66-.23a10.46,10.46,0,0,1,4.83.19.74.74,0,0,1,.36.61,8.32,8.32,0,0,0-.49,1.67l-.13.6-.15.52-.52,1.9a9.25,9.25,0,0,0-.39,1.36l-.52,2q-10.06,2.5-12,11.79-.87,7.2,4.91,12.65,4.68,2.75,8.69-7.07l.58,1,.17.2,2.43,4.38.18.27.11.27.58,1,.19.2.49.94a15.7,15.7,0,0,1-11.66,7.54q-8.1,1-13.09-6.52l-.26-.38-.86-1.93a27.46,27.46,0,0,1,.79-16.62A27.45,27.45,0,0,1,81.64,57.15l1.9-1,.89-.35A2,2,0,0,0,85.18,55.55Z"/><path class="cls-1" d="M34.64,103.34a1.18,1.18,0,0,0-.52-.08v5.81c.34,0,.54-.07.62-.2a3.08,3.08,0,0,0,.11-1.08v-3.43a4.07,4.07,0,0,0,0-.77A.35.35,0,0,0,34.64,103.34Z"/><path class="cls-1" d="M40,107.43h.79c-.12-1-.24-2.24-.35-3.71C40.18,105.41,40,106.65,40,107.43Z"/><path class="cls-1" d="M104.52,106.6v2.47a1,1,0,0,0,.62-.15,1.08,1.08,0,0,0,.13-.67v-.82a1.17,1.17,0,0,0-.12-.69A1.05,1.05,0,0,0,104.52,106.6Z"/><path class="cls-1" d="M74.56,103.34a1.18,1.18,0,0,0-.52-.08v5.81c.33,0,.54-.07.62-.2a3.08,3.08,0,0,0,.11-1.08v-3.43a4.07,4.07,0,0,0,0-.77A.35.35,0,0,0,74.56,103.34Z"/><path class="cls-1" d="M105,103.31a1.63,1.63,0,0,0-.48,0v2h.23c.22,0,.37-.06.43-.17a2.76,2.76,0,0,0,.09-1,1.6,1.6,0,0,0-.07-.58A.38.38,0,0,0,105,103.31Z"/><path class="cls-1" d="M7.16,98.47v15.68h102.5V98.47Zm7.89,12.11H11.56l-1.32-8.83h2.42q.42,3.65.6,6.18c.12-1.71.24-3.22.38-4.54l.16-1.64h2.42Zm3.86,0h-2.3v-8.83h2.3Zm4.61,0H19.83v-8.83h2.3v7.07h1.39Zm5.4-.86a1.75,1.75,0,0,1-.86.75,3.38,3.38,0,0,1-1.47.3,3.28,3.28,0,0,1-1.57-.35,1.68,1.68,0,0,1-.86-.89A4.67,4.67,0,0,1,24,108v-.58h2.13v1.07a1.41,1.41,0,0,0,.09.64.34.34,0,0,0,.32.14.37.37,0,0,0,.34-.18.94.94,0,0,0,.12-.53,1.66,1.66,0,0,0-.22-1,6.68,6.68,0,0,0-1.07-.8,11.66,11.66,0,0,1-1.14-.83,1.9,1.9,0,0,1-.46-.71,3.12,3.12,0,0,1-.18-1.15,3.25,3.25,0,0,1,.26-1.49,1.71,1.71,0,0,1,.83-.73,3.33,3.33,0,0,1,1.4-.27,3.7,3.7,0,0,1,1.53.29,1.6,1.6,0,0,1,.83.73,3.77,3.77,0,0,1,.21,1.5v.34H26.81v-.65a1.18,1.18,0,0,0-.08-.58.28.28,0,0,0-.27-.13.33.33,0,0,0-.31.17.88.88,0,0,0-.11.51,1.46,1.46,0,0,0,.12.67,1.65,1.65,0,0,0,.65.54,6.68,6.68,0,0,1,1.93,1.49,3.49,3.49,0,0,1,.4,1.89A3.42,3.42,0,0,1,28.92,109.72ZM37.15,108a6.74,6.74,0,0,1-.12,1.59,1.18,1.18,0,0,1-.38.63,1.56,1.56,0,0,1-.69.31,6.2,6.2,0,0,1-1.24.09H31.83v-8.83h1.72a10.87,10.87,0,0,1,2.25.15,1.66,1.66,0,0,1,.89.51,1.6,1.6,0,0,1,.38.77,11.84,11.84,0,0,1,.08,1.69Zm3.79,2.62L40.82,109H40l-.13,1.59H37.48l1.18-8.83H42l1.32,8.83Zm7.87,0h-2l-1.19-4v4H43.68v-8.83H45.6l1.29,4v-4h1.92Zm6.28-5H52.8v-1.54a2.62,2.62,0,0,0-.08-.83.31.31,0,0,0-.32-.17.34.34,0,0,0-.36.2,3.1,3.1,0,0,0-.08.87v4.11a2.84,2.84,0,0,0,.08.84.32.32,0,0,0,.34.19.32.32,0,0,0,.34-.19,3.33,3.33,0,0,0,.08-.93V107h2.29v.35a6.76,6.76,0,0,1-.19,1.94,2,2,0,0,1-.86,1,2.89,2.89,0,0,1-1.63.43,3.29,3.29,0,0,1-1.66-.37,1.75,1.75,0,0,1-.87-1,6.64,6.64,0,0,1-.22-1.94v-2.58a12.16,12.16,0,0,1,.07-1.44,2,2,0,0,1,.39-.92,2.26,2.26,0,0,1,.9-.69,3.62,3.62,0,0,1,3,.14,1.88,1.88,0,0,1,.87,1,5.9,5.9,0,0,1,.2,1.83Zm4.81,5h-4v-8.83h3.83v1.77H58.22v1.67h1.43v1.68H58.22v1.95H59.9Zm5.86,0-.93-3.78v3.78h-2.3v-8.83h2.3v3.43l1-3.43H68l-1.32,4,1.44,4.84Zm5.06,0H68.53v-8.83h2.29ZM77.07,108a6.74,6.74,0,0,1-.12,1.59,1.18,1.18,0,0,1-.38.63,1.56,1.56,0,0,1-.69.31,6.2,6.2,0,0,1-1.24.09H71.75v-8.83h1.72a10.87,10.87,0,0,1,2.25.15,1.66,1.66,0,0,1,.89.51,1.6,1.6,0,0,1,.38.77,11.84,11.84,0,0,1,.08,1.69Zm5.69,1.76a1.73,1.73,0,0,1-.85.75,3.43,3.43,0,0,1-1.48.3,3.31,3.31,0,0,1-1.57-.35,1.76,1.76,0,0,1-.86-.89,4.67,4.67,0,0,1-.2-1.53v-.58h2.14v1.07a1.41,1.41,0,0,0,.09.64.33.33,0,0,0,.32.14.38.38,0,0,0,.34-.18,1,1,0,0,0,.11-.53,1.67,1.67,0,0,0-.21-1,6.93,6.93,0,0,0-1.08-.8,10.06,10.06,0,0,1-1.13-.83,1.79,1.79,0,0,1-.46-.71,2.91,2.91,0,0,1-.19-1.15,3.25,3.25,0,0,1,.26-1.49,1.74,1.74,0,0,1,.84-.73,3.3,3.3,0,0,1,1.4-.27,3.68,3.68,0,0,1,1.52.29,1.67,1.67,0,0,1,.84.73,4,4,0,0,1,.2,1.5v.34H80.66v-.65a1.14,1.14,0,0,0-.09-.58.28.28,0,0,0-.27-.13.34.34,0,0,0-.31.17,1,1,0,0,0-.11.51,1.46,1.46,0,0,0,.12.67,1.82,1.82,0,0,0,.65.54,6.54,6.54,0,0,1,1.93,1.49,3.41,3.41,0,0,1,.4,1.89A3.26,3.26,0,0,1,82.76,109.72ZM91,105.6h-2.3v-1.54a2.62,2.62,0,0,0-.08-.83c0-.12-.15-.17-.32-.17a.34.34,0,0,0-.36.2,3.1,3.1,0,0,0-.08.87v4.11a2.84,2.84,0,0,0,.08.84.32.32,0,0,0,.34.19.32.32,0,0,0,.34-.19,3.33,3.33,0,0,0,.08-.93V107H91v.35a6.67,6.67,0,0,1-.2,1.94,2,2,0,0,1-.85,1,3,3,0,0,1-1.64.43,3.32,3.32,0,0,1-1.66-.37,1.75,1.75,0,0,1-.87-1,6.71,6.71,0,0,1-.21-1.94v-2.58a12.65,12.65,0,0,1,.06-1.44,2.05,2.05,0,0,1,.39-.92,2.26,2.26,0,0,1,.9-.69,3.29,3.29,0,0,1,1.33-.26A3.25,3.25,0,0,1,90,102a1.88,1.88,0,0,1,.87,1,5.84,5.84,0,0,1,.21,1.83Zm4.52,5h-3.7v-8.83h2.3v7.07h1.4Zm5.78-2.93a10.63,10.63,0,0,1-.07,1.41,1.88,1.88,0,0,1-.39.84,2,2,0,0,1-.85.65,3.31,3.31,0,0,1-1.24.22,3.6,3.6,0,0,1-1.4-.26,2.15,2.15,0,0,1-.9-.68,2,2,0,0,1-.36-.89c0-.31,0-1,0-2v-5.23h2.29v6.62a2.58,2.58,0,0,0,.07.74.24.24,0,0,0,.25.16.29.29,0,0,0,.29-.17,4.14,4.14,0,0,0,.06-.84v-6.51h2.3Zm6.23.86a3.4,3.4,0,0,1-.2,1.33,1.16,1.16,0,0,1-.66.59,6.94,6.94,0,0,1-1.83.15h-2.66v-8.83h2.3a5.72,5.72,0,0,1,1.64.17,1.63,1.63,0,0,1,.9.68,3.08,3.08,0,0,1,.35,1.66,1.78,1.78,0,0,1-.25,1.08,1.65,1.65,0,0,1-1,.47,1.7,1.7,0,0,1,1.08.6,2.29,2.29,0,0,1,.28,1.28Z"/><polygon class="cls-1" points="98.88 64.91 99.39 71.5 105.11 74.82 99 77.34 97.61 83.81 93.32 78.78 86.74 79.46 90.2 73.82 87.52 67.78 93.95 69.33 98.88 64.91"/><path class="cls-1" d="M24.47,122.19v3.12h-2.4v12.43H18V125.31H15.63v-3.12Z"/><path class="cls-1" d="M31.59,122.19l2.31,15.55H29.77l-.22-2.8H28.11l-.25,2.8H23.68l2.07-15.55Zm-2.14,10c-.21-1.76-.41-3.94-.62-6.53-.41,3-.67,5.15-.78,6.53Z"/><path class="cls-1" d="M44,129H40v-2.7a4.76,4.76,0,0,0-.13-1.47.55.55,0,0,0-.57-.29.6.6,0,0,0-.63.35,5.36,5.36,0,0,0-.14,1.54v7.22a5,5,0,0,0,.14,1.48.69.69,0,0,0,1.19,0,5.42,5.42,0,0,0,.14-1.63v-2h4v.6a11.94,11.94,0,0,1-.34,3.43,3.51,3.51,0,0,1-1.5,1.77,5.23,5.23,0,0,1-2.88.75,6,6,0,0,1-2.93-.64,3.11,3.11,0,0,1-1.52-1.78,11.64,11.64,0,0,1-.38-3.42v-4.54a19.39,19.39,0,0,1,.12-2.52,3.47,3.47,0,0,1,.68-1.62,3.83,3.83,0,0,1,1.59-1.23,5.83,5.83,0,0,1,2.33-.44,5.66,5.66,0,0,1,2.94.69,3.27,3.27,0,0,1,1.53,1.72,10.52,10.52,0,0,1,.36,3.21Z"/><path class="cls-1" d="M54.77,122.19v15.55h-4v-6.53H49.52v6.53H45.47V122.19h4.05v5.56h1.21v-5.56Z"/><path class="cls-1" d="M60.43,122.19v15.55h-4V122.19Z"/><path class="cls-1" d="M62.05,122.19h4a10.55,10.55,0,0,1,2.89.3,2.84,2.84,0,0,1,1.59,1.21,5.42,5.42,0,0,1,.6,2.92,3.19,3.19,0,0,1-.42,1.9,3,3,0,0,1-1.69.82,3,3,0,0,1,1.9,1,4,4,0,0,1,.5,2.26v1.44a5.68,5.68,0,0,1-.36,2.33,2,2,0,0,1-1.14,1,11.62,11.62,0,0,1-3.23.28H62.05Zm4,2.66v3.46h.4c.4,0,.65-.1.76-.29a4.85,4.85,0,0,0,.16-1.68,2.75,2.75,0,0,0-.13-1,.64.64,0,0,0-.35-.37A3.36,3.36,0,0,0,66.1,124.85Zm0,5.88v4.35a1.74,1.74,0,0,0,1.09-.27,1.93,1.93,0,0,0,.23-1.18v-1.45a2,2,0,0,0-.21-1.21A1.89,1.89,0,0,0,66.1,130.73Z"/><path class="cls-1" d="M79.9,122.19l2.31,15.55H78.08l-.22-2.8H76.42l-.25,2.8H72l2.06-15.55Zm-2.14,10c-.21-1.76-.41-3.94-.62-6.53-.41,3-.67,5.15-.77,6.53Z"/><path class="cls-1" d="M91.92,122.19v15.55H88.38l-2.1-7.07v7.07H82.9V122.19h3.38l2.26,7v-7Z"/><path class="cls-1" d="M100.53,122.19l2.31,15.55H98.71l-.21-2.8H97.05l-.24,2.8H92.63l2.06-15.55Zm-2.14,10c-.21-1.76-.41-3.94-.62-6.53-.41,3-.67,5.15-.77,6.53Z"/></svg>