<svg id="レイヤー_1" data-name="レイヤー 1" xmlns="http://www.w3.org/2000/svg" viewBox="0 0 443.09 53"><defs><style>.cls-1{fill:#fff;}</style></defs><title>img_logo02</title><path class="cls-1" d="M43.65,38.7v1a.39.39,0,0,0,.24-.06.34.34,0,0,0,0-.26v-.59A.38.38,0,0,0,43.65,38.7Z"/><path class="cls-1" d="M43.83,37.43h-.19v.76h.09c.09,0,.14,0,.17-.06a.77.77,0,0,0,0-.37.45.45,0,0,0,0-.23A.12.12,0,0,0,43.83,37.43Z"/><polygon class="cls-1" points="41.46 22.53 41.66 25.09 43.88 26.37 41.51 27.35 40.97 29.86 39.31 27.91 36.75 28.17 38.1 25.99 37.06 23.64 39.55 24.24 41.46 22.53"/><path class="cls-1" d="M43.65,38.7v1a.39.39,0,0,0,.24-.06.34.34,0,0,0,0-.26v-.59A.38.38,0,0,0,43.65,38.7Z"/><path class="cls-1" d="M43.83,37.43h-.19v.76h.09c.09,0,.14,0,.17-.06a.77.77,0,0,0,0-.37.45.45,0,0,0,0-.23A.12.12,0,0,0,43.83,37.43Z"/><polygon class="cls-1" points="41.46 22.53 41.66 25.09 43.88 26.37 41.51 27.35 40.97 29.86 39.31 27.91 36.75 28.17 38.1 25.99 37.06 23.64 39.55 24.24 41.46 22.53"/><path class="cls-1" d="M76.74,6.46l-2.92,22h-8.7l-3.31-22h6q1.05,9.1,1.5,15.41.45-6.37.94-11.31l.4-4.1Z"/><path class="cls-1" d="M83.44,6.46v22H77.71v-22Z"/><path class="cls-1" d="M91.47,6.46V24.1H95v4.4H85.74V6.5Z"/><path class="cls-1" d="M108.49,13.1h-5.33V11.5A3.15,3.15,0,0,0,103,10a.72.72,0,0,0-.68-.31.89.89,0,0,0-.78.42,2.55,2.55,0,0,0-.27,1.28,3.77,3.77,0,0,0,.3,1.66,4.42,4.42,0,0,0,1.62,1.35Q107,16.7,108,18.17a8.45,8.45,0,0,1,1,4.7,8.25,8.25,0,0,1-.55,3.47,4.37,4.37,0,0,1-2.13,1.87,8.61,8.61,0,0,1-3.68.76,8.29,8.29,0,0,1-4-.87,4.27,4.27,0,0,1-2.13-2.22A11.53,11.53,0,0,1,96,22.1V20.61h5.32v2.68a3.6,3.6,0,0,0,.22,1.59.89.89,0,0,0,.8.35.93.93,0,0,0,.85-.45,2.46,2.46,0,0,0,.28-1.33,4.07,4.07,0,0,0-.47-2.54,15.84,15.84,0,0,0-2.68-2,28.37,28.37,0,0,1-2.83-2.06,5,5,0,0,1-1.18-1.75,7.92,7.92,0,0,1-.46-2.89,8.08,8.08,0,0,1,.65-3.7A4.38,4.38,0,0,1,98.6,6.68,8.33,8.33,0,0,1,102.08,6a9,9,0,0,1,3.8.72A3.93,3.93,0,0,1,108,8.54a9.4,9.4,0,0,1,.51,3.72Z"/><path class="cls-1" d="M115.67,6.46H120a26.4,26.4,0,0,1,5.62.38A4.2,4.2,0,0,1,127.8,8.1a3.9,3.9,0,0,1,1,1.94,28.07,28.07,0,0,1,.19,4.2V22a17.31,17.31,0,0,1-.28,4,2.94,2.94,0,0,1-1,1.57,4.13,4.13,0,0,1-1.71.79,15.8,15.8,0,0,1-3.08.22h-7.23Zm5.73,3.77v14.5c.83,0,1.34-.17,1.52-.5a7.06,7.06,0,0,0,.29-2.7V13a11.18,11.18,0,0,0-.1-1.92.91.91,0,0,0-.44-.62,2.74,2.74,0,0,0-1.27-.19Z"/><path class="cls-1" d="M141,6.46l3.28,22h-5.88l-.31-4h-2l-.34,4h-5.92l2.92-22Zm-3,14.17c-.29-2.5-.58-5.58-.87-9.26-.58,4.22-.95,7.3-1.1,9.26Z"/><path class="cls-1" d="M158,6.46v22h-5l-3-10v10h-4.79v-22H150l3.21,9.92V6.46Z"/><path class="cls-1" d="M173.72,16.1H168V12.23a6.62,6.62,0,0,0-.18-2.08.77.77,0,0,0-.81-.41.85.85,0,0,0-.9.5,8,8,0,0,0-.19,2.18V22.65a7.44,7.44,0,0,0,.19,2.1,1,1,0,0,0,1.7,0,7.83,7.83,0,0,0,.2-2.31V19.67h5.73v.86a16.53,16.53,0,0,1-.48,4.85,5,5,0,0,1-2.14,2.51A7.36,7.36,0,0,1,167,29a8.56,8.56,0,0,1-4.15-.91,4.48,4.48,0,0,1-2.16-2.52,16.88,16.88,0,0,1-.53-4.85V14.24a30.37,30.37,0,0,1,.16-3.57,5,5,0,0,1,1-2.29,5.49,5.49,0,0,1,2.25-1.74,9.17,9.17,0,0,1,7.48.35,4.65,4.65,0,0,1,2.16,2.44,14.54,14.54,0,0,1,.52,4.55Z"/><path class="cls-1" d="M175.77,6.46h9.56v4.41h-3.82V15.1h3.58v4.19h-3.58V24.1h4.21v4.4h-9.94Z"/><path class="cls-1" d="M205.93,6.46l-3.29,10,3.6,12.09h-5.92L198,19.1v9.4h-5.73V6.5H198v8.56l2.55-8.56Z"/><path class="cls-1" d="M213,6.46v22h-5.73v-22Z"/><path class="cls-1" d="M227.4,13.1h-5.32V11.5a3.15,3.15,0,0,0-.2-1.46.72.72,0,0,0-.68-.31.89.89,0,0,0-.78.42,2.55,2.55,0,0,0-.27,1.28,3.77,3.77,0,0,0,.3,1.66,4.42,4.42,0,0,0,1.62,1.35c2.56,1.51,4.16,2.75,4.82,3.73a8.45,8.45,0,0,1,1,4.7,8.25,8.25,0,0,1-.55,3.47,4.37,4.37,0,0,1-2.13,1.87,8.61,8.61,0,0,1-3.68.76,8.25,8.25,0,0,1-3.93-.87,4.27,4.27,0,0,1-2.13-2.22A11.54,11.54,0,0,1,215,22.1V20.61h5.32v2.68a3.6,3.6,0,0,0,.22,1.59.89.89,0,0,0,.8.35.93.93,0,0,0,.85-.45,2.46,2.46,0,0,0,.28-1.33A4.06,4.06,0,0,0,222,20.9a15.84,15.84,0,0,0-2.68-2,28.37,28.37,0,0,1-2.83-2.06,5,5,0,0,1-1.2-1.74,7.92,7.92,0,0,1-.46-2.89,8.08,8.08,0,0,1,.65-3.7,4.38,4.38,0,0,1,2.09-1.83A8.24,8.24,0,0,1,221,6a9,9,0,0,1,3.8.72,4,4,0,0,1,2.08,1.82,9.4,9.4,0,0,1,.51,3.72Z"/><path class="cls-1" d="M229.68,6.46H234a26.4,26.4,0,0,1,5.62.38A4.2,4.2,0,0,1,241.8,8.1a3.9,3.9,0,0,1,1,1.94,28.07,28.07,0,0,1,.19,4.2V22a17.31,17.31,0,0,1-.28,4,2.94,2.94,0,0,1-1,1.57,4.13,4.13,0,0,1-1.71.79,15.8,15.8,0,0,1-3.08.22h-7.23Zm5.73,3.77v14.5c.83,0,1.34-.17,1.52-.5a7.06,7.06,0,0,0,.29-2.7V13a11.18,11.18,0,0,0-.1-1.92.91.91,0,0,0-.44-.62,2.74,2.74,0,0,0-1.27-.19Z"/><path class="cls-1" d="M257.23,13.1h-5.32V11.5a3.15,3.15,0,0,0-.2-1.46.72.72,0,0,0-.68-.31.89.89,0,0,0-.78.42,2.55,2.55,0,0,0-.27,1.28,3.77,3.77,0,0,0,.3,1.66,4.42,4.42,0,0,0,1.62,1.35c2.56,1.51,4.16,2.75,4.82,3.73a8.45,8.45,0,0,1,1,4.7,8.25,8.25,0,0,1-.55,3.47A4.26,4.26,0,0,1,255,28.21a8.61,8.61,0,0,1-3.68.76,8.25,8.25,0,0,1-3.93-.87,4.27,4.27,0,0,1-2.13-2.22,11.51,11.51,0,0,1-.5-3.82V20.61h5.32v2.68a3.6,3.6,0,0,0,.22,1.59.89.89,0,0,0,.8.35.93.93,0,0,0,.85-.45,2.46,2.46,0,0,0,.28-1.33,4.06,4.06,0,0,0-.53-2.55,15.84,15.84,0,0,0-2.68-2,28.37,28.37,0,0,1-2.83-2.06,4.89,4.89,0,0,1-1.13-1.74,7.92,7.92,0,0,1-.46-2.89,8.08,8.08,0,0,1,.65-3.7,4.38,4.38,0,0,1,2.09-1.83A8.33,8.33,0,0,1,250.83,6a9,9,0,0,1,3.8.72,4,4,0,0,1,2.08,1.82,9.4,9.4,0,0,1,.51,3.72Z"/><path class="cls-1" d="M277.8,16.1h-5.73V12.23a6.62,6.62,0,0,0-.18-2.08.77.77,0,0,0-.81-.41.85.85,0,0,0-.9.5,8,8,0,0,0-.19,2.18V22.65a7.44,7.44,0,0,0,.19,2.1,1,1,0,0,0,1.7,0,7.83,7.83,0,0,0,.2-2.31V19.67h5.73v.86a16.53,16.53,0,0,1-.48,4.85,5,5,0,0,1-2.14,2.51A7.31,7.31,0,0,1,271.11,29a8.56,8.56,0,0,1-4.15-.91,4.48,4.48,0,0,1-2.16-2.52,16.88,16.88,0,0,1-.53-4.85V14.24a30.37,30.37,0,0,1,.16-3.57,5,5,0,0,1,1-2.29,5.49,5.49,0,0,1,2.25-1.74,9.17,9.17,0,0,1,7.48.35,4.65,4.65,0,0,1,2.16,2.44,14.54,14.54,0,0,1,.52,4.55Z"/><path class="cls-1" d="M285.58,6.46V24.1h3.48v4.4h-9.22V6.5Z"/><path class="cls-1" d="M303.48,6.46V21.19a24.4,24.4,0,0,1-.16,3.52,4.69,4.69,0,0,1-1,2.08,5,5,0,0,1-2.12,1.62,8.18,8.18,0,0,1-3.1.55,8.85,8.85,0,0,1-3.48-.65,5.34,5.34,0,0,1-2.26-1.7,4.8,4.8,0,0,1-.88-2.21c-.09-.78-.14-2.41-.14-4.89v-13h5.73V23a6.68,6.68,0,0,0,.16,1.84.63.63,0,0,0,.63.4.67.67,0,0,0,.7-.44,7.74,7.74,0,0,0,.16-2.09V6.46Z"/><path class="cls-1" d="M305.7,6.46h5.72a14.89,14.89,0,0,1,4.1.42,4.05,4.05,0,0,1,2.25,1.71,7.62,7.62,0,0,1,.86,4.14,4.38,4.38,0,0,1-.61,2.69,4.17,4.17,0,0,1-2.39,1.17,4.22,4.22,0,0,1,2.7,1.49,5.72,5.72,0,0,1,.71,3.19v2a8,8,0,0,1-.51,3.31,2.76,2.76,0,0,1-1.62,1.52,16.67,16.67,0,0,1-4.57.4h-6.63Zm5.73,3.77V15.1H312q.84,0,1.08-.42a6.54,6.54,0,0,0,.23-2.37,3.74,3.74,0,0,0-.19-1.45.83.83,0,0,0-.5-.52,4.36,4.36,0,0,0-1.2-.1Zm0,8.33v6.17a2.44,2.44,0,0,0,1.54-.38,2.64,2.64,0,0,0,.33-1.67V20.62a2.81,2.81,0,0,0-.3-1.71,2.67,2.67,0,0,0-1.57-.34Z"/><path class="cls-1" d="M336.48,6.88v4.24h-3.27V28h-5.5V11.12h-3.25V6.88Z"/><path class="cls-1" d="M346.17,6.88,349.31,28h-5.62l-.29-3.8h-2L341.1,28h-5.69l2.81-21.15Zm-2.92,13.6q-.42-3.59-.83-8.88-.85,6.08-1.06,8.88Z"/><path class="cls-1" d="M363.09,16.09h-5.5V12.42a6.55,6.55,0,0,0-.18-2,.74.74,0,0,0-.77-.39.82.82,0,0,0-.87.48,7.46,7.46,0,0,0-.18,2.09v9.83a7,7,0,0,0,.18,2,.8.8,0,0,0,.83.47.78.78,0,0,0,.8-.47,7.59,7.59,0,0,0,.19-2.22V19.55h5.5v.83a16.3,16.3,0,0,1-.46,4.66,4.75,4.75,0,0,1-2.06,2.4,7,7,0,0,1-3.91,1,8,8,0,0,1-4-.88,4.23,4.23,0,0,1-2.08-2.42,15.91,15.91,0,0,1-.51-4.66V14.34a26.34,26.34,0,0,1,.16-3.43,4.75,4.75,0,0,1,.93-2.2,5.22,5.22,0,0,1,2.16-1.66,8.81,8.81,0,0,1,7.18.33,4.46,4.46,0,0,1,2.07,2.34,14.06,14.06,0,0,1,.5,4.36Z"/><path class="cls-1" d="M377.71,6.88V28h-5.5V19.15h-1.65V28h-5.5V6.88h5.5v7.57h1.65V6.88Z"/><path class="cls-1" d="M385.42,6.88V28h-5.5V6.88Z"/><path class="cls-1" d="M387.63,6.88h5.48a14.39,14.39,0,0,1,3.94.41,3.88,3.88,0,0,1,2.16,1.64,7.31,7.31,0,0,1,.83,4,4.35,4.35,0,0,1-.58,2.59,4.13,4.13,0,0,1-2.3,1.12A4.07,4.07,0,0,1,399.75,18a5.56,5.56,0,0,1,.68,3.07v2a7.7,7.7,0,0,1-.49,3.17,2.64,2.64,0,0,1-1.56,1.41A15.75,15.75,0,0,1,394,28h-6.36Zm5.5,3.62v4.7h.54c.54,0,.89-.13,1-.4a6.72,6.72,0,0,0,.22-2.28,3.75,3.75,0,0,0-.18-1.39.94.94,0,0,0-.48-.5A4.28,4.28,0,0,0,393.13,10.5Zm0,8v5.91a2.32,2.32,0,0,0,1.48-.36,2.59,2.59,0,0,0,.32-1.61v-2a2.8,2.8,0,0,0-.29-1.65A2.55,2.55,0,0,0,393.13,18.5Z"/><path class="cls-1" d="M411.91,6.88,415.05,28h-5.62l-.29-3.8h-2l-.33,3.8h-5.69L404,6.88ZM409,20.48q-.4-3.59-.83-8.88c-.56,4.05-.92,7-1.06,8.88Z"/><path class="cls-1" d="M428.27,6.88V28h-4.82l-2.86-9.61V28H416V6.88h4.6l3.08,9.53V6.88Z"/><path class="cls-1" d="M440,6.88,443.13,28h-5.62l-.3-3.8h-2l-.33,3.8h-5.69L432,6.88Zm-2.91,13.6q-.42-3.59-.84-8.88-.84,6.08-1.05,8.88Z"/><path class="cls-1" d="M64.4,40.49A14.49,14.49,0,0,0,70,38.19l.61.82-.52.25a18.6,18.6,0,0,1-5.72,2v2c0,.84,0,1.12.25,1.32a1.45,1.45,0,0,0,.92.31,12,12,0,0,0,1.41.07,23.85,23.85,0,0,0,2.75-.19,5.86,5.86,0,0,0,1.18-.24l.08,1a2.71,2.71,0,0,0-.4,0h-.16l-.57.06c-.77.08-2.35.17-3.18.17A4.44,4.44,0,0,1,64,45.26a1.63,1.63,0,0,1-.49-1.16c0-.19,0-.43,0-.93V37.64a6.16,6.16,0,0,0-.05-1h1a6.12,6.12,0,0,0-.06,1Zm6-4.46a9.13,9.13,0,0,1,1.24,1.86l-.6.36a9.27,9.27,0,0,0-1.24-1.91Zm1.36-.66A10.7,10.7,0,0,1,73,37.24l-.62.34a8.84,8.84,0,0,0-1.22-1.88Z"/><path class="cls-1" d="M77.72,36.73a8.21,8.21,0,0,0-.07,1c-.09,3.25-.19,4.14-.65,5.35a7.26,7.26,0,0,1-2.07,3,2.27,2.27,0,0,0-.72-.65,6,6,0,0,0,2-2.76,16.36,16.36,0,0,0,.54-5.14,6,6,0,0,0,0-.85Zm3-.13a4.59,4.59,0,0,0-.07,1l-.08,7.25a5.54,5.54,0,0,0,2.23-1.4,5.93,5.93,0,0,0,1.42-2.39,3.37,3.37,0,0,0,.67.69,6.79,6.79,0,0,1-2.41,3.08,8.29,8.29,0,0,1-1.71.88l-.39.14a1.67,1.67,0,0,0-.27.14l-.48-.56a2.06,2.06,0,0,0,.08-.81l.07-7a4.66,4.66,0,0,0-.05-1.07Z"/><path class="cls-1" d="M95.12,46a24.45,24.45,0,0,0-3.84-3.71,14.18,14.18,0,0,1-4.64,3.6,2.31,2.31,0,0,0-.59-.79,12,12,0,0,0,4-2.72,13.12,13.12,0,0,0,2.73-4.07c0-.08,0-.11.1-.24l-.29,0-4,.06a7.54,7.54,0,0,0-1.23.08l0-1a5.49,5.49,0,0,0,1,.06h.31l4.26-.05a2.48,2.48,0,0,0,.65-.06l.53.63a3.19,3.19,0,0,0-.23.45,14.5,14.5,0,0,1-2,3.35,28.33,28.33,0,0,1,4,3.58Zm-.69-10a9.44,9.44,0,0,1,1.23,1.85l-.61.36a8.53,8.53,0,0,0-1.22-1.9Zm1.35-.66A9.79,9.79,0,0,1,97,37.2l-.6.33a9.76,9.76,0,0,0-1.23-1.88Z"/><path class="cls-1" d="M102.53,36.18a2.15,2.15,0,0,0-.18.3,4.94,4.94,0,0,0-.24.5c-.12.23-.25.46-.37.66l.44,0,2.89,0a4.52,4.52,0,0,0,.73,0l.7.77-.06.17-.06.17-.06.18c-1.51,4-3.3,5.92-6.91,7.6a1.9,1.9,0,0,0-.59-.74,10.78,10.78,0,0,0,4.56-3.22,15.38,15.38,0,0,0-2.69-1.93l.55-.61a16.39,16.39,0,0,1,2.66,1.86,15.12,15.12,0,0,0,1.66-3.48l-4.2.05a12.33,12.33,0,0,1-2.85,3.2,2.09,2.09,0,0,0-.7-.58,10.45,10.45,0,0,0,3.06-3.43,5.94,5.94,0,0,0,.71-1.63Zm3.82-.21a8.29,8.29,0,0,1,1.23,1.81l-.6.36a8.08,8.08,0,0,0-1.23-1.84Zm1.35-.67a9.11,9.11,0,0,1,1.23,1.82l-.6.35a7.78,7.78,0,0,0-1.22-1.83Z"/><path class="cls-1" d="M110.81,44.76a10.19,10.19,0,0,0,3.49-.92,9,9,0,0,0,4.89-5.34,2.58,2.58,0,0,0,.73.71,10.43,10.43,0,0,1-3.65,4.58,12.17,12.17,0,0,1-4.48,1.79c-.32.07-.42.1-.72.19Zm.77-7.43a15.77,15.77,0,0,1,2.89,2.25l-.63.75A12.92,12.92,0,0,0,111,38Z"/><path class="cls-1" d="M130.62,45.92a22.39,22.39,0,0,0-3.84-3.71,13.33,13.33,0,0,1-2.29,2.15,15.93,15.93,0,0,1-2.35,1.44,2.68,2.68,0,0,0-.59-.8A9.39,9.39,0,0,0,124,43.62a13,13,0,0,0,4.29-5.4.52.52,0,0,1,.06-.15.26.26,0,0,0,0-.08h-.29l-4,.06a7.84,7.84,0,0,0-1.24.1l0-1a5.42,5.42,0,0,0,1,.06h.31l4.28,0a2.54,2.54,0,0,0,.77-.1l.5.52a2.07,2.07,0,0,0-.33.58,14.81,14.81,0,0,1-2,3.36,30.18,30.18,0,0,1,4,3.6Z"/><path class="cls-1" d="M137,37.32a4.14,4.14,0,0,0-.27-1l.95-.16a6.51,6.51,0,0,0,.13,1l.24,1.32,2.71-.42a5.14,5.14,0,0,0,1.06-.24l.17.86-1.07.16-2.72.42.45,2.42,3-.48a7.57,7.57,0,0,0,1.18-.27l.17.88-.53.06-.37.06-.27,0-3,.48.49,2.65a5.76,5.76,0,0,0,.26,1.14l-1,.18a10,10,0,0,0-.14-1.15l-.49-2.69-3.22.52a6.67,6.67,0,0,0-1.15.24l-.16-.91a6.66,6.66,0,0,0,1.19-.11l3.19-.52-.43-2.42-2.47.39a8.63,8.63,0,0,0-1.2.26l-.17-.91a9.28,9.28,0,0,0,1.25-.12l2.45-.39Z"/><path class="cls-1" d="M146.47,39.22a12.87,12.87,0,0,1,1.19,2.67l-.81.27a10.22,10.22,0,0,0-1.13-2.69Zm6.77-.07a8.19,8.19,0,0,0-.27,1,10.74,10.74,0,0,1-1.05,2.69,8.71,8.71,0,0,1-4,3.47,2.7,2.7,0,0,0-.55-.68,7.69,7.69,0,0,0,3.8-3.13,9.21,9.21,0,0,0,1-2.58,5.39,5.39,0,0,0,.13-.81V39Zm-4.32-.41a11.71,11.71,0,0,1,1.16,2.58l-.79.28a10.55,10.55,0,0,0-1.1-2.63Z"/><path class="cls-1" d="M163.93,46a24.45,24.45,0,0,0-3.84-3.71,14.18,14.18,0,0,1-4.64,3.6,2.31,2.31,0,0,0-.59-.79,12,12,0,0,0,4-2.72,13.12,13.12,0,0,0,2.73-4.07c0-.08,0-.11.1-.24l-.29,0-4,.06a7.54,7.54,0,0,0-1.23.08l0-1a5.49,5.49,0,0,0,.95.06h.31l4.26-.05a2.48,2.48,0,0,0,.65-.06l.52.63a4.66,4.66,0,0,0-.22.45,14.5,14.5,0,0,1-2,3.35,28.89,28.89,0,0,1,4,3.58Zm-.7-10a9.07,9.07,0,0,1,1.24,1.85l-.61.36a8.9,8.9,0,0,0-1.22-1.9Zm1.36-.66a9.79,9.79,0,0,1,1.24,1.87l-.6.33A9.76,9.76,0,0,0,164,35.65Z"/><path class="cls-1" d="M171.62,36.29a2.65,2.65,0,0,0-.26.49,11.37,11.37,0,0,1-.55,1.06c.15,0,.15,0,3.62-.09.42,0,.46,0,.62-.09l.52.51c-.11.14-.11.15-.24.59a12.53,12.53,0,0,1-2.4,4.5,11.68,11.68,0,0,1-4.17,3,1.84,1.84,0,0,0-.6-.7,10.25,10.25,0,0,0,4.23-3,11,11,0,0,0,2.06-4l-4,.08a11.53,11.53,0,0,1-2.86,3.11,1.87,1.87,0,0,0-.68-.62,8.84,8.84,0,0,0,3-3.29,5.51,5.51,0,0,0,.75-1.75Z"/><path class="cls-1" d="M178.42,39.51a8.61,8.61,0,0,0,1.4.07H186a2,2,0,0,0,.77-.08l.45.51a3.7,3.7,0,0,0-.34.76c-1,2.79-2.67,4.33-5.78,5.37a2.63,2.63,0,0,0-.51-.82,8.29,8.29,0,0,0,3.56-1.83,7.35,7.35,0,0,0,1.94-3.14h-6.26a10.72,10.72,0,0,0-1.39.06Zm1-2.78a5.71,5.71,0,0,0,1.26.08h4a5.71,5.71,0,0,0,1.26-.08v.92a7.87,7.87,0,0,0-1.25-.06h-4a7.72,7.72,0,0,0-1.25.06Z"/><path class="cls-1" d="M198.25,38.37a2.2,2.2,0,0,0-.25.75,10,10,0,0,1-2.94,5,11.09,11.09,0,0,1-3.77,2.26,2.4,2.4,0,0,0-.58-.83,9.66,9.66,0,0,0,4.39-2.72,9.78,9.78,0,0,0,2.09-4.27h-6.1a8.65,8.65,0,0,0-1.34.07v-1a8.43,8.43,0,0,0,1.35.07h6.5a8.34,8.34,0,0,0-1.12-1.63l.6-.31a8.78,8.78,0,0,1,1.29,1.92l-.44.26Zm.37-3a10.69,10.69,0,0,1,1.26,1.84l-.61.36A8.83,8.83,0,0,0,198,35.66Z"/><path class="cls-1" d="M207.43,45.16a25.15,25.15,0,0,0,2-5.95l.92.31a13.74,13.74,0,0,0-.48,1.45,31.43,31.43,0,0,1-1.61,4.19h2.77a9.51,9.51,0,0,0,1.32-.07V46a7.93,7.93,0,0,0-1.32-.08h-8a8.66,8.66,0,0,0-1.38.08v-.91a10.39,10.39,0,0,0,1.38.07Zm-.9-8.24a5.55,5.55,0,0,0-.08-1h1a5.47,5.47,0,0,0-.09,1v1h3.2a8.58,8.58,0,0,0,1.38-.08v.9a10.59,10.59,0,0,0-1.38-.07h-7a10.13,10.13,0,0,0-1.34.07v-.9a7.82,7.82,0,0,0,1.34.08h3Zm-2,2.42a27.84,27.84,0,0,1,1.3,4.74l-.78.3a22.93,22.93,0,0,0-1.31-4.75Z"/><path class="cls-1" d="M216.72,43.06c0-.44,0-.9,0-1.38a7.45,7.45,0,0,1-1.9,1.75,2,2,0,0,0-.45-.66,8.44,8.44,0,0,0,2.72-2.61,4.43,4.43,0,0,0,.6-1.19l.75.36-.3.5a12.37,12.37,0,0,1-.68,1.06v4.39c0,.47,0,.85.07,1.33h-.92a9.87,9.87,0,0,0,.07-1.33Zm1-6.27a4.71,4.71,0,0,0-.08-.85h.88a4.6,4.6,0,0,0-.06.85v.38h2.87v-.38a4.71,4.71,0,0,0-.08-.85h.88a4.6,4.6,0,0,0-.06.85v.38h1.86a9.15,9.15,0,0,0,1.35-.07v.83a9.45,9.45,0,0,0-1.35-.06h-1.86v.27c0,.34,0,.56,0,.8h-.82a6.53,6.53,0,0,0,0-.78v-.29h-2.87v.2c0,.34,0,.57,0,.79h-.82c0-.24.05-.49.05-.78v-.21H216a9.14,9.14,0,0,0-1.33.06V37.1a8.85,8.85,0,0,0,1.33.07h1.67Zm3.2,8.49c0,.36.18.41,1.53.41,1.15,0,1.49,0,1.68-.23s.28-.71.35-1.92a2.13,2.13,0,0,0,.77.38c-.2,1.48-.29,1.84-.58,2.1s-.79.38-2.39.38c-1.85,0-2.13-.14-2.13-1v-5a8.18,8.18,0,0,0-.07-1.22h.9a8.24,8.24,0,0,0-.06,1.2v1.7a10.36,10.36,0,0,0,3.21-2.21l.64.6c-.16.11-.18.12-.46.34a19.08,19.08,0,0,1-3.39,2Z"/><path class="cls-1" d="M230.14,38.9a5.41,5.41,0,0,0,1.29,2,3.14,3.14,0,0,0-.42.63,6,6,0,0,1-.94-1.71c0,1.33,0,1.5,0,2v3.55a7.88,7.88,0,0,0,.08,1.39h-.89a9.69,9.69,0,0,0,.07-1.39V42c0-.53,0-.86.06-1.88a9.9,9.9,0,0,1-1.62,3.63,3.08,3.08,0,0,0-.48-.7,10.86,10.86,0,0,0,1.93-4.13h-.69a5.36,5.36,0,0,0-.87.05V38.2a5.13,5.13,0,0,0,.88,0h.79V37a7.07,7.07,0,0,0-.06-1.25h.86a9,9,0,0,0-.06,1.24v1.22h.6a4.17,4.17,0,0,0,.78,0v.74a6.12,6.12,0,0,0-.76,0Zm6.41,2.28-.4.84a10.69,10.69,0,0,1-1.06,1.83,6.77,6.77,0,0,0,1.21,1.06A8.21,8.21,0,0,0,238.5,46a3.12,3.12,0,0,0-.45.74,8.14,8.14,0,0,1-3.42-2.3,8.42,8.42,0,0,1-3.35,2.32,2.52,2.52,0,0,0-.47-.67,7.51,7.51,0,0,0,3.37-2.21A12,12,0,0,1,233,41.72a1.68,1.68,0,0,0-.12-.27l-.09-.19.73-.35a7.39,7.39,0,0,0,1.12,2.35,7.22,7.22,0,0,0,1.17-2.42Zm-2.65-2.26a8.77,8.77,0,0,1-2.1,2.91,2.23,2.23,0,0,0-.51-.57,6.17,6.17,0,0,0,1.94-2.65Zm.39-2a4.88,4.88,0,0,0-.08-1h.91a4.69,4.69,0,0,0-.08.94v.66h2c.48,0,.91,0,1.24-.06v.8c-.35,0-.78-.06-1.24-.06h-4.2a10.29,10.29,0,0,0-1.24.07V37.5a9.91,9.91,0,0,0,1.24.07h1.41Zm1.76,1.64A7.61,7.61,0,0,0,238.26,41a3,3,0,0,0-.47.66,9.08,9.08,0,0,1-2.36-2.76Z"/><path class="cls-1" d="M17.48,1.92h.28l-.12.67,0,.07v.13l0,.07,0,.27-.06.24a.42.42,0,0,1-.06.14v.13L17.28,4l0,.31a.59.59,0,0,0-.09.34,2.55,2.55,0,0,0-.12.44l0,.17-.19.84a2,2,0,0,1-.08.3l-.08.41,0,.19-.13.38v.1l-.08.2v.14l-.08.2,0,.2,0,.14-.12.56a3.59,3.59,0,0,1-.21.78l0,.21-.08.36-.12.44-.12.51c-.08.34-.14.61-.17.8l0,.17a2.5,2.5,0,0,1-.16.55l0,.27,0,.13,0,.17-.08.26a6.74,6.74,0,0,0-.16.82.61.61,0,0,0-.08.3.52.52,0,0,0-.09.23,2.18,2.18,0,0,0-.08.44l-.08.27,0,.24-.29,1-.12.54,0,.27-.28,1.11,0,.24s-.06.1-.09.24a3.71,3.71,0,0,1-.2.8,1.13,1.13,0,0,1-.08.38v.1a1.54,1.54,0,0,0-.12.47.12.12,0,0,1-.11-.07l-.25-.37,0-.1-.16-.24,0-.1-.2-.31a.29.29,0,0,1-.09-.13.6.6,0,0,1-.08-.13l-.45-.74a3.11,3.11,0,0,1-.28-.41l-.8-1.31,0-.1-.17-.24,0-.1L10,16l-.12-.2-.41-.68L9.34,15l-.11-.19-.12-.2L9,14.35l-.12-.2L8.74,14l-.57-.87-.08-.17a3.48,3.48,0,0,0-.2-.31L7.52,12l-.08-.1a4.08,4.08,0,0,1-.31-.57.26.26,0,0,1-.08-.13l-.45-.68-.12-.24a1.31,1.31,0,0,1-.25-.4L6,9.6,5.9,9.37l-1-1.62a1.43,1.43,0,0,0-.16-.27l0-.1-.17-.24A.51.51,0,0,1,4.45,7L4,6.23,3.84,6a1,1,0,0,1-.2-.34l-.23-.36A3.49,3.49,0,0,1,3,4.58l1-.13h.17s.08,0,.16,0l.69-.1.25,0,.55-.07.13,0h.2L7.09,4l.28,0,.34,0A1.87,1.87,0,0,0,8,3.9a1.5,1.5,0,0,1,.2.44l.37.92a1.26,1.26,0,0,1,.2.46l.41.92a5.59,5.59,0,0,0,.27.67l.13.37a1.39,1.39,0,0,1,.2.44,3.49,3.49,0,0,1,.28.7l1.3,3a3.67,3.67,0,0,0,.32.78l.08.28.13.23.2.47v-1a2.17,2.17,0,0,0,0-.47v-1a3,3,0,0,0,0-.54c0-.47,0-.88,0-1.21v-1l0-.11V6.84a5,5,0,0,0,0-1.29,2,2,0,0,0,0-.46V4.31L12.39,4V2.9A5.54,5.54,0,0,0,13,2.76l.43-.07a2.84,2.84,0,0,0,.45-.1l.57-.1a4.58,4.58,0,0,0,.68-.14h.12l.25-.06.2,0,.2,0,.25,0A7.49,7.49,0,0,1,17,2Z"/><path class="cls-1" d="M17.15,5.52l4.53-.73a2.7,2.7,0,0,1,0,.92l0,.12,0,.19v.13l0,.5c0,.2,0,.39,0,.56V7.3l-.07,1.12a3,3,0,0,1,0,.33.67.67,0,0,0,0,.2,1.65,1.65,0,0,0,0,.56l0,.06-.11,2.34v.15l-.05.69,0,.35v.21l0,.19v.68l0,.06v.35l0,.34a1,1,0,0,1,0,.41v.21l0,.34a5.76,5.76,0,0,1,0,.79v.46l-.05.31v.16a2.16,2.16,0,0,1,0,.46l-.06.94v.25c0,.13,0,.3,0,.52l0,.22v.25l-.06.78v.22a.57.57,0,0,1-.54,0l-.78-.15-.13,0L19.09,21l-.27-1.75V19.1l-.07-.45A4.65,4.65,0,0,1,18.7,18l-.12-.75V17.1l-.14-.82a1,1,0,0,0,0-.24l-.1-.66a.72.72,0,0,0,0-.25l-.07-.44c0-.16-.05-.37-.07-.62l0-.3a.91.91,0,0,1,0-.42L18,12.54l0-.46a2.51,2.51,0,0,1-.08-.67l-.13-.86v-.1l-.14-.91,0-.06-.11-.78V8.48l-.13-.84v-.1l-.13-.87,0-.09-.13-.82Z"/><path class="cls-1" d="M22.78,2.61l.84-.21.22,0,.28-.08h.12l.42-.1h.14a1.16,1.16,0,0,1,.4-.06L26.07,2h.18a1.25,1.25,0,0,1,.45-.08l.91-.19.05,0L28,1.61l.45-.08a2.74,2.74,0,0,1-.09,1v.08L28.3,3q0,.1-.06.3l-.07.56a1.06,1.06,0,0,1,0,.21l-.28,2,0,.11,0,.25,0,.25-.05.21-.18,1.42,0,.11v.25l0,.15v.14l-.3,1.92,0,.25a2.08,2.08,0,0,1-.05.4l0,.14,0,.24,0,.25-.17,1.28,0,.26L26.58,15l0,.11,0,.24,0,.15v.13a.72.72,0,0,0-.06.36l0,.12,0,.17v.14l-.09.57a2.17,2.17,0,0,1-.05.4v.13l-.06.3a2.44,2.44,0,0,0,.81-.35l.28-.11.32-.14a.77.77,0,0,1,.19-.08l.6-.25a.9.9,0,0,1,.34-.16l.17-.08.46-.21.16-.08.16-.07.54-.24.08.74a5,5,0,0,1,.06.66l0,.23,0,.08.16,1.3-.81.24-.05.05-1.14.31-.1.06-.51.12-.11.07-.41.1-.11.06-.4.1-.18.08-1.56.47-.18.07-1.21.3L22.8,2.88Z"/><path class="cls-1" d="M32.06,6.7l1.64-.54a4,4,0,0,1,4,.81l.06.19a2.61,2.61,0,0,1-.2.32l-.08.16a1.46,1.46,0,0,0-.15.25,1,1,0,0,0-.18.28l-.31.51a5,5,0,0,1-.31.48l0,.07L36,9.16H36a1.9,1.9,0,0,0-.37,0l-.24,0H35l-.09,0h-.11L34,9.1l-.19,0a2.14,2.14,0,0,0-1.18,1.13c-.18,1.09.69,2,2.6,2.63a3,3,0,0,0,.36.19l.11.05h0l.37.18.09,0,.19.1q3.81,2.08,1.9,5.83a4.49,4.49,0,0,1-2.62,1.87,7.1,7.1,0,0,1-5.19-.41.4.4,0,0,1-.17-.17l.1-.45,0-.14V19.9l.08-.28v-.07l.11-.43V19a.88.88,0,0,0,.07-.36l.16-.69c2.1,1.62,4,1.45,5.67-.51a1.92,1.92,0,0,0,.2-.57v-.06a1.52,1.52,0,0,0-.74-1,5,5,0,0,0-.72-.33l-.37-.12-.15-.06a5.55,5.55,0,0,1-5-3.87,3.08,3.08,0,0,1-.19-.77l0-.1A4.3,4.3,0,0,1,32.06,6.7Z"/><path class="cls-1" d="M10.48,20.92h2.15a1.73,1.73,0,0,1,.54,0,2.54,2.54,0,0,1,.59.05l.17,0H14l.1,0,.38,0,.11,0,.51.13.16,0,1,.35a.76.76,0,0,0,.19.11l.49.25.15.1.06,0,.16.11.05,0,.7.65.35.5.09.11.27.65a7.6,7.6,0,0,1-2.4,8.34l-.78.61-.05.06-.19.11-.11.08-.75.45a.82.82,0,0,1-.25.14.7.7,0,0,1-.23.13l-.08.06-.28.13-.08,0L13,34.6l-.22.08-.3.14A2.82,2.82,0,0,0,12,35a1.25,1.25,0,0,1-.27.08l-.67.24-.19.06-.19,0-.11,0h-.11a1.18,1.18,0,0,1-.37.11l-.11,0-.48.11a.52.52,0,0,1-.35,0L9,35.17,9,35l0-.16v-.08l-.11-.56,0-.17,0-.19,0-.16a1.16,1.16,0,0,1-.07-.24,1,1,0,0,1,0-.19l.43,0,.21,0,.79,0,.08,0,0-.86,0-.11v-.59l0-.13V31a.59.59,0,0,0,0-.32V30a.16.16,0,0,1,0-.11l0-1.37,0-.11V28l0-.21,0-1.27,0-.21v-.62l0-.22V24.9l0-.08v-.6a1.06,1.06,0,0,0-.4,0,1.13,1.13,0,0,0-.46,0l-.08,0H8.57l-.29,0-.49,0-.27,0H7.23L7,24l0-.86c0-.15,0-.29-.06-.4v-.29c0-.18,0-.33,0-.44v-.26l0-.35.33-.06.15,0,.08,0,.46-.08a.78.78,0,0,0,.27-.06.44.44,0,0,0,.19,0h.1l.6-.08h.16l.18,0,1-.08Zm5.59,5.73A3.7,3.7,0,0,0,12.36,24a.17.17,0,0,0-.16.13V32.4a1.13,1.13,0,0,0,.32,0l.14,0,.3-.08Q16.67,30.89,16.07,26.65Z"/><path class="cls-1" d="M27.35,20.07h.06l.27.69,0,.1.87,2.34a.46.46,0,0,1,.06.16l.25.61v.2l-.37.43a.53.53,0,0,0-.15.17l-.42.52-.09.11-.09.11a3,3,0,0,0-.42.5l-.3.35a1.82,1.82,0,0,1-.24.27l-.49.62-.08.1-1.15,1.43a2.29,2.29,0,0,1,.27.31l.24.24,0,.06a1.82,1.82,0,0,1,.24.27,2.36,2.36,0,0,1,.39.44l.15.17.12.11a1.26,1.26,0,0,1,.18.21l.25.28.11.11.31.36.26.3.15.17.07.05a3.33,3.33,0,0,1,.36.41l.21.23a2.85,2.85,0,0,1-.39.55L28,33.1l-.09.14a1.3,1.3,0,0,0-.15.16l-.57.71-.15.2-.1.11-.11.08a2.5,2.5,0,0,1-.28-.39l-.14-.19-.15-.22L26,33.4,26,33.29l-.39-.55,0-.05-.87-1.24-.06-.06-.15-.22-.34-.46L24,30.54l-.15-.19a2.16,2.16,0,0,0,0,.77v.39a.62.62,0,0,1,0,.21l0,1.08a2.11,2.11,0,0,1,0,.38l0,.61a.88.88,0,0,0,0,.35l0,1.13-.63.33-.06.06-.72.38-.15.11-.09,0-.45.28h-.15l-.1-.62-.05-.18,0-.17,0-.16a3.42,3.42,0,0,0-.09-.53,1.51,1.51,0,0,0-.1-.44l0-.22,0-.22a4.67,4.67,0,0,1-.11-.63l0-.17-.08-.41a.92.92,0,0,0-.07-.3l0-.22c0-.14,0-.25-.05-.31a1.55,1.55,0,0,0,0-.21l-.06-.22a1,1,0,0,1,0-.28l0-.19,0-.08a1.18,1.18,0,0,0-.05-.31v-.1a2.58,2.58,0,0,1-.1-.5l0-.08-.15-.86a1.82,1.82,0,0,1-.08-.46c0-.13,0-.22-.05-.29a1.46,1.46,0,0,0-.05-.2l-.18-.91v-.12s0-.05,0-.1l-.09-.47-.09-.42a1.48,1.48,0,0,1,0-.27l0-.19,0-.16q0-.16-.06-.27a.75.75,0,0,1,0-.23.83.83,0,0,1-.06-.28l0-.1,0-.2,0-.16,0-.19a1.43,1.43,0,0,1-.06-.34,2.4,2.4,0,0,1-.09-.49l0-.09-.06-.37,0-.09-.09-.6-.06-.2v-.3a2.29,2.29,0,0,1,.45-.08l.51-.09a4.58,4.58,0,0,0,.47-.06,2.86,2.86,0,0,1,.5-.07l1.08-.17.21,0a.51.51,0,0,0,.21,0,1.39,1.39,0,0,0,.33-.05l.33,0,.21,0,0,.82a2.34,2.34,0,0,1,0,.39l.06,1.57a2.91,2.91,0,0,1,0,.68l0,.12,0,1.18a1.55,1.55,0,0,1,0,.33l0,.14.83-1.4.08-.1a1.09,1.09,0,0,0,.08-.15l.2-.37.16-.24.51-.8.09-.16.45-.74.09-.14.46-.71.06-.11.17-.28a.92.92,0,0,0,.15-.28l.34-.49Z"/><path class="cls-1" d="M33.43,21.2l.6-.09a3.86,3.86,0,0,1,1.78.08.26.26,0,0,1,.13.22,2.65,2.65,0,0,0-.18.61l0,.22-.05.19-.19.7a3,3,0,0,0-.15.5l-.19.72a5.44,5.44,0,0,0-4.41,4.33,5.28,5.28,0,0,0,1.8,4.64c1.15.67,2.21-.19,3.19-2.6l.21.38.07.07.89,1.61.06.1L37,33l.21.38.07.07.18.34a5.75,5.75,0,0,1-4.28,2.77,4.75,4.75,0,0,1-4.8-2.39l-.1-.14L28,33.29a10,10,0,0,1,.29-6.1,10,10,0,0,1,3.88-5.4l.69-.37.33-.13A.83.83,0,0,0,33.43,21.2Z"/><path class="cls-1" d="M14.89,38.73a.44.44,0,0,0-.19,0v2.13c.12,0,.19,0,.22-.07a1.05,1.05,0,0,0,0-.4V39.1a1.8,1.8,0,0,0,0-.28A.15.15,0,0,0,14.89,38.73Z"/><path class="cls-1" d="M16.84,40.23h.29c0-.37-.09-.82-.13-1.36C16.92,39.49,16.86,39.94,16.84,40.23Z"/><path class="cls-1" d="M40.52,39.93v.9a.39.39,0,0,0,.23,0,.44.44,0,0,0,0-.25v-.3c0-.14,0-.23,0-.25A.35.35,0,0,0,40.52,39.93Z"/><path class="cls-1" d="M29.53,38.73a.41.41,0,0,0-.19,0v2.13c.12,0,.2,0,.23-.07a1.33,1.33,0,0,0,0-.4V39.1a1.43,1.43,0,0,0,0-.28A.15.15,0,0,0,29.53,38.73Z"/><path class="cls-1" d="M40.69,38.72a.54.54,0,0,0-.17,0v.72h.08c.09,0,.14,0,.16-.06a1,1,0,0,0,0-.35.51.51,0,0,0,0-.21S40.73,38.73,40.69,38.72Z"/><path class="cls-1" d="M4.81,36.94V42.7h37.6V36.94ZM7.7,41.39H6.42l-.49-3.24h.89c.11.89.18,1.64.22,2.26,0-.62.09-1.18.14-1.66l.06-.6h.89Zm1.41,0H8.27V38.15h.84Zm1.7,0H9.45V38.15h.85v2.59h.51Zm2-.32a.63.63,0,0,1-.32.27,1.13,1.13,0,0,1-.54.12,1.26,1.26,0,0,1-.57-.13A.68.68,0,0,1,11,41a1.66,1.66,0,0,1-.07-.56v-.21h.78v.39a.53.53,0,0,0,0,.23.14.14,0,0,0,.12.06.16.16,0,0,0,.13-.07.46.46,0,0,0,0-.2.61.61,0,0,0-.08-.37,2,2,0,0,0-.4-.29,3.73,3.73,0,0,1-.41-.31.62.62,0,0,1-.17-.26,1.22,1.22,0,0,1-.07-.42,1.12,1.12,0,0,1,.1-.55.67.67,0,0,1,.3-.27,1.58,1.58,0,0,1,1.08,0,.62.62,0,0,1,.3.27,1.41,1.41,0,0,1,.08.55v.13H12v-.24c0-.12,0-.19,0-.22s-.05,0-.1,0a.13.13,0,0,0-.11.06.32.32,0,0,0,0,.19.48.48,0,0,0,0,.24c0,.06.1.12.23.2a2.38,2.38,0,0,1,.71.55,1.22,1.22,0,0,1,.15.69A1.29,1.29,0,0,1,12.79,41.07Zm3-.65a2.41,2.41,0,0,1-.05.59.39.39,0,0,1-.14.23.64.64,0,0,1-.25.11,1.72,1.72,0,0,1-.45,0H13.85V38.15h.64a4.65,4.65,0,0,1,.82.05.67.67,0,0,1,.33.19.62.62,0,0,1,.14.28,4.09,4.09,0,0,1,0,.62Zm1.39,1-.05-.59h-.3l-.05.59h-.87l.43-3.24h1.22l.48,3.24Zm2.88,0h-.73l-.44-1.48v1.48H18.2V38.15h.71l.47,1.45V38.15h.7Zm2.31-1.83h-.84V39a.88.88,0,0,0,0-.3.12.12,0,0,0-.12-.06c-.07,0-.11,0-.13.07a1.08,1.08,0,0,0,0,.32v1.51a.92.92,0,0,0,0,.3.12.12,0,0,0,.12.08.13.13,0,0,0,.13-.08,1.07,1.07,0,0,0,0-.33v-.41h.84v.12a2.44,2.44,0,0,1-.07.72.74.74,0,0,1-.32.37,1.11,1.11,0,0,1-.6.16,1.25,1.25,0,0,1-.61-.14.62.62,0,0,1-.31-.37,2.19,2.19,0,0,1-.08-.71v-1c0-.23,0-.41,0-.53a.87.87,0,0,1,.14-.33.76.76,0,0,1,.34-.26,1.21,1.21,0,0,1,.48-.09,1.22,1.22,0,0,1,.61.14.68.68,0,0,1,.32.36,2.16,2.16,0,0,1,.08.67Zm1.76,1.83H22.69V38.15H24.1v.64h-.57v.62h.53V40h-.53v.71h.62Zm2.15,0L26,40v1.39h-.84V38.15H26v1.26l.38-1.26h.79l-.49,1.46.53,1.78Zm1.86,0h-.84V38.15h.84Zm2.29-1a2.58,2.58,0,0,1,0,.59.53.53,0,0,1-.14.23.68.68,0,0,1-.26.11,1.72,1.72,0,0,1-.45,0H28.5V38.15h.63a4.57,4.57,0,0,1,.82.05.59.59,0,0,1,.33.19.53.53,0,0,1,.14.28,4.09,4.09,0,0,1,0,.62Zm2.09.65a.63.63,0,0,1-.32.27,1.13,1.13,0,0,1-.54.12,1.26,1.26,0,0,1-.57-.13.68.68,0,0,1-.32-.33,1.66,1.66,0,0,1-.07-.56v-.21h.78v.39a.38.38,0,0,0,0,.23.11.11,0,0,0,.11.06.16.16,0,0,0,.13-.07.46.46,0,0,0,0-.2.61.61,0,0,0-.08-.37,1.87,1.87,0,0,0-.39-.29,3.23,3.23,0,0,1-.42-.31.73.73,0,0,1-.17-.26,1.22,1.22,0,0,1-.07-.42,1.25,1.25,0,0,1,.1-.55.64.64,0,0,1,.31-.27,1.29,1.29,0,0,1,.51-.09,1.37,1.37,0,0,1,.56.1.62.62,0,0,1,.3.27,1.41,1.41,0,0,1,.08.55v.13h-.78v-.24a.48.48,0,0,0,0-.22.12.12,0,0,0-.1,0,.14.14,0,0,0-.12.06.41.41,0,0,0,0,.19.48.48,0,0,0,.05.24c0,.06.1.12.23.2a2.25,2.25,0,0,1,.71.55,1.22,1.22,0,0,1,.15.69A1.29,1.29,0,0,1,32.54,41.07Zm3-1.51h-.84V39a.88.88,0,0,0,0-.3s-.05-.06-.12-.06a.13.13,0,0,0-.13.07,1.08,1.08,0,0,0,0,.32v1.51a.92.92,0,0,0,0,.3.13.13,0,0,0,.13.08.12.12,0,0,0,.12-.08,1.07,1.07,0,0,0,0-.33v-.41h.84v.12a2.44,2.44,0,0,1-.07.72.77.77,0,0,1-.31.37,1.11,1.11,0,0,1-.6.16,1.22,1.22,0,0,1-.61-.14.64.64,0,0,1-.32-.37,2.51,2.51,0,0,1-.08-.71v-1a3.51,3.51,0,0,1,0-.53.64.64,0,0,1,.14-.33.78.78,0,0,1,.33-.26,1.22,1.22,0,0,1,.49-.09,1.25,1.25,0,0,1,.61.14.73.73,0,0,1,.32.36,2.23,2.23,0,0,1,.07.67Zm1.66,1.83H35.88V38.15h.84v2.59h.51Zm2.12-1.08c0,.25,0,.42,0,.52a.93.93,0,0,1-.14.31.75.75,0,0,1-.32.23,1.06,1.06,0,0,1-.45.09,1.29,1.29,0,0,1-.51-.1.82.82,0,0,1-.34-.25.79.79,0,0,1-.13-.33c0-.11,0-.35,0-.72V38.15h.85v2.43a.83.83,0,0,0,0,.27.09.09,0,0,0,.09.06.11.11,0,0,0,.11-.07,1.59,1.59,0,0,0,0-.31V38.15h.84Zm2.29.32a1.16,1.16,0,0,1-.08.48.4.4,0,0,1-.24.22,2.31,2.31,0,0,1-.67.06h-1V38.15h.84a2.3,2.3,0,0,1,.6.06.55.55,0,0,1,.33.25,1.08,1.08,0,0,1,.13.61.62.62,0,0,1-.09.39.6.6,0,0,1-.35.18.55.55,0,0,1,.39.22.81.81,0,0,1,.11.47Z"/><polygon class="cls-1" points="38.45 24.63 38.64 27.05 40.74 28.27 38.49 29.19 37.99 31.57 36.41 29.72 34 29.97 35.27 27.9 34.28 25.68 36.64 26.25 38.45 24.63"/><path class="cls-1" d="M11.15,45.65v1.14h-.88v4.56H8.79V46.79H7.91V45.65Z"/><path class="cls-1" d="M13.77,45.65l.84,5.7H13.1l-.08-1h-.53l-.09,1H10.87l.75-5.7ZM13,49.31c-.07-.64-.15-1.44-.22-2.39-.16,1.09-.25,1.89-.29,2.39Z"/><path class="cls-1" d="M18.33,48.13H16.85v-1a1.79,1.79,0,0,0-.05-.54.21.21,0,0,0-.21-.11c-.12,0-.2,0-.23.13a1.76,1.76,0,0,0-.05.56v2.65a1.68,1.68,0,0,0,.05.55c0,.08.1.12.22.12a.2.2,0,0,0,.21-.12,1.84,1.84,0,0,0,.06-.6v-.72h1.48v.22a4.16,4.16,0,0,1-.13,1.26,1.24,1.24,0,0,1-.55.65,1.93,1.93,0,0,1-1,.28,2.16,2.16,0,0,1-1.08-.24,1.14,1.14,0,0,1-.56-.65,4.36,4.36,0,0,1-.14-1.26V47.66a6.93,6.93,0,0,1,0-.93,1.22,1.22,0,0,1,.25-.59,1.4,1.4,0,0,1,.58-.45,2.08,2.08,0,0,1,.85-.16,2.06,2.06,0,0,1,1.08.25,1.16,1.16,0,0,1,.56.63,3.72,3.72,0,0,1,.14,1.18Z"/><path class="cls-1" d="M22.27,45.65v5.7H20.79V49h-.45v2.4H18.86v-5.7h1.48v2h.45v-2Z"/><path class="cls-1" d="M24.35,45.65v5.7H22.86v-5.7Z"/><path class="cls-1" d="M24.94,45.65h1.48a3.6,3.6,0,0,1,1.06.11,1.07,1.07,0,0,1,.59.44,2.06,2.06,0,0,1,.22,1.07,1.15,1.15,0,0,1-.16.7,1.08,1.08,0,0,1-.62.3,1.09,1.09,0,0,1,.7.38,1.53,1.53,0,0,1,.18.83V50a2,2,0,0,1-.13.85.73.73,0,0,1-.42.39,4.71,4.71,0,0,1-1.18.1H24.94Zm1.49,1v1.27h.14c.15,0,.24,0,.28-.11a1.78,1.78,0,0,0,.06-.62,1,1,0,0,0-.05-.37.23.23,0,0,0-.13-.14A1,1,0,0,0,26.43,46.62Zm0,2.16v1.59a.61.61,0,0,0,.39-.1.66.66,0,0,0,.09-.43v-.53c0-.25,0-.39-.08-.45A.64.64,0,0,0,26.43,48.78Z"/><path class="cls-1" d="M31.49,45.65l.85,5.7H30.82l-.08-1h-.53l-.09,1H28.59l.76-5.7Zm-.79,3.66c-.07-.64-.15-1.44-.22-2.39-.15,1.09-.25,1.89-.29,2.39Z"/><path class="cls-1" d="M35.9,45.65v5.7H34.6l-.77-2.59v2.59H32.59v-5.7h1.24l.83,2.56V45.65Z"/><path class="cls-1" d="M39.06,45.65l.84,5.7H38.39l-.08-1h-.53l-.09,1H36.16l.75-5.7Zm-.79,3.66c-.07-.64-.15-1.44-.22-2.39-.16,1.09-.25,1.89-.29,2.39Z"/></svg>