<svg id="レイヤー_1" data-name="レイヤー 1" xmlns="http://www.w3.org/2000/svg" viewBox="0 0 255 317.43"><defs><style>.cls-1{fill:#f39800;}.cls-2{fill:none;stroke:#fff;stroke-width:5px;}</style></defs><title>img_logo</title><path class="cls-1" d="M96,9.27h1.71l-.73,4-.24.41v.82l-.25.41-.24,1.63c-.17.67-.29,1.15-.37,1.42a3.71,3.71,0,0,1-.37.82v.82l-.73,2.17-.25,1.83a3.9,3.9,0,0,0-.49,2,14.09,14.09,0,0,0-.74,2.65l-.24,1-1.14,5a11,11,0,0,1-.49,1.83L91,38.62l-.24,1.15L90,42v.61l-.49,1.22v.82L89,45.89l-.25,1.23-.24.81-.74,3.4A22.88,22.88,0,0,1,86.54,56l-.24,1.23-.49,2.18-.73,2.65-.74,3.05c-.49,2-.82,3.65-1,4.83l-.24,1a17.14,17.14,0,0,1-1,3.26l-.24,1.63-.24.82-.17,1L81,79.26c-.49,2-.81,3.67-1,4.89A4.37,4.37,0,0,0,79.53,86a2.9,2.9,0,0,0-.5,1.36A11.69,11.69,0,0,0,78.54,90l-.49,1.64-.24,1.42-1.72,6.26-.73,3.26-.25,1.63-1.71,6.66-.24,1.42a3.08,3.08,0,0,0-.49,1.43,23.67,23.67,0,0,1-1.23,4.82,6.2,6.2,0,0,1-.48,2.25v.61a12.31,12.31,0,0,0-.74,2.85.76.76,0,0,1-.66-.41l-1.47-2.24-.24-.61-1-1.43-.24-.6-1.22-1.84a29.79,29.79,0,0,0-1-1.57l-2.69-4.48A15.94,15.94,0,0,1,60,108.61l-4.82-7.88-.25-.61-1-1.43-.24-.61-2.69-4-.74-1.22-2.45-4.08-.72-1.22-.66-1.16-.74-1.22L45,84l-.74-1.23-.73-1.22L40.1,76.27l-.48-1a20.43,20.43,0,0,0-1.23-1.84l-2.21-3.67-.49-.61a25.37,25.37,0,0,1-1.87-3.39,2.15,2.15,0,0,1-.49-.82l-2.7-4.08-.73-1.42A9.94,9.94,0,0,1,28.43,57l-1.22-1.62L26.47,54l-6-9.72a8.57,8.57,0,0,0-1-1.63L19.21,42l-1-1.43a2.07,2.07,0,0,1-.5-.82L14.8,35.15l-.74-1.22a6.81,6.81,0,0,1-1.22-2l-1.39-2.18a21.59,21.59,0,0,1-2.2-4.49l6-.81h1a1.62,1.62,0,0,1,1-.2l4.16-.62,1.47-.2L26.23,23l.73-.2h1.22L33.57,22l1.72-.2c.76-.14,1.43-.24,2-.31s1.18-.17,1.83-.3a8.72,8.72,0,0,1,1.23,2.65l2.2,5.5a8.64,8.64,0,0,1,1.22,2.79l2.45,5.5a27.68,27.68,0,0,0,1.63,4l.74,2.24a8.83,8.83,0,0,1,1.22,2.65,23.59,23.59,0,0,1,1.71,4.22l7.76,18.21a25.15,25.15,0,0,0,2,4.69l.49,1.63.74,1.43,1.22,2.78v-6a14.87,14.87,0,0,0,.24-2.85v-6a18.71,18.71,0,0,0,.25-3.26c0-2.81.08-5.24.24-7.27V47.73l.25-.61v-8.3q.49-1.83.24-7.74a13.17,13.17,0,0,0,.25-2.79V23.6L65.41,22V15.11a25.7,25.7,0,0,0,3.91-.82l2.61-.4a25.94,25.94,0,0,0,2.7-.62l3.42-.61a31.65,31.65,0,0,0,4.08-.81h.74l1.47-.41,1.22-.2L86.79,11l1.47-.2a38.54,38.54,0,0,1,4.81-.95Z"/><path class="cls-1" d="M94,30.88l27.2-4.42A17.8,17.8,0,0,1,121,32l.11.73L121,33.89l0,.79-.12,3a21.45,21.45,0,0,0-.17,3.38l-.11.54-.41,6.76c0,.85,0,1.49,0,1.93a6.1,6.1,0,0,0,0,1.21,10.64,10.64,0,0,0-.18,3.39l-.17.36L119,69.27l-.06.91-.28,4.11-.18,2.11a8.57,8.57,0,0,0,0,1.27l-.16,1.14V79.9l-.06,2-.06,1-.12.36,0,2.06-.23,2a6.15,6.15,0,0,1-.18,2.47l.06,1.27-.23,2.06a29.77,29.77,0,0,1-.17,4.71l-.06.72,0,2-.29,1.88v1a14.75,14.75,0,0,1-.12,2.78l-.4,5.61.06,1.51a26.92,26.92,0,0,0-.23,3.14l-.17,1.33.06,1.51-.35,4.65v1.33a3.5,3.5,0,0,1-3.27-.06l-4.65-.9a2.9,2.9,0,0,0-.8-.25l-1.32-.3-1.6-10.51,0-.9-.46-2.72a35.35,35.35,0,0,1-.34-3.68l-.75-4.53.06-1.09-.8-4.89a4.89,4.89,0,0,0,0-1.44l-.63-4a4.41,4.41,0,0,0-.06-1.51l-.4-2.66c-.16-1-.29-2.19-.41-3.68l-.28-1.81a6.44,6.44,0,0,1-.23-2.54L99.09,73l-.23-2.72a19.15,19.15,0,0,1-.45-4l-.81-5.2.11-.6L96.85,55l.12-.37L96.28,50l-.06-1.27-.74-5.06,0-.61-.8-5.26.12-.54-.75-4.89Z"/><path class="cls-1" d="M127.84,13.38l5-1.22,1.33-.14,1.68-.48.75.07,2.49-.61.87-.06a5.44,5.44,0,0,1,2.37-.35l5.27-1.09,1-.06A7.09,7.09,0,0,1,151.41,9l5.43-1.15.35.13,2-.54,2.72-.48a17.39,17.39,0,0,1-.58,5.71l-.06.48L161,15.62a13.39,13.39,0,0,1-.34,1.78l-.47,3.39a5.24,5.24,0,0,1-.11,1.23l-1.68,12-.23.68-.12,1.5-.23,1.49L157.54,39l-1.1,8.51-.23.68-.06,1.49-.23.88v.82L154.13,62.9l-.24,1.49a10.49,10.49,0,0,1-.29,2.38l-.17.88-.11,1.43-.24,1.5-1,7.68-.29,1.57-1,7.68-.23.69-.12,1.42-.17.88v.82a4.93,4.93,0,0,0-.35,2.18l-.23.68-.12,1-.05.88-.58,3.4a11.79,11.79,0,0,1-.29,2.38l-.06.82-.35,1.77a14.2,14.2,0,0,0,4.87-2.11,14.76,14.76,0,0,1,1.67-.61l1.92-.89a5.68,5.68,0,0,1,1.15-.47l3.59-1.5a5.44,5.44,0,0,1,2.08-1l1-.48,2.78-1.29.92-.47,1-.41,3.24-1.43.46,4.42a30.06,30.06,0,0,1,.41,4l.23,1.36-.12.48.93,7.82-4.86,1.43-.29.27-6.83,1.9-.64.35-3.07.74L158,117l-2.49.61-.64.34-2.38.61-1.09.48L142,121.86l-1.1.48-7.24,1.76L128,15Z"/><path class="cls-1" d="M183.58,37.94l9.89-3.2q15-3.9,24,4.82l.36,1.17a16.56,16.56,0,0,1-1.17,1.92l-.51,1a9.71,9.71,0,0,0-.86,1.47,6.73,6.73,0,0,0-1.11,1.67l-1.83,3.1c-.64,1.08-1.27,2-1.88,2.89l-.2.4-2.79-.4H207a12.89,12.89,0,0,0-2.23-.25,6.19,6.19,0,0,0-1.42-.21,7.94,7.94,0,0,0-2,0l-.55-.15-.67,0-4.87.26-1.11.19A13.18,13.18,0,0,0,187,59.4q-1.64,9.84,15.62,15.82a14.53,14.53,0,0,0,2.18,1.12l.61.3.36,0L208,77.81l.55.15,1.17.61q22.83,12.53,11.37,35-5.28,8.22-15.73,11.26-14.42,4.81-31.2-2.49a2.34,2.34,0,0,1-1-1l.6-2.69.21-.86.05-.51.46-1.67v-.46l.66-2.58v-.46a5.66,5.66,0,0,0,.46-2.18l1-4.11q18.87,14.61,34-3.1a10.33,10.33,0,0,0,1.22-3.39l.05-.36a9,9,0,0,0-4.46-6.14,32.24,32.24,0,0,0-4.31-2l-2.23-.76-.92-.35q-22.07-1.94-30.13-23.24a18.41,18.41,0,0,1-1.17-4.61l-.2-.61Q168.71,45.9,183.58,37.94Z"/><path class="cls-1" d="M54,123.39H66.89a11.37,11.37,0,0,1,3.2.16,16.56,16.56,0,0,1,3.59.33l1,.16h.65l.6.16,2.28.27.66.17,3,.81,1,.16,5.82,2.13a7.21,7.21,0,0,0,1.13.65l2.94,1.47.93.6.32.32,1,.65.33.17,4.18,3.91,2.12,3.05.49.65,1.63,3.86q8.7,29.09-14.4,50.11l-4.68,3.71-.32.32-1.15.65-.65.49L78,201.07a3.5,3.5,0,0,1-1.47.81,3.62,3.62,0,0,1-1.41.82l-.49.33-1.63.81-.49.16a35.48,35.48,0,0,1-3.21,1.58l-1.3.49-1.8.82a15.61,15.61,0,0,0-3.37,1.3,5.62,5.62,0,0,1-1.63.49l-4,1.47-1.14.32-1.14.33-.65.16-.66.11a11.74,11.74,0,0,1-2.23.66l-.65.16-2.93.65a3.32,3.32,0,0,1-2.07,0L45.25,209l-.33-1.14-.16-1v-.49L44.11,203l-.16-1-.17-1.15-.16-1a8.56,8.56,0,0,1-.41-1.42,7.44,7.44,0,0,1-.08-1.14l2.61-.16L47,197l4.73-.32.49-.16-.16-5.17-.17-.65v-3.53l-.16-.82v-2.45a3.72,3.72,0,0,0-.16-1.9V177.8a.94.94,0,0,1-.17-.65l-.16-8.21-.16-.65v-2.61l-.17-1.25-.16-7.61-.16-1.3v-3.7l-.16-1.31v-3.2l-.17-.49v-3.59a6,6,0,0,0-2.44-.16,7.36,7.36,0,0,0-2.72-.17l-.49-.16H42.48l-1.74-.16c-1.2-.11-2.18-.17-2.94-.17a12.73,12.73,0,0,0-1.63-.16H34.43l-1.14-.16L33,136.92c-.11-.94-.22-1.74-.33-2.39v-1.79q-.16-1.63-.33-2.61v-1.58l-.16-2.12,2-.33.92-.16.49-.16,2.77-.49a5.52,5.52,0,0,0,1.63-.32A2.35,2.35,0,0,0,41,124.8h.65l3.59-.49,1-.11,1.09-.16,5.65-.49ZM87.54,157.8q-5.66-15.87-22.28-16.15a1.05,1.05,0,0,0-1,.76v50a6.05,6.05,0,0,0,2-.33l.82-.16,1.79-.49Q91.13,183.29,87.54,157.8Z"/><path class="cls-1" d="M155.28,118.27h.36l1.64,4.14.16.62,5.24,14.06a2.57,2.57,0,0,1,.37,1l1.48,3.62v1.2l-2.17,2.63a2.77,2.77,0,0,0-1,1l-2.49,3.15-.58.67-.53.62a21.19,21.19,0,0,0-2.53,3l-1.81,2.12a11.75,11.75,0,0,1-1.42,1.65l-2.91,3.68a5.6,5.6,0,0,0-.53.62l-6.88,8.58a22.54,22.54,0,0,1,1.64,1.86l1.43,1.45.16.36a9.49,9.49,0,0,1,1.48,1.66,13.34,13.34,0,0,1,2.33,2.63l.9,1,.74.68a13.68,13.68,0,0,1,1.05,1.29,12.29,12.29,0,0,1,1.49,1.65l.68.68,1.85,2.17,1.59,1.81.9,1,.37.31a20.47,20.47,0,0,1,2.17,2.48c.49.56.92,1,1.27,1.35a15.56,15.56,0,0,1-2.33,3.31l-.37.3-.53.83a8.66,8.66,0,0,0-.9,1l-3.43,4.3-.9,1.19-.59.62-.68.52a16.17,16.17,0,0,1-1.64-2.33l-.9-1.14-.9-1.35a14.69,14.69,0,0,0-1.27-1.81l-.37-.67-2.38-3.31-.16-.31-5.24-7.44-.36-.31-.9-1.35-2-2.79-.52-1-.9-1.14a11.53,11.53,0,0,0-.17,4.6V187a4,4,0,0,1,.17,1.29l.16,6.46a12.12,12.12,0,0,1,.21,2.33l.15,3.62a4.67,4.67,0,0,0,.21,2.12l.17,6.78-3.81,2-.37.31-4.34,2.33-.9.67-.53.15-2.7,1.66h-.9l-.58-3.67-.31-1.14-.22-1-.15-1c-.15-1.21-.33-2.26-.53-3.16a12.48,12.48,0,0,0-.59-2.64l-.15-1.34-.21-1.29a25.94,25.94,0,0,1-.69-3.83l-.21-1-.53-2.48a5.26,5.26,0,0,0-.37-1.81l-.16-1.29c-.14-.9-.24-1.53-.29-1.92s-.13-.79-.24-1.24l-.37-1.34A8.34,8.34,0,0,1,116,185l-.15-1.13-.22-.52a5.93,5.93,0,0,0-.31-1.81v-.62a15.65,15.65,0,0,1-.58-3l-.17-.52-.89-5.12a12.48,12.48,0,0,1-.53-2.79c-.14-.76-.24-1.34-.29-1.73a7.07,7.07,0,0,0-.29-1.21L111.53,161v-.67a.73.73,0,0,1-.22-.62l-.52-2.84-.53-2.49a8.06,8.06,0,0,1-.21-1.65l-.16-1.14-.16-1c-.14-.65-.27-1.18-.39-1.58a4.52,4.52,0,0,1-.19-1.42,5.63,5.63,0,0,1-.32-1.65l-.21-.62-.16-1.19-.21-1-.16-1.13a8.29,8.29,0,0,1-.37-2,13.67,13.67,0,0,1-.53-2.95l-.21-.51-.32-2.28-.21-.51-.53-3.62-.37-1.19v-1.82a17.46,17.46,0,0,1,2.7-.46l3.06-.52a24.36,24.36,0,0,0,2.84-.41,24.07,24.07,0,0,1,3-.41l6.5-1,1.27-.32a2.94,2.94,0,0,0,1.27-.2,7,7,0,0,0,2-.32l2-.15,1.27-.15.16,4.91a11.79,11.79,0,0,1,.21,2.33l.37,9.41a17.16,17.16,0,0,1,.16,4.14l.16.66.21,7.09a11.5,11.5,0,0,1,.15,2l.22.82,5-8.43a3.25,3.25,0,0,0,.48-.59,5.15,5.15,0,0,0,.47-.91l1.22-2.17.95-1.44,3.07-4.81.53-1,2.7-4.45L148,130l2.75-4.29a4,4,0,0,0,.37-.67l1-1.66a5.88,5.88,0,0,0,.9-1.65l2-3Z"/><path class="cls-1" d="M191.8,125.07l3.65-.51a23.17,23.17,0,0,1,10.66.43,1.62,1.62,0,0,1,.78,1.33,21,21,0,0,0-1.08,3.69l-.29,1.31-.32,1.15-1.13,4.19a18.5,18.5,0,0,0-.87,3L202.06,144q-22.18,5.5-26.49,26-1.94,15.84,10.81,27.86,10.34,6.06,19.16-15.58l1.27,2.23.37.45,5.36,9.64.4.61.25.58,1.27,2.24.43.44,1.07,2.06q-9.19,14.46-25.71,16.62-17.83,2.24-28.84-14.37l-.57-.84-1.9-4.24q-4.86-17.28,1.74-36.63,5.46-19.25,23.33-32.48l4.17-2.2,2-.78A4.18,4.18,0,0,0,191.8,125.07Z"/><path class="cls-1" d="M80.43,230.38a2.67,2.67,0,0,0-1.14-.17V243c.73,0,1.18-.15,1.35-.44a6.33,6.33,0,0,0,.26-2.39v-7.56a9.52,9.52,0,0,0-.09-1.7A.86.86,0,0,0,80.43,230.38Z"/><path class="cls-1" d="M92.17,239.4h1.74q-.39-3.32-.77-8.18C92.63,235,92.3,237.68,92.17,239.4Z"/><path class="cls-1" d="M234.42,237.57V243a2.21,2.21,0,0,0,1.37-.34,2.41,2.41,0,0,0,.29-1.48v-1.81c0-.84-.08-1.35-.26-1.52A2.49,2.49,0,0,0,234.42,237.57Z"/><path class="cls-1" d="M168.4,230.38a2.67,2.67,0,0,0-1.14-.17V243c.73,0,1.18-.15,1.35-.44a6.33,6.33,0,0,0,.26-2.39v-7.56a9.52,9.52,0,0,0-.09-1.7A.86.86,0,0,0,168.4,230.38Z"/><path class="cls-1" d="M235.48,230.32a3.8,3.8,0,0,0-1.06-.11v4.33h.51c.49,0,.81-.12.95-.37a6.23,6.23,0,0,0,.2-2.1,3.49,3.49,0,0,0-.16-1.28A.83.83,0,0,0,235.48,230.32Z"/><path class="cls-1" d="M19.88,219.65v34.56H245.75V219.65Zm17.38,26.7H29.57l-2.92-19.47H32q.93,8,1.33,13.62c.26-3.76.53-7.09.83-10l.35-3.62h5.34Zm8.5,0H40.69V226.88h5.07Zm10.17,0H47.79V226.88h5.06v15.58h3.08Zm11.88-1.91a3.76,3.76,0,0,1-1.88,1.65,7.47,7.47,0,0,1-3.24.67,7.17,7.17,0,0,1-3.47-.78,3.76,3.76,0,0,1-1.89-2,10.12,10.12,0,0,1-.44-3.37v-1.28h4.7v2.37a3.17,3.17,0,0,0,.2,1.41.78.78,0,0,0,.71.31.83.83,0,0,0,.75-.4,2.3,2.3,0,0,0,.25-1.18,3.7,3.7,0,0,0-.47-2.25,16.32,16.32,0,0,0-2.38-1.76,23.16,23.16,0,0,1-2.5-1.82,4.26,4.26,0,0,1-1-1.56,6.84,6.84,0,0,1-.41-2.55,7.07,7.07,0,0,1,.58-3.27,3.83,3.83,0,0,1,1.84-1.62,7.52,7.52,0,0,1,3.08-.58,7.9,7.9,0,0,1,3.36.64,3.54,3.54,0,0,1,1.84,1.6,8.52,8.52,0,0,1,.46,3.29v.77H63.18v-1.44a2.77,2.77,0,0,0-.18-1.28.66.66,0,0,0-.6-.29.75.75,0,0,0-.69.38,2.09,2.09,0,0,0-.24,1.13,3.15,3.15,0,0,0,.27,1.47,3.67,3.67,0,0,0,1.43,1.19,14.52,14.52,0,0,1,4.25,3.29,7.5,7.5,0,0,1,.89,4.15A7.18,7.18,0,0,1,67.81,244.44ZM86,240.56a16.09,16.09,0,0,1-.25,3.51,2.58,2.58,0,0,1-.86,1.38,3.62,3.62,0,0,1-1.52.7,13.8,13.8,0,0,1-2.72.2H74.23V226.88H78a23.13,23.13,0,0,1,5,.34,3.81,3.81,0,0,1,2,1.1,3.61,3.61,0,0,1,.84,1.72,26.11,26.11,0,0,1,.17,3.71Zm8.35,5.79-.27-3.5H92.23l-.3,3.5H86.7l2.58-19.47h7.31l2.9,19.47Zm17.34,0h-4.44l-2.63-8.86v8.86h-4.24V226.88h4.24l2.84,8.76v-8.76h4.23Zm13.85-11h-5.06V232a6.46,6.46,0,0,0-.16-1.85.71.71,0,0,0-.72-.37.76.76,0,0,0-.79.45,6.89,6.89,0,0,0-.17,1.93v9a6.39,6.39,0,0,0,.17,1.85.71.71,0,0,0,.75.43.71.71,0,0,0,.75-.43,7.41,7.41,0,0,0,.17-2v-2.45h5.06v.76a15.23,15.23,0,0,1-.42,4.29,4.42,4.42,0,0,1-1.89,2.21,6.44,6.44,0,0,1-3.6,1,7.44,7.44,0,0,1-3.67-.81,3.92,3.92,0,0,1-1.91-2.23,14.4,14.4,0,0,1-.47-4.29v-5.68a26.74,26.74,0,0,1,.14-3.16,4.45,4.45,0,0,1,.86-2,4.85,4.85,0,0,1,2-1.53,8.12,8.12,0,0,1,6.6.3,4.21,4.21,0,0,1,1.92,2.16,13.16,13.16,0,0,1,.45,4Zm10.6,11h-8.78V226.88h8.44v3.9h-3.38v3.68h3.16v3.71h-3.16v4.29h3.72Zm12.9,0L147,238v8.35h-5.06V226.88H147v7.56l2.26-7.56H154l-2.9,8.79,3.18,10.68Zm11.17,0h-5.06V226.88h5.06Zm13.76-5.79a16.09,16.09,0,0,1-.25,3.51,2.58,2.58,0,0,1-.86,1.38,3.58,3.58,0,0,1-1.51.7,13.87,13.87,0,0,1-2.72.2H162.2V226.88H166a23.13,23.13,0,0,1,5,.34,3.81,3.81,0,0,1,2,1.1,3.52,3.52,0,0,1,.84,1.72,26.11,26.11,0,0,1,.17,3.71Zm12.54,3.88a3.84,3.84,0,0,1-1.88,1.65,7.51,7.51,0,0,1-3.25.67,7.13,7.13,0,0,1-3.46-.78,3.76,3.76,0,0,1-1.89-2,9.87,9.87,0,0,1-.44-3.37v-1.28h4.7v2.37a3.17,3.17,0,0,0,.2,1.41.77.77,0,0,0,.71.31.83.83,0,0,0,.75-.4,2.31,2.31,0,0,0,.24-1.18,3.7,3.7,0,0,0-.47-2.25,15.47,15.47,0,0,0-2.37-1.76,22.14,22.14,0,0,1-2.5-1.82,4,4,0,0,1-1-1.56,6.84,6.84,0,0,1-.41-2.55,7.22,7.22,0,0,1,.57-3.27,3.9,3.9,0,0,1,1.85-1.62,7.52,7.52,0,0,1,3.08-.58,8,8,0,0,1,3.36.64,3.54,3.54,0,0,1,1.84,1.6,8.56,8.56,0,0,1,.45,3.29v.77h-4.7v-1.44a2.6,2.6,0,0,0-.19-1.28.64.64,0,0,0-.6-.29.75.75,0,0,0-.68.38,2.09,2.09,0,0,0-.24,1.13,3.15,3.15,0,0,0,.27,1.47,3.67,3.67,0,0,0,1.43,1.19,14.67,14.67,0,0,1,4.25,3.29,7.51,7.51,0,0,1,.88,4.15A7.2,7.2,0,0,1,186.47,244.44Zm18.24-9.08h-5.06V232a6,6,0,0,0-.17-1.85.71.71,0,0,0-.71-.37.75.75,0,0,0-.79.45,6.4,6.4,0,0,0-.18,1.93v9A5.94,5.94,0,0,0,198,243a.86.86,0,0,0,1.49,0,6.89,6.89,0,0,0,.18-2v-2.45h5.06v.76a14.78,14.78,0,0,1-.43,4.29,4.44,4.44,0,0,1-1.88,2.21,6.46,6.46,0,0,1-3.61,1,7.4,7.4,0,0,1-3.66-.81,4,4,0,0,1-1.92-2.23,14.74,14.74,0,0,1-.47-4.29v-5.68a24.31,24.31,0,0,1,.15-3.16,4.45,4.45,0,0,1,.86-2,4.79,4.79,0,0,1,2-1.53,8.12,8.12,0,0,1,6.6.3,4.15,4.15,0,0,1,1.91,2.16,12.79,12.79,0,0,1,.46,4Zm10,11h-8.14V226.88h5.06v15.58h3.08Zm12.73-6.46a24,24,0,0,1-.14,3.11,4.28,4.28,0,0,1-.85,1.84,4.42,4.42,0,0,1-1.88,1.43,7.08,7.08,0,0,1-2.73.49,7.8,7.8,0,0,1-3.08-.58,4.58,4.58,0,0,1-2-1.5,4.18,4.18,0,0,1-.78-2q-.12-1-.12-4.32V226.88h5.06v14.6a5.35,5.35,0,0,0,.15,1.63.53.53,0,0,0,.55.35.61.61,0,0,0,.63-.39,8.11,8.11,0,0,0,.13-1.84V226.88h5.06Zm13.75,1.89a7.34,7.34,0,0,1-.45,2.92,2.46,2.46,0,0,1-1.44,1.3,14.83,14.83,0,0,1-4,.35h-5.86V226.88h5a13.38,13.38,0,0,1,3.63.37,3.6,3.6,0,0,1,2,1.51,6.75,6.75,0,0,1,.76,3.66,4,4,0,0,1-.53,2.38,3.79,3.79,0,0,1-2.11,1,3.79,3.79,0,0,1,2.38,1.32,5,5,0,0,1,.63,2.83Z"/><polygon class="cls-1" points="221.99 145.69 223.12 160.22 235.73 167.54 222.25 173.1 219.2 187.35 209.75 176.26 195.25 177.75 202.88 165.34 196.97 152.01 211.14 155.43 221.99 145.69"/><path class="cls-1" d="M58,271.93v6.86H52.72v27.4H43.81v-27.4H38.55v-6.86Z"/><path class="cls-1" d="M73.7,271.93l5.1,34.26H69.69L69.22,300H66l-.54,6.16h-9.2l4.54-34.26ZM69,294q-.67-5.82-1.35-14.39-1.36,9.84-1.71,14.39Z"/><path class="cls-1" d="M101.11,286.85H92.2v-6a10.66,10.66,0,0,0-.28-3.24,1.25,1.25,0,0,0-1.26-.65,1.32,1.32,0,0,0-1.4.78,11.82,11.82,0,0,0-.3,3.39v15.91a11,11,0,0,0,.3,3.26,1.26,1.26,0,0,0,1.33.76,1.24,1.24,0,0,0,1.3-.76,12.26,12.26,0,0,0,.31-3.59v-4.3h8.91v1.33a26.31,26.31,0,0,1-.75,7.54,7.67,7.67,0,0,1-3.32,3.9,11.37,11.37,0,0,1-6.34,1.68,13.16,13.16,0,0,1-6.45-1.42,6.87,6.87,0,0,1-3.37-3.93,25.75,25.75,0,0,1-.82-7.54V284a44.6,44.6,0,0,1,.25-5.55,7.76,7.76,0,0,1,1.51-3.56,8.38,8.38,0,0,1,3.49-2.7,14.22,14.22,0,0,1,11.63.54,7.21,7.21,0,0,1,3.36,3.79,22.63,22.63,0,0,1,.81,7.07Z"/><path class="cls-1" d="M124.78,271.93v34.26h-8.9V291.8h-2.67v14.39H104.3V271.93h8.91v12.25h2.67V271.93Z"/><path class="cls-1" d="M137.27,271.93v34.26h-8.91V271.93Z"/><path class="cls-1" d="M140.84,271.93h8.89a23.35,23.35,0,0,1,6.38.66,6.36,6.36,0,0,1,3.5,2.65c.89,1.34,1.33,3.48,1.33,6.44,0,2-.31,3.4-.94,4.19a6.63,6.63,0,0,1-3.71,1.82c2.05.46,3.45,1.23,4.18,2.31a8.9,8.9,0,0,1,1.11,5v3.17a12.61,12.61,0,0,1-.8,5.15,4.28,4.28,0,0,1-2.53,2.28q-1.73.62-7.11.62h-10.3Zm8.91,5.86v7.62l.89,0c.87,0,1.43-.22,1.67-.65a10.54,10.54,0,0,0,.36-3.69,5.88,5.88,0,0,0-.3-2.25,1.4,1.4,0,0,0-.77-.81A6.68,6.68,0,0,0,149.75,277.79Zm0,12.95v9.59a3.81,3.81,0,0,0,2.4-.6,4.11,4.11,0,0,0,.52-2.6v-3.19c0-1.47-.16-2.36-.47-2.67A4.15,4.15,0,0,0,149.75,290.74Z"/><path class="cls-1" d="M180.17,271.93l5.09,34.26h-9.1l-.48-6.16h-3.19l-.53,6.16h-9.21l4.54-34.26Zm-4.72,22q-.67-5.82-1.36-14.39-1.36,9.84-1.71,14.39Z"/><path class="cls-1" d="M206.66,271.93v34.26h-7.81l-4.63-15.57v15.57h-7.45V271.93h7.45l5,15.43V271.93Z"/><path class="cls-1" d="M225.63,271.93l5.1,34.26h-9.11l-.47-6.16H218l-.53,6.16h-9.21l4.54-34.26Zm-4.72,22q-.67-5.82-1.35-14.39-1.37,9.84-1.71,14.39Z"/><path class="cls-2" d="M96,9.27h1.71l-.73,4-.24.41v.82l-.25.41-.24,1.63c-.17.67-.29,1.15-.37,1.42a3.71,3.71,0,0,1-.37.82v.82l-.73,2.17-.25,1.83a3.9,3.9,0,0,0-.49,2,14.09,14.09,0,0,0-.74,2.65l-.24,1-1.14,5a11,11,0,0,1-.49,1.83L91,38.62l-.24,1.15L90,42v.61l-.49,1.22v.82L89,45.89l-.25,1.23-.24.81-.74,3.4A22.88,22.88,0,0,1,86.54,56l-.24,1.23-.49,2.18-.73,2.65-.74,3.05c-.49,2-.82,3.65-1,4.83l-.24,1a17.14,17.14,0,0,1-1,3.26l-.24,1.63-.24.82-.17,1L81,79.26c-.49,2-.81,3.67-1,4.89A4.37,4.37,0,0,0,79.53,86a2.9,2.9,0,0,0-.5,1.36A11.69,11.69,0,0,0,78.54,90l-.49,1.64-.24,1.42-1.72,6.26-.73,3.26-.25,1.63-1.71,6.66-.24,1.42a3.08,3.08,0,0,0-.49,1.43,23.67,23.67,0,0,1-1.23,4.82,6.2,6.2,0,0,1-.48,2.25v.61a12.31,12.31,0,0,0-.74,2.85.76.76,0,0,1-.66-.41l-1.47-2.24-.24-.61-1-1.43-.24-.6-1.22-1.84a29.79,29.79,0,0,0-1-1.57l-2.69-4.48A15.94,15.94,0,0,1,60,108.61l-4.82-7.88-.25-.61-1-1.43-.24-.61-2.69-4-.74-1.22-2.45-4.08-.72-1.22-.66-1.16-.74-1.22L45,84l-.74-1.23-.73-1.22L40.1,76.27l-.48-1a20.43,20.43,0,0,0-1.23-1.84l-2.21-3.67-.49-.61a25.37,25.37,0,0,1-1.87-3.39,2.15,2.15,0,0,1-.49-.82l-2.7-4.08-.73-1.42A9.94,9.94,0,0,1,28.43,57l-1.22-1.62L26.47,54l-6-9.72a8.57,8.57,0,0,0-1-1.63L19.21,42l-1-1.43a2.07,2.07,0,0,1-.5-.82L14.8,35.15l-.74-1.22a6.81,6.81,0,0,1-1.22-2l-1.39-2.18a21.59,21.59,0,0,1-2.2-4.49l6-.81h1a1.62,1.62,0,0,1,1-.2l4.16-.62,1.47-.2L26.23,23l.73-.2h1.22L33.57,22l1.72-.2c.76-.14,1.43-.24,2-.31s1.18-.17,1.83-.3a8.72,8.72,0,0,1,1.23,2.65l2.2,5.5a8.64,8.64,0,0,1,1.22,2.79l2.45,5.5a27.68,27.68,0,0,0,1.63,4l.74,2.24a8.83,8.83,0,0,1,1.22,2.65,23.59,23.59,0,0,1,1.71,4.22l7.76,18.21a25.15,25.15,0,0,0,2,4.69l.49,1.63.74,1.43,1.22,2.78v-6a14.87,14.87,0,0,0,.24-2.85v-6a18.71,18.71,0,0,0,.25-3.26c0-2.81.08-5.24.24-7.27V47.73l.25-.61v-8.3q.49-1.83.24-7.74a13.17,13.17,0,0,0,.25-2.79V23.6L65.41,22V15.11a25.7,25.7,0,0,0,3.91-.82l2.61-.4a25.94,25.94,0,0,0,2.7-.62l3.42-.61a31.65,31.65,0,0,0,4.08-.81h.74l1.47-.41,1.22-.2L86.79,11l1.47-.2a38.54,38.54,0,0,1,4.81-.95Z"/><path class="cls-2" d="M94,30.88l27.2-4.42A17.8,17.8,0,0,1,121,32l.11.73L121,33.89l0,.79-.12,3a21.45,21.45,0,0,0-.17,3.38l-.11.54-.41,6.76c0,.85,0,1.49,0,1.93a6.1,6.1,0,0,0,0,1.21,10.64,10.64,0,0,0-.18,3.39l-.17.36L119,69.27l-.06.91-.28,4.11-.18,2.11a8.57,8.57,0,0,0,0,1.27l-.16,1.14V79.9l-.06,2-.06,1-.12.36,0,2.06-.23,2a6.15,6.15,0,0,1-.18,2.47l.06,1.27-.23,2.06a29.77,29.77,0,0,1-.17,4.71l-.06.72,0,2-.29,1.88v1a14.75,14.75,0,0,1-.12,2.78l-.4,5.61.06,1.51a26.92,26.92,0,0,0-.23,3.14l-.17,1.33.06,1.51-.35,4.65v1.33a3.5,3.5,0,0,1-3.27-.06l-4.65-.9a2.9,2.9,0,0,0-.8-.25l-1.32-.3-1.6-10.51,0-.9-.46-2.72a35.35,35.35,0,0,1-.34-3.68l-.75-4.53.06-1.09-.8-4.89a4.89,4.89,0,0,0,0-1.44l-.63-4a4.41,4.41,0,0,0-.06-1.51l-.4-2.66c-.16-1-.29-2.19-.41-3.68l-.28-1.81a6.44,6.44,0,0,1-.23-2.54L99.09,73l-.23-2.72a19.15,19.15,0,0,1-.45-4l-.81-5.2.11-.6L96.85,55l.12-.37L96.28,50l-.06-1.27-.74-5.06,0-.61-.8-5.26.12-.54-.75-4.89Z"/><path class="cls-2" d="M127.84,13.38l5-1.22,1.33-.14,1.68-.48.75.07,2.49-.61.87-.06a5.44,5.44,0,0,1,2.37-.35l5.27-1.09,1-.06A7.09,7.09,0,0,1,151.41,9l5.43-1.15.35.13,2-.54,2.72-.48a17.39,17.39,0,0,1-.58,5.71l-.06.48L161,15.62a13.39,13.39,0,0,1-.34,1.78l-.47,3.39a5.24,5.24,0,0,1-.11,1.23l-1.68,12-.23.68-.12,1.5-.23,1.49L157.54,39l-1.1,8.51-.23.68-.06,1.49-.23.88v.82L154.13,62.9l-.24,1.49a10.49,10.49,0,0,1-.29,2.38l-.17.88-.11,1.43-.24,1.5-1,7.68-.29,1.57-1,7.68-.23.69-.12,1.42-.17.88v.82a4.93,4.93,0,0,0-.35,2.18l-.23.68-.12,1-.05.88-.58,3.4a11.79,11.79,0,0,1-.29,2.38l-.06.82-.35,1.77a14.2,14.2,0,0,0,4.87-2.11,14.76,14.76,0,0,1,1.67-.61l1.92-.89a5.68,5.68,0,0,1,1.15-.47l3.59-1.5a5.44,5.44,0,0,1,2.08-1l1-.48,2.78-1.29.92-.47,1-.41,3.24-1.43.46,4.42a30.06,30.06,0,0,1,.41,4l.23,1.36-.12.48.93,7.82-4.86,1.43-.29.27-6.83,1.9-.64.35-3.07.74L158,117l-2.49.61-.64.34-2.38.61-1.09.48L142,121.86l-1.1.48-7.24,1.76L128,15Z"/><path class="cls-2" d="M183.58,37.94l9.89-3.2q15-3.9,24,4.82l.36,1.17a16.56,16.56,0,0,1-1.17,1.92l-.51,1a9.71,9.71,0,0,0-.86,1.47,6.73,6.73,0,0,0-1.11,1.67l-1.83,3.1c-.64,1.08-1.27,2-1.88,2.89l-.2.4-2.79-.4H207a12.89,12.89,0,0,0-2.23-.25,6.19,6.19,0,0,0-1.42-.21,7.94,7.94,0,0,0-2,0l-.55-.15-.67,0-4.87.26-1.11.19A13.18,13.18,0,0,0,187,59.4q-1.64,9.84,15.62,15.82a14.53,14.53,0,0,0,2.18,1.12l.61.3.36,0L208,77.81l.55.15,1.17.61q22.83,12.53,11.37,35-5.28,8.22-15.73,11.26-14.42,4.81-31.2-2.49a2.34,2.34,0,0,1-1-1l.6-2.69.21-.86.05-.51.46-1.67v-.46l.66-2.58v-.46a5.66,5.66,0,0,0,.46-2.18l1-4.11q18.87,14.61,34-3.1a10.33,10.33,0,0,0,1.22-3.39l.05-.36a9,9,0,0,0-4.46-6.14,32.24,32.24,0,0,0-4.31-2l-2.23-.76-.92-.35q-22.07-1.94-30.13-23.24a18.41,18.41,0,0,1-1.17-4.61l-.2-.61Q168.71,45.9,183.58,37.94Z"/><path class="cls-2" d="M54,123.39H66.89a11.37,11.37,0,0,1,3.2.16,16.56,16.56,0,0,1,3.59.33l1,.16h.65l.6.16,2.28.27.66.17,3,.81,1,.16,5.82,2.13a7.21,7.21,0,0,0,1.13.65l2.94,1.47.93.6.32.32,1,.65.33.17,4.18,3.91,2.12,3.05.49.65,1.63,3.86q8.7,29.09-14.4,50.11l-4.68,3.71-.32.32-1.15.65-.65.49L78,201.07a3.5,3.5,0,0,1-1.47.81,3.62,3.62,0,0,1-1.41.82l-.49.33-1.63.81-.49.16a35.48,35.48,0,0,1-3.21,1.58l-1.3.49-1.8.82a15.61,15.61,0,0,0-3.37,1.3,5.62,5.62,0,0,1-1.63.49l-4,1.47-1.14.32-1.14.33-.65.16-.66.11a11.74,11.74,0,0,1-2.23.66l-.65.16-2.93.65a3.32,3.32,0,0,1-2.07,0L45.25,209l-.33-1.14-.16-1v-.49L44.11,203l-.16-1-.17-1.15-.16-1a8.56,8.56,0,0,1-.41-1.42,7.44,7.44,0,0,1-.08-1.14l2.61-.16L47,197l4.73-.32.49-.16-.16-5.17-.17-.65v-3.53l-.16-.82v-2.45a3.72,3.72,0,0,0-.16-1.9V177.8a.94.94,0,0,1-.17-.65l-.16-8.21-.16-.65v-2.61l-.17-1.25-.16-7.61-.16-1.3v-3.7l-.16-1.31v-3.2l-.17-.49v-3.59a6,6,0,0,0-2.44-.16,7.36,7.36,0,0,0-2.72-.17l-.49-.16H42.48l-1.74-.16c-1.2-.11-2.18-.17-2.94-.17a12.73,12.73,0,0,0-1.63-.16H34.43l-1.14-.16L33,136.92c-.11-.94-.22-1.74-.33-2.39v-1.79q-.16-1.63-.33-2.61v-1.58l-.16-2.12,2-.33.92-.16.49-.16,2.77-.49a5.52,5.52,0,0,0,1.63-.32A2.35,2.35,0,0,0,41,124.8h.65l3.59-.49,1-.11,1.09-.16,5.65-.49ZM87.54,157.8q-5.66-15.87-22.28-16.15a1.05,1.05,0,0,0-1,.76v50a6.05,6.05,0,0,0,2-.33l.82-.16,1.79-.49Q91.13,183.29,87.54,157.8Z"/><path class="cls-2" d="M155.28,118.27h.36l1.64,4.14.16.62,5.24,14.06a2.57,2.57,0,0,1,.37,1l1.48,3.62v1.2l-2.17,2.63a2.77,2.77,0,0,0-1,1l-2.49,3.15-.58.67-.53.62a21.19,21.19,0,0,0-2.53,3l-1.81,2.12a11.75,11.75,0,0,1-1.42,1.65l-2.91,3.68a5.6,5.6,0,0,0-.53.62l-6.88,8.58a22.54,22.54,0,0,1,1.64,1.86l1.43,1.45.16.36a9.49,9.49,0,0,1,1.48,1.66,13.34,13.34,0,0,1,2.33,2.63l.9,1,.74.68a13.68,13.68,0,0,1,1.05,1.29,12.29,12.29,0,0,1,1.49,1.65l.68.68,1.85,2.17,1.59,1.81.9,1,.37.31a20.47,20.47,0,0,1,2.17,2.48c.49.56.92,1,1.27,1.35a15.56,15.56,0,0,1-2.33,3.31l-.37.3-.53.83a8.66,8.66,0,0,0-.9,1l-3.43,4.3-.9,1.19-.59.62-.68.52a16.17,16.17,0,0,1-1.64-2.33l-.9-1.14-.9-1.35a14.69,14.69,0,0,0-1.27-1.81l-.37-.67-2.38-3.31-.16-.31-5.24-7.44-.36-.31-.9-1.35-2-2.79-.52-1-.9-1.14a11.53,11.53,0,0,0-.17,4.6V187a4,4,0,0,1,.17,1.29l.16,6.46a12.12,12.12,0,0,1,.21,2.33l.15,3.62a4.67,4.67,0,0,0,.21,2.12l.17,6.78-3.81,2-.37.31-4.34,2.33-.9.67-.53.15-2.7,1.66h-.9l-.58-3.67-.31-1.14-.22-1-.15-1c-.15-1.21-.33-2.26-.53-3.16a12.48,12.48,0,0,0-.59-2.64l-.15-1.34-.21-1.29a25.94,25.94,0,0,1-.69-3.83l-.21-1-.53-2.48a5.26,5.26,0,0,0-.37-1.81l-.16-1.29c-.14-.9-.24-1.53-.29-1.92s-.13-.79-.24-1.24l-.37-1.34A8.34,8.34,0,0,1,116,185l-.15-1.13-.22-.52a5.93,5.93,0,0,0-.31-1.81v-.62a15.65,15.65,0,0,1-.58-3l-.17-.52-.89-5.12a12.48,12.48,0,0,1-.53-2.79c-.14-.76-.24-1.34-.29-1.73a7.07,7.07,0,0,0-.29-1.21L111.53,161v-.67a.73.73,0,0,1-.22-.62l-.52-2.84-.53-2.49a8.06,8.06,0,0,1-.21-1.65l-.16-1.14-.16-1c-.14-.65-.27-1.18-.39-1.58a4.52,4.52,0,0,1-.19-1.42,5.63,5.63,0,0,1-.32-1.65l-.21-.62-.16-1.19-.21-1-.16-1.13a8.29,8.29,0,0,1-.37-2,13.67,13.67,0,0,1-.53-2.95l-.21-.51-.32-2.28-.21-.51-.53-3.62-.37-1.19v-1.82a17.46,17.46,0,0,1,2.7-.46l3.06-.52a24.36,24.36,0,0,0,2.84-.41,24.07,24.07,0,0,1,3-.41l6.5-1,1.27-.32a2.94,2.94,0,0,0,1.27-.2,7,7,0,0,0,2-.32l2-.15,1.27-.15.16,4.91a11.79,11.79,0,0,1,.21,2.33l.37,9.41a17.16,17.16,0,0,1,.16,4.14l.16.66.21,7.09a11.5,11.5,0,0,1,.15,2l.22.82,5-8.43a3.25,3.25,0,0,0,.48-.59,5.15,5.15,0,0,0,.47-.91l1.22-2.17.95-1.44,3.07-4.81.53-1,2.7-4.45L148,130l2.75-4.29a4,4,0,0,0,.37-.67l1-1.66a5.88,5.88,0,0,0,.9-1.65l2-3Z"/><path class="cls-2" d="M191.8,125.07l3.65-.51a23.17,23.17,0,0,1,10.66.43,1.62,1.62,0,0,1,.78,1.33,21,21,0,0,0-1.08,3.69l-.29,1.31-.32,1.15-1.13,4.19a18.5,18.5,0,0,0-.87,3L202.06,144q-22.18,5.5-26.49,26-1.94,15.84,10.81,27.86,10.34,6.06,19.16-15.58l1.27,2.23.37.45,5.36,9.64.4.61.25.58,1.27,2.24.43.44,1.07,2.06q-9.19,14.46-25.71,16.62-17.83,2.24-28.84-14.37l-.57-.84-1.9-4.24q-4.86-17.28,1.74-36.63,5.46-19.25,23.33-32.48l4.17-2.2,2-.78A4.18,4.18,0,0,0,191.8,125.07Z"/><path class="cls-2" d="M80.43,230.38a2.67,2.67,0,0,0-1.14-.17V243c.73,0,1.18-.15,1.35-.44a6.33,6.33,0,0,0,.26-2.39v-7.56a9.52,9.52,0,0,0-.09-1.7A.86.86,0,0,0,80.43,230.38Z"/><path class="cls-2" d="M92.17,239.4h1.74q-.39-3.32-.77-8.18C92.63,235,92.3,237.68,92.17,239.4Z"/><path class="cls-2" d="M234.42,237.57V243a2.21,2.21,0,0,0,1.37-.34,2.41,2.41,0,0,0,.29-1.48v-1.81c0-.84-.08-1.35-.26-1.52A2.49,2.49,0,0,0,234.42,237.57Z"/><path class="cls-2" d="M168.4,230.38a2.67,2.67,0,0,0-1.14-.17V243c.73,0,1.18-.15,1.35-.44a6.33,6.33,0,0,0,.26-2.39v-7.56a9.52,9.52,0,0,0-.09-1.7A.86.86,0,0,0,168.4,230.38Z"/><path class="cls-2" d="M235.48,230.32a3.8,3.8,0,0,0-1.06-.11v4.33h.51c.49,0,.81-.12.95-.37a6.23,6.23,0,0,0,.2-2.1,3.49,3.49,0,0,0-.16-1.28A.83.83,0,0,0,235.48,230.32Z"/><path class="cls-2" d="M19.88,219.65v34.56H245.75V219.65Zm17.38,26.7H29.57l-2.92-19.47H32q.93,8,1.33,13.62c.26-3.76.53-7.09.83-10l.35-3.62h5.34Zm8.5,0H40.69V226.88h5.07Zm10.17,0H47.79V226.88h5.06v15.58h3.08Zm11.88-1.91a3.76,3.76,0,0,1-1.88,1.65,7.47,7.47,0,0,1-3.24.67,7.17,7.17,0,0,1-3.47-.78,3.76,3.76,0,0,1-1.89-2,10.12,10.12,0,0,1-.44-3.37v-1.28h4.7v2.37a3.17,3.17,0,0,0,.2,1.41.78.78,0,0,0,.71.31.83.83,0,0,0,.75-.4,2.3,2.3,0,0,0,.25-1.18,3.7,3.7,0,0,0-.47-2.25,16.32,16.32,0,0,0-2.38-1.76,23.16,23.16,0,0,1-2.5-1.82,4.26,4.26,0,0,1-1-1.56,6.84,6.84,0,0,1-.41-2.55,7.07,7.07,0,0,1,.58-3.27,3.83,3.83,0,0,1,1.84-1.62,7.52,7.52,0,0,1,3.08-.58,7.9,7.9,0,0,1,3.36.64,3.54,3.54,0,0,1,1.84,1.6,8.52,8.52,0,0,1,.46,3.29v.77H63.18v-1.44a2.77,2.77,0,0,0-.18-1.28.66.66,0,0,0-.6-.29.75.75,0,0,0-.69.38,2.09,2.09,0,0,0-.24,1.13,3.15,3.15,0,0,0,.27,1.47,3.67,3.67,0,0,0,1.43,1.19,14.52,14.52,0,0,1,4.25,3.29,7.5,7.5,0,0,1,.89,4.15A7.18,7.18,0,0,1,67.81,244.44ZM86,240.56a16.09,16.09,0,0,1-.25,3.51,2.58,2.58,0,0,1-.86,1.38,3.62,3.62,0,0,1-1.52.7,13.8,13.8,0,0,1-2.72.2H74.23V226.88H78a23.13,23.13,0,0,1,5,.34,3.81,3.81,0,0,1,2,1.1,3.61,3.61,0,0,1,.84,1.72,26.11,26.11,0,0,1,.17,3.71Zm8.35,5.79-.27-3.5H92.23l-.3,3.5H86.7l2.58-19.47h7.31l2.9,19.47Zm17.34,0h-4.44l-2.63-8.86v8.86h-4.24V226.88h4.24l2.84,8.76v-8.76h4.23Zm13.85-11h-5.06V232a6.46,6.46,0,0,0-.16-1.85.71.71,0,0,0-.72-.37.76.76,0,0,0-.79.45,6.89,6.89,0,0,0-.17,1.93v9a6.39,6.39,0,0,0,.17,1.85.71.71,0,0,0,.75.43.71.71,0,0,0,.75-.43,7.41,7.41,0,0,0,.17-2v-2.45h5.06v.76a15.23,15.23,0,0,1-.42,4.29,4.42,4.42,0,0,1-1.89,2.21,6.44,6.44,0,0,1-3.6,1,7.44,7.44,0,0,1-3.67-.81,3.92,3.92,0,0,1-1.91-2.23,14.4,14.4,0,0,1-.47-4.29v-5.68a26.74,26.74,0,0,1,.14-3.16,4.45,4.45,0,0,1,.86-2,4.85,4.85,0,0,1,2-1.53,8.12,8.12,0,0,1,6.6.3,4.21,4.21,0,0,1,1.92,2.16,13.16,13.16,0,0,1,.45,4Zm10.6,11h-8.78V226.88h8.44v3.9h-3.38v3.68h3.16v3.71h-3.16v4.29h3.72Zm12.9,0L147,238v8.35h-5.06V226.88H147v7.56l2.26-7.56H154l-2.9,8.79,3.18,10.68Zm11.17,0h-5.06V226.88h5.06Zm13.76-5.79a16.09,16.09,0,0,1-.25,3.51,2.58,2.58,0,0,1-.86,1.38,3.58,3.58,0,0,1-1.51.7,13.87,13.87,0,0,1-2.72.2H162.2V226.88H166a23.13,23.13,0,0,1,5,.34,3.81,3.81,0,0,1,2,1.1,3.52,3.52,0,0,1,.84,1.72,26.11,26.11,0,0,1,.17,3.71Zm12.54,3.88a3.84,3.84,0,0,1-1.88,1.65,7.51,7.51,0,0,1-3.25.67,7.13,7.13,0,0,1-3.46-.78,3.76,3.76,0,0,1-1.89-2,9.87,9.87,0,0,1-.44-3.37v-1.28h4.7v2.37a3.17,3.17,0,0,0,.2,1.41.77.77,0,0,0,.71.31.83.83,0,0,0,.75-.4,2.31,2.31,0,0,0,.24-1.18,3.7,3.7,0,0,0-.47-2.25,15.47,15.47,0,0,0-2.37-1.76,22.14,22.14,0,0,1-2.5-1.82,4,4,0,0,1-1-1.56,6.84,6.84,0,0,1-.41-2.55,7.22,7.22,0,0,1,.57-3.27,3.9,3.9,0,0,1,1.85-1.62,7.52,7.52,0,0,1,3.08-.58,8,8,0,0,1,3.36.64,3.54,3.54,0,0,1,1.84,1.6,8.56,8.56,0,0,1,.45,3.29v.77h-4.7v-1.44a2.6,2.6,0,0,0-.19-1.28.64.64,0,0,0-.6-.29.75.75,0,0,0-.68.38,2.09,2.09,0,0,0-.24,1.13,3.15,3.15,0,0,0,.27,1.47,3.67,3.67,0,0,0,1.43,1.19,14.67,14.67,0,0,1,4.25,3.29,7.51,7.51,0,0,1,.88,4.15A7.2,7.2,0,0,1,186.47,244.44Zm18.24-9.08h-5.06V232a6,6,0,0,0-.17-1.85.71.71,0,0,0-.71-.37.75.75,0,0,0-.79.45,6.4,6.4,0,0,0-.18,1.93v9A5.94,5.94,0,0,0,198,243a.86.86,0,0,0,1.49,0,6.89,6.89,0,0,0,.18-2v-2.45h5.06v.76a14.78,14.78,0,0,1-.43,4.29,4.44,4.44,0,0,1-1.88,2.21,6.46,6.46,0,0,1-3.61,1,7.4,7.4,0,0,1-3.66-.81,4,4,0,0,1-1.92-2.23,14.74,14.74,0,0,1-.47-4.29v-5.68a24.31,24.31,0,0,1,.15-3.16,4.45,4.45,0,0,1,.86-2,4.79,4.79,0,0,1,2-1.53,8.12,8.12,0,0,1,6.6.3,4.15,4.15,0,0,1,1.91,2.16,12.79,12.79,0,0,1,.46,4Zm10,11h-8.14V226.88h5.06v15.58h3.08Zm12.73-6.46a24,24,0,0,1-.14,3.11,4.28,4.28,0,0,1-.85,1.84,4.42,4.42,0,0,1-1.88,1.43,7.08,7.08,0,0,1-2.73.49,7.8,7.8,0,0,1-3.08-.58,4.58,4.58,0,0,1-2-1.5,4.18,4.18,0,0,1-.78-2q-.12-1-.12-4.32V226.88h5.06v14.6a5.35,5.35,0,0,0,.15,1.63.53.53,0,0,0,.55.35.61.61,0,0,0,.63-.39,8.11,8.11,0,0,0,.13-1.84V226.88h5.06Zm13.75,1.89a7.34,7.34,0,0,1-.45,2.92,2.46,2.46,0,0,1-1.44,1.3,14.83,14.83,0,0,1-4,.35h-5.86V226.88h5a13.38,13.38,0,0,1,3.63.37,3.6,3.6,0,0,1,2,1.51,6.75,6.75,0,0,1,.76,3.66,4,4,0,0,1-.53,2.38,3.79,3.79,0,0,1-2.11,1,3.79,3.79,0,0,1,2.38,1.32,5,5,0,0,1,.63,2.83Z"/><polygon class="cls-2" points="221.99 145.69 223.12 160.22 235.73 167.54 222.25 173.1 219.2 187.35 209.75 176.26 195.25 177.75 202.88 165.34 196.97 152.01 211.14 155.43 221.99 145.69"/><path class="cls-2" d="M58,271.93v6.86H52.72v27.4H43.81v-27.4H38.55v-6.86Z"/><path class="cls-2" d="M73.7,271.93l5.1,34.26H69.69L69.22,300H66l-.54,6.16h-9.2l4.54-34.26ZM69,294q-.67-5.82-1.35-14.39-1.36,9.84-1.71,14.39Z"/><path class="cls-2" d="M101.11,286.85H92.2v-6a10.66,10.66,0,0,0-.28-3.24,1.25,1.25,0,0,0-1.26-.65,1.32,1.32,0,0,0-1.4.78,11.82,11.82,0,0,0-.3,3.39v15.91a11,11,0,0,0,.3,3.26,1.26,1.26,0,0,0,1.33.76,1.24,1.24,0,0,0,1.3-.76,12.26,12.26,0,0,0,.31-3.59v-4.3h8.91v1.33a26.31,26.31,0,0,1-.75,7.54,7.67,7.67,0,0,1-3.32,3.9,11.37,11.37,0,0,1-6.34,1.68,13.16,13.16,0,0,1-6.45-1.42,6.87,6.87,0,0,1-3.37-3.93,25.75,25.75,0,0,1-.82-7.54V284a44.6,44.6,0,0,1,.25-5.55,7.76,7.76,0,0,1,1.51-3.56,8.38,8.38,0,0,1,3.49-2.7,14.22,14.22,0,0,1,11.63.54,7.21,7.21,0,0,1,3.36,3.79,22.63,22.63,0,0,1,.81,7.07Z"/><path class="cls-2" d="M124.78,271.93v34.26h-8.9V291.8h-2.67v14.39H104.3V271.93h8.91v12.25h2.67V271.93Z"/><path class="cls-2" d="M137.27,271.93v34.26h-8.91V271.93Z"/><path class="cls-2" d="M140.84,271.93h8.89a23.35,23.35,0,0,1,6.38.66,6.36,6.36,0,0,1,3.5,2.65c.89,1.34,1.33,3.48,1.33,6.44,0,2-.31,3.4-.94,4.19a6.63,6.63,0,0,1-3.71,1.82c2.05.46,3.45,1.23,4.18,2.31a8.9,8.9,0,0,1,1.11,5v3.17a12.61,12.61,0,0,1-.8,5.15,4.28,4.28,0,0,1-2.53,2.28q-1.73.62-7.11.62h-10.3Zm8.91,5.86v7.62l.89,0c.87,0,1.43-.22,1.67-.65a10.54,10.54,0,0,0,.36-3.69,5.88,5.88,0,0,0-.3-2.25,1.4,1.4,0,0,0-.77-.81A6.68,6.68,0,0,0,149.75,277.79Zm0,12.95v9.59a3.81,3.81,0,0,0,2.4-.6,4.11,4.11,0,0,0,.52-2.6v-3.19c0-1.47-.16-2.36-.47-2.67A4.15,4.15,0,0,0,149.75,290.74Z"/><path class="cls-2" d="M180.17,271.93l5.09,34.26h-9.1l-.48-6.16h-3.19l-.53,6.16h-9.21l4.54-34.26Zm-4.72,22q-.67-5.82-1.36-14.39-1.36,9.84-1.71,14.39Z"/><path class="cls-2" d="M206.66,271.93v34.26h-7.81l-4.63-15.57v15.57h-7.45V271.93h7.45l5,15.43V271.93Z"/><path class="cls-2" d="M225.63,271.93l5.1,34.26h-9.11l-.47-6.16H218l-.53,6.16h-9.21l4.54-34.26Zm-4.72,22q-.67-5.82-1.35-14.39-1.37,9.84-1.71,14.39Z"/><path class="cls-1" d="M96,9.27h1.71l-.73,4-.24.41v.82l-.25.41-.24,1.63c-.17.67-.29,1.15-.37,1.42a3.71,3.71,0,0,1-.37.82v.82l-.73,2.17-.25,1.83a3.9,3.9,0,0,0-.49,2,14.09,14.09,0,0,0-.74,2.65l-.24,1-1.14,5a11,11,0,0,1-.49,1.83L91,38.62l-.24,1.15L90,42v.61l-.49,1.22v.82L89,45.89l-.25,1.23-.24.81-.74,3.4A22.88,22.88,0,0,1,86.54,56l-.24,1.23-.49,2.18-.73,2.65-.74,3.05c-.49,2-.82,3.65-1,4.83l-.24,1a17.14,17.14,0,0,1-1,3.26l-.24,1.63-.24.82-.17,1L81,79.26c-.49,2-.81,3.67-1,4.89A4.37,4.37,0,0,0,79.53,86a2.9,2.9,0,0,0-.5,1.36A11.69,11.69,0,0,0,78.54,90l-.49,1.64-.24,1.42-1.72,6.26-.73,3.26-.25,1.63-1.71,6.66-.24,1.42a3.08,3.08,0,0,0-.49,1.43,23.67,23.67,0,0,1-1.23,4.82,6.2,6.2,0,0,1-.48,2.25v.61a12.31,12.31,0,0,0-.74,2.85.76.76,0,0,1-.66-.41l-1.47-2.24-.24-.61-1-1.43-.24-.6-1.22-1.84a29.79,29.79,0,0,0-1-1.57l-2.69-4.48A15.94,15.94,0,0,1,60,108.61l-4.82-7.88-.25-.61-1-1.43-.24-.61-2.69-4-.74-1.22-2.45-4.08-.72-1.22-.66-1.16-.74-1.22L45,84l-.74-1.23-.73-1.22L40.1,76.27l-.48-1a20.43,20.43,0,0,0-1.23-1.84l-2.21-3.67-.49-.61a25.37,25.37,0,0,1-1.87-3.39,2.15,2.15,0,0,1-.49-.82l-2.7-4.08-.73-1.42A9.94,9.94,0,0,1,28.43,57l-1.22-1.62L26.47,54l-6-9.72a8.57,8.57,0,0,0-1-1.63L19.21,42l-1-1.43a2.07,2.07,0,0,1-.5-.82L14.8,35.15l-.74-1.22a6.81,6.81,0,0,1-1.22-2l-1.39-2.18a21.59,21.59,0,0,1-2.2-4.49l6-.81h1a1.62,1.62,0,0,1,1-.2l4.16-.62,1.47-.2L26.23,23l.73-.2h1.22L33.57,22l1.72-.2c.76-.14,1.43-.24,2-.31s1.18-.17,1.83-.3a8.72,8.72,0,0,1,1.23,2.65l2.2,5.5a8.64,8.64,0,0,1,1.22,2.79l2.45,5.5a27.68,27.68,0,0,0,1.63,4l.74,2.24a8.83,8.83,0,0,1,1.22,2.65,23.59,23.59,0,0,1,1.71,4.22l7.76,18.21a25.15,25.15,0,0,0,2,4.69l.49,1.63.74,1.43,1.22,2.78v-6a14.87,14.87,0,0,0,.24-2.85v-6a18.71,18.71,0,0,0,.25-3.26c0-2.81.08-5.24.24-7.27V47.73l.25-.61v-8.3q.49-1.83.24-7.74a13.17,13.17,0,0,0,.25-2.79V23.6L65.41,22V15.11a25.7,25.7,0,0,0,3.91-.82l2.61-.4a25.94,25.94,0,0,0,2.7-.62l3.42-.61a31.65,31.65,0,0,0,4.08-.81h.74l1.47-.41,1.22-.2L86.79,11l1.47-.2a38.54,38.54,0,0,1,4.81-.95Z"/><path class="cls-1" d="M94,30.88l27.2-4.42A17.8,17.8,0,0,1,121,32l.11.73L121,33.89l0,.79-.12,3a21.45,21.45,0,0,0-.17,3.38l-.11.54-.41,6.76c0,.85,0,1.49,0,1.93a6.1,6.1,0,0,0,0,1.21,10.64,10.64,0,0,0-.18,3.39l-.17.36L119,69.27l-.06.91-.28,4.11-.18,2.11a8.57,8.57,0,0,0,0,1.27l-.16,1.14V79.9l-.06,2-.06,1-.12.36,0,2.06-.23,2a6.15,6.15,0,0,1-.18,2.47l.06,1.27-.23,2.06a29.77,29.77,0,0,1-.17,4.71l-.06.72,0,2-.29,1.88v1a14.75,14.75,0,0,1-.12,2.78l-.4,5.61.06,1.51a26.92,26.92,0,0,0-.23,3.14l-.17,1.33.06,1.51-.35,4.65v1.33a3.5,3.5,0,0,1-3.27-.06l-4.65-.9a2.9,2.9,0,0,0-.8-.25l-1.32-.3-1.6-10.51,0-.9-.46-2.72a35.35,35.35,0,0,1-.34-3.68l-.75-4.53.06-1.09-.8-4.89a4.89,4.89,0,0,0,0-1.44l-.63-4a4.41,4.41,0,0,0-.06-1.51l-.4-2.66c-.16-1-.29-2.19-.41-3.68l-.28-1.81a6.44,6.44,0,0,1-.23-2.54L99.09,73l-.23-2.72a19.15,19.15,0,0,1-.45-4l-.81-5.2.11-.6L96.85,55l.12-.37L96.28,50l-.06-1.27-.74-5.06,0-.61-.8-5.26.12-.54-.75-4.89Z"/><path class="cls-1" d="M127.84,13.38l5-1.22,1.33-.14,1.68-.48.75.07,2.49-.61.87-.06a5.44,5.44,0,0,1,2.37-.35l5.27-1.09,1-.06A7.09,7.09,0,0,1,151.41,9l5.43-1.15.35.13,2-.54,2.72-.48a17.39,17.39,0,0,1-.58,5.71l-.06.48L161,15.62a13.39,13.39,0,0,1-.34,1.78l-.47,3.39a5.24,5.24,0,0,1-.11,1.23l-1.68,12-.23.68-.12,1.5-.23,1.49L157.54,39l-1.1,8.51-.23.68-.06,1.49-.23.88v.82L154.13,62.9l-.24,1.49a10.49,10.49,0,0,1-.29,2.38l-.17.88-.11,1.43-.24,1.5-1,7.68-.29,1.57-1,7.68-.23.69-.12,1.42-.17.88v.82a4.93,4.93,0,0,0-.35,2.18l-.23.68-.12,1-.05.88-.58,3.4a11.79,11.79,0,0,1-.29,2.38l-.06.82-.35,1.77a14.2,14.2,0,0,0,4.87-2.11,14.76,14.76,0,0,1,1.67-.61l1.92-.89a5.68,5.68,0,0,1,1.15-.47l3.59-1.5a5.44,5.44,0,0,1,2.08-1l1-.48,2.78-1.29.92-.47,1-.41,3.24-1.43.46,4.42a30.06,30.06,0,0,1,.41,4l.23,1.36-.12.48.93,7.82-4.86,1.43-.29.27-6.83,1.9-.64.35-3.07.74L158,117l-2.49.61-.64.34-2.38.61-1.09.48L142,121.86l-1.1.48-7.24,1.76L128,15Z"/><path class="cls-1" d="M183.58,37.94l9.89-3.2q15-3.9,24,4.82l.36,1.17a16.56,16.56,0,0,1-1.17,1.92l-.51,1a9.71,9.71,0,0,0-.86,1.47,6.73,6.73,0,0,0-1.11,1.67l-1.83,3.1c-.64,1.08-1.27,2-1.88,2.89l-.2.4-2.79-.4H207a12.89,12.89,0,0,0-2.23-.25,6.19,6.19,0,0,0-1.42-.21,7.94,7.94,0,0,0-2,0l-.55-.15-.67,0-4.87.26-1.11.19A13.18,13.18,0,0,0,187,59.4q-1.64,9.84,15.62,15.82a14.53,14.53,0,0,0,2.18,1.12l.61.3.36,0L208,77.81l.55.15,1.17.61q22.83,12.53,11.37,35-5.28,8.22-15.73,11.26-14.42,4.81-31.2-2.49a2.34,2.34,0,0,1-1-1l.6-2.69.21-.86.05-.51.46-1.67v-.46l.66-2.58v-.46a5.66,5.66,0,0,0,.46-2.18l1-4.11q18.87,14.61,34-3.1a10.33,10.33,0,0,0,1.22-3.39l.05-.36a9,9,0,0,0-4.46-6.14,32.24,32.24,0,0,0-4.31-2l-2.23-.76-.92-.35q-22.07-1.94-30.13-23.24a18.41,18.41,0,0,1-1.17-4.61l-.2-.61Q168.71,45.9,183.58,37.94Z"/><path class="cls-1" d="M54,123.39H66.89a11.37,11.37,0,0,1,3.2.16,16.56,16.56,0,0,1,3.59.33l1,.16h.65l.6.16,2.28.27.66.17,3,.81,1,.16,5.82,2.13a7.21,7.21,0,0,0,1.13.65l2.94,1.47.93.6.32.32,1,.65.33.17,4.18,3.91,2.12,3.05.49.65,1.63,3.86q8.7,29.09-14.4,50.11l-4.68,3.71-.32.32-1.15.65-.65.49L78,201.07a3.5,3.5,0,0,1-1.47.81,3.62,3.62,0,0,1-1.41.82l-.49.33-1.63.81-.49.16a35.48,35.48,0,0,1-3.21,1.58l-1.3.49-1.8.82a15.61,15.61,0,0,0-3.37,1.3,5.62,5.62,0,0,1-1.63.49l-4,1.47-1.14.32-1.14.33-.65.16-.66.11a11.74,11.74,0,0,1-2.23.66l-.65.16-2.93.65a3.32,3.32,0,0,1-2.07,0L45.25,209l-.33-1.14-.16-1v-.49L44.11,203l-.16-1-.17-1.15-.16-1a8.56,8.56,0,0,1-.41-1.42,7.44,7.44,0,0,1-.08-1.14l2.61-.16L47,197l4.73-.32.49-.16-.16-5.17-.17-.65v-3.53l-.16-.82v-2.45a3.72,3.72,0,0,0-.16-1.9V177.8a.94.94,0,0,1-.17-.65l-.16-8.21-.16-.65v-2.61l-.17-1.25-.16-7.61-.16-1.3v-3.7l-.16-1.31v-3.2l-.17-.49v-3.59a6,6,0,0,0-2.44-.16,7.36,7.36,0,0,0-2.72-.17l-.49-.16H42.48l-1.74-.16c-1.2-.11-2.18-.17-2.94-.17a12.73,12.73,0,0,0-1.63-.16H34.43l-1.14-.16L33,136.92c-.11-.94-.22-1.74-.33-2.39v-1.79q-.16-1.63-.33-2.61v-1.58l-.16-2.12,2-.33.92-.16.49-.16,2.77-.49a5.52,5.52,0,0,0,1.63-.32A2.35,2.35,0,0,0,41,124.8h.65l3.59-.49,1-.11,1.09-.16,5.65-.49ZM87.54,157.8q-5.66-15.87-22.28-16.15a1.05,1.05,0,0,0-1,.76v50a6.05,6.05,0,0,0,2-.33l.82-.16,1.79-.49Q91.13,183.29,87.54,157.8Z"/><path class="cls-1" d="M155.28,118.27h.36l1.64,4.14.16.62,5.24,14.06a2.57,2.57,0,0,1,.37,1l1.48,3.62v1.2l-2.17,2.63a2.77,2.77,0,0,0-1,1l-2.49,3.15-.58.67-.53.62a21.19,21.19,0,0,0-2.53,3l-1.81,2.12a11.75,11.75,0,0,1-1.42,1.65l-2.91,3.68a5.6,5.6,0,0,0-.53.62l-6.88,8.58a22.54,22.54,0,0,1,1.64,1.86l1.43,1.45.16.36a9.49,9.49,0,0,1,1.48,1.66,13.34,13.34,0,0,1,2.33,2.63l.9,1,.74.68a13.68,13.68,0,0,1,1.05,1.29,12.29,12.29,0,0,1,1.49,1.65l.68.68,1.85,2.17,1.59,1.81.9,1,.37.31a20.47,20.47,0,0,1,2.17,2.48c.49.56.92,1,1.27,1.35a15.56,15.56,0,0,1-2.33,3.31l-.37.3-.53.83a8.66,8.66,0,0,0-.9,1l-3.43,4.3-.9,1.19-.59.62-.68.52a16.17,16.17,0,0,1-1.64-2.33l-.9-1.14-.9-1.35a14.69,14.69,0,0,0-1.27-1.81l-.37-.67-2.38-3.31-.16-.31-5.24-7.44-.36-.31-.9-1.35-2-2.79-.52-1-.9-1.14a11.53,11.53,0,0,0-.17,4.6V187a4,4,0,0,1,.17,1.29l.16,6.46a12.12,12.12,0,0,1,.21,2.33l.15,3.62a4.67,4.67,0,0,0,.21,2.12l.17,6.78-3.81,2-.37.31-4.34,2.33-.9.67-.53.15-2.7,1.66h-.9l-.58-3.67-.31-1.14-.22-1-.15-1c-.15-1.21-.33-2.26-.53-3.16a12.48,12.48,0,0,0-.59-2.64l-.15-1.34-.21-1.29a25.94,25.94,0,0,1-.69-3.83l-.21-1-.53-2.48a5.26,5.26,0,0,0-.37-1.81l-.16-1.29c-.14-.9-.24-1.53-.29-1.92s-.13-.79-.24-1.24l-.37-1.34A8.34,8.34,0,0,1,116,185l-.15-1.13-.22-.52a5.93,5.93,0,0,0-.31-1.81v-.62a15.65,15.65,0,0,1-.58-3l-.17-.52-.89-5.12a12.48,12.48,0,0,1-.53-2.79c-.14-.76-.24-1.34-.29-1.73a7.07,7.07,0,0,0-.29-1.21L111.53,161v-.67a.73.73,0,0,1-.22-.62l-.52-2.84-.53-2.49a8.06,8.06,0,0,1-.21-1.65l-.16-1.14-.16-1c-.14-.65-.27-1.18-.39-1.58a4.52,4.52,0,0,1-.19-1.42,5.63,5.63,0,0,1-.32-1.65l-.21-.62-.16-1.19-.21-1-.16-1.13a8.29,8.29,0,0,1-.37-2,13.67,13.67,0,0,1-.53-2.95l-.21-.51-.32-2.28-.21-.51-.53-3.62-.37-1.19v-1.82a17.46,17.46,0,0,1,2.7-.46l3.06-.52a24.36,24.36,0,0,0,2.84-.41,24.07,24.07,0,0,1,3-.41l6.5-1,1.27-.32a2.94,2.94,0,0,0,1.27-.2,7,7,0,0,0,2-.32l2-.15,1.27-.15.16,4.91a11.79,11.79,0,0,1,.21,2.33l.37,9.41a17.16,17.16,0,0,1,.16,4.14l.16.66.21,7.09a11.5,11.5,0,0,1,.15,2l.22.82,5-8.43a3.25,3.25,0,0,0,.48-.59,5.15,5.15,0,0,0,.47-.91l1.22-2.17.95-1.44,3.07-4.81.53-1,2.7-4.45L148,130l2.75-4.29a4,4,0,0,0,.37-.67l1-1.66a5.88,5.88,0,0,0,.9-1.65l2-3Z"/><path class="cls-1" d="M191.8,125.07l3.65-.51a23.17,23.17,0,0,1,10.66.43,1.62,1.62,0,0,1,.78,1.33,21,21,0,0,0-1.08,3.69l-.29,1.31-.32,1.15-1.13,4.19a18.5,18.5,0,0,0-.87,3L202.06,144q-22.18,5.5-26.49,26-1.94,15.84,10.81,27.86,10.34,6.06,19.16-15.58l1.27,2.23.37.45,5.36,9.64.4.61.25.58,1.27,2.24.43.44,1.07,2.06q-9.19,14.46-25.71,16.62-17.83,2.24-28.84-14.37l-.57-.84-1.9-4.24q-4.86-17.28,1.74-36.63,5.46-19.25,23.33-32.48l4.17-2.2,2-.78A4.18,4.18,0,0,0,191.8,125.07Z"/><path class="cls-1" d="M80.43,230.38a2.67,2.67,0,0,0-1.14-.17V243c.73,0,1.18-.15,1.35-.44a6.33,6.33,0,0,0,.26-2.39v-7.56a9.52,9.52,0,0,0-.09-1.7A.86.86,0,0,0,80.43,230.38Z"/><path class="cls-1" d="M92.17,239.4h1.74q-.39-3.32-.77-8.18C92.63,235,92.3,237.68,92.17,239.4Z"/><path class="cls-1" d="M234.42,237.57V243a2.21,2.21,0,0,0,1.37-.34,2.41,2.41,0,0,0,.29-1.48v-1.81c0-.84-.08-1.35-.26-1.52A2.49,2.49,0,0,0,234.42,237.57Z"/><path class="cls-1" d="M168.4,230.38a2.67,2.67,0,0,0-1.14-.17V243c.73,0,1.18-.15,1.35-.44a6.33,6.33,0,0,0,.26-2.39v-7.56a9.52,9.52,0,0,0-.09-1.7A.86.86,0,0,0,168.4,230.38Z"/><path class="cls-1" d="M235.48,230.32a3.8,3.8,0,0,0-1.06-.11v4.33h.51c.49,0,.81-.12.95-.37a6.23,6.23,0,0,0,.2-2.1,3.49,3.49,0,0,0-.16-1.28A.83.83,0,0,0,235.48,230.32Z"/><path class="cls-1" d="M19.88,219.65v34.56H245.75V219.65Zm17.38,26.7H29.57l-2.92-19.47H32q.93,8,1.33,13.62c.26-3.76.53-7.09.83-10l.35-3.62h5.34Zm8.5,0H40.69V226.88h5.07Zm10.17,0H47.79V226.88h5.06v15.58h3.08Zm11.88-1.91a3.76,3.76,0,0,1-1.88,1.65,7.47,7.47,0,0,1-3.24.67,7.17,7.17,0,0,1-3.47-.78,3.76,3.76,0,0,1-1.89-2,10.12,10.12,0,0,1-.44-3.37v-1.28h4.7v2.37a3.17,3.17,0,0,0,.2,1.41.78.78,0,0,0,.71.31.83.83,0,0,0,.75-.4,2.3,2.3,0,0,0,.25-1.18,3.7,3.7,0,0,0-.47-2.25,16.32,16.32,0,0,0-2.38-1.76,23.16,23.16,0,0,1-2.5-1.82,4.26,4.26,0,0,1-1-1.56,6.84,6.84,0,0,1-.41-2.55,7.07,7.07,0,0,1,.58-3.27,3.83,3.83,0,0,1,1.84-1.62,7.52,7.52,0,0,1,3.08-.58,7.9,7.9,0,0,1,3.36.64,3.54,3.54,0,0,1,1.84,1.6,8.52,8.52,0,0,1,.46,3.29v.77H63.18v-1.44a2.77,2.77,0,0,0-.18-1.28.66.66,0,0,0-.6-.29.75.75,0,0,0-.69.38,2.09,2.09,0,0,0-.24,1.13,3.15,3.15,0,0,0,.27,1.47,3.67,3.67,0,0,0,1.43,1.19,14.52,14.52,0,0,1,4.25,3.29,7.5,7.5,0,0,1,.89,4.15A7.18,7.18,0,0,1,67.81,244.44ZM86,240.56a16.09,16.09,0,0,1-.25,3.51,2.58,2.58,0,0,1-.86,1.38,3.62,3.62,0,0,1-1.52.7,13.8,13.8,0,0,1-2.72.2H74.23V226.88H78a23.13,23.13,0,0,1,5,.34,3.81,3.81,0,0,1,2,1.1,3.61,3.61,0,0,1,.84,1.72,26.11,26.11,0,0,1,.17,3.71Zm8.35,5.79-.27-3.5H92.23l-.3,3.5H86.7l2.58-19.47h7.31l2.9,19.47Zm17.34,0h-4.44l-2.63-8.86v8.86h-4.24V226.88h4.24l2.84,8.76v-8.76h4.23Zm13.85-11h-5.06V232a6.46,6.46,0,0,0-.16-1.85.71.71,0,0,0-.72-.37.76.76,0,0,0-.79.45,6.89,6.89,0,0,0-.17,1.93v9a6.39,6.39,0,0,0,.17,1.85.71.71,0,0,0,.75.43.71.71,0,0,0,.75-.43,7.41,7.41,0,0,0,.17-2v-2.45h5.06v.76a15.23,15.23,0,0,1-.42,4.29,4.42,4.42,0,0,1-1.89,2.21,6.44,6.44,0,0,1-3.6,1,7.44,7.44,0,0,1-3.67-.81,3.92,3.92,0,0,1-1.91-2.23,14.4,14.4,0,0,1-.47-4.29v-5.68a26.74,26.74,0,0,1,.14-3.16,4.45,4.45,0,0,1,.86-2,4.85,4.85,0,0,1,2-1.53,8.12,8.12,0,0,1,6.6.3,4.21,4.21,0,0,1,1.92,2.16,13.16,13.16,0,0,1,.45,4Zm10.6,11h-8.78V226.88h8.44v3.9h-3.38v3.68h3.16v3.71h-3.16v4.29h3.72Zm12.9,0L147,238v8.35h-5.06V226.88H147v7.56l2.26-7.56H154l-2.9,8.79,3.18,10.68Zm11.17,0h-5.06V226.88h5.06Zm13.76-5.79a16.09,16.09,0,0,1-.25,3.51,2.58,2.58,0,0,1-.86,1.38,3.58,3.58,0,0,1-1.51.7,13.87,13.87,0,0,1-2.72.2H162.2V226.88H166a23.13,23.13,0,0,1,5,.34,3.81,3.81,0,0,1,2,1.1,3.52,3.52,0,0,1,.84,1.72,26.11,26.11,0,0,1,.17,3.71Zm12.54,3.88a3.84,3.84,0,0,1-1.88,1.65,7.51,7.51,0,0,1-3.25.67,7.13,7.13,0,0,1-3.46-.78,3.76,3.76,0,0,1-1.89-2,9.87,9.87,0,0,1-.44-3.37v-1.28h4.7v2.37a3.17,3.17,0,0,0,.2,1.41.77.77,0,0,0,.71.31.83.83,0,0,0,.75-.4,2.31,2.31,0,0,0,.24-1.18,3.7,3.7,0,0,0-.47-2.25,15.47,15.47,0,0,0-2.37-1.76,22.14,22.14,0,0,1-2.5-1.82,4,4,0,0,1-1-1.56,6.84,6.84,0,0,1-.41-2.55,7.22,7.22,0,0,1,.57-3.27,3.9,3.9,0,0,1,1.85-1.62,7.52,7.52,0,0,1,3.08-.58,8,8,0,0,1,3.36.64,3.54,3.54,0,0,1,1.84,1.6,8.56,8.56,0,0,1,.45,3.29v.77h-4.7v-1.44a2.6,2.6,0,0,0-.19-1.28.64.64,0,0,0-.6-.29.75.75,0,0,0-.68.38,2.09,2.09,0,0,0-.24,1.13,3.15,3.15,0,0,0,.27,1.47,3.67,3.67,0,0,0,1.43,1.19,14.67,14.67,0,0,1,4.25,3.29,7.51,7.51,0,0,1,.88,4.15A7.2,7.2,0,0,1,186.47,244.44Zm18.24-9.08h-5.06V232a6,6,0,0,0-.17-1.85.71.71,0,0,0-.71-.37.75.75,0,0,0-.79.45,6.4,6.4,0,0,0-.18,1.93v9A5.94,5.94,0,0,0,198,243a.86.86,0,0,0,1.49,0,6.89,6.89,0,0,0,.18-2v-2.45h5.06v.76a14.78,14.78,0,0,1-.43,4.29,4.44,4.44,0,0,1-1.88,2.21,6.46,6.46,0,0,1-3.61,1,7.4,7.4,0,0,1-3.66-.81,4,4,0,0,1-1.92-2.23,14.74,14.74,0,0,1-.47-4.29v-5.68a24.31,24.31,0,0,1,.15-3.16,4.45,4.45,0,0,1,.86-2,4.79,4.79,0,0,1,2-1.53,8.12,8.12,0,0,1,6.6.3,4.15,4.15,0,0,1,1.91,2.16,12.79,12.79,0,0,1,.46,4Zm10,11h-8.14V226.88h5.06v15.58h3.08Zm12.73-6.46a24,24,0,0,1-.14,3.11,4.28,4.28,0,0,1-.85,1.84,4.42,4.42,0,0,1-1.88,1.43,7.08,7.08,0,0,1-2.73.49,7.8,7.8,0,0,1-3.08-.58,4.58,4.58,0,0,1-2-1.5,4.18,4.18,0,0,1-.78-2q-.12-1-.12-4.32V226.88h5.06v14.6a5.35,5.35,0,0,0,.15,1.63.53.53,0,0,0,.55.35.61.61,0,0,0,.63-.39,8.11,8.11,0,0,0,.13-1.84V226.88h5.06Zm13.75,1.89a7.34,7.34,0,0,1-.45,2.92,2.46,2.46,0,0,1-1.44,1.3,14.83,14.83,0,0,1-4,.35h-5.86V226.88h5a13.38,13.38,0,0,1,3.63.37,3.6,3.6,0,0,1,2,1.51,6.75,6.75,0,0,1,.76,3.66,4,4,0,0,1-.53,2.38,3.79,3.79,0,0,1-2.11,1,3.79,3.79,0,0,1,2.38,1.32,5,5,0,0,1,.63,2.83Z"/><polygon class="cls-1" points="221.99 145.69 223.12 160.22 235.73 167.54 222.25 173.1 219.2 187.35 209.75 176.26 195.25 177.75 202.88 165.34 196.97 152.01 211.14 155.43 221.99 145.69"/><path class="cls-1" d="M58,271.93v6.86H52.72v27.4H43.81v-27.4H38.55v-6.86Z"/><path class="cls-1" d="M73.7,271.93l5.1,34.26H69.69L69.22,300H66l-.54,6.16h-9.2l4.54-34.26ZM69,294q-.67-5.82-1.35-14.39-1.36,9.84-1.71,14.39Z"/><path class="cls-1" d="M101.11,286.85H92.2v-6a10.66,10.66,0,0,0-.28-3.24,1.25,1.25,0,0,0-1.26-.65,1.32,1.32,0,0,0-1.4.78,11.82,11.82,0,0,0-.3,3.39v15.91a11,11,0,0,0,.3,3.26,1.26,1.26,0,0,0,1.33.76,1.24,1.24,0,0,0,1.3-.76,12.26,12.26,0,0,0,.31-3.59v-4.3h8.91v1.33a26.31,26.31,0,0,1-.75,7.54,7.67,7.67,0,0,1-3.32,3.9,11.37,11.37,0,0,1-6.34,1.68,13.16,13.16,0,0,1-6.45-1.42,6.87,6.87,0,0,1-3.37-3.93,25.75,25.75,0,0,1-.82-7.54V284a44.6,44.6,0,0,1,.25-5.55,7.76,7.76,0,0,1,1.51-3.56,8.38,8.38,0,0,1,3.49-2.7,14.22,14.22,0,0,1,11.63.54,7.21,7.21,0,0,1,3.36,3.79,22.63,22.63,0,0,1,.81,7.07Z"/><path class="cls-1" d="M124.78,271.93v34.26h-8.9V291.8h-2.67v14.39H104.3V271.93h8.91v12.25h2.67V271.93Z"/><path class="cls-1" d="M137.27,271.93v34.26h-8.91V271.93Z"/><path class="cls-1" d="M140.84,271.93h8.89a23.35,23.35,0,0,1,6.38.66,6.36,6.36,0,0,1,3.5,2.65c.89,1.34,1.33,3.48,1.33,6.44,0,2-.31,3.4-.94,4.19a6.63,6.63,0,0,1-3.71,1.82c2.05.46,3.45,1.23,4.18,2.31a8.9,8.9,0,0,1,1.11,5v3.17a12.61,12.61,0,0,1-.8,5.15,4.28,4.28,0,0,1-2.53,2.28q-1.73.62-7.11.62h-10.3Zm8.91,5.86v7.62l.89,0c.87,0,1.43-.22,1.67-.65a10.54,10.54,0,0,0,.36-3.69,5.88,5.88,0,0,0-.3-2.25,1.4,1.4,0,0,0-.77-.81A6.68,6.68,0,0,0,149.75,277.79Zm0,12.95v9.59a3.81,3.81,0,0,0,2.4-.6,4.11,4.11,0,0,0,.52-2.6v-3.19c0-1.47-.16-2.36-.47-2.67A4.15,4.15,0,0,0,149.75,290.74Z"/><path class="cls-1" d="M180.17,271.93l5.09,34.26h-9.1l-.48-6.16h-3.19l-.53,6.16h-9.21l4.54-34.26Zm-4.72,22q-.67-5.82-1.36-14.39-1.36,9.84-1.71,14.39Z"/><path class="cls-1" d="M206.66,271.93v34.26h-7.81l-4.63-15.57v15.57h-7.45V271.93h7.45l5,15.43V271.93Z"/><path class="cls-1" d="M225.63,271.93l5.1,34.26h-9.11l-.47-6.16H218l-.53,6.16h-9.21l4.54-34.26Zm-4.72,22q-.67-5.82-1.35-14.39-1.37,9.84-1.71,14.39Z"/></svg>