<svg id="レイヤー_1" data-name="レイヤー 1" xmlns="http://www.w3.org/2000/svg" viewBox="0 0 393.95 53"><defs><style>.cls-1{fill:#fff;}</style></defs><title>img_logo02</title><path class="cls-1" d="M15.27.41h.3l-.13.71v.57l-.07.25a.35.35,0,0,1-.06.14v.14l-.13.38v.32a.74.74,0,0,0-.09.36,2.52,2.52,0,0,0-.13.47v.18l-.2.88a1.68,1.68,0,0,1-.09.32l-.09.43v.2l-.13.4v.11l-.09.22v.14L14,6.86v.36l-.13.6a4.07,4.07,0,0,1-.22.83v.22l-.09.38-.13.47-.13.54a8.36,8.36,0,0,0-.17.85v.18a2.69,2.69,0,0,1-.17.57v.61l-.09.28a8.45,8.45,0,0,0-.17.86.9.9,0,0,0-.09.32.5.5,0,0,0-.09.24,1.86,1.86,0,0,0-.09.47l-.09.29v.25l-.3,1.1-.13.57v.29l-.3,1.17v.25a.54.54,0,0,0-.09.25,4.08,4.08,0,0,1-.22.85.93.93,0,0,1-.09.4v.11a2.17,2.17,0,0,0-.13.5A.14.14,0,0,1,11,20.6l-.26-.39V20.1l-.17-.25v-.11l-.22-.32a.42.42,0,0,1-.09-.14.38.38,0,0,1-.09-.13l-.47-.79a3.3,3.3,0,0,1-.3-.43l-.85-1.39v-.11l-.17-.25v-.11l-.47-.71-.13-.21-.43-.72-.13-.22L6.55,14l-.13-.22-.13-.22-.13-.22L6,13.13l-.6-.92L5.35,12a3.62,3.62,0,0,0-.22-.32L4.74,11l-.08,0a5.76,5.76,0,0,1-.33-.6.42.42,0,0,1-.09-.14l-.47-.72-.13-.25a1.83,1.83,0,0,1-.26-.42l-.22-.29L3,8.28,2,6.57a1.69,1.69,0,0,0-.17-.29V6.17l-.17-.25a.42.42,0,0,1-.09-.14L1,5,.85,4.76A1.34,1.34,0,0,1,.63,4.4L.39,4A3.79,3.79,0,0,1,0,3.22l1.06-.14h.17a.25.25,0,0,1,.17,0L2.13,3h.26L3,2.83h.35l.95-.14h.3l.35,0,.32-.05A1.59,1.59,0,0,1,5.48,3l.39,1a1.45,1.45,0,0,1,.22.49l.43,1a4.81,4.81,0,0,0,.29.71l.13.39a1.56,1.56,0,0,1,.2.41,4.78,4.78,0,0,1,.3.74L8.81,11a4.05,4.05,0,0,0,.35.83l.09.29.13.25.21.49v-1.1a2.09,2.09,0,0,0,0-.5V10.14a2.71,2.71,0,0,0,0-.57V5.62a6.18,6.18,0,0,0,0-1.36,2,2,0,0,0,0-.49V1.44a5.63,5.63,0,0,0,.69-.14L11,1.23l.47-.11.6-.11a6.1,6.1,0,0,0,.72-.14H13L13.22.8h.7a8,8,0,0,1,.85-.17Z"/><path class="cls-1" d="M14.93,4.22l4.79-.78a3.35,3.35,0,0,1,0,1v1a2.91,2.91,0,0,0,0,.59v.1l-.07,1.19v.34a.74.74,0,0,0,0,.21,2,2,0,0,0,0,.6v.06L19.32,11v.16l-.05.72v.37a.81.81,0,0,0,0,.22v1.7a1.09,1.09,0,0,1,0,.44v.58A5.5,5.5,0,0,1,19,16v.49l-.05.33V17a4,4,0,0,1,0,.49l-.07,1v.27a5,5,0,0,0,0,.55v.5l-.06.82v.23a.6.6,0,0,1-.58,0l-.82-.16h-.14L17,20.59l-.28-1.85v-.16l-.08-.48c0-.22-.05-.43-.06-.65l-.13-.8v-.19l-.14-.86a1,1,0,0,0,0-.25l-.11-.7a.61.61,0,0,0,0-.27l-.07-.47a3.52,3.52,0,0,0-.07-.65L16,12.94a1.14,1.14,0,0,1,0-.45l-.13-.86v-.48a3.36,3.36,0,0,1-.08-.71l-.14-.91V9.42l-.15-1V8.36l-.12-.83V7.35l-.13-.89V6.35L15,5.43V5.34l-.13-.86Z"/><path class="cls-1" d="M20.88,1.14l.89-.22L22,.9l.3-.08h.13l.44-.11H23a1,1,0,0,1,.42-.06l.93-.19h.18A1.28,1.28,0,0,1,25,.36l1-.2h.06L26.4.08,26.88,0a3.07,3.07,0,0,1-.1,1v.08l-.05.44a1.7,1.7,0,0,1-.06.31l-.08.6a.81.81,0,0,1,0,.22l-.3,2.11V5.4l-.05.23-.19,1.5v.68l-.32,2v.26a2,2,0,0,1-.05.42v.67l-.18,1.35-.05.28-.18,1.35v.67a.82.82,0,0,0-.06.38v.46l-.1.6a2,2,0,0,1-.05.42v.14l-.06.31a2.44,2.44,0,0,0,.86-.37l.3-.11.34-.16.2-.08.63-.26A1,1,0,0,1,27.7,16l.17-.08.49-.23.16-.08.17-.07.57-.25.08.78a5.51,5.51,0,0,1,.07.71v.32l.16,1.38-.86.25h-.05l-1.2.33-.11.06-.54.13-.11.07-.44.11-.11.06-.42.11-.19.08-1.65.49-.19.08-1.27.31-1-19.2Z"/><path class="cls-1" d="M30.69,5.46l1.74-.56a4.18,4.18,0,0,1,4.22.85l.06.21a2.39,2.39,0,0,1-.21.34l-.09.17a1.35,1.35,0,0,0-.15.26,1.15,1.15,0,0,0-.2.29l-.32.54a5.65,5.65,0,0,1-.33.51v.07l-.49-.07H32.54a2.3,2.3,0,0,0-1.25,1.2Q31,11,34,12a2.75,2.75,0,0,0,.38.2l.11.05h.06l.38.2H35l.21.11q4,2.2,2,6.16a4.73,4.73,0,0,1-2.77,2,7.51,7.51,0,0,1-5.47-.4.39.39,0,0,1-.18-.18l.11-.47v-.24l.08-.29v-.08l.12-.46v-.08a1,1,0,0,0,.08-.38l.17-.72q3.32,2.56,6-.54a1.87,1.87,0,0,0,.21-.6V16.2a1.59,1.59,0,0,0-.79-1.08,5.23,5.23,0,0,0-.76-.35l-.39-.13-.16-.06a5.86,5.86,0,0,1-5.3-4.09A3.22,3.22,0,0,1,28,9.68V9.57A4.55,4.55,0,0,1,30.69,5.46Z"/><path class="cls-1" d="M7.87,20.5h2.28a1.75,1.75,0,0,1,.56,0,3.36,3.36,0,0,1,.63.06h.92l.54.14H13l1,.37.2.12.52.26.16.11.06.06.17.11h.06l.74.69.37.54.09.11.29.68a8,8,0,0,1-2.54,8.82l-.82.65-.06.06-.2.12-.11.09-.79.48a.6.6,0,0,1-.26.14.77.77,0,0,1-.25.14l-.09.06-.29.14h-.09a5.51,5.51,0,0,1-.56.28l-.23.09L10,35.2a2.67,2.67,0,0,0-.59.23,1.4,1.4,0,0,1-.29.09l-.71.26-.2.06L8,35.9H7.78a2.91,2.91,0,0,1-.39.12H7.28l-.52.11a.55.55,0,0,1-.36,0l-.09-.62-.06-.2v-.26l-.11-.59v-.54A1.33,1.33,0,0,1,6,33.73a.67.67,0,0,1,0-.2h.68l.83-.06H7.6V31.25a.62.62,0,0,0,0-.33v-.75a.24.24,0,0,1,0-.12V24a1,1,0,0,0-.43,0,1.29,1.29,0,0,0-.48,0H4.23l-.06-.91a.89.89,0,0,0-.06-.42v-.32a1,1,0,0,0-.06-.46v-.28L4,21h.63l.49-.09a1.36,1.36,0,0,0,.29-.06h.3l.63-.09H6.7l1-.09Zm5.91,6.06a3.91,3.91,0,0,0-3.92-2.84.18.18,0,0,0-.17.13v8.79a1,1,0,0,0,.34-.06h.14l.32-.09Q14.41,31,13.78,26.56Z"/><path class="cls-1" d="M25.71,19.6h.06l.29.73v.11L27,22.92a.36.36,0,0,1,.07.17l.26.64v.21L27,24.4a.46.46,0,0,0-.17.17l-.44.55-.1.12-.09.11a3.24,3.24,0,0,0-.45.53l-.32.37a2.26,2.26,0,0,1-.25.29l-.51.65-.09.11-1.21,1.51a3.11,3.11,0,0,1,.29.33l.25.25v.06a1.8,1.8,0,0,1,.26.29,2.25,2.25,0,0,1,.41.46l.16.17.13.12.19.23a2.35,2.35,0,0,1,.26.29l.12.12.33.38.28.32.16.17.07,0a3.16,3.16,0,0,1,.38.44l.22.24a2.64,2.64,0,0,1-.41.58l-.06,0-.09.15-.16.17-.61.76-.16.21-.1.11-.12.09a2.34,2.34,0,0,1-.29-.41l-.16-.2L24.53,34a3.62,3.62,0,0,0-.22-.32l-.06-.12L23.82,33v0l-.92-1.31-.06-.05-.16-.24-.35-.49-.09-.17-.16-.2a1.85,1.85,0,0,0,0,.81v.41a.89.89,0,0,1,0,.23v1.14a2.81,2.81,0,0,1,0,.41v.64a.77.77,0,0,0,0,.37v1.19l-.67.35-.07.06-.76.41-.16.12h-.09l-.48.29h-.16l-.1-.65-.06-.2v-.34a5,5,0,0,0-.09-.56,2.36,2.36,0,0,0-.1-.46v-.47a3.76,3.76,0,0,1-.12-.67V33.4l-.13-.4a.88.88,0,0,0-.07-.32v-.23L19,32.11v-.22l-.07-.24a1.41,1.41,0,0,1,0-.29v-.29a.87.87,0,0,0-.06-.32v-.11a3.1,3.1,0,0,1-.1-.53V30l-.16-.9a2,2,0,0,1-.09-.49.56.56,0,0,0,0-.31,1.6,1.6,0,0,0-.05-.21l-.19-1V27a.11.11,0,0,1,0-.11l-.09-.5L17.78,26a1.41,1.41,0,0,1,0-.29v-.37a.36.36,0,0,0-.07-.28,1,1,0,0,1,0-.25,1.36,1.36,0,0,1-.06-.29v-.69a1.36,1.36,0,0,1-.07-.35,2.27,2.27,0,0,1-.09-.52v-.09l-.06-.4v-.09L17,21.7v-.53a2.43,2.43,0,0,1,.47-.08L18,21l.5-.07a4.81,4.81,0,0,1,.53-.07l1.15-.17.22-.06a.41.41,0,0,0,.22,0,1,1,0,0,0,.34-.06h.57v.86a2.81,2.81,0,0,1,0,.41l.06,1.66a3,3,0,0,1,0,.73V25.6a2.16,2.16,0,0,1,0,.36v.15l.88-1.48.08-.1a.8.8,0,0,0,.08-.16l.22-.38.17-.25.54-.85.09-.17.48-.78.09-.15L24.7,21l.3-.23.19-.29a1.18,1.18,0,0,0,.16-.29l.35-.53Z"/><path class="cls-1" d="M32.14,20.8l.64-.09a4.12,4.12,0,0,1,1.88.08.3.3,0,0,1,.14.23,3.72,3.72,0,0,0-.19.65l0,.23-.06.2-.2.74a4.61,4.61,0,0,0-.15.53l-.2.77a5.73,5.73,0,0,0-4.66,4.58,5.53,5.53,0,0,0,1.9,4.9c1.21.71,2.34-.2,3.37-2.74l.22.39.07.08.94,1.7.07.11v.1l.22.39.07.08.19.36A6.08,6.08,0,0,1,31.86,37a5,5,0,0,1-5.08-2.53l-.1-.15-.33-.75a10.61,10.61,0,0,1,.31-6.45,10.61,10.61,0,0,1,4.11-5.72l.73-.4.35-.14A.72.72,0,0,0,32.14,20.8Z"/><path class="cls-1" d="M12.53,39.34a.34.34,0,0,0-.2,0v2.25c.13,0,.21,0,.24-.08a1,1,0,0,0,0-.42V39.73a1.5,1.5,0,0,0,0-.3A.15.15,0,0,0,12.53,39.34Z"/><path class="cls-1" d="M14.6,40.92h.31c-.05-.39-.09-.87-.14-1.44C14.68,40.14,14.62,40.62,14.6,40.92Z"/><path class="cls-1" d="M39.64,40.6v1a.35.35,0,0,0,.24-.06.47.47,0,0,0,0-.26v-.59A.39.39,0,0,0,39.64,40.6Z"/><path class="cls-1" d="M28,39.34a.34.34,0,0,0-.2,0v2.25c.13,0,.21,0,.24-.08a1,1,0,0,0,0-.42V39.73a1.5,1.5,0,0,0,0-.3A.15.15,0,0,0,28,39.34Z"/><path class="cls-1" d="M39.82,39.33h-.19v.76h.09c.09,0,.14,0,.17-.06a1.15,1.15,0,0,0,0-.37.89.89,0,0,0,0-.23A.14.14,0,0,0,39.82,39.33Z"/><path class="cls-1" d="M1.87,37.45v6.08H41.63V37.45Zm3.06,4.7H3.58l-.51-3.43H4c.11,1,.18,1.75.23,2.4,0-.67.1-1.25.15-1.76l.06-.64h.94Zm1.49,0H5.54V38.72h.89Zm1.79,0H6.78V38.72h.89v2.74h.54Zm2.09-.34a.67.67,0,0,1-.33.29,1.39,1.39,0,0,1-.57.12,1.3,1.3,0,0,1-.61-.14.64.64,0,0,1-.33-.34,1.68,1.68,0,0,1-.08-.59v-.22h.83v.42a.53.53,0,0,0,0,.25.13.13,0,0,0,.12,0,.17.17,0,0,0,.13-.07.38.38,0,0,0,0-.21.62.62,0,0,0-.08-.4A2.85,2.85,0,0,0,9,40.66a4.48,4.48,0,0,1-.44-.32.8.8,0,0,1-.18-.27,1.15,1.15,0,0,1-.07-.45,1.27,1.27,0,0,1,.1-.58.69.69,0,0,1,.32-.29,1.4,1.4,0,0,1,.54-.1,1.35,1.35,0,0,1,.59.11.59.59,0,0,1,.32.28,1.43,1.43,0,0,1,.08.58v.13H9.49V39.5a.45.45,0,0,0,0-.23.11.11,0,0,0-.11,0,.14.14,0,0,0-.12.07.34.34,0,0,0,0,.2.57.57,0,0,0,0,.26.64.64,0,0,0,.25.21,2.48,2.48,0,0,1,.75.58,1.33,1.33,0,0,1,.16.73,1.17,1.17,0,0,1-.11.49Zm3.19-.68a3.21,3.21,0,0,1,0,.62.47.47,0,0,1-.15.24.66.66,0,0,1-.27.12,1.93,1.93,0,0,1-.48,0H11.44V38.72h.67a4.25,4.25,0,0,1,.87.06.67.67,0,0,1,.35.19.57.57,0,0,1,.15.3,3.53,3.53,0,0,1,0,.65Zm1.47,1v-.62h-.32l-.05.62h-.92l.45-3.43h1.29l.51,3.43Zm3.05,0h-.78l-.46-1.56v1.56H16V38.72h.75l.5,1.54V38.72H18Zm2.44-1.93h-.89v-.6a.86.86,0,0,0,0-.32.12.12,0,0,0-.13-.07.12.12,0,0,0-.14.08,1,1,0,0,0,0,.34v1.59a.92.92,0,0,0,0,.33.15.15,0,0,0,.2.06.17.17,0,0,0,.06-.06,1.09,1.09,0,0,0,0-.36v-.43h.89v.13a2.7,2.7,0,0,1-.08.75A.79.79,0,0,1,20,42a1.09,1.09,0,0,1-.63.17,1.32,1.32,0,0,1-.65-.14.69.69,0,0,1-.34-.39,2.77,2.77,0,0,1-.08-.76v-1a5.23,5.23,0,0,1,0-.56.82.82,0,0,1,.15-.36.85.85,0,0,1,.35-.27A1.45,1.45,0,0,1,20,38.8a.7.7,0,0,1,.34.38,2.42,2.42,0,0,1,.08.71Zm1.87,1.93H20.79V38.72h1.49v.69h-.59v.65h.56v.65h-.56v.75h.65Zm2.27,0-.36-1.47v1.47h-.89V38.72h.89v1.33l.4-1.33h.84L25,40.27l.56,1.88Zm2,0H25.7V38.72h.89Zm2.42-1a3.21,3.21,0,0,1,0,.62.47.47,0,0,1-.15.24.66.66,0,0,1-.27.12,1.93,1.93,0,0,1-.48,0H26.93V38.72h.67a4.25,4.25,0,0,1,.87.06.67.67,0,0,1,.35.19.57.57,0,0,1,.15.3,3.53,3.53,0,0,1,0,.65Zm2.21.68a.67.67,0,0,1-.33.29,1.39,1.39,0,0,1-.57.12,1.3,1.3,0,0,1-.61-.14.64.64,0,0,1-.33-.34,1.68,1.68,0,0,1-.08-.59v-.22h.83v.42a.53.53,0,0,0,0,.25.13.13,0,0,0,.12,0,.17.17,0,0,0,.13-.07.38.38,0,0,0,0-.21.62.62,0,0,0-.08-.4,2.53,2.53,0,0,0-.42-.31,4.48,4.48,0,0,1-.44-.32.8.8,0,0,1-.18-.27,1.15,1.15,0,0,1-.07-.45,1.27,1.27,0,0,1,.1-.58.65.65,0,0,1,.32-.29,1.4,1.4,0,0,1,.54-.1,1.35,1.35,0,0,1,.59.11.59.59,0,0,1,.32.28,1.43,1.43,0,0,1,.08.58v.13h-.83V39.5a.45.45,0,0,0,0-.23.11.11,0,0,0-.11,0,.14.14,0,0,0-.12.07.34.34,0,0,0,0,.2.57.57,0,0,0,0,.26.64.64,0,0,0,.25.21,2.48,2.48,0,0,1,.75.58,1.33,1.33,0,0,1,.16.73,1.36,1.36,0,0,1,0,.49Zm3.21-1.6h-.89v-.6a.86.86,0,0,0,0-.32.12.12,0,0,0-.13-.07.12.12,0,0,0-.14.08,1,1,0,0,0,0,.34v1.59a.91.91,0,0,0,0,.33.15.15,0,0,0,.2.06l.06-.06a1.09,1.09,0,0,0,0-.36v-.43h.89v.13a2.7,2.7,0,0,1-.08.75A.79.79,0,0,1,34,42a1.09,1.09,0,0,1-.63.17,1.32,1.32,0,0,1-.65-.14.69.69,0,0,1-.34-.39,2.77,2.77,0,0,1-.08-.76v-1a5.23,5.23,0,0,1,0-.56.82.82,0,0,1,.15-.36.85.85,0,0,1,.35-.27A1.42,1.42,0,0,1,34,38.8a.7.7,0,0,1,.34.38,2.42,2.42,0,0,1,.08.71Zm1.75,1.93H34.73V38.72h.89v2.74h.54ZM38.4,41a5,5,0,0,1,0,.55.73.73,0,0,1-.15.32.81.81,0,0,1-.33.25,1.32,1.32,0,0,1-.48.09,1.44,1.44,0,0,1-.54-.1.75.75,0,0,1-.35-.26.85.85,0,0,1-.14-.34V38.75h.89v2.57a1.41,1.41,0,0,0,0,.29.09.09,0,0,0,.1.06.09.09,0,0,0,.11-.07,1.71,1.71,0,0,0,0-.32V38.72h.89Zm2.42.33a1.27,1.27,0,0,1-.08.51.43.43,0,0,1-.25.23,2.8,2.8,0,0,1-.71.06h-1V38.72h.89a2.29,2.29,0,0,1,.64.07.61.61,0,0,1,.35.26,1.19,1.19,0,0,1,.13.64.68.68,0,0,1-.09.42.65.65,0,0,1-.37.18.66.66,0,0,1,.42.23,1,1,0,0,1,.11.5Z"/><polygon class="cls-1" points="37.45 24.43 37.65 26.99 39.87 28.27 37.5 29.25 36.96 31.76 35.3 29.81 32.74 30.07 34.09 27.89 33.05 25.54 35.54 26.14 37.45 24.43"/><path class="cls-1" d="M12.48,49.37v1.29a1.45,1.45,0,0,1-.88,1.18,2.12,2.12,0,0,1-.9.17,2.35,2.35,0,0,1-.87-.16,1.46,1.46,0,0,1-.9-1.17c0-.44,0-.87,0-1.31V47.08a1.45,1.45,0,0,1,.88-1.18,2.12,2.12,0,0,1,.9-.17,2.35,2.35,0,0,1,.87.16,1.44,1.44,0,0,1,.9,1.17c0,.44,0,.87,0,1.31Zm-1.57-2a1.63,1.63,0,0,0,0-.54.18.18,0,0,0-.19-.12.21.21,0,0,0-.19.1,1.33,1.33,0,0,0-.07.56V50.2a2.36,2.36,0,0,0,0,.65.19.19,0,0,0,.2.12.19.19,0,0,0,.21-.14,2.58,2.58,0,0,0,0-.68Z"/><path class="cls-1" d="M17.32,47.65H15.86V47.2a.91.91,0,0,0-.06-.4.21.21,0,0,0-.19-.09.22.22,0,0,0-.21.12.71.71,0,0,0-.07.35,1,1,0,0,0,.08.46,1.21,1.21,0,0,0,.44.37,4.48,4.48,0,0,1,1.32,1,2.41,2.41,0,0,1,.27,1.29,2.28,2.28,0,0,1-.15,1,1.2,1.2,0,0,1-.58.51,2.3,2.3,0,0,1-1,.21,2.25,2.25,0,0,1-1.08-.24,1.15,1.15,0,0,1-.58-.61,3.1,3.1,0,0,1-.14-1.05v-.4h1.46v.74a1.09,1.09,0,0,0,.06.44.23.23,0,0,0,.22.1.27.27,0,0,0,.23-.12.67.67,0,0,0,.08-.37,1.15,1.15,0,0,0-.15-.7,4.89,4.89,0,0,0-.74-.55,8.54,8.54,0,0,1-.78-.56,1.34,1.34,0,0,1-.32-.49,2.12,2.12,0,0,1-.13-.79,2.14,2.14,0,0,1,.18-1,1.21,1.21,0,0,1,.57-.5,2.3,2.3,0,0,1,1-.18,2.48,2.48,0,0,1,1,.2,1.07,1.07,0,0,1,.57.5,2.61,2.61,0,0,1,.14,1Z"/><path class="cls-1" d="M21.58,45.82l.9,6H20.87l-.08-1.09h-.56l-.09,1.09H18.51l.8-6Zm-.83,3.89c-.08-.67-.16-1.51-.24-2.54-.16,1.16-.26,2-.3,2.54Z"/><path class="cls-1" d="M27.42,45.82l-.9,2.73,1,3.32H25.88l-.64-2.59v2.59H23.67v-6h1.57v2.35l.7-2.35Z"/><path class="cls-1" d="M31.41,45.82l.9,6h-1.6l-.08-1.09h-.56L30,51.87H28.34l.8-6Zm-.83,3.89c-.08-.67-.16-1.51-.24-2.54-.16,1.16-.26,2-.3,2.54Z"/><path class="cls-1" d="M15.27.41h.3l-.13.71v.57l-.07.25a.35.35,0,0,1-.06.14v.14l-.13.38v.32a.74.74,0,0,0-.09.36,2.52,2.52,0,0,0-.13.47v.18l-.2.88a1.68,1.68,0,0,1-.09.32l-.09.43v.2l-.13.4v.11l-.09.22v.14L14,6.86v.36l-.13.6a4.07,4.07,0,0,1-.22.83v.22l-.09.38-.13.47-.13.54a8.36,8.36,0,0,0-.17.85v.18a2.69,2.69,0,0,1-.17.57v.61l-.09.28a8.45,8.45,0,0,0-.17.86.9.9,0,0,0-.09.32.5.5,0,0,0-.09.24,1.86,1.86,0,0,0-.09.47l-.09.29v.25l-.3,1.1-.13.57v.29l-.3,1.17v.25a.54.54,0,0,0-.09.25,4.08,4.08,0,0,1-.22.85.93.93,0,0,1-.09.4v.11a2.17,2.17,0,0,0-.13.5A.14.14,0,0,1,11,20.6l-.26-.39V20.1l-.17-.25v-.11l-.22-.32a.42.42,0,0,1-.09-.14.38.38,0,0,1-.09-.13l-.47-.79a3.3,3.3,0,0,1-.3-.43l-.85-1.39v-.11l-.17-.25v-.11l-.47-.71-.13-.21-.43-.72-.13-.22L6.55,14l-.13-.22-.13-.22-.13-.22L6,13.13l-.6-.92L5.35,12a3.62,3.62,0,0,0-.22-.32L4.74,11l-.08,0a5.76,5.76,0,0,1-.33-.6.42.42,0,0,1-.09-.14l-.47-.72-.13-.25a1.83,1.83,0,0,1-.26-.42l-.22-.29L3,8.28,2,6.57a1.69,1.69,0,0,0-.17-.29V6.17l-.17-.25a.42.42,0,0,1-.09-.14L1,5,.85,4.76A1.34,1.34,0,0,1,.63,4.4L.39,4A3.79,3.79,0,0,1,0,3.22l1.06-.14h.17a.25.25,0,0,1,.17,0L2.13,3h.26L3,2.83h.35l.95-.14h.3l.35,0,.32-.05A1.59,1.59,0,0,1,5.48,3l.39,1a1.45,1.45,0,0,1,.22.49l.43,1a4.81,4.81,0,0,0,.29.71l.13.39a1.56,1.56,0,0,1,.2.41,4.78,4.78,0,0,1,.3.74L8.81,11a4.05,4.05,0,0,0,.35.83l.09.29.13.25.21.49v-1.1a2.09,2.09,0,0,0,0-.5V10.14a2.71,2.71,0,0,0,0-.57V5.62a6.18,6.18,0,0,0,0-1.36,2,2,0,0,0,0-.49V1.44a5.63,5.63,0,0,0,.69-.14L11,1.23l.47-.11.6-.11a6.1,6.1,0,0,0,.72-.14H13L13.22.8h.7a8,8,0,0,1,.85-.17Z"/><path class="cls-1" d="M14.93,4.22l4.79-.78a3.35,3.35,0,0,1,0,1v1a2.91,2.91,0,0,0,0,.59v.1l-.07,1.19v.34a.74.74,0,0,0,0,.21,2,2,0,0,0,0,.6v.06L19.32,11v.16l-.05.72v.37a.81.81,0,0,0,0,.22v1.7a1.09,1.09,0,0,1,0,.44v.58A5.5,5.5,0,0,1,19,16v.49l-.05.33V17a4,4,0,0,1,0,.49l-.07,1v.27a5,5,0,0,0,0,.55v.5l-.06.82v.23a.6.6,0,0,1-.58,0l-.82-.16h-.14L17,20.59l-.28-1.85v-.16l-.08-.48c0-.22-.05-.43-.06-.65l-.13-.8v-.19l-.14-.86a1,1,0,0,0,0-.25l-.11-.7a.61.61,0,0,0,0-.27l-.07-.47a3.52,3.52,0,0,0-.07-.65L16,12.94a1.14,1.14,0,0,1,0-.45l-.13-.86v-.48a3.36,3.36,0,0,1-.08-.71l-.14-.91V9.42l-.15-1V8.36l-.12-.83V7.35l-.13-.89V6.35L15,5.43V5.34l-.13-.86Z"/><path class="cls-1" d="M20.88,1.14l.89-.22L22,.9l.3-.08h.13l.44-.11H23a1,1,0,0,1,.42-.06l.93-.19h.18A1.28,1.28,0,0,1,25,.36l1-.2h.06L26.4.08,26.88,0a3.07,3.07,0,0,1-.1,1v.08l-.05.44a1.7,1.7,0,0,1-.06.31l-.08.6a.81.81,0,0,1,0,.22l-.3,2.11V5.4l-.05.23-.19,1.5v.68l-.32,2v.26a2,2,0,0,1-.05.42v.67l-.18,1.35-.05.28-.18,1.35v.67a.82.82,0,0,0-.06.38v.46l-.1.6a2,2,0,0,1-.05.42v.14l-.06.31a2.44,2.44,0,0,0,.86-.37l.3-.11.34-.16.2-.08.63-.26A1,1,0,0,1,27.7,16l.17-.08.49-.23.16-.08.17-.07.57-.25.08.78a5.51,5.51,0,0,1,.07.71v.32l.16,1.38-.86.25h-.05l-1.2.33-.11.06-.54.13-.11.07-.44.11-.11.06-.42.11-.19.08-1.65.49-.19.08-1.27.31-1-19.2Z"/><path class="cls-1" d="M30.69,5.46l1.74-.56a4.18,4.18,0,0,1,4.22.85l.06.21a2.39,2.39,0,0,1-.21.34l-.09.17a1.35,1.35,0,0,0-.15.26,1.15,1.15,0,0,0-.2.29l-.32.54a5.65,5.65,0,0,1-.33.51v.07l-.49-.07H32.54a2.3,2.3,0,0,0-1.25,1.2Q31,11,34,12a2.75,2.75,0,0,0,.38.2l.11.05h.06l.38.2H35l.21.11q4,2.2,2,6.16a4.73,4.73,0,0,1-2.77,2,7.51,7.51,0,0,1-5.47-.4.39.39,0,0,1-.18-.18l.11-.47v-.24l.08-.29v-.08l.12-.46v-.08a1,1,0,0,0,.08-.38l.17-.72q3.32,2.56,6-.54a1.87,1.87,0,0,0,.21-.6V16.2a1.59,1.59,0,0,0-.79-1.08,5.23,5.23,0,0,0-.76-.35l-.39-.13-.16-.06a5.86,5.86,0,0,1-5.3-4.09A3.22,3.22,0,0,1,28,9.68V9.57A4.55,4.55,0,0,1,30.69,5.46Z"/><path class="cls-1" d="M7.87,20.5h2.28a1.75,1.75,0,0,1,.56,0,3.36,3.36,0,0,1,.63.06h.92l.54.14H13l1,.37.2.12.52.26.16.11.06.06.17.11h.06l.74.69.37.54.09.11.29.68a8,8,0,0,1-2.54,8.82l-.82.65-.06.06-.2.12-.11.09-.79.48a.6.6,0,0,1-.26.14.77.77,0,0,1-.25.14l-.09.06-.29.14h-.09a5.51,5.51,0,0,1-.56.28l-.23.09L10,35.2a2.67,2.67,0,0,0-.59.23,1.4,1.4,0,0,1-.29.09l-.71.26-.2.06L8,35.9H7.78a2.91,2.91,0,0,1-.39.12H7.28l-.52.11a.55.55,0,0,1-.36,0l-.09-.62-.06-.2v-.26l-.11-.59v-.54A1.33,1.33,0,0,1,6,33.73a.67.67,0,0,1,0-.2h.68l.83-.06H7.6V31.25a.62.62,0,0,0,0-.33v-.75a.24.24,0,0,1,0-.12V24a1,1,0,0,0-.43,0,1.29,1.29,0,0,0-.48,0H4.23l-.06-.91a.89.89,0,0,0-.06-.42v-.32a1,1,0,0,0-.06-.46v-.28L4,21h.63l.49-.09a1.36,1.36,0,0,0,.29-.06h.3l.63-.09H6.7l1-.09Zm5.91,6.06a3.91,3.91,0,0,0-3.92-2.84.18.18,0,0,0-.17.13v8.79a1,1,0,0,0,.34-.06h.14l.32-.09Q14.41,31,13.78,26.56Z"/><path class="cls-1" d="M25.71,19.6h.06l.29.73v.11L27,22.92a.36.36,0,0,1,.07.17l.26.64v.21L27,24.4a.46.46,0,0,0-.17.17l-.44.55-.1.12-.09.11a3.24,3.24,0,0,0-.45.53l-.32.37a2.26,2.26,0,0,1-.25.29l-.51.65-.09.11-1.21,1.51a3.11,3.11,0,0,1,.29.33l.25.25v.06a1.8,1.8,0,0,1,.26.29,2.25,2.25,0,0,1,.41.46l.16.17.13.12.19.23a2.35,2.35,0,0,1,.26.29l.12.12.33.38.28.32.16.17.07,0a3.16,3.16,0,0,1,.38.44l.22.24a2.64,2.64,0,0,1-.41.58l-.06,0-.09.15-.16.17-.61.76-.16.21-.1.11-.12.09a2.34,2.34,0,0,1-.29-.41l-.16-.2L24.53,34a3.62,3.62,0,0,0-.22-.32l-.06-.12L23.82,33v0l-.92-1.31-.06-.05-.16-.24-.35-.49-.09-.17-.16-.2a1.85,1.85,0,0,0,0,.81v.41a.89.89,0,0,1,0,.23v1.14a2.81,2.81,0,0,1,0,.41v.64a.77.77,0,0,0,0,.37v1.19l-.67.35-.07.06-.76.41-.16.12h-.09l-.48.29h-.16l-.1-.65-.06-.2v-.34a5,5,0,0,0-.09-.56,2.36,2.36,0,0,0-.1-.46v-.47a3.76,3.76,0,0,1-.12-.67V33.4l-.13-.4a.88.88,0,0,0-.07-.32v-.23L19,32.11v-.22l-.07-.24a1.41,1.41,0,0,1,0-.29v-.29a.87.87,0,0,0-.06-.32v-.11a3.1,3.1,0,0,1-.1-.53V30l-.16-.9a2,2,0,0,1-.09-.49.56.56,0,0,0,0-.31,1.6,1.6,0,0,0-.05-.21l-.19-1V27a.11.11,0,0,1,0-.11l-.09-.5L17.78,26a1.41,1.41,0,0,1,0-.29v-.37a.36.36,0,0,0-.07-.28,1,1,0,0,1,0-.25,1.36,1.36,0,0,1-.06-.29v-.69a1.36,1.36,0,0,1-.07-.35,2.27,2.27,0,0,1-.09-.52v-.09l-.06-.4v-.09L17,21.7v-.53a2.43,2.43,0,0,1,.47-.08L18,21l.5-.07a4.81,4.81,0,0,1,.53-.07l1.15-.17.22-.06a.41.41,0,0,0,.22,0,1,1,0,0,0,.34-.06h.57v.86a2.81,2.81,0,0,1,0,.41l.06,1.66a3,3,0,0,1,0,.73V25.6a2.16,2.16,0,0,1,0,.36v.15l.88-1.48.08-.1a.8.8,0,0,0,.08-.16l.22-.38.17-.25.54-.85.09-.17.48-.78.09-.15L24.7,21l.3-.23.19-.29a1.18,1.18,0,0,0,.16-.29l.35-.53Z"/><path class="cls-1" d="M32.14,20.8l.64-.09a4.12,4.12,0,0,1,1.88.08.3.3,0,0,1,.14.23,3.72,3.72,0,0,0-.19.65l0,.23-.06.2-.2.74a4.61,4.61,0,0,0-.15.53l-.2.77a5.73,5.73,0,0,0-4.66,4.58,5.53,5.53,0,0,0,1.9,4.9c1.21.71,2.34-.2,3.37-2.74l.22.39.07.08.94,1.7.07.11v.1l.22.39.07.08.19.36A6.08,6.08,0,0,1,31.86,37a5,5,0,0,1-5.08-2.53l-.1-.15-.33-.75a10.61,10.61,0,0,1,.31-6.45,10.61,10.61,0,0,1,4.11-5.72l.73-.4.35-.14A.72.72,0,0,0,32.14,20.8Z"/><path class="cls-1" d="M12.53,39.34a.34.34,0,0,0-.2,0v2.25c.13,0,.21,0,.24-.08a1,1,0,0,0,0-.42V39.73a1.5,1.5,0,0,0,0-.3A.15.15,0,0,0,12.53,39.34Z"/><path class="cls-1" d="M14.6,40.92h.31c-.05-.39-.09-.87-.14-1.44C14.68,40.14,14.62,40.62,14.6,40.92Z"/><path class="cls-1" d="M39.64,40.6v1a.35.35,0,0,0,.24-.06.47.47,0,0,0,0-.26v-.59A.39.39,0,0,0,39.64,40.6Z"/><path class="cls-1" d="M28,39.34a.34.34,0,0,0-.2,0v2.25c.13,0,.21,0,.24-.08a1,1,0,0,0,0-.42V39.73a1.5,1.5,0,0,0,0-.3A.15.15,0,0,0,28,39.34Z"/><path class="cls-1" d="M39.82,39.33h-.19v.76h.09c.09,0,.14,0,.17-.06a1.15,1.15,0,0,0,0-.37.89.89,0,0,0,0-.23A.14.14,0,0,0,39.82,39.33Z"/><path class="cls-1" d="M1.87,37.45v6.08H41.63V37.45Zm3.06,4.7H3.58l-.51-3.43H4c.11,1,.18,1.75.23,2.4,0-.67.1-1.25.15-1.76l.06-.64h.94Zm1.49,0H5.54V38.72h.89Zm1.79,0H6.78V38.72h.89v2.74h.54Zm2.09-.34a.67.67,0,0,1-.33.29,1.39,1.39,0,0,1-.57.12,1.3,1.3,0,0,1-.61-.14.64.64,0,0,1-.33-.34,1.68,1.68,0,0,1-.08-.59v-.22h.83v.42a.53.53,0,0,0,0,.25.13.13,0,0,0,.12,0,.17.17,0,0,0,.13-.07.38.38,0,0,0,0-.21.62.62,0,0,0-.08-.4A2.85,2.85,0,0,0,9,40.66a4.48,4.48,0,0,1-.44-.32.8.8,0,0,1-.18-.27,1.15,1.15,0,0,1-.07-.45,1.27,1.27,0,0,1,.1-.58.69.69,0,0,1,.32-.29,1.4,1.4,0,0,1,.54-.1,1.35,1.35,0,0,1,.59.11.59.59,0,0,1,.32.28,1.43,1.43,0,0,1,.08.58v.13H9.49V39.5a.45.45,0,0,0,0-.23.11.11,0,0,0-.11,0,.14.14,0,0,0-.12.07.34.34,0,0,0,0,.2.57.57,0,0,0,0,.26.64.64,0,0,0,.25.21,2.48,2.48,0,0,1,.75.58,1.33,1.33,0,0,1,.16.73,1.17,1.17,0,0,1-.11.49Zm3.19-.68a3.21,3.21,0,0,1,0,.62.47.47,0,0,1-.15.24.66.66,0,0,1-.27.12,1.93,1.93,0,0,1-.48,0H11.44V38.72h.67a4.25,4.25,0,0,1,.87.06.67.67,0,0,1,.35.19.57.57,0,0,1,.15.3,3.53,3.53,0,0,1,0,.65Zm1.47,1v-.62h-.32l-.05.62h-.92l.45-3.43h1.29l.51,3.43Zm3.05,0h-.78l-.46-1.56v1.56H16V38.72h.75l.5,1.54V38.72H18Zm2.44-1.93h-.89v-.6a.86.86,0,0,0,0-.32.12.12,0,0,0-.13-.07.12.12,0,0,0-.14.08,1,1,0,0,0,0,.34v1.59a.92.92,0,0,0,0,.33.15.15,0,0,0,.2.06.17.17,0,0,0,.06-.06,1.09,1.09,0,0,0,0-.36v-.43h.89v.13a2.7,2.7,0,0,1-.08.75A.79.79,0,0,1,20,42a1.09,1.09,0,0,1-.63.17,1.32,1.32,0,0,1-.65-.14.69.69,0,0,1-.34-.39,2.77,2.77,0,0,1-.08-.76v-1a5.23,5.23,0,0,1,0-.56.82.82,0,0,1,.15-.36.85.85,0,0,1,.35-.27A1.45,1.45,0,0,1,20,38.8a.7.7,0,0,1,.34.38,2.42,2.42,0,0,1,.08.71Zm1.87,1.93H20.79V38.72h1.49v.69h-.59v.65h.56v.65h-.56v.75h.65Zm2.27,0-.36-1.47v1.47h-.89V38.72h.89v1.33l.4-1.33h.84L25,40.27l.56,1.88Zm2,0H25.7V38.72h.89Zm2.42-1a3.21,3.21,0,0,1,0,.62.47.47,0,0,1-.15.24.66.66,0,0,1-.27.12,1.93,1.93,0,0,1-.48,0H26.93V38.72h.67a4.25,4.25,0,0,1,.87.06.67.67,0,0,1,.35.19.57.57,0,0,1,.15.3,3.53,3.53,0,0,1,0,.65Zm2.21.68a.67.67,0,0,1-.33.29,1.39,1.39,0,0,1-.57.12,1.3,1.3,0,0,1-.61-.14.64.64,0,0,1-.33-.34,1.68,1.68,0,0,1-.08-.59v-.22h.83v.42a.53.53,0,0,0,0,.25.13.13,0,0,0,.12,0,.17.17,0,0,0,.13-.07.38.38,0,0,0,0-.21.62.62,0,0,0-.08-.4,2.53,2.53,0,0,0-.42-.31,4.48,4.48,0,0,1-.44-.32.8.8,0,0,1-.18-.27,1.15,1.15,0,0,1-.07-.45,1.27,1.27,0,0,1,.1-.58.65.65,0,0,1,.32-.29,1.4,1.4,0,0,1,.54-.1,1.35,1.35,0,0,1,.59.11.59.59,0,0,1,.32.28,1.43,1.43,0,0,1,.08.58v.13h-.83V39.5a.45.45,0,0,0,0-.23.11.11,0,0,0-.11,0,.14.14,0,0,0-.12.07.34.34,0,0,0,0,.2.57.57,0,0,0,0,.26.64.64,0,0,0,.25.21,2.48,2.48,0,0,1,.75.58,1.33,1.33,0,0,1,.16.73,1.36,1.36,0,0,1,0,.49Zm3.21-1.6h-.89v-.6a.86.86,0,0,0,0-.32.12.12,0,0,0-.13-.07.12.12,0,0,0-.14.08,1,1,0,0,0,0,.34v1.59a.91.91,0,0,0,0,.33.15.15,0,0,0,.2.06l.06-.06a1.09,1.09,0,0,0,0-.36v-.43h.89v.13a2.7,2.7,0,0,1-.08.75A.79.79,0,0,1,34,42a1.09,1.09,0,0,1-.63.17,1.32,1.32,0,0,1-.65-.14.69.69,0,0,1-.34-.39,2.77,2.77,0,0,1-.08-.76v-1a5.23,5.23,0,0,1,0-.56.82.82,0,0,1,.15-.36.85.85,0,0,1,.35-.27A1.42,1.42,0,0,1,34,38.8a.7.7,0,0,1,.34.38,2.42,2.42,0,0,1,.08.71Zm1.75,1.93H34.73V38.72h.89v2.74h.54ZM38.4,41a5,5,0,0,1,0,.55.73.73,0,0,1-.15.32.81.81,0,0,1-.33.25,1.32,1.32,0,0,1-.48.09,1.44,1.44,0,0,1-.54-.1.75.75,0,0,1-.35-.26.85.85,0,0,1-.14-.34V38.75h.89v2.57a1.41,1.41,0,0,0,0,.29.09.09,0,0,0,.1.06.09.09,0,0,0,.11-.07,1.71,1.71,0,0,0,0-.32V38.72h.89Zm2.42.33a1.27,1.27,0,0,1-.08.51.43.43,0,0,1-.25.23,2.8,2.8,0,0,1-.71.06h-1V38.72h.89a2.29,2.29,0,0,1,.64.07.61.61,0,0,1,.35.26,1.19,1.19,0,0,1,.13.64.68.68,0,0,1-.09.42.65.65,0,0,1-.37.18.66.66,0,0,1,.42.23,1,1,0,0,1,.11.5Z"/><polygon class="cls-1" points="37.45 24.43 37.65 26.99 39.87 28.27 37.5 29.25 36.96 31.76 35.3 29.81 32.74 30.07 34.09 27.89 33.05 25.54 35.54 26.14 37.45 24.43"/><path class="cls-1" d="M12.48,49.37v1.29a1.45,1.45,0,0,1-.88,1.18,2.12,2.12,0,0,1-.9.17,2.35,2.35,0,0,1-.87-.16,1.46,1.46,0,0,1-.9-1.17c0-.44,0-.87,0-1.31V47.08a1.45,1.45,0,0,1,.88-1.18,2.12,2.12,0,0,1,.9-.17,2.35,2.35,0,0,1,.87.16,1.44,1.44,0,0,1,.9,1.17c0,.44,0,.87,0,1.31Zm-1.57-2a1.63,1.63,0,0,0,0-.54.18.18,0,0,0-.19-.12.21.21,0,0,0-.19.1,1.33,1.33,0,0,0-.07.56V50.2a2.36,2.36,0,0,0,0,.65.19.19,0,0,0,.2.12.19.19,0,0,0,.21-.14,2.58,2.58,0,0,0,0-.68Z"/><path class="cls-1" d="M17.32,47.65H15.86V47.2a.91.91,0,0,0-.06-.4.21.21,0,0,0-.19-.09.22.22,0,0,0-.21.12.71.71,0,0,0-.07.35,1,1,0,0,0,.08.46,1.21,1.21,0,0,0,.44.37,4.48,4.48,0,0,1,1.32,1,2.41,2.41,0,0,1,.27,1.29,2.28,2.28,0,0,1-.15,1,1.2,1.2,0,0,1-.58.51,2.3,2.3,0,0,1-1,.21,2.25,2.25,0,0,1-1.08-.24,1.15,1.15,0,0,1-.58-.61,3.1,3.1,0,0,1-.14-1.05v-.4h1.46v.74a1.09,1.09,0,0,0,.06.44.23.23,0,0,0,.22.1.27.27,0,0,0,.23-.12.67.67,0,0,0,.08-.37,1.15,1.15,0,0,0-.15-.7,4.89,4.89,0,0,0-.74-.55,8.54,8.54,0,0,1-.78-.56,1.34,1.34,0,0,1-.32-.49,2.12,2.12,0,0,1-.13-.79,2.14,2.14,0,0,1,.18-1,1.21,1.21,0,0,1,.57-.5,2.3,2.3,0,0,1,1-.18,2.48,2.48,0,0,1,1,.2,1.07,1.07,0,0,1,.57.5,2.61,2.61,0,0,1,.14,1Z"/><path class="cls-1" d="M21.58,45.82l.9,6H20.87l-.08-1.09h-.56l-.09,1.09H18.51l.8-6Zm-.83,3.89c-.08-.67-.16-1.51-.24-2.54-.16,1.16-.26,2-.3,2.54Z"/><path class="cls-1" d="M27.42,45.82l-.9,2.73,1,3.32H25.88l-.64-2.59v2.59H23.67v-6h1.57v2.35l.7-2.35Z"/><path class="cls-1" d="M31.41,45.82l.9,6h-1.6l-.08-1.09h-.56L30,51.87H28.34l.8-6Zm-.83,3.89c-.08-.67-.16-1.51-.24-2.54-.16,1.16-.26,2-.3,2.54Z"/><path class="cls-1" d="M72.73,6.36l-2.92,22h-8.7l-3.31-22h6q1,9.11,1.5,15.41.44-6.37.94-11.31l.4-4.1Z"/><path class="cls-1" d="M79.43,6.36v22H73.7v-22Z"/><path class="cls-1" d="M87.46,6.36V24h3.48v4.4H81.73V6.4Z"/><path class="cls-1" d="M104.48,13H99.15V11.4A3.15,3.15,0,0,0,99,9.94a.73.73,0,0,0-.68-.31.87.87,0,0,0-.78.42,2.47,2.47,0,0,0-.27,1.28,3.63,3.63,0,0,0,.3,1.66,4.32,4.32,0,0,0,1.62,1.35c2.57,1.51,4.19,2.76,4.86,3.73a8.54,8.54,0,0,1,1,4.7,8.22,8.22,0,0,1-.55,3.47,4.32,4.32,0,0,1-2.13,1.87,8.33,8.33,0,0,1-3.68.76,8.15,8.15,0,0,1-4-.87,4.27,4.27,0,0,1-2.13-2.22A11.53,11.53,0,0,1,92,22V20.51h5.32v2.68a3.6,3.6,0,0,0,.22,1.59.86.86,0,0,0,.8.35.93.93,0,0,0,.85-.45,2.56,2.56,0,0,0,.28-1.33A4.14,4.14,0,0,0,99,20.81a17,17,0,0,0-2.68-2,25.87,25.87,0,0,1-2.83-2.06A4.84,4.84,0,0,1,92.31,15a7.92,7.92,0,0,1-.46-2.89,8,8,0,0,1,.65-3.7,4.39,4.39,0,0,1,2.09-1.83,8.33,8.33,0,0,1,3.48-.66,9,9,0,0,1,3.8.72A4,4,0,0,1,104,8.44a9.59,9.59,0,0,1,.51,3.72Z"/><path class="cls-1" d="M111.66,6.36H116a27.11,27.11,0,0,1,5.62.38A4.31,4.31,0,0,1,123.79,8a4,4,0,0,1,1,1.94,29.46,29.46,0,0,1,.19,4.2v7.72a17.88,17.88,0,0,1-.28,4,3,3,0,0,1-1,1.57,3.94,3.94,0,0,1-1.71.79,15.16,15.16,0,0,1-3.08.22h-7.23Zm5.73,3.77v14.5c.83,0,1.33-.17,1.52-.5a7.24,7.24,0,0,0,.29-2.7V12.87a11.24,11.24,0,0,0-.1-1.92.91.91,0,0,0-.44-.62,2.89,2.89,0,0,0-1.27-.19Z"/><path class="cls-1" d="M137,6.36l3.28,22H134.4l-.31-4h-2l-.34,4h-5.92l2.92-22Zm-3,14.17q-.44-3.74-.87-9.26c-.59,4.22-.95,7.31-1.1,9.26Z"/><path class="cls-1" d="M154,6.36v22h-5l-3-10v10h-4.79v-22H146l3.21,9.92V6.36Z"/><path class="cls-1" d="M169.71,16H164V12.13a6.62,6.62,0,0,0-.18-2.08.79.79,0,0,0-.81-.41.85.85,0,0,0-.9.5,7.61,7.61,0,0,0-.19,2.18V22.55a7.07,7.07,0,0,0,.19,2.1,1,1,0,0,0,1.7,0,7.81,7.81,0,0,0,.2-2.31V19.57h5.73v.86a17.24,17.24,0,0,1-.48,4.85,5,5,0,0,1-2.14,2.51A7.3,7.3,0,0,1,163,28.87a8.51,8.51,0,0,1-4.15-.91,4.44,4.44,0,0,1-2.16-2.52,16.88,16.88,0,0,1-.53-4.85V14.14a28.44,28.44,0,0,1,.16-3.57,5,5,0,0,1,1-2.29,5.42,5.42,0,0,1,2.25-1.74,9.2,9.2,0,0,1,7.48.35,4.73,4.73,0,0,1,2.16,2.44,14.58,14.58,0,0,1,.52,4.55Z"/><path class="cls-1" d="M171.76,6.36h9.56v4.41H177.5V15h3.58v4.19H177.5V24h4.21v4.4h-9.94Z"/><path class="cls-1" d="M201.92,6.36l-3.29,10,3.6,12.09h-5.92L194,19v9.4h-5.73V6.4H194V15l2.55-8.56Z"/><path class="cls-1" d="M209,6.36v22h-5.73v-22Z"/><path class="cls-1" d="M223.39,13h-5.32V11.4a3.15,3.15,0,0,0-.2-1.46.73.73,0,0,0-.68-.31.87.87,0,0,0-.78.42,2.47,2.47,0,0,0-.27,1.28,3.63,3.63,0,0,0,.3,1.66,4.32,4.32,0,0,0,1.62,1.35c2.55,1.51,4.16,2.76,4.82,3.73a8.54,8.54,0,0,1,1,4.7,8.22,8.22,0,0,1-.55,3.47,4.32,4.32,0,0,1-2.13,1.87,9.3,9.3,0,0,1-7.61-.11,4.27,4.27,0,0,1-2.13-2.22A11.51,11.51,0,0,1,211,22V20.51h5.32v2.68a3.6,3.6,0,0,0,.22,1.59.86.86,0,0,0,.8.35.93.93,0,0,0,.85-.45,2.56,2.56,0,0,0,.28-1.33,4.12,4.12,0,0,0-.53-2.55,17,17,0,0,0-2.68-2,25.87,25.87,0,0,1-2.83-2.06,4.89,4.89,0,0,1-1.2-1.74,7.92,7.92,0,0,1-.46-2.89,8,8,0,0,1,.65-3.7,4.39,4.39,0,0,1,2.09-1.83A8.36,8.36,0,0,1,217,5.9a9,9,0,0,1,3.8.72,4,4,0,0,1,2.08,1.82,9.59,9.59,0,0,1,.51,3.72Z"/><path class="cls-1" d="M225.67,6.36H230a27.11,27.11,0,0,1,5.62.38A4.31,4.31,0,0,1,237.79,8a4,4,0,0,1,1,1.94,29.46,29.46,0,0,1,.19,4.2v7.72a17.88,17.88,0,0,1-.28,4,3,3,0,0,1-1,1.57,3.94,3.94,0,0,1-1.71.79,15.16,15.16,0,0,1-3.08.22h-7.23Zm5.73,3.77v14.5c.83,0,1.33-.17,1.52-.5a7.24,7.24,0,0,0,.29-2.7V12.87a11.24,11.24,0,0,0-.1-1.92.91.91,0,0,0-.44-.62,2.89,2.89,0,0,0-1.27-.19Z"/><path class="cls-1" d="M253.22,13H247.9V11.4a3.15,3.15,0,0,0-.2-1.46.73.73,0,0,0-.68-.31.87.87,0,0,0-.78.42,2.47,2.47,0,0,0-.27,1.28,3.63,3.63,0,0,0,.3,1.66,4.32,4.32,0,0,0,1.62,1.35c2.55,1.51,4.16,2.76,4.82,3.73a8.54,8.54,0,0,1,1,4.7,8.22,8.22,0,0,1-.55,3.47A4.34,4.34,0,0,1,251,28.11a9.3,9.3,0,0,1-7.61-.11,4.27,4.27,0,0,1-2.13-2.22,11.51,11.51,0,0,1-.5-3.82V20.51h5.32v2.68a3.6,3.6,0,0,0,.22,1.59.86.86,0,0,0,.8.35.93.93,0,0,0,.85-.45,2.56,2.56,0,0,0,.28-1.33,4.12,4.12,0,0,0-.53-2.55,17,17,0,0,0-2.68-2,25.87,25.87,0,0,1-2.83-2.06A4.8,4.8,0,0,1,241.06,15a7.92,7.92,0,0,1-.46-2.89,8,8,0,0,1,.65-3.7,4.39,4.39,0,0,1,2.09-1.83,8.33,8.33,0,0,1,3.48-.66,9,9,0,0,1,3.8.72,4,4,0,0,1,2.08,1.82,9.59,9.59,0,0,1,.51,3.72Z"/><path class="cls-1" d="M273.79,16h-5.73V12.13a6.62,6.62,0,0,0-.18-2.08.79.79,0,0,0-.81-.41.85.85,0,0,0-.9.5,7.61,7.61,0,0,0-.19,2.18V22.55a7.07,7.07,0,0,0,.19,2.1,1,1,0,0,0,1.7,0,7.81,7.81,0,0,0,.2-2.31V19.57h5.73v.86a17.24,17.24,0,0,1-.48,4.85,5,5,0,0,1-2.14,2.51,7.31,7.31,0,0,1-4.08,1.08A8.51,8.51,0,0,1,263,28a4.44,4.44,0,0,1-2.16-2.52,16.88,16.88,0,0,1-.53-4.85V14.14a28.44,28.44,0,0,1,.16-3.57,5,5,0,0,1,1-2.29,5.42,5.42,0,0,1,2.25-1.74,9.2,9.2,0,0,1,7.48.35,4.73,4.73,0,0,1,2.16,2.44,14.58,14.58,0,0,1,.52,4.55Z"/><path class="cls-1" d="M281.57,6.36V24h3.48v4.4h-9.22V6.4Z"/><path class="cls-1" d="M299.47,6.36V21.09a25.85,25.85,0,0,1-.16,3.52,4.8,4.8,0,0,1-1,2.08,5.05,5.05,0,0,1-2.12,1.62,8,8,0,0,1-3.1.55,8.82,8.82,0,0,1-3.48-.65,5.28,5.28,0,0,1-2.26-1.7,4.69,4.69,0,0,1-.88-2.21c-.09-.77-.14-2.4-.14-4.89v-13h5.73V22.89a6.68,6.68,0,0,0,.16,1.84.6.6,0,0,0,.63.4.66.66,0,0,0,.7-.44,8.16,8.16,0,0,0,.16-2.09V6.36Z"/><path class="cls-1" d="M301.69,6.36h5.72a14.89,14.89,0,0,1,4.1.42,4.05,4.05,0,0,1,2.25,1.71,7.63,7.63,0,0,1,.86,4.14,4.45,4.45,0,0,1-.61,2.69,4.2,4.2,0,0,1-2.39,1.17,4.22,4.22,0,0,1,2.7,1.49,5.72,5.72,0,0,1,.71,3.19v2a8.12,8.12,0,0,1-.51,3.31A2.76,2.76,0,0,1,312.9,28a16.74,16.74,0,0,1-4.57.4H301.7Zm5.73,3.77V15H308q.84,0,1.08-.42a6.76,6.76,0,0,0,.23-2.37,3.77,3.77,0,0,0-.19-1.45.94.94,0,0,0-.5-.52,4.4,4.4,0,0,0-1.2-.1Zm0,8.33v6.17a2.47,2.47,0,0,0,1.54-.38,2.64,2.64,0,0,0,.33-1.67V20.52a2.9,2.9,0,0,0-.3-1.71,2.69,2.69,0,0,0-1.57-.34Z"/><path class="cls-1" d="M335.1,19.27a45.94,45.94,0,0,1-.16,4.7,5.27,5.27,0,0,1-3.21,4.28,9,9,0,0,1-6.45,0A5.29,5.29,0,0,1,322,24a47.21,47.21,0,0,1-.16-4.76V15.5a45.94,45.94,0,0,1,.16-4.7,5.27,5.27,0,0,1,3.21-4.28,8,8,0,0,1,3.27-.61,8.23,8.23,0,0,1,3.18.58A5.28,5.28,0,0,1,335,10.74a47.21,47.21,0,0,1,.16,4.76ZM329.37,12a6.72,6.72,0,0,0-.17-2,.69.69,0,0,0-.7-.43.78.78,0,0,0-.69.35,4.84,4.84,0,0,0-.24,2v10.4a9.92,9.92,0,0,0,.16,2.37.69.69,0,0,0,.73.45.71.71,0,0,0,.75-.52,10.68,10.68,0,0,0,.16-2.46Z"/><path class="cls-1" d="M349.38,13h-5.32V11.4a3.15,3.15,0,0,0-.2-1.46.73.73,0,0,0-.68-.31.87.87,0,0,0-.78.42,2.47,2.47,0,0,0-.27,1.28,3.63,3.63,0,0,0,.3,1.66A4.44,4.44,0,0,0,344,14.34c2.55,1.51,4.16,2.76,4.82,3.73a8.54,8.54,0,0,1,1,4.7,8.22,8.22,0,0,1-.55,3.47,4.32,4.32,0,0,1-2.13,1.87,9.3,9.3,0,0,1-7.61-.11,4.27,4.27,0,0,1-2.13-2.22,11.51,11.51,0,0,1-.5-3.82V20.51h5.32v2.68a3.6,3.6,0,0,0,.22,1.59.86.86,0,0,0,.8.35.93.93,0,0,0,.85-.45,2.56,2.56,0,0,0,.28-1.33,4.12,4.12,0,0,0-.53-2.55,17,17,0,0,0-2.68-2,25.87,25.87,0,0,1-2.83-2.06A4.73,4.73,0,0,1,337.21,15a7.92,7.92,0,0,1-.46-2.89,8,8,0,0,1,.65-3.7,4.39,4.39,0,0,1,2.09-1.83A8.3,8.3,0,0,1,343,5.9a9,9,0,0,1,3.8.72,4,4,0,0,1,2.08,1.82,9.59,9.59,0,0,1,.51,3.72Z"/><path class="cls-1" d="M361.56,6.36l3.28,22H359l-.31-4h-2l-.34,4h-5.92l2.92-22Zm-3,14.17q-.44-3.74-.87-9.26c-.59,4.22-.95,7.31-1.1,9.26Z"/><path class="cls-1" d="M379.47,6.36l-3.29,10,3.6,12.09h-5.92L371.54,19v9.4h-5.73V6.4h5.73V15l2.55-8.56Z"/><path class="cls-1" d="M390.67,6.36l3.28,22h-5.86l-.31-4h-2l-.34,4h-5.92l2.92-22Zm-3,14.17q-.44-3.74-.87-9.26c-.59,4.22-.95,7.31-1.1,9.26Z"/><path class="cls-1" d="M67.77,43.86q1.26,0,2.52-.18v.86c-.79.08-2,.13-2.48.13h-3c-1.81,0-2.69-.79-2.69-2.51v-7l1.18.07c0,.12-.11.19-.32.22v3.91A39.36,39.36,0,0,0,69,37l.61.83a.33.33,0,0,1-.14,0,.49.49,0,0,1-.17,0A45.93,45.93,0,0,1,63,40.19v2c0,1.21.59,1.67,1.82,1.67Zm1.13-9a9,9,0,0,1,1.49,1.76l-.46.35a10.27,10.27,0,0,0-1.46-1.76Zm1.48-.72a10,10,0,0,1,1.49,1.75l-.46.35A10.6,10.6,0,0,0,70,34.49Z"/><path class="cls-1" d="M75.63,36.59c0,.11-.12.18-.28.2C75.28,40,75,43,73.17,45.11a6.76,6.76,0,0,0-.72-.46c1.79-1.94,2-4.94,2-8.17Zm3.11,6.91a7.9,7.9,0,0,0,4-4.82,4.41,4.41,0,0,0,.74.47,9,9,0,0,1-4.89,5.42.52.52,0,0,1-.2.24L77.75,44l.13-.18V35l1.12.06a.27.27,0,0,1-.26.23Z"/><path class="cls-1" d="M93,36.21a.22.22,0,0,1-.13.08,19.44,19.44,0,0,1-2.31,4A43.34,43.34,0,0,1,95,44.42l-.77.6A37.38,37.38,0,0,0,90,41a18.25,18.25,0,0,1-4.58,4,6.35,6.35,0,0,0-.62-.65,16.69,16.69,0,0,0,6.92-7.77h-5.9V35.8h6.36l.16-.06Zm.06-1.61a8.69,8.69,0,0,1,1.38,1.87l-.49.3a8.46,8.46,0,0,0-1.34-1.86Zm1.48-.6a10.34,10.34,0,0,1,1.34,1.81l-.49.3a9,9,0,0,0-1.31-1.81Z"/><path class="cls-1" d="M105.87,36.79c0,.07-.07.1-.14.13a15.81,15.81,0,0,1-1.74,4c.52.3,1.15.67,1.6,1l-.5.78a16.48,16.48,0,0,0-1.6-1,10.92,10.92,0,0,1-4.31,3.6,2.63,2.63,0,0,0-.65-.64,10.71,10.71,0,0,0,4.21-3.39A18.83,18.83,0,0,0,100.05,40l.47-.66a24.54,24.54,0,0,1,2.72,1.22,12.49,12.49,0,0,0,1.44-3.18h-4A12.82,12.82,0,0,1,98,40.58a5,5,0,0,0-.67-.54A12.17,12.17,0,0,0,101,34.7l1.12.32a.3.3,0,0,1-.34.16,13.28,13.28,0,0,1-.61,1.33h4Zm-1.1-2.39a9.1,9.1,0,0,1,1.6,1.68l-.46.37a10,10,0,0,0-1.57-1.68Zm1.53-.4a9.48,9.48,0,0,1,1.63,1.66l-.47.36a8.76,8.76,0,0,0-1.58-1.64Z"/><path class="cls-1" d="M109.82,35.68a14.59,14.59,0,0,1,3.57,1.63l-.46.76a15.63,15.63,0,0,0-3.5-1.67Zm0,8.31c4.26-1.32,7.09-3.71,8.53-7a4.46,4.46,0,0,0,.78.49,13.73,13.73,0,0,1-8.49,7.2.37.37,0,0,1-.17.28Z"/><path class="cls-1" d="M129.2,35.94a.26.26,0,0,1-.16.13,18.94,18.94,0,0,1-2.4,4.13A45.36,45.36,0,0,1,131,44.27l-.73.64a38.82,38.82,0,0,0-4.21-4,18.61,18.61,0,0,1-4.62,4,4.23,4.23,0,0,0-.62-.65,17.21,17.21,0,0,0,7-7.83H122v-.82h6.36l.16-.06Z"/><path class="cls-1" d="M138.4,41.3l.43,3.77-.86.1-.42-3.75-4.5.58-.11-.79,4.52-.58-.31-2.7-3.77.49-.11-.8,3.78-.48-.26-2.37H138c0,.12-.11.22-.28.26l.22,2,3.65-.48.1.82-3.65.47.31,2.69,4.51-.56.11.79Z"/><path class="cls-1" d="M146.67,37.92a13.15,13.15,0,0,1,.9,2.58l-.67.18a13.49,13.49,0,0,0-.88-2.55Zm7.16.08c0,.11-.14.13-.25.12-.94,3.5-2.7,5.65-5.6,6.82a3.51,3.51,0,0,0-.47-.55c2.87-1.13,4.51-3.09,5.39-6.67Zm-4.25-.66a16.83,16.83,0,0,1,.56,2.72l-.71.13a14.55,14.55,0,0,0-.56-2.7Z"/><path class="cls-1" d="M165,36.21a.22.22,0,0,1-.13.08,19.44,19.44,0,0,1-2.31,4A43.34,43.34,0,0,1,167,44.42l-.77.6a37.78,37.78,0,0,0-4.2-4,18.25,18.25,0,0,1-4.58,4,6.35,6.35,0,0,0-.62-.65,16.69,16.69,0,0,0,6.92-7.77h-5.91v-.8h6.36l.16-.06Zm.06-1.61a8.69,8.69,0,0,1,1.38,1.87l-.49.3a8.46,8.46,0,0,0-1.34-1.86Zm1.48-.58a10.34,10.34,0,0,1,1.34,1.81l-.49.3a9,9,0,0,0-1.31-1.81Z"/><path class="cls-1" d="M178.14,37a.73.73,0,0,1-.18.17c-1.26,3.89-3.23,6.38-6.54,8.06a3.19,3.19,0,0,0-.61-.66,11.26,11.26,0,0,0,6.08-7.1h-4.28a12.4,12.4,0,0,1-2.69,3,5.11,5.11,0,0,0-.68-.55,12.17,12.17,0,0,0,3.83-5.21l1.14.32c0,.12-.19.16-.35.16-.24.53-.49,1-.77,1.51h4.22l.14-.07Z"/><path class="cls-1" d="M190.44,38.61a.28.28,0,0,1-.16.12c-1,3.62-3,5.39-6.57,6.38a3.87,3.87,0,0,0-.5-.7c3.26-.82,5.29-2.49,6-5.28h-7.94v-.82h8.3l.12-.07ZM189.32,36h-6.84v-.79h6.84Z"/><path class="cls-1" d="M201.6,36.13a10.72,10.72,0,0,0-1.16-1.27l.42-.34a9.4,9.4,0,0,1,1.54,1.73l-.23.17h.1a.31.31,0,0,1-.17.13c-.92,4.52-3.26,7.22-7.18,8.6a5.29,5.29,0,0,0-.55-.7A9.41,9.41,0,0,0,201.05,37h-7.64v-.82h8l.16-.11Zm1.85-.07A8,8,0,0,0,202,34.34l.44-.35a8.84,8.84,0,0,1,1.5,1.73Z"/><path class="cls-1" d="M215.32,38.72h-4.69c.78,2.87,2.33,5.07,4.88,6a3.15,3.15,0,0,0-.6.76c-2.51-1-4-3.15-4.92-6a8.2,8.2,0,0,1-5,6.06,3.12,3.12,0,0,0-.58-.68,7.6,7.6,0,0,0,4.81-6.1h-4.63V37.9h4.76a31.71,31.71,0,0,0,.16-3.51l1.13.06c0,.11-.11.17-.26.2a29.36,29.36,0,0,1-.17,3.25h5.06Z"/><path class="cls-1" d="M219.84,34.86l.52.31a.27.27,0,0,1-.1.11c-.31.91-.78,2.12-1.19,3.12a3.81,3.81,0,0,1,1.25,2.6c0,1.73-1.06,1.68-2,1.64a1.93,1.93,0,0,0-.2-.71h.52c.47,0,.94,0,.94-1a3.71,3.71,0,0,0-1.26-2.45,25.88,25.88,0,0,0,1-2.87h-1.71V45.5h-.73V34.9h2.82Zm2.1,3.47h4.6l.49.18a.39.39,0,0,1-.08.14,10.23,10.23,0,0,1-1.9,4.47,7.14,7.14,0,0,0,2.57,1.74,3.22,3.22,0,0,0-.55.67,7.75,7.75,0,0,1-2.53-1.82,7.65,7.65,0,0,1-2.65,1.85,3.16,3.16,0,0,0-.48-.67A6.93,6.93,0,0,0,224,43.07a11.12,11.12,0,0,1-1.8-3.73l.68-.17a10,10,0,0,0,1.62,3.3,9,9,0,0,0,1.5-3.4h-4.11c0,2-.34,4.63-1.73,6.44a3,3,0,0,0-.61-.5c1.44-1.86,1.57-4.49,1.57-6.44V35.08h6.32v.74h-5.55Z"/><path class="cls-1" d="M231.12,38.74c.37.46,1.38,1.9,1.61,2.24l-.47.64c-.2-.42-.73-1.27-1.14-1.92v5.79h-.76V39.55a13.33,13.33,0,0,1-1.63,3.63,3.45,3.45,0,0,0-.43-.71,14,14,0,0,0,2-4.73h-1.74V37h1.83V34.36l1,.07c0,.07-.08.13-.24.16V37h1.52v.76h-1.52Zm3.56.82A9.63,9.63,0,0,0,236,42.08a8,8,0,0,0,1.22-2.59l1,.23a.26.26,0,0,1-.26.14,8.94,8.94,0,0,1-1.45,2.83,7.71,7.71,0,0,0,3.09,2.13,3.19,3.19,0,0,0-.56.71,8.54,8.54,0,0,1-3-2.22,9.14,9.14,0,0,1-3.32,2.23,3.41,3.41,0,0,0-.43-.64,8.25,8.25,0,0,0,3.26-2.19,11.43,11.43,0,0,1-1.56-3Zm.6-1.85a.25.25,0,0,1-.23.1,9.56,9.56,0,0,1-2,2.6,4.37,4.37,0,0,0-.56-.49,7.68,7.68,0,0,0,1.91-2.57Zm4.17-1.52v.74h-6.72v-.74h2.91V34.36l1,.07c0,.08-.07.14-.24.17v1.58Zm-.52,4.14a12.3,12.3,0,0,0-2-2.65l.64-.36a12.57,12.57,0,0,1,2.05,2.6Z"/></svg>