<svg xmlns="http://www.w3.org/2000/svg" viewBox="0 0 22 22"><defs><style>.cls-1{fill:#fff}</style></defs><g id="レイヤー_2" data-name="レイヤー 2"><path class="cls-1" d="M11 1a10 10 0 1 0 10 10A10 10 0 0 0 11 1zm0 17.71A7.71 7.71 0 1 1 18.71 11 7.72 7.72 0 0 1 11 18.71z"/><path class="cls-1" d="M13.76 8.76l1.82-2.38h-2.13l-1.58 2.07-.2.25-.67.88-.67-.88-.2-.25-1.58-2.07H6.42l1.82 2.38 1.21 1.57.05.08H6.91v1.07h3.26v1.2H6.91v1.08h3.26v2.78h1.66v-2.78h3.27v-1.08h-3.27v-1.2h3.27v-1.07h-2.6l.05-.08 1.21-1.57z"/></g></svg>