<svg id="レイヤー_1" data-name="レイヤー 1" xmlns="http://www.w3.org/2000/svg" viewBox="0 0 443.09 53"><defs><style>.cls-1{fill:#fff}</style></defs><path class="cls-1" d="M43.65 38.7v1a.39.39 0 00.24-.06.34.34 0 000-.26v-.59a.38.38 0 00-.24-.09zm.18-1.27h-.19v.76h.09c.09 0 .14 0 .17-.06a.77.77 0 000-.37.45.45 0 000-.23.12.12 0 00-.07-.1zm-2.37-14.9l.2 2.56 2.22 1.28-2.37.98-.54 2.51-1.66-1.95-2.56.26 1.35-2.18-1.04-2.35 2.49.6 1.91-1.71z"/><path class="cls-1" d="M43.65 38.7v1a.39.39 0 00.24-.06.34.34 0 000-.26v-.59a.38.38 0 00-.24-.09zm.18-1.27h-.19v.76h.09c.09 0 .14 0 .17-.06a.77.77 0 000-.37.45.45 0 000-.23.12.12 0 00-.07-.1zm-2.37-14.9l.2 2.56 2.22 1.28-2.37.98-.54 2.51-1.66-1.95-2.56.26 1.35-2.18-1.04-2.35 2.49.6 1.91-1.71zM76.74 6.46l-2.92 22h-8.7l-3.31-22h6q1.05 9.1 1.5 15.41.45-6.37.94-11.31l.4-4.1zm6.7 0v22h-5.73v-22zm8.03 0V24.1H95v4.4h-9.26v-22zm17.02 6.64h-5.33v-1.6A3.15 3.15 0 00103 10a.72.72 0 00-.68-.31.89.89 0 00-.78.42 2.55 2.55 0 00-.27 1.28 3.77 3.77 0 00.3 1.66 4.42 4.42 0 001.62 1.35q3.81 2.3 4.81 3.77a8.45 8.45 0 011 4.7 8.25 8.25 0 01-.55 3.47 4.37 4.37 0 01-2.13 1.87 8.61 8.61 0 01-3.68.76 8.29 8.29 0 01-4-.87 4.27 4.27 0 01-2.13-2.22A11.53 11.53 0 0196 22.1v-1.49h5.32v2.68a3.6 3.6 0 00.22 1.59.89.89 0 00.8.35.93.93 0 00.85-.45 2.46 2.46 0 00.28-1.33 4.07 4.07 0 00-.47-2.54 15.84 15.84 0 00-2.68-2 28.37 28.37 0 01-2.83-2.06 5 5 0 01-1.18-1.75 7.92 7.92 0 01-.46-2.89 8.08 8.08 0 01.65-3.7 4.38 4.38 0 012.1-1.83 8.33 8.33 0 013.48-.68 9 9 0 013.8.72A3.93 3.93 0 01108 8.54a9.4 9.4 0 01.51 3.72zm7.18-6.64H120a26.4 26.4 0 015.62.38 4.2 4.2 0 012.18 1.26 3.9 3.9 0 011 1.94 28.07 28.07 0 01.19 4.2V22a17.31 17.31 0 01-.28 4 2.94 2.94 0 01-1 1.57 4.13 4.13 0 01-1.71.79 15.8 15.8 0 01-3.08.22h-7.23zm5.73 3.77v14.5c.83 0 1.34-.17 1.52-.5a7.06 7.06 0 00.29-2.7V13a11.18 11.18 0 00-.1-1.92.91.91 0 00-.44-.62 2.74 2.74 0 00-1.27-.19zM141 6.46l3.28 22h-5.88l-.31-4h-2l-.34 4h-5.92l2.92-22zm-3 14.17c-.29-2.5-.58-5.58-.87-9.26-.58 4.22-.95 7.3-1.1 9.26zm20-14.17v22h-5l-3-10v10h-4.79v-22H150l3.21 9.92V6.46zm15.72 9.64H168v-3.87a6.62 6.62 0 00-.18-2.08.77.77 0 00-.81-.41.85.85 0 00-.9.5 8 8 0 00-.19 2.18v10.23a7.44 7.44 0 00.19 2.1 1 1 0 001.7 0 7.83 7.83 0 00.2-2.31v-2.77h5.73v.86a16.53 16.53 0 01-.48 4.85 5 5 0 01-2.14 2.51A7.36 7.36 0 01167 29a8.56 8.56 0 01-4.15-.91 4.48 4.48 0 01-2.16-2.52 16.88 16.88 0 01-.53-4.85v-6.48a30.37 30.37 0 01.16-3.57 5 5 0 011-2.29 5.49 5.49 0 012.25-1.74 9.17 9.17 0 017.48.35 4.65 4.65 0 012.16 2.44 14.54 14.54 0 01.52 4.55zm2.05-9.64h9.56v4.41h-3.82v4.23h3.58v4.19h-3.58v4.81h4.21v4.4h-9.94zm30.16 0l-3.29 10 3.6 12.09h-5.92L198 19.1v9.4h-5.73v-22H198v8.56l2.55-8.56zm7.07 0v22h-5.73v-22zm14.4 6.64h-5.32v-1.6a3.15 3.15 0 00-.2-1.46.72.72 0 00-.68-.31.89.89 0 00-.78.42 2.55 2.55 0 00-.27 1.28 3.77 3.77 0 00.3 1.66 4.42 4.42 0 001.62 1.35c2.56 1.51 4.16 2.75 4.82 3.73a8.45 8.45 0 011 4.7 8.25 8.25 0 01-.55 3.47 4.37 4.37 0 01-2.13 1.87 8.61 8.61 0 01-3.68.76 8.25 8.25 0 01-3.93-.87 4.27 4.27 0 01-2.13-2.22 11.54 11.54 0 01-.47-3.78v-1.49h5.32v2.68a3.6 3.6 0 00.22 1.59.89.89 0 00.8.35.93.93 0 00.85-.45 2.46 2.46 0 00.28-1.33 4.06 4.06 0 00-.47-2.55 15.84 15.84 0 00-2.68-2 28.37 28.37 0 01-2.83-2.06 5 5 0 01-1.2-1.74 7.92 7.92 0 01-.46-2.89 8.08 8.08 0 01.65-3.7 4.38 4.38 0 012.09-1.83A8.24 8.24 0 01221 6a9 9 0 013.8.72 4 4 0 012.08 1.82 9.4 9.4 0 01.51 3.72zm2.28-6.64H234a26.4 26.4 0 015.62.38 4.2 4.2 0 012.18 1.26 3.9 3.9 0 011 1.94 28.07 28.07 0 01.19 4.2V22a17.31 17.31 0 01-.28 4 2.94 2.94 0 01-1 1.57 4.13 4.13 0 01-1.71.79 15.8 15.8 0 01-3.08.22h-7.23zm5.73 3.77v14.5c.83 0 1.34-.17 1.52-.5a7.06 7.06 0 00.29-2.7V13a11.18 11.18 0 00-.1-1.92.91.91 0 00-.44-.62 2.74 2.74 0 00-1.27-.19zm21.82 2.87h-5.32v-1.6a3.15 3.15 0 00-.2-1.46.72.72 0 00-.68-.31.89.89 0 00-.78.42 2.55 2.55 0 00-.27 1.28 3.77 3.77 0 00.3 1.66 4.42 4.42 0 001.62 1.35c2.56 1.51 4.16 2.75 4.82 3.73a8.45 8.45 0 011 4.7 8.25 8.25 0 01-.55 3.47 4.26 4.26 0 01-2.17 1.87 8.61 8.61 0 01-3.68.76 8.25 8.25 0 01-3.93-.87 4.27 4.27 0 01-2.13-2.22 11.51 11.51 0 01-.5-3.82v-1.45h5.32v2.68a3.6 3.6 0 00.22 1.59.89.89 0 00.8.35.93.93 0 00.85-.45 2.46 2.46 0 00.28-1.33 4.06 4.06 0 00-.53-2.55 15.84 15.84 0 00-2.68-2 28.37 28.37 0 01-2.83-2.06 4.89 4.89 0 01-1.13-1.74 7.92 7.92 0 01-.46-2.89 8.08 8.08 0 01.65-3.7 4.38 4.38 0 012.09-1.83 8.33 8.33 0 013.49-.68 9 9 0 013.8.72 4 4 0 012.08 1.82 9.4 9.4 0 01.51 3.72zm20.57 3h-5.73v-3.87a6.62 6.62 0 00-.18-2.08.77.77 0 00-.81-.41.85.85 0 00-.9.5 8 8 0 00-.19 2.18v10.23a7.44 7.44 0 00.19 2.1 1 1 0 001.7 0 7.83 7.83 0 00.2-2.31v-2.77h5.73v.86a16.53 16.53 0 01-.48 4.85 5 5 0 01-2.14 2.51 7.31 7.31 0 01-4.08 1.11 8.56 8.56 0 01-4.15-.91 4.48 4.48 0 01-2.16-2.52 16.88 16.88 0 01-.53-4.85v-6.48a30.37 30.37 0 01.16-3.57 5 5 0 011-2.29 5.49 5.49 0 012.25-1.74 9.17 9.17 0 017.48.35 4.65 4.65 0 012.16 2.44 14.54 14.54 0 01.52 4.55zm7.78-9.64V24.1h3.48v4.4h-9.22v-22zm17.9 0v14.73a24.4 24.4 0 01-.16 3.52 4.69 4.69 0 01-1 2.08 5 5 0 01-2.12 1.62 8.18 8.18 0 01-3.1.55 8.85 8.85 0 01-3.48-.65 5.34 5.34 0 01-2.26-1.7 4.8 4.8 0 01-.88-2.21c-.09-.78-.14-2.41-.14-4.89v-13h5.73V23a6.68 6.68 0 00.16 1.84.63.63 0 00.63.4.67.67 0 00.7-.44 7.74 7.74 0 00.16-2.09V6.46zm2.22 0h5.72a14.89 14.89 0 014.1.42 4.05 4.05 0 012.25 1.71 7.62 7.62 0 01.86 4.14 4.38 4.38 0 01-.61 2.69 4.17 4.17 0 01-2.39 1.17 4.22 4.22 0 012.7 1.49 5.72 5.72 0 01.71 3.19v2a8 8 0 01-.51 3.31 2.76 2.76 0 01-1.62 1.52 16.67 16.67 0 01-4.57.4h-6.63zm5.73 3.77v4.87h.57q.84 0 1.08-.42a6.54 6.54 0 00.23-2.37 3.74 3.74 0 00-.19-1.45.83.83 0 00-.5-.52 4.36 4.36 0 00-1.2-.1zm0 8.33v6.17a2.44 2.44 0 001.54-.38 2.64 2.64 0 00.33-1.67v-2.06a2.81 2.81 0 00-.3-1.71 2.67 2.67 0 00-1.57-.34zm25.05-11.68v4.24h-3.27V28h-5.5V11.12h-3.25V6.88zm9.69 0L349.31 28h-5.62l-.29-3.8h-2l-.3 3.8h-5.69l2.81-21.15zm-2.92 13.6q-.42-3.59-.83-8.88-.85 6.08-1.06 8.88zm19.84-4.39h-5.5v-3.67a6.55 6.55 0 00-.18-2 .74.74 0 00-.77-.39.82.82 0 00-.87.48 7.46 7.46 0 00-.18 2.09v9.83a7 7 0 00.18 2 .8.8 0 00.83.47.78.78 0 00.8-.47 7.59 7.59 0 00.19-2.22v-2.66h5.5v.83a16.3 16.3 0 01-.46 4.66 4.75 4.75 0 01-2.06 2.4 7 7 0 01-3.91 1 8 8 0 01-4-.88 4.23 4.23 0 01-2.08-2.42 15.91 15.91 0 01-.51-4.66v-6.14a26.34 26.34 0 01.16-3.43 4.75 4.75 0 01.93-2.2 5.22 5.22 0 012.16-1.66 8.81 8.81 0 017.18.33 4.46 4.46 0 012.07 2.34 14.06 14.06 0 01.5 4.36zm14.62-9.21V28h-5.5v-8.85h-1.65V28h-5.5V6.88h5.5v7.57h1.65V6.88zm7.71 0V28h-5.5V6.88zm2.21 0h5.48a14.39 14.39 0 013.94.41 3.88 3.88 0 012.16 1.64 7.31 7.31 0 01.83 4 4.35 4.35 0 01-.58 2.59 4.13 4.13 0 01-2.3 1.12 4.07 4.07 0 012.59 1.36 5.56 5.56 0 01.68 3.07v2a7.7 7.7 0 01-.49 3.17 2.64 2.64 0 01-1.56 1.41A15.75 15.75 0 01394 28h-6.36zm5.5 3.62v4.7h.54c.54 0 .89-.13 1-.4a6.72 6.72 0 00.22-2.28 3.75 3.75 0 00-.18-1.39.94.94 0 00-.48-.5 4.28 4.28 0 00-1.1-.13zm0 8v5.91a2.32 2.32 0 001.48-.36 2.59 2.59 0 00.32-1.61v-2a2.8 2.8 0 00-.29-1.65 2.55 2.55 0 00-1.51-.29zm18.78-11.62L415.05 28h-5.62l-.29-3.8h-2l-.33 3.8h-5.69L404 6.88zM409 20.48q-.4-3.59-.83-8.88c-.56 4.05-.92 7-1.06 8.88zm19.27-13.6V28h-4.82l-2.86-9.61V28H416V6.88h4.6l3.08 9.53V6.88zm11.73 0L443.13 28h-5.62l-.3-3.8h-2l-.33 3.8h-5.69L432 6.88zm-2.91 13.6q-.42-3.59-.84-8.88-.84 6.08-1.05 8.88zM64.4 40.49a14.49 14.49 0 005.6-2.3l.61.82-.52.25a18.6 18.6 0 01-5.72 2v2c0 .84 0 1.12.25 1.32a1.45 1.45 0 00.92.31 12 12 0 001.41.07 23.85 23.85 0 002.75-.19 5.86 5.86 0 001.18-.24l.08 1a2.71 2.71 0 00-.4 0h-.16l-.57.06c-.77.08-2.35.17-3.18.17a4.44 4.44 0 01-2.65-.5 1.63 1.63 0 01-.49-1.16v-6.46a6.16 6.16 0 00-.05-1h1a6.12 6.12 0 00-.06 1zm6-4.46a9.13 9.13 0 011.24 1.86l-.6.36a9.27 9.27 0 00-1.24-1.91zm1.36-.66A10.7 10.7 0 0173 37.24l-.62.34a8.84 8.84 0 00-1.22-1.88zm5.96 1.36a8.21 8.21 0 00-.07 1c-.09 3.25-.19 4.14-.65 5.35a7.26 7.26 0 01-2.07 3 2.27 2.27 0 00-.72-.65 6 6 0 002-2.76 16.36 16.36 0 00.54-5.14 6 6 0 000-.85zm3-.13a4.59 4.59 0 00-.07 1l-.08 7.25a5.54 5.54 0 002.23-1.4 5.93 5.93 0 001.42-2.39 3.37 3.37 0 00.67.69 6.79 6.79 0 01-2.41 3.08 8.29 8.29 0 01-1.71.88l-.39.14a1.67 1.67 0 00-.27.14l-.48-.56a2.06 2.06 0 00.08-.81l.07-7a4.66 4.66 0 00-.05-1.07zm14.4 9.4a24.45 24.45 0 00-3.84-3.71 14.18 14.18 0 01-4.64 3.6 2.31 2.31 0 00-.59-.79 12 12 0 004-2.72 13.12 13.12 0 002.73-4.07c0-.08 0-.11.1-.24h-.29l-4 .06a7.54 7.54 0 00-1.23.08v-1a5.49 5.49 0 001 .06h.31l4.26-.05a2.48 2.48 0 00.65-.06l.53.63a3.19 3.19 0 00-.23.45 14.5 14.5 0 01-2 3.35 28.33 28.33 0 014 3.58zm-.69-10a9.44 9.44 0 011.23 1.85l-.61.36a8.53 8.53 0 00-1.22-1.9zm1.35-.66A9.79 9.79 0 0197 37.2l-.6.33a9.76 9.76 0 00-1.23-1.88zm6.75.84a2.15 2.15 0 00-.18.3 4.94 4.94 0 00-.24.5c-.12.23-.25.46-.37.66h3.33a4.52 4.52 0 00.73 0l.7.77-.06.17-.06.17-.06.18c-1.51 4-3.3 5.92-6.91 7.6a1.9 1.9 0 00-.59-.74 10.78 10.78 0 004.56-3.22 15.38 15.38 0 00-2.69-1.93l.55-.61a16.39 16.39 0 012.66 1.86 15.12 15.12 0 001.66-3.48l-4.2.05a12.33 12.33 0 01-2.85 3.2 2.09 2.09 0 00-.7-.58 10.45 10.45 0 003.06-3.43 5.94 5.94 0 00.71-1.63zm3.82-.21a8.29 8.29 0 011.23 1.81l-.6.36a8.08 8.08 0 00-1.23-1.84zm1.35-.67a9.11 9.11 0 011.23 1.82l-.6.35a7.78 7.78 0 00-1.22-1.83zm3.11 9.46a10.19 10.19 0 003.49-.92 9 9 0 004.89-5.34 2.58 2.58 0 00.73.71 10.43 10.43 0 01-3.65 4.58 12.17 12.17 0 01-4.48 1.79c-.32.07-.42.1-.72.19zm.77-7.43a15.77 15.77 0 012.89 2.25l-.63.75A12.92 12.92 0 00111 38zm19.04 8.59a22.39 22.39 0 00-3.84-3.71 13.33 13.33 0 01-2.29 2.15 15.93 15.93 0 01-2.35 1.44 2.68 2.68 0 00-.59-.8 9.39 9.39 0 002.45-1.38 13 13 0 004.29-5.4.52.52 0 01.06-.15.26.26 0 000-.08h-.29l-4 .06a7.84 7.84 0 00-1.24.1v-1a5.42 5.42 0 001 .06h4.59a2.54 2.54 0 00.77-.1l.5.52a2.07 2.07 0 00-.33.58 14.81 14.81 0 01-2 3.36 30.18 30.18 0 014 3.6zm6.38-8.6a4.14 4.14 0 00-.27-1l.95-.16a6.51 6.51 0 00.13 1l.24 1.32 2.71-.42a5.14 5.14 0 001.06-.24l.17.86-1.07.16-2.72.42.45 2.42 3-.48a7.57 7.57 0 001.18-.27l.17.88-.53.06-.37.06h-.27l-3 .48.49 2.65a5.76 5.76 0 00.26 1.14l-1 .18a10 10 0 00-.14-1.15l-.49-2.69-3.22.52a6.67 6.67 0 00-1.15.24l-.16-.91a6.66 6.66 0 001.19-.11l3.19-.52-.43-2.42-2.47.39a8.63 8.63 0 00-1.2.26l-.17-.91a9.28 9.28 0 001.25-.12l2.45-.39zm9.47 1.9a12.87 12.87 0 011.19 2.67l-.81.27a10.22 10.22 0 00-1.13-2.69zm6.77-.07a8.19 8.19 0 00-.27 1 10.74 10.74 0 01-1.05 2.69 8.71 8.71 0 01-4 3.47 2.7 2.7 0 00-.55-.68 7.69 7.69 0 003.8-3.13 9.21 9.21 0 001-2.58 5.39 5.39 0 00.13-.81V39zm-4.32-.41a11.71 11.71 0 011.16 2.58l-.79.28a10.55 10.55 0 00-1.1-2.63zM163.93 46a24.45 24.45 0 00-3.84-3.71 14.18 14.18 0 01-4.64 3.6 2.31 2.31 0 00-.59-.79 12 12 0 004-2.72 13.12 13.12 0 002.73-4.07c0-.08 0-.11.1-.24h-.29l-4 .06a7.54 7.54 0 00-1.23.08v-1a5.49 5.49 0 00.95.06h.31l4.26-.05a2.48 2.48 0 00.65-.06l.52.63a4.66 4.66 0 00-.22.45 14.5 14.5 0 01-2 3.35 28.89 28.89 0 014 3.58zm-.7-10a9.07 9.07 0 011.24 1.85l-.61.36a8.9 8.9 0 00-1.22-1.9zm1.36-.66a9.79 9.79 0 011.24 1.87l-.6.33a9.76 9.76 0 00-1.23-1.89zm7.03.95a2.65 2.65 0 00-.26.49 11.37 11.37 0 01-.55 1.06c.15 0 .15 0 3.62-.09.42 0 .46 0 .62-.09l.52.51c-.11.14-.11.15-.24.59a12.53 12.53 0 01-2.4 4.5 11.68 11.68 0 01-4.17 3 1.84 1.84 0 00-.6-.7 10.25 10.25 0 004.23-3 11 11 0 002.06-4l-4 .08a11.53 11.53 0 01-2.86 3.11 1.87 1.87 0 00-.68-.62 8.84 8.84 0 003-3.29 5.51 5.51 0 00.75-1.75zm6.8 3.22a8.61 8.61 0 001.4.07H186a2 2 0 00.77-.08l.45.51a3.7 3.7 0 00-.34.76c-1 2.79-2.67 4.33-5.78 5.37a2.63 2.63 0 00-.51-.82 8.29 8.29 0 003.56-1.83 7.35 7.35 0 001.94-3.14h-6.26a10.72 10.72 0 00-1.39.06zm1-2.78a5.71 5.71 0 001.26.08h4a5.71 5.71 0 001.26-.08v.92a7.87 7.87 0 00-1.25-.06h-4a7.72 7.72 0 00-1.25.06zm18.83 1.64a2.2 2.2 0 00-.25.75 10 10 0 01-2.94 5 11.09 11.09 0 01-3.77 2.26 2.4 2.4 0 00-.58-.83 9.66 9.66 0 004.39-2.72 9.78 9.78 0 002.09-4.27h-6.1a8.65 8.65 0 00-1.34.07v-1a8.43 8.43 0 001.35.07h6.5a8.34 8.34 0 00-1.12-1.63l.6-.31a8.78 8.78 0 011.29 1.92l-.44.26zm.37-3a10.69 10.69 0 011.26 1.84l-.61.36a8.83 8.83 0 00-1.27-1.91zm8.81 9.79a25.15 25.15 0 002-5.95l.92.31a13.74 13.74 0 00-.48 1.45 31.43 31.43 0 01-1.61 4.19h2.77a9.51 9.51 0 001.32-.07V46a7.93 7.93 0 00-1.32-.08h-8a8.66 8.66 0 00-1.38.08v-.91a10.39 10.39 0 001.38.07zm-.9-8.24a5.55 5.55 0 00-.08-1h1a5.47 5.47 0 00-.09 1v1h3.2a8.58 8.58 0 001.38-.08v.9a10.59 10.59 0 00-1.38-.07h-7a10.13 10.13 0 00-1.34.07v-.9a7.82 7.82 0 001.34.08h3zm-2 2.42a27.84 27.84 0 011.3 4.74l-.78.3a22.93 22.93 0 00-1.31-4.75zm12.19 3.72v-1.38a7.45 7.45 0 01-1.9 1.75 2 2 0 00-.45-.66 8.44 8.44 0 002.72-2.61 4.43 4.43 0 00.6-1.19l.75.36-.3.5a12.37 12.37 0 01-.68 1.06v4.39c0 .47 0 .85.07 1.33h-.92a9.87 9.87 0 00.07-1.33zm1-6.27a4.71 4.71 0 00-.08-.85h.88a4.6 4.6 0 00-.06.85v.38h2.87v-.38a4.71 4.71 0 00-.08-.85h.88a4.6 4.6 0 00-.06.85v.38h1.86a9.15 9.15 0 001.35-.07v.83a9.45 9.45 0 00-1.35-.06h-1.86v1.07h-.82a6.53 6.53 0 000-.78v-.29h-2.87v.99h-.82c0-.24.05-.49.05-.78v-.21H216a9.14 9.14 0 00-1.33.06v-.83a8.85 8.85 0 001.33.07h1.67zm3.2 8.49c0 .36.18.41 1.53.41 1.15 0 1.49 0 1.68-.23s.28-.71.35-1.92a2.13 2.13 0 00.77.38c-.2 1.48-.29 1.84-.58 2.1s-.79.38-2.39.38c-1.85 0-2.13-.14-2.13-1v-5a8.18 8.18 0 00-.07-1.22h.9a8.24 8.24 0 00-.06 1.2v1.7a10.36 10.36 0 003.21-2.21l.64.6c-.16.11-.18.12-.46.34a19.08 19.08 0 01-3.39 2zm9.22-6.38a5.41 5.41 0 001.29 2 3.14 3.14 0 00-.42.63 6 6 0 01-.94-1.71v5.55a7.88 7.88 0 00.08 1.39h-.89a9.69 9.69 0 00.07-1.39V42c0-.53 0-.86.06-1.88a9.9 9.9 0 01-1.62 3.63 3.08 3.08 0 00-.48-.7 10.86 10.86 0 001.93-4.13h-.69a5.36 5.36 0 00-.87.05v-.77a5.13 5.13 0 00.88 0h.79V37a7.07 7.07 0 00-.06-1.25h.86a9 9 0 00-.06 1.24v1.22h.6a4.17 4.17 0 00.78 0v.74a6.12 6.12 0 00-.76 0zm6.41 2.28l-.4.84a10.69 10.69 0 01-1.06 1.83 6.77 6.77 0 001.21 1.06 8.21 8.21 0 002.2 1.09 3.12 3.12 0 00-.45.74 8.14 8.14 0 01-3.42-2.3 8.42 8.42 0 01-3.35 2.32 2.52 2.52 0 00-.47-.67 7.51 7.51 0 003.37-2.21 12 12 0 01-1.18-2.16 1.68 1.68 0 00-.12-.27l-.09-.19.73-.35a7.39 7.39 0 001.12 2.35 7.22 7.22 0 001.17-2.42zm-2.65-2.26a8.77 8.77 0 01-2.1 2.91 2.23 2.23 0 00-.51-.57 6.17 6.17 0 001.94-2.65zm.39-2a4.88 4.88 0 00-.08-1h.91a4.69 4.69 0 00-.08.94v.66h2c.48 0 .91 0 1.24-.06v.8c-.35 0-.78-.06-1.24-.06h-4.2a10.29 10.29 0 00-1.24.07v-.77a9.91 9.91 0 001.24.07h1.41zm1.76 1.64a7.61 7.61 0 002.21 2.44 3 3 0 00-.47.66 9.08 9.08 0 01-2.36-2.76zM17.48 1.92h.28l-.12.67v.54l-.06.24a.42.42 0 01-.06.14v.13l-.24.36v.31a.59.59 0 00-.09.34 2.55 2.55 0 00-.12.44v.17l-.19.84a2 2 0 01-.08.3l-.08.41V7l-.13.38v.1l-.08.2v.14l-.08.2v.34l-.12.56a3.59 3.59 0 01-.21.78v.21l-.08.36-.12.44-.12.51c-.08.34-.14.61-.17.8v.17a2.5 2.5 0 01-.16.55v.57l-.08.26a6.74 6.74 0 00-.16.82.61.61 0 00-.08.3.52.52 0 00-.09.23 2.18 2.18 0 00-.08.44l-.08.27v.24l-.29 1-.12.54v.27l-.28 1.11v.24s-.06.1-.09.24a3.71 3.71 0 01-.2.8 1.13 1.13 0 01-.08.38v.1a1.54 1.54 0 00-.12.47.12.12 0 01-.11-.07l-.25-.37v-.1l-.16-.24v-.1l-.2-.31a.29.29 0 01-.09-.13.6.6 0 01-.08-.13l-.45-.74a3.11 3.11 0 01-.28-.41l-.8-1.31v-.1l-.17-.24v-.1L10 16l-.12-.2-.41-.68-.13-.12-.11-.19-.12-.2-.11-.26-.12-.2-.14-.15-.57-.87-.08-.17a3.48 3.48 0 00-.2-.31L7.52 12l-.08-.1a4.08 4.08 0 01-.31-.57.26.26 0 01-.08-.13l-.45-.68-.12-.24a1.31 1.31 0 01-.25-.4L6 9.6l-.1-.23-1-1.62a1.43 1.43 0 00-.16-.27v-.1l-.17-.24A.51.51 0 014.45 7L4 6.23 3.84 6a1 1 0 01-.2-.34l-.23-.36A3.49 3.49 0 013 4.58l1-.13h.33l.69-.1h.25l.55-.07h.33L7.09 4h.62A1.87 1.87 0 008 3.9a1.5 1.5 0 01.2.44l.37.92a1.26 1.26 0 01.2.46l.41.92a5.59 5.59 0 00.27.67l.13.37a1.39 1.39 0 01.2.44 3.49 3.49 0 01.28.7l1.3 3a3.67 3.67 0 00.32.78l.08.28.13.23.2.47v-1a2.17 2.17 0 000-.47v-1a3 3 0 000-.54V6.84a5 5 0 000-1.29 2 2 0 000-.46v-.78l.3-.31V2.9a5.54 5.54 0 00.61-.14l.43-.07a2.84 2.84 0 00.45-.1l.57-.1a4.58 4.58 0 00.68-.14h.12l.25-.06h.65A7.49 7.49 0 0117 2zm-.33 3.6l4.53-.73a2.7 2.7 0 010 .92V7.3l-.07 1.12a3 3 0 010 .33.67.67 0 000 .2 1.65 1.65 0 000 .56v.06l-.11 2.34v.15l-.05.69v2.18a1 1 0 010 .41v.55a5.76 5.76 0 010 .79v.46l-.05.31v.16a2.16 2.16 0 010 .46l-.06.94v1.24l-.06.78v.22a.57.57 0 01-.54 0l-.78-.15h-.13l-.74-.1-.27-1.75v-.15l-.07-.45a4.65 4.65 0 01-.05-.65l-.12-.75v-.15l-.14-.82a1 1 0 000-.24l-.1-.66a.72.72 0 000-.25l-.07-.44c0-.16-.05-.37-.07-.62v-.3a.91.91 0 010-.42l-.2-.81v-.46a2.51 2.51 0 01-.08-.67l-.13-.86v-.1l-.14-.91v-.06l-.11-.78v-.22l-.13-.84v-.1l-.13-.87v-.09l-.13-.82zm5.63-2.91l.84-.21h.22l.28-.08h.12l.42-.1h.14a1.16 1.16 0 01.4-.06l.87-.16h.18a1.25 1.25 0 01.45-.08l.91-.19h.05l.34-.12.45-.08a2.74 2.74 0 01-.09 1v.08L28.3 3q0 .1-.06.3l-.07.56a1.06 1.06 0 010 .21l-.28 2v.61l-.05.21-.18 1.42v.65l-.3 1.92v.25a2.08 2.08 0 01-.05.4v.63l-.17 1.28v.26l-.56 1.3v.63a.72.72 0 00-.06.36v.43l-.09.57a2.17 2.17 0 01-.05.4v.13l-.06.3a2.44 2.44 0 00.81-.35l.28-.11.32-.14a.77.77 0 01.19-.08l.6-.25a.9.9 0 01.34-.16l.17-.08.46-.21.16-.08.16-.07.54-.24.08.74a5 5 0 01.06.66v.31l.16 1.3-.81.24-.05.05-1.14.31-.1.06-.51.12-.11.07-.41.1-.11.06-.4.1-.18.08-1.56.47-.18.07-1.21.3L22.8 2.88z"/><path class="cls-1" d="M32.06 6.7l1.64-.54a4 4 0 014 .81l.06.19a2.61 2.61 0 01-.2.32l-.08.16a1.46 1.46 0 00-.15.25 1 1 0 00-.18.28l-.31.51a5 5 0 01-.31.48v.07L36 9.16a1.9 1.9 0 00-.37 0h-.83L34 9.1h-.19a2.14 2.14 0 00-1.18 1.13c-.18 1.09.69 2 2.6 2.63a3 3 0 00.36.19l.11.05.37.18h.09l.19.1q3.81 2.08 1.9 5.83a4.49 4.49 0 01-2.62 1.87 7.1 7.1 0 01-5.19-.41.4.4 0 01-.17-.17l.1-.45v-.15l.08-.28v-.07l.11-.43V19a.88.88 0 00.07-.36l.16-.69c2.1 1.62 4 1.45 5.67-.51a1.92 1.92 0 00.2-.57v-.06a1.52 1.52 0 00-.74-1 5 5 0 00-.72-.33l-.37-.12-.15-.06a5.55 5.55 0 01-5-3.87 3.08 3.08 0 01-.19-.77v-.1a4.3 4.3 0 012.57-3.86zM10.48 20.92h2.15a1.73 1.73 0 01.54 0 2.54 2.54 0 01.59.05h.83l.51.13h.16l1 .35a.76.76 0 00.19.11l.49.25.15.1h.06l.16.11h.05l.7.65.35.5.09.11.27.65a7.6 7.6 0 01-2.4 8.34l-.78.61-.05.06-.19.11-.11.08-.75.45a.82.82 0 01-.25.14.7.7 0 01-.23.13l-.08.06-.28.13h-.08l-.57.56-.22.08-.3.14A2.82 2.82 0 0012 35a1.25 1.25 0 01-.27.08l-.67.24-.19.06h-.41a1.18 1.18 0 01-.37.11h-.11l-.48.11a.52.52 0 01-.35 0L9 35.17v-.41l-.11-.56v-.52a1.16 1.16 0 01-.07-.24 1 1 0 010-.19h1.51V31a.59.59 0 000-.32V30a.16.16 0 010-.11v-5.67a1.06 1.06 0 00-.4 0 1.13 1.13 0 00-.46 0H7.23L7 24v-.86c0-.15 0-.29-.06-.4V21.4l.33-.06h.23l.46-.08a.78.78 0 00.27-.06.44.44 0 00.19 0h.1l.6-.08h.34l1-.08zm5.59 5.73A3.7 3.7 0 0012.36 24a.17.17 0 00-.16.13v8.27a1.13 1.13 0 00.32 0h.14l.3-.08q3.71-1.43 3.11-5.67zm11.28-6.58h.06l.27.69v.1l.87 2.34a.46.46 0 01.06.16l.25.61v.2l-.37.43a.53.53 0 00-.15.17l-.42.52-.09.11-.09.11a3 3 0 00-.42.5l-.3.35a1.82 1.82 0 01-.24.27l-.49.62-.08.1-1.15 1.43a2.29 2.29 0 01.27.31l.24.24v.06a1.82 1.82 0 01.24.27 2.36 2.36 0 01.39.44l.15.17.12.11a1.26 1.26 0 01.18.21l.25.28.11.11.31.36.26.3.15.17.07.05a3.33 3.33 0 01.36.41l.21.23a2.85 2.85 0 01-.39.55l.02.05-.09.14a1.3 1.3 0 00-.15.16l-.57.71-.15.2-.1.11-.11.08a2.5 2.5 0 01-.28-.39l-.14-.19-.15-.22-.26-.3v-.11l-.39-.55v-.05l-.87-1.24-.06-.06-.15-.22-.34-.46-.19-.17-.15-.19a2.16 2.16 0 000 .77v.39a.62.62 0 010 .21v1.08a2.11 2.11 0 010 .38v.61a.88.88 0 000 .35v1.13l-.63.33-.06.06-.72.38-.15.11h-.09l-.45.28h-.15l-.1-.62-.05-.18v-.33a3.42 3.42 0 00-.09-.53 1.51 1.51 0 00-.1-.44v-.44a4.67 4.67 0 01-.11-.63v-.17l-.08-.41a.92.92 0 00-.07-.3v-.22c0-.14 0-.25-.05-.31a1.55 1.55 0 000-.21l-.06-.22a1 1 0 010-.28v-.27a1.18 1.18 0 00-.05-.31v-.1a2.58 2.58 0 01-.1-.5v-.08l-.15-.86a1.82 1.82 0 01-.08-.46c0-.13 0-.22-.05-.29a1.46 1.46 0 00-.05-.2l-.18-.91v-.22l-.09-.47-.09-.42a1.48 1.48 0 010-.27v-.35q0-.16-.06-.27a.75.75 0 010-.23.83.83 0 01-.06-.28V24a1.43 1.43 0 01-.06-.34 2.4 2.4 0 01-.09-.49v-.09l-.06-.37v-.09l-.09-.6-.06-.2v-.3a2.29 2.29 0 01.45-.08l.51-.09a4.58 4.58 0 00.47-.06 2.86 2.86 0 01.5-.07l1.08-.17h.21a.51.51 0 00.21 0 1.39 1.39 0 00.33-.05h.54v.82a2.34 2.34 0 010 .39l.06 1.57a2.91 2.91 0 010 .68v1.3a1.55 1.55 0 010 .33v.14l.83-1.4.08-.1a1.09 1.09 0 00.08-.15l.2-.37.16-.24.51-.8.09-.16.45-.74.09-.14.46-.71.06-.11.17-.28a.92.92 0 00.15-.28l.34-.49z"/><path class="cls-1" d="M33.43 21.2l.6-.09a3.86 3.86 0 011.78.08.26.26 0 01.13.22 2.65 2.65 0 00-.18.61v.22l-.05.19-.19.7a3 3 0 00-.15.5l-.19.72a5.44 5.44 0 00-4.41 4.33 5.28 5.28 0 001.8 4.64c1.15.67 2.21-.19 3.19-2.6l.21.38.07.07.89 1.61.06.1.01.12.21.38.07.07.18.34a5.75 5.75 0 01-4.28 2.77 4.75 4.75 0 01-4.8-2.39l-.1-.14-.28-.74a10 10 0 01.29-6.1 10 10 0 013.88-5.4l.69-.37.33-.13a.83.83 0 00.24-.09zM14.89 38.73a.44.44 0 00-.19 0v2.13c.12 0 .19 0 .22-.07a1.05 1.05 0 000-.4V39.1a1.8 1.8 0 000-.28.15.15 0 00-.03-.09zm1.95 1.5h.29c0-.37-.09-.82-.13-1.36-.08.62-.14 1.07-.16 1.36zm23.68-.3v.9a.39.39 0 00.23 0 .44.44 0 000-.25v-.55a.35.35 0 00-.23-.1zm-10.99-1.2a.41.41 0 00-.19 0v2.13c.12 0 .2 0 .23-.07a1.33 1.33 0 000-.4V39.1a1.43 1.43 0 000-.28.15.15 0 00-.04-.09zm11.16-.01a.54.54 0 00-.17 0v.72h.08c.09 0 .14 0 .16-.06a1 1 0 000-.35.51.51 0 000-.21s-.03-.09-.07-.1z"/><path class="cls-1" d="M4.81 36.94v5.76h37.6v-5.76zm2.89 4.45H6.42l-.49-3.24h.89c.11.89.18 1.64.22 2.26 0-.62.09-1.18.14-1.66l.06-.6h.89zm1.41 0h-.84v-3.24h.84zm1.7 0H9.45v-3.24h.85v2.59h.51zm2-.32a.63.63 0 01-.32.27 1.13 1.13 0 01-.54.12 1.26 1.26 0 01-.57-.13A.68.68 0 0111 41a1.66 1.66 0 01-.07-.56v-.21h.78v.39a.53.53 0 000 .23.14.14 0 00.12.06.16.16 0 00.13-.07.46.46 0 000-.2.61.61 0 00-.08-.37 2 2 0 00-.4-.29 3.73 3.73 0 01-.41-.31.62.62 0 01-.17-.26 1.22 1.22 0 01-.07-.42 1.12 1.12 0 01.1-.55.67.67 0 01.3-.27 1.58 1.58 0 011.08 0 .62.62 0 01.3.27 1.41 1.41 0 01.08.55v.13H12v-.46c0-.03-.05 0-.1 0a.13.13 0 00-.11.06.32.32 0 000 .19.48.48 0 000 .24c0 .06.1.12.23.2a2.38 2.38 0 01.71.55 1.22 1.22 0 01.15.69 1.29 1.29 0 01-.09.48zm3-.65a2.41 2.41 0 01-.05.59.39.39 0 01-.14.23.64.64 0 01-.25.11 1.72 1.72 0 01-.45 0h-1.07v-3.2h.64a4.65 4.65 0 01.82.05.67.67 0 01.33.19.62.62 0 01.14.28 4.09 4.09 0 010 .62zm1.39 1l-.05-.59h-.3l-.05.59h-.87l.43-3.24h1.22l.48 3.24zm2.88 0h-.73l-.44-1.48v1.48h-.71v-3.27h.71l.47 1.45v-1.45h.7zm2.31-1.83h-.84V39a.88.88 0 000-.3.12.12 0 00-.12-.06c-.07 0-.11 0-.13.07a1.08 1.08 0 000 .32v1.51a.92.92 0 000 .3.12.12 0 00.12.08.13.13 0 00.13-.08 1.07 1.07 0 000-.33v-.41h.84v.12a2.44 2.44 0 01-.07.72.74.74 0 01-.32.37 1.11 1.11 0 01-.6.16 1.25 1.25 0 01-.61-.14.62.62 0 01-.31-.37 2.19 2.19 0 01-.08-.71v-1.53a.87.87 0 01.14-.33.76.76 0 01.34-.26 1.21 1.21 0 01.48-.09 1.22 1.22 0 01.61.14.68.68 0 01.32.36 2.16 2.16 0 01.08.67zm1.76 1.83h-1.46v-3.27h1.41v.64h-.57v.62h.53V40h-.53v.71h.62zm2.15 0L26 40v1.39h-.84v-3.24H26v1.26l.38-1.26h.79l-.49 1.46.53 1.78zm1.86 0h-.84v-3.27h.84zm2.29-1a2.58 2.58 0 010 .59.53.53 0 01-.14.23.68.68 0 01-.26.11 1.72 1.72 0 01-.45 0h-1.1v-3.2h.63a4.57 4.57 0 01.82.05.59.59 0 01.33.19.53.53 0 01.14.28 4.09 4.09 0 010 .62zm2.09.65a.63.63 0 01-.32.27 1.13 1.13 0 01-.54.12 1.26 1.26 0 01-.57-.13.68.68 0 01-.32-.33 1.66 1.66 0 01-.07-.56v-.21h.78v.39a.38.38 0 000 .23.11.11 0 00.11.06.16.16 0 00.13-.07.46.46 0 000-.2.61.61 0 00-.08-.37 1.87 1.87 0 00-.39-.29 3.23 3.23 0 01-.42-.31.73.73 0 01-.17-.26 1.22 1.22 0 01-.07-.42 1.25 1.25 0 01.1-.55.64.64 0 01.31-.27 1.29 1.29 0 01.51-.09 1.37 1.37 0 01.56.1.62.62 0 01.3.27 1.41 1.41 0 01.08.55v.13h-.78v-.24a.48.48 0 000-.22.12.12 0 00-.1 0 .14.14 0 00-.12.06.41.41 0 000 .19.48.48 0 00.05.24c0 .06.1.12.23.2a2.25 2.25 0 01.71.55 1.22 1.22 0 01.15.69 1.29 1.29 0 01-.07.47zm3-1.51h-.84V39a.88.88 0 000-.3s-.05-.06-.12-.06a.13.13 0 00-.13.07 1.08 1.08 0 000 .32v1.51a.92.92 0 000 .3.13.13 0 00.13.08.12.12 0 00.12-.08 1.07 1.07 0 000-.33v-.41h.84v.12a2.44 2.44 0 01-.07.72.77.77 0 01-.31.37 1.11 1.11 0 01-.6.16 1.22 1.22 0 01-.61-.14.64.64 0 01-.32-.37 2.51 2.51 0 01-.08-.71v-1a3.51 3.51 0 010-.53.64.64 0 01.14-.33.78.78 0 01.33-.26 1.22 1.22 0 01.49-.09 1.25 1.25 0 01.61.14.73.73 0 01.32.36 2.23 2.23 0 01.07.67zm1.66 1.83h-1.32v-3.24h.84v2.59h.51zm2.12-1.08v.52a.93.93 0 01-.14.31.75.75 0 01-.32.23 1.06 1.06 0 01-.45.09 1.29 1.29 0 01-.51-.1.82.82 0 01-.34-.25.79.79 0 01-.13-.33v-2.63h.85v2.43a.83.83 0 000 .27.09.09 0 00.09.06.11.11 0 00.11-.07 1.59 1.59 0 000-.31v-2.38h.84zm2.29.32a1.16 1.16 0 01-.08.48.4.4 0 01-.24.22 2.31 2.31 0 01-.67.06h-1v-3.24h.84a2.3 2.3 0 01.6.06.55.55 0 01.33.25 1.08 1.08 0 01.13.61.62.62 0 01-.09.39.6.6 0 01-.35.18.55.55 0 01.39.22.81.81 0 01.11.47zm-3.16-16l.19 2.42 2.1 1.22-2.25.92-.5 2.38-1.58-1.85-2.41.25 1.27-2.07-.99-2.22 2.36.57 1.81-1.62zm-27.3 21.02v1.14h-.88v4.56H8.79v-4.56h-.88v-1.14zm2.62 0l.84 5.7H13.1l-.08-1h-.53l-.09 1h-1.53l.75-5.7zM13 49.31c-.07-.64-.15-1.44-.22-2.39-.16 1.09-.25 1.89-.29 2.39zm5.33-1.18h-1.48v-1a1.79 1.79 0 00-.05-.54.21.21 0 00-.21-.11c-.12 0-.2 0-.23.13a1.76 1.76 0 00-.05.56v2.65a1.68 1.68 0 00.05.55c0 .08.1.12.22.12a.2.2 0 00.21-.12 1.84 1.84 0 00.06-.6v-.72h1.48v.22a4.16 4.16 0 01-.13 1.26 1.24 1.24 0 01-.55.65 1.93 1.93 0 01-1 .28 2.16 2.16 0 01-1.08-.24 1.14 1.14 0 01-.56-.65 4.36 4.36 0 01-.14-1.26v-1.65a6.93 6.93 0 010-.93 1.22 1.22 0 01.25-.59 1.4 1.4 0 01.58-.45 2.08 2.08 0 01.85-.16 2.06 2.06 0 011.08.25 1.16 1.16 0 01.56.63 3.72 3.72 0 01.14 1.18zm3.94-2.48v5.7h-1.48V49h-.45v2.4h-1.48v-5.7h1.48v2h.45v-2zm2.08 0v5.7h-1.49v-5.7zm.59 0h1.48a3.6 3.6 0 011.06.11 1.07 1.07 0 01.59.44 2.06 2.06 0 01.22 1.07 1.15 1.15 0 01-.16.7 1.08 1.08 0 01-.62.3 1.09 1.09 0 01.7.38 1.53 1.53 0 01.18.83V50a2 2 0 01-.13.85.73.73 0 01-.42.39 4.71 4.71 0 01-1.18.1h-1.72zm1.49 1v1.27h.14c.15 0 .24 0 .28-.11a1.78 1.78 0 00.06-.62 1 1 0 00-.05-.37.23.23 0 00-.13-.14 1 1 0 00-.3-.06zm0 2.16v1.59a.61.61 0 00.39-.1.66.66 0 00.09-.43v-.53c0-.25 0-.39-.08-.45a.64.64 0 00-.4-.11zm5.06-3.16l.85 5.7h-1.52l-.08-1h-.53l-.09 1h-1.53l.76-5.7zm-.79 3.66c-.07-.64-.15-1.44-.22-2.39-.15 1.09-.25 1.89-.29 2.39zm5.2-3.66v5.7h-1.3l-.77-2.59v2.59h-1.24v-5.7h1.24l.83 2.56v-2.56zm3.16 0l.84 5.7h-1.51l-.08-1h-.53l-.09 1h-1.53l.75-5.7zm-.79 3.66c-.07-.64-.15-1.44-.22-2.39-.16 1.09-.25 1.89-.29 2.39z"/></svg>