<svg id="レイヤー_1" data-name="レイヤー 1" xmlns="http://www.w3.org/2000/svg" width="60" height="60" viewBox="0 0 60 60"><defs><style>.cls-1{fill:#86a928;}.cls-2{fill:#fff;}</style></defs><title>new</title><circle class="cls-1" cx="30" cy="30" r="30"/><path class="cls-2" d="M20.67,37h-3l-3.39-7.21c-.81-1.74-1.37-3-2-4.61h-.25c.09,1.66.13,3.32.13,5V37H10V23h3.66l2.9,6.2A42.13,42.13,0,0,1,18.36,34h.26c-.11-1.71-.18-3.24-.18-5.12V23h2.23Z"/><path class="cls-2" d="M33.23,24.94H26.44v3.69h5.13v1.93H26.44v4.5h6.94V37H24V23h9.22Z"/><path class="cls-2" d="M47.25,37h-3l-1.21-6.5c-.34-1.88-.52-3.42-.78-5.24H42c-.25,1.83-.45,3.38-.77,5.16L40.12,37h-3L34.42,23h2.46l1,6.38c.25,1.71.49,3.4.7,5.18h.26c.25-1.74.43-3.45.73-5.13L40.72,23h3.11L45,29.66c.27,1.58.49,3.06.69,4.91h.25c.27-1.87.43-3.29.7-5L47.72,23h2.33Z"/></svg>